<svg width="1302" height="111" viewBox="0 0 1302 111" fill="none" xmlns="http://www.w3.org/2000/svg">
<rect y="0.503906" width="300" height="12" rx="6" fill="#1CB954"/>
<path d="M3.87 54.1439V59.5039H1.94V45.1739H6.17C7.07667 45.1739 7.86333 45.2806 8.53 45.4939C9.20333 45.7006 9.76 45.9972 10.2 46.3839C10.64 46.7706 10.9667 47.2372 11.18 47.7839C11.4 48.3306 11.51 48.9406 11.51 49.6139C11.51 50.2806 11.3933 50.8906 11.16 51.4439C10.9267 51.9972 10.5833 52.4739 10.13 52.8739C9.68333 53.2739 9.12667 53.5872 8.46 53.8139C7.79333 54.0339 7.03 54.1439 6.17 54.1439H3.87ZM3.87 52.6039H6.17C6.72333 52.6039 7.21 52.5306 7.63 52.3839C8.05667 52.2372 8.41333 52.0339 8.7 51.7739C8.98667 51.5072 9.20333 51.1906 9.35 50.8239C9.49667 50.4572 9.57 50.0539 9.57 49.6139C9.57 48.7006 9.28667 47.9872 8.72 47.4739C8.16 46.9606 7.31 46.7039 6.17 46.7039H3.87V52.6039ZM13.6866 59.5039V49.3739H14.7066C14.8999 49.3739 15.0332 49.4106 15.1066 49.4839C15.1799 49.5572 15.2299 49.6839 15.2566 49.8639L15.3766 51.4439C15.7232 50.7372 16.1499 50.1872 16.6566 49.7939C17.1699 49.3939 17.7699 49.1939 18.4566 49.1939C18.7366 49.1939 18.9899 49.2272 19.2166 49.2939C19.4432 49.3539 19.6532 49.4406 19.8466 49.5539L19.6166 50.8839C19.5699 51.0506 19.4666 51.1339 19.3066 51.1339C19.2132 51.1339 19.0699 51.1039 18.8766 51.0439C18.6832 50.9772 18.4132 50.9439 18.0666 50.9439C17.4466 50.9439 16.9266 51.1239 16.5066 51.4839C16.0932 51.8439 15.7466 52.3672 15.4666 53.0539V59.5039H13.6866ZM23.733 49.3739V59.5039H21.953V49.3739H23.733ZM24.133 46.1939C24.133 46.3672 24.0963 46.5306 24.023 46.6839C23.9563 46.8306 23.863 46.9639 23.743 47.0839C23.6296 47.1972 23.4963 47.2872 23.343 47.3539C23.1896 47.4206 23.0263 47.4539 22.853 47.4539C22.6796 47.4539 22.5163 47.4206 22.363 47.3539C22.2163 47.2872 22.083 47.1972 21.963 47.0839C21.8496 46.9639 21.7596 46.8306 21.693 46.6839C21.6263 46.5306 21.593 46.3672 21.593 46.1939C21.593 46.0206 21.6263 45.8572 21.693 45.7039C21.7596 45.5439 21.8496 45.4072 21.963 45.2939C22.083 45.1739 22.2163 45.0806 22.363 45.0139C22.5163 44.9472 22.6796 44.9139 22.853 44.9139C23.0263 44.9139 23.1896 44.9472 23.343 45.0139C23.4963 45.0806 23.6296 45.1739 23.743 45.2939C23.863 45.4072 23.9563 45.5439 24.023 45.7039C24.0963 45.8572 24.133 46.0206 24.133 46.1939ZM26.8702 59.5039V49.3739H27.9302C28.1835 49.3739 28.3435 49.4972 28.4102 49.7439L28.5402 50.7839C28.9135 50.3239 29.3302 49.9472 29.7902 49.6539C30.2568 49.3606 30.7968 49.2139 31.4102 49.2139C32.0968 49.2139 32.6502 49.4039 33.0702 49.7839C33.4968 50.1639 33.8035 50.6772 33.9902 51.3239C34.1302 50.9572 34.3135 50.6406 34.5402 50.3739C34.7735 50.1072 35.0335 49.8872 35.3202 49.7139C35.6068 49.5406 35.9102 49.4139 36.2302 49.3339C36.5568 49.2539 36.8868 49.2139 37.2202 49.2139C37.7535 49.2139 38.2268 49.3006 38.6402 49.4739C39.0602 49.6406 39.4135 49.8872 39.7002 50.2139C39.9935 50.5406 40.2168 50.9439 40.3702 51.4239C40.5235 51.8972 40.6002 52.4406 40.6002 53.0539V59.5039H38.8202V53.0539C38.8202 52.2606 38.6468 51.6606 38.3002 51.2539C37.9535 50.8406 37.4502 50.6339 36.7902 50.6339C36.4968 50.6339 36.2168 50.6872 35.9502 50.7939C35.6902 50.8939 35.4602 51.0439 35.2602 51.2439C35.0602 51.4439 34.9002 51.6972 34.7802 52.0039C34.6668 52.3039 34.6102 52.6539 34.6102 53.0539V59.5039H32.8302V53.0539C32.8302 52.2406 32.6668 51.6339 32.3402 51.2339C32.0135 50.8339 31.5368 50.6339 30.9102 50.6339C30.4702 50.6339 30.0602 50.7539 29.6802 50.9939C29.3068 51.2272 28.9635 51.5472 28.6502 51.9539V59.5039H26.8702ZM50.7359 59.5039H49.9459C49.7726 59.5039 49.6326 59.4772 49.5259 59.4239C49.4193 59.3706 49.3493 59.2572 49.3159 59.0839L49.1159 58.1439C48.8493 58.3839 48.5893 58.6006 48.3359 58.7939C48.0826 58.9806 47.8159 59.1406 47.5359 59.2739C47.2559 59.4006 46.9559 59.4972 46.6359 59.5639C46.3226 59.6306 45.9726 59.6639 45.5859 59.6639C45.1926 59.6639 44.8226 59.6106 44.4759 59.5039C44.1359 59.3906 43.8393 59.2239 43.5859 59.0039C43.3326 58.7839 43.1293 58.5072 42.9759 58.1739C42.8293 57.8339 42.7559 57.4339 42.7559 56.9739C42.7559 56.5739 42.8659 56.1906 43.0859 55.8239C43.3059 55.4506 43.6593 55.1206 44.1459 54.8339C44.6393 54.5472 45.2826 54.3139 46.0759 54.1339C46.8693 53.9472 47.8393 53.8406 48.9859 53.8139V53.0239C48.9859 52.2372 48.8159 51.6439 48.4759 51.2439C48.1426 50.8372 47.6459 50.6339 46.9859 50.6339C46.5526 50.6339 46.1859 50.6906 45.8859 50.8039C45.5926 50.9106 45.3359 51.0339 45.1159 51.1739C44.9026 51.3072 44.7159 51.4306 44.5559 51.5439C44.4026 51.6506 44.2493 51.7039 44.0959 51.7039C43.9759 51.7039 43.8693 51.6739 43.7759 51.6139C43.6893 51.5472 43.6193 51.4672 43.5659 51.3739L43.2459 50.8039C43.8059 50.2639 44.4093 49.8606 45.0559 49.5939C45.7026 49.3272 46.4193 49.1939 47.2059 49.1939C47.7726 49.1939 48.2759 49.2872 48.7159 49.4739C49.1559 49.6606 49.5259 49.9206 49.8259 50.2539C50.1259 50.5872 50.3526 50.9906 50.5059 51.4639C50.6593 51.9372 50.7359 52.4572 50.7359 53.0239V59.5039ZM46.1159 58.4139C46.4293 58.4139 46.7159 58.3839 46.9759 58.3239C47.2359 58.2572 47.4793 58.1672 47.7059 58.0539C47.9393 57.9339 48.1593 57.7906 48.3659 57.6239C48.5793 57.4572 48.7859 57.2672 48.9859 57.0539V54.9439C48.1659 54.9706 47.4693 55.0372 46.8959 55.1439C46.3226 55.2439 45.8559 55.3772 45.4959 55.5439C45.1359 55.7106 44.8726 55.9072 44.7059 56.1339C44.5459 56.3606 44.4659 56.6139 44.4659 56.8939C44.4659 57.1606 44.5093 57.3906 44.5959 57.5839C44.6826 57.7772 44.7993 57.9372 44.9459 58.0639C45.0926 58.1839 45.2659 58.2739 45.4659 58.3339C45.6659 58.3872 45.8826 58.4139 46.1159 58.4139ZM53.4327 59.5039V49.3739H54.4527C54.646 49.3739 54.7793 49.4106 54.8527 49.4839C54.926 49.5572 54.976 49.6839 55.0027 49.8639L55.1227 51.4439C55.4693 50.7372 55.896 50.1872 56.4027 49.7939C56.916 49.3939 57.516 49.1939 58.2027 49.1939C58.4827 49.1939 58.736 49.2272 58.9627 49.2939C59.1893 49.3539 59.3993 49.4406 59.5927 49.5539L59.3627 50.8839C59.316 51.0506 59.2127 51.1339 59.0527 51.1339C58.9593 51.1339 58.816 51.1039 58.6227 51.0439C58.4293 50.9772 58.1593 50.9439 57.8127 50.9439C57.1927 50.9439 56.6727 51.1239 56.2527 51.4839C55.8393 51.8439 55.4927 52.3672 55.2127 53.0539V59.5039H53.4327ZM64.4691 62.4939C64.4091 62.6272 64.3324 62.7339 64.2391 62.8139C64.1524 62.8939 64.0157 62.9339 63.8291 62.9339H62.5091L64.3591 58.9139L60.1791 49.3739H61.7191C61.8724 49.3739 61.9924 49.4139 62.0791 49.4939C62.1657 49.5672 62.2291 49.6506 62.2691 49.7439L64.9791 56.1239C65.0391 56.2706 65.0891 56.4172 65.1291 56.5639C65.1757 56.7106 65.2157 56.8606 65.2491 57.0139C65.2957 56.8606 65.3424 56.7106 65.3891 56.5639C65.4357 56.4172 65.4891 56.2672 65.5491 56.1139L68.1791 49.7439C68.2191 49.6372 68.2857 49.5506 68.3791 49.4839C68.4791 49.4106 68.5857 49.3739 68.6991 49.3739H70.1191L64.4691 62.4939ZM85.9806 56.5439C86.0873 56.5439 86.184 56.5872 86.2706 56.6739L87.0306 57.5039C86.444 58.1839 85.7306 58.7139 84.8906 59.0939C84.0573 59.4739 83.0506 59.6639 81.8706 59.6639C80.8373 59.6639 79.9006 59.4872 79.0606 59.1339C78.2206 58.7739 77.504 58.2739 76.9106 57.6339C76.3173 56.9872 75.8573 56.2139 75.5306 55.3139C75.204 54.4139 75.0406 53.4239 75.0406 52.3439C75.0406 51.2639 75.214 50.2739 75.5606 49.3739C75.914 48.4739 76.4073 47.7006 77.0406 47.0539C77.674 46.4072 78.4306 45.9072 79.3106 45.5539C80.1973 45.1939 81.174 45.0139 82.2406 45.0139C83.294 45.0139 84.2006 45.1772 84.9606 45.5039C85.7273 45.8306 86.4073 46.2739 87.0006 46.8339L86.3706 47.7239C86.324 47.7906 86.2706 47.8472 86.2106 47.8939C86.1506 47.9339 86.064 47.9539 85.9506 47.9539C85.864 47.9539 85.7706 47.9239 85.6706 47.8639C85.5773 47.7972 85.464 47.7172 85.3306 47.6239C85.1973 47.5306 85.0406 47.4306 84.8606 47.3239C84.6806 47.2172 84.4673 47.1172 84.2206 47.0239C83.974 46.9306 83.6873 46.8539 83.3606 46.7939C83.034 46.7272 82.6573 46.6939 82.2306 46.6939C81.464 46.6939 80.7606 46.8272 80.1206 47.0939C79.4873 47.3539 78.9406 47.7272 78.4806 48.2139C78.0206 48.7006 77.6606 49.2939 77.4006 49.9939C77.1473 50.6939 77.0206 51.4772 77.0206 52.3439C77.0206 53.2372 77.1473 54.0339 77.4006 54.7339C77.6606 55.4339 78.0106 56.0272 78.4506 56.5139C78.8973 56.9939 79.424 57.3606 80.0306 57.6139C80.6373 57.8672 81.2906 57.9939 81.9906 57.9939C82.4173 57.9939 82.8006 57.9706 83.1406 57.9239C83.4806 57.8706 83.794 57.7906 84.0806 57.6839C84.374 57.5772 84.644 57.4439 84.8906 57.2839C85.144 57.1172 85.3973 56.9206 85.6506 56.6939C85.764 56.5939 85.874 56.5439 85.9806 56.5439ZM93.392 49.2139C94.132 49.2139 94.7987 49.3372 95.392 49.5839C95.992 49.8306 96.4987 50.1806 96.912 50.6339C97.332 51.0872 97.652 51.6372 97.872 52.2839C98.0987 52.9239 98.212 53.6406 98.212 54.4339C98.212 55.2339 98.0987 55.9539 97.872 56.5939C97.652 57.2339 97.332 57.7806 96.912 58.2339C96.4987 58.6872 95.992 59.0372 95.392 59.2839C94.7987 59.5239 94.132 59.6439 93.392 59.6439C92.652 59.6439 91.982 59.5239 91.382 59.2839C90.7887 59.0372 90.282 58.6872 89.862 58.2339C89.442 57.7806 89.1187 57.2339 88.892 56.5939C88.6654 55.9539 88.552 55.2339 88.552 54.4339C88.552 53.6406 88.6654 52.9239 88.892 52.2839C89.1187 51.6372 89.442 51.0872 89.862 50.6339C90.282 50.1806 90.7887 49.8306 91.382 49.5839C91.982 49.3372 92.652 49.2139 93.392 49.2139ZM93.392 58.2539C94.392 58.2539 95.1387 57.9206 95.632 57.2539C96.1254 56.5806 96.372 55.6439 96.372 54.4439C96.372 53.2372 96.1254 52.2972 95.632 51.6239C95.1387 50.9506 94.392 50.6139 93.392 50.6139C92.8854 50.6139 92.4454 50.7006 92.072 50.8739C91.6987 51.0472 91.3854 51.2972 91.132 51.6239C90.8854 51.9506 90.6987 52.3539 90.572 52.8339C90.452 53.3072 90.392 53.8439 90.392 54.4439C90.392 55.0439 90.452 55.5806 90.572 56.0539C90.6987 56.5272 90.8854 56.9272 91.132 57.2539C91.3854 57.5739 91.6987 57.8206 92.072 57.9939C92.4454 58.1672 92.8854 58.2539 93.392 58.2539ZM102.385 44.7739V59.5039H100.605V44.7739H102.385ZM109.623 49.2139C110.363 49.2139 111.029 49.3372 111.623 49.5839C112.223 49.8306 112.729 50.1806 113.143 50.6339C113.563 51.0872 113.883 51.6372 114.103 52.2839C114.329 52.9239 114.443 53.6406 114.443 54.4339C114.443 55.2339 114.329 55.9539 114.103 56.5939C113.883 57.2339 113.563 57.7806 113.143 58.2339C112.729 58.6872 112.223 59.0372 111.623 59.2839C111.029 59.5239 110.363 59.6439 109.623 59.6439C108.883 59.6439 108.213 59.5239 107.613 59.2839C107.019 59.0372 106.513 58.6872 106.093 58.2339C105.673 57.7806 105.349 57.2339 105.123 56.5939C104.896 55.9539 104.783 55.2339 104.783 54.4339C104.783 53.6406 104.896 52.9239 105.123 52.2839C105.349 51.6372 105.673 51.0872 106.093 50.6339C106.513 50.1806 107.019 49.8306 107.613 49.5839C108.213 49.3372 108.883 49.2139 109.623 49.2139ZM109.623 58.2539C110.623 58.2539 111.369 57.9206 111.863 57.2539C112.356 56.5806 112.603 55.6439 112.603 54.4439C112.603 53.2372 112.356 52.2972 111.863 51.6239C111.369 50.9506 110.623 50.6139 109.623 50.6139C109.116 50.6139 108.676 50.7006 108.303 50.8739C107.929 51.0472 107.616 51.2972 107.363 51.6239C107.116 51.9506 106.929 52.3539 106.803 52.8339C106.683 53.3072 106.623 53.8439 106.623 54.4439C106.623 55.0439 106.683 55.5806 106.803 56.0539C106.929 56.5272 107.116 56.9272 107.363 57.2539C107.616 57.5739 107.929 57.8206 108.303 57.9939C108.676 58.1672 109.116 58.2539 109.623 58.2539ZM116.636 59.5039V49.3739H117.656C117.849 49.3739 117.982 49.4106 118.056 49.4839C118.129 49.5572 118.179 49.6839 118.206 49.8639L118.326 51.4439C118.672 50.7372 119.099 50.1872 119.606 49.7939C120.119 49.3939 120.719 49.1939 121.406 49.1939C121.686 49.1939 121.939 49.2272 122.166 49.2939C122.392 49.3539 122.602 49.4406 122.796 49.5539L122.566 50.8839C122.519 51.0506 122.416 51.1339 122.256 51.1339C122.162 51.1339 122.019 51.1039 121.826 51.0439C121.632 50.9772 121.362 50.9439 121.016 50.9439C120.396 50.9439 119.876 51.1239 119.456 51.4839C119.042 51.8439 118.696 52.3672 118.416 53.0539V59.5039H116.636Z" fill="black"/>
<path d="M7.9 100.274L7.06 104.504H6.25C6.09667 104.504 5.96667 104.447 5.86 104.334C5.75333 104.221 5.7 104.074 5.7 103.894C5.7 103.867 5.7 103.844 5.7 103.824C5.70667 103.797 5.71333 103.767 5.72 103.734L6.43 100.274H3.96L3.25 103.824C3.19667 104.071 3.09333 104.247 2.94 104.354C2.79333 104.454 2.62333 104.504 2.43 104.504H1.64L2.49 100.274H1.03C0.876667 100.274 0.756667 100.237 0.67 100.164C0.583333 100.084 0.54 99.9506 0.54 99.7639C0.54 99.7306 0.54 99.6939 0.54 99.6539C0.546667 99.6139 0.553333 99.5739 0.56 99.5339L0.64 98.9639H2.68L3.33 95.7039H1.01L1.14 94.9639C1.17333 94.7706 1.25 94.6272 1.37 94.5339C1.49 94.4406 1.68 94.3939 1.94 94.3939H3.52L4.24 90.8139C4.28 90.6139 4.37 90.4572 4.51 90.3439C4.65667 90.2306 4.83 90.1739 5.03 90.1739H5.83L4.99 94.3939H7.46L8.3 90.1739H9.09C9.25667 90.1739 9.39333 90.2239 9.5 90.3239C9.61333 90.4239 9.67 90.5539 9.67 90.7139C9.67 90.7672 9.66667 90.8106 9.66 90.8439L8.93 94.3939H11.05L10.92 95.1439C10.8867 95.3372 10.8067 95.4806 10.68 95.5739C10.56 95.6606 10.3733 95.7039 10.12 95.7039H8.74L8.09 98.9639H9.88C10.04 98.9639 10.1633 99.0039 10.25 99.0839C10.3367 99.1572 10.38 99.2906 10.38 99.4839C10.38 99.5172 10.3767 99.5539 10.37 99.5939C10.37 99.6272 10.3667 99.6639 10.36 99.7039L10.27 100.274H7.9ZM4.15 98.9639H6.62L7.27 95.7039H4.8L4.15 98.9639ZM14.4716 103.144H17.5516V93.3739C17.5516 93.0806 17.5616 92.7839 17.5816 92.4839L15.0216 94.6739C14.9549 94.7272 14.8882 94.7672 14.8216 94.7939C14.7549 94.8139 14.6916 94.8239 14.6316 94.8239C14.5316 94.8239 14.4416 94.8039 14.3616 94.7639C14.2816 94.7172 14.2216 94.6639 14.1816 94.6039L13.6216 93.8339L17.8816 90.1439H19.3316V103.144H22.1516V104.504H14.4716V103.144ZM35.0431 101.544C35.1498 101.544 35.2465 101.587 35.3331 101.674L36.0931 102.504C35.5065 103.184 34.7931 103.714 33.9531 104.094C33.1198 104.474 32.1131 104.664 30.9331 104.664C29.8998 104.664 28.9631 104.487 28.1231 104.134C27.2831 103.774 26.5665 103.274 25.9731 102.634C25.3798 101.987 24.9198 101.214 24.5931 100.314C24.2665 99.4139 24.1031 98.4239 24.1031 97.3439C24.1031 96.2639 24.2765 95.2739 24.6231 94.3739C24.9765 93.4739 25.4698 92.7006 26.1031 92.0539C26.7365 91.4072 27.4931 90.9072 28.3731 90.5539C29.2598 90.1939 30.2365 90.0139 31.3031 90.0139C32.3565 90.0139 33.2631 90.1772 34.0231 90.5039C34.7898 90.8306 35.4698 91.2739 36.0631 91.8339L35.4331 92.7239C35.3865 92.7906 35.3331 92.8472 35.2731 92.8939C35.2131 92.9339 35.1265 92.9539 35.0131 92.9539C34.9265 92.9539 34.8331 92.9239 34.7331 92.8639C34.6398 92.7972 34.5265 92.7172 34.3931 92.6239C34.2598 92.5306 34.1031 92.4306 33.9231 92.3239C33.7431 92.2172 33.5298 92.1172 33.2831 92.0239C33.0365 91.9306 32.7498 91.8539 32.4231 91.7939C32.0965 91.7272 31.7198 91.6939 31.2931 91.6939C30.5265 91.6939 29.8231 91.8272 29.1831 92.0939C28.5498 92.3539 28.0031 92.7272 27.5431 93.2139C27.0831 93.7006 26.7231 94.2939 26.4631 94.9939C26.2098 95.6939 26.0831 96.4772 26.0831 97.3439C26.0831 98.2372 26.2098 99.0339 26.4631 99.7339C26.7231 100.434 27.0731 101.027 27.5131 101.514C27.9598 101.994 28.4865 102.361 29.0931 102.614C29.6998 102.867 30.3531 102.994 31.0531 102.994C31.4798 102.994 31.8631 102.971 32.2031 102.924C32.5431 102.871 32.8565 102.791 33.1431 102.684C33.4365 102.577 33.7065 102.444 33.9531 102.284C34.2065 102.117 34.4598 101.921 34.7131 101.694C34.8265 101.594 34.9365 101.544 35.0431 101.544ZM38.6345 104.504V90.1739H43.2045C44.0845 90.1739 44.8412 90.2606 45.4745 90.4339C46.1145 90.6072 46.6379 90.8539 47.0445 91.1739C47.4579 91.4939 47.7612 91.8872 47.9545 92.3539C48.1545 92.8139 48.2545 93.3339 48.2545 93.9139C48.2545 94.2672 48.1979 94.6072 48.0845 94.9339C47.9779 95.2606 47.8112 95.5639 47.5845 95.8439C47.3645 96.1239 47.0845 96.3739 46.7445 96.5939C46.4112 96.8139 46.0179 96.9939 45.5645 97.1339C46.6112 97.3406 47.4012 97.7172 47.9345 98.2639C48.4679 98.8106 48.7345 99.5306 48.7345 100.424C48.7345 101.031 48.6212 101.584 48.3945 102.084C48.1745 102.584 47.8479 103.014 47.4145 103.374C46.9879 103.734 46.4612 104.014 45.8345 104.214C45.2145 104.407 44.5045 104.504 43.7045 104.504H38.6345ZM40.5745 97.9739V102.964H43.6745C44.2279 102.964 44.7012 102.901 45.0945 102.774C45.4945 102.647 45.8212 102.471 46.0745 102.244C46.3345 102.011 46.5245 101.737 46.6445 101.424C46.7645 101.104 46.8245 100.754 46.8245 100.374C46.8245 99.6339 46.5612 99.0506 46.0345 98.6239C45.5145 98.1906 44.7245 97.9739 43.6645 97.9739H40.5745ZM40.5745 96.5939H43.1345C43.6812 96.5939 44.1545 96.5339 44.5545 96.4139C44.9545 96.2939 45.2845 96.1272 45.5445 95.9139C45.8112 95.7006 46.0079 95.4439 46.1345 95.1439C46.2612 94.8372 46.3245 94.5039 46.3245 94.1439C46.3245 93.3039 46.0712 92.6872 45.5645 92.2939C45.0579 91.9006 44.2712 91.7039 43.2045 91.7039H40.5745V96.5939ZM55.3338 98.6239C54.7938 98.6239 54.2804 98.5339 53.7938 98.3539C53.3138 98.1739 52.8904 97.9106 52.5238 97.5639C52.1571 97.2106 51.8638 96.7806 51.6438 96.2739C51.4304 95.7606 51.3238 95.1739 51.3238 94.5139C51.3238 93.8872 51.4404 93.3006 51.6738 92.7539C51.9071 92.2072 52.2338 91.7306 52.6538 91.3239C53.0738 90.9172 53.5738 90.5972 54.1538 90.3639C54.7338 90.1306 55.3704 90.0139 56.0638 90.0139C56.7504 90.0139 57.3738 90.1272 57.9338 90.3539C58.4938 90.5806 58.9738 90.8972 59.3738 91.3039C59.7738 91.7106 60.0804 92.1972 60.2938 92.7639C60.5138 93.3306 60.6238 93.9572 60.6238 94.6439C60.6238 95.0572 60.5838 95.4506 60.5038 95.8239C60.4304 96.1906 60.3204 96.5506 60.1737 96.9039C60.0271 97.2572 59.8504 97.6106 59.6438 97.9639C59.4438 98.3106 59.2138 98.6706 58.9538 99.0439L55.4638 104.084C55.3771 104.211 55.2538 104.314 55.0938 104.394C54.9338 104.467 54.7504 104.504 54.5438 104.504H52.9038L57.2638 98.7939C57.4104 98.6006 57.5471 98.4172 57.6738 98.2439C57.8004 98.0706 57.9204 97.8972 58.0338 97.7239C57.6671 98.0172 57.2538 98.2406 56.7938 98.3939C56.3338 98.5472 55.8471 98.6239 55.3338 98.6239ZM58.9138 94.4339C58.9138 93.9872 58.8404 93.5839 58.6938 93.2239C58.5538 92.8572 58.3571 92.5472 58.1038 92.2939C57.8504 92.0406 57.5471 91.8472 57.1938 91.7139C56.8471 91.5739 56.4638 91.5039 56.0438 91.5039C55.6038 91.5039 55.2004 91.5772 54.8338 91.7239C54.4738 91.8639 54.1638 92.0606 53.9038 92.3139C53.6504 92.5672 53.4538 92.8706 53.3138 93.2239C53.1738 93.5772 53.1038 93.9639 53.1038 94.3839C53.1038 94.8372 53.1671 95.2439 53.2938 95.6039C53.4271 95.9572 53.6138 96.2572 53.8538 96.5039C54.1004 96.7506 54.3971 96.9372 54.7438 97.0639C55.0971 97.1906 55.4904 97.2539 55.9238 97.2539C56.4038 97.2539 56.8271 97.1772 57.1938 97.0239C57.5671 96.8639 57.8804 96.6539 58.1338 96.3939C58.3871 96.1339 58.5804 95.8339 58.7138 95.4939C58.8471 95.1539 58.9138 94.8006 58.9138 94.4339ZM71.2253 90.9539C71.2253 91.2072 71.1453 91.4172 70.9853 91.5839C70.8253 91.7439 70.5553 91.8239 70.1753 91.8239H65.6753L65.0153 95.5839C65.762 95.4239 66.452 95.3439 67.0853 95.3439C67.832 95.3439 68.4886 95.4539 69.0553 95.6739C69.6286 95.8939 70.1086 96.1972 70.4953 96.5839C70.882 96.9706 71.172 97.4272 71.3653 97.9539C71.5653 98.4806 71.6653 99.0539 71.6653 99.6739C71.6653 100.434 71.532 101.121 71.2653 101.734C70.9986 102.347 70.632 102.874 70.1653 103.314C69.7053 103.747 69.162 104.081 68.5353 104.314C67.9086 104.547 67.232 104.664 66.5053 104.664C66.0853 104.664 65.682 104.621 65.2953 104.534C64.9086 104.454 64.5486 104.344 64.2153 104.204C63.882 104.064 63.572 103.904 63.2853 103.724C62.9986 103.544 62.7453 103.354 62.5253 103.154L63.0653 102.394C63.1853 102.221 63.3453 102.134 63.5453 102.134C63.672 102.134 63.8186 102.187 63.9853 102.294C64.1586 102.394 64.3653 102.507 64.6053 102.634C64.8453 102.761 65.1253 102.877 65.4453 102.984C65.772 103.084 66.1586 103.134 66.6053 103.134C67.1053 103.134 67.5553 103.054 67.9553 102.894C68.3553 102.734 68.6953 102.507 68.9753 102.214C69.262 101.914 69.482 101.557 69.6353 101.144C69.7886 100.731 69.8653 100.267 69.8653 99.7539C69.8653 99.3072 69.7986 98.9039 69.6653 98.5439C69.5386 98.1839 69.342 97.8772 69.0753 97.6239C68.8153 97.3706 68.4886 97.1739 68.0953 97.0339C67.702 96.8939 67.242 96.8239 66.7153 96.8239C66.3553 96.8239 65.982 96.8539 65.5953 96.9139C65.2086 96.9739 64.8086 97.0706 64.3953 97.2039L63.2753 96.8739L64.4353 90.1739H71.2253V90.9539ZM82.0769 99.3339H84.2469V100.354C84.2469 100.461 84.2135 100.551 84.1469 100.624C84.0869 100.697 83.9902 100.734 83.8569 100.734H82.0769V104.504H80.5069V100.734H74.1569C74.0235 100.734 73.9069 100.697 73.8069 100.624C73.7135 100.544 73.6535 100.447 73.6269 100.334L73.4469 99.4239L80.4169 90.1739H82.0769V99.3339ZM80.5069 93.4239C80.5069 93.2506 80.5102 93.0639 80.5169 92.8639C80.5302 92.6639 80.5535 92.4572 80.5869 92.2439L75.3769 99.3339H80.5069V93.4239Z" fill="black"/>
<rect x="334.5" y="1.00391" width="299" height="11" rx="5.5" fill="white" stroke="black"/>
<path d="M337.68 57.8739H343.88V59.5039H335.74V45.1739H337.68V57.8739ZM347.713 49.3739V59.5039H345.933V49.3739H347.713ZM348.113 46.1939C348.113 46.3672 348.077 46.5306 348.003 46.6839C347.937 46.8306 347.843 46.9639 347.723 47.0839C347.61 47.1972 347.477 47.2872 347.323 47.3539C347.17 47.4206 347.007 47.4539 346.833 47.4539C346.66 47.4539 346.497 47.4206 346.343 47.3539C346.197 47.2872 346.063 47.1972 345.943 47.0839C345.83 46.9639 345.74 46.8306 345.673 46.6839C345.607 46.5306 345.573 46.3672 345.573 46.1939C345.573 46.0206 345.607 45.8572 345.673 45.7039C345.74 45.5439 345.83 45.4072 345.943 45.2939C346.063 45.1739 346.197 45.0806 346.343 45.0139C346.497 44.9472 346.66 44.9139 346.833 44.9139C347.007 44.9139 347.17 44.9472 347.323 45.0139C347.477 45.0806 347.61 45.1739 347.723 45.2939C347.843 45.4072 347.937 45.5439 348.003 45.7039C348.077 45.8572 348.113 46.0206 348.113 46.1939ZM354.261 49.2039C354.701 49.2039 355.111 49.2539 355.491 49.3539C355.877 49.4472 356.227 49.5872 356.541 49.7739H359.291V50.4339C359.291 50.6539 359.151 50.7939 358.871 50.8539L357.721 51.0139C357.947 51.4472 358.061 51.9306 358.061 52.4639C358.061 52.9572 357.964 53.4072 357.771 53.8139C357.584 54.2139 357.321 54.5572 356.981 54.8439C356.647 55.1306 356.247 55.3506 355.781 55.5039C355.321 55.6572 354.814 55.7339 354.261 55.7339C353.787 55.7339 353.341 55.6772 352.921 55.5639C352.707 55.6972 352.544 55.8406 352.431 55.9939C352.324 56.1472 352.271 56.2972 352.271 56.4439C352.271 56.6839 352.367 56.8672 352.561 56.9939C352.754 57.1139 353.011 57.2006 353.331 57.2539C353.651 57.3072 354.014 57.3406 354.421 57.3539C354.827 57.3672 355.241 57.3906 355.661 57.4239C356.087 57.4506 356.504 57.5006 356.911 57.5739C357.317 57.6472 357.681 57.7672 358.001 57.9339C358.321 58.1006 358.577 58.3306 358.771 58.6239C358.964 58.9172 359.061 59.2972 359.061 59.7639C359.061 60.1972 358.951 60.6172 358.731 61.0239C358.517 61.4306 358.207 61.7906 357.801 62.1039C357.394 62.4239 356.897 62.6772 356.311 62.8639C355.724 63.0572 355.061 63.1539 354.321 63.1539C353.581 63.1539 352.931 63.0806 352.371 62.9339C351.817 62.7872 351.357 62.5906 350.991 62.3439C350.624 62.0972 350.347 61.8106 350.161 61.4839C349.981 61.1639 349.891 60.8272 349.891 60.4739C349.891 59.9739 350.047 59.5506 350.361 59.2039C350.681 58.8506 351.117 58.5706 351.671 58.3639C351.384 58.2306 351.154 58.0539 350.981 57.8339C350.814 57.6072 350.731 57.3072 350.731 56.9339C350.731 56.7872 350.757 56.6372 350.811 56.4839C350.864 56.3239 350.944 56.1672 351.051 56.0139C351.164 55.8606 351.301 55.7139 351.461 55.5739C351.621 55.4339 351.807 55.3106 352.021 55.2039C351.521 54.9239 351.127 54.5539 350.841 54.0939C350.561 53.6272 350.421 53.0839 350.421 52.4639C350.421 51.9706 350.514 51.5239 350.701 51.1239C350.894 50.7172 351.161 50.3739 351.501 50.0939C351.841 49.8072 352.244 49.5872 352.711 49.4339C353.184 49.2806 353.701 49.2039 354.261 49.2039ZM357.421 60.0539C357.421 59.8006 357.351 59.5972 357.211 59.4439C357.071 59.2906 356.881 59.1739 356.641 59.0939C356.401 59.0072 356.124 58.9439 355.811 58.9039C355.497 58.8639 355.167 58.8372 354.821 58.8239C354.474 58.8039 354.121 58.7839 353.761 58.7639C353.401 58.7439 353.057 58.7072 352.731 58.6539C352.351 58.8339 352.041 59.0539 351.801 59.3139C351.567 59.5739 351.451 59.8839 351.451 60.2439C351.451 60.4706 351.507 60.6806 351.621 60.8739C351.741 61.0739 351.921 61.2439 352.161 61.3839C352.401 61.5306 352.701 61.6439 353.061 61.7239C353.427 61.8106 353.857 61.8539 354.351 61.8539C354.831 61.8539 355.261 61.8106 355.641 61.7239C356.021 61.6372 356.341 61.5139 356.601 61.3539C356.867 61.1939 357.071 61.0039 357.211 60.7839C357.351 60.5639 357.421 60.3206 357.421 60.0539ZM354.261 54.5539C354.621 54.5539 354.937 54.5039 355.211 54.4039C355.491 54.3039 355.724 54.1639 355.911 53.9839C356.097 53.8039 356.237 53.5906 356.331 53.3439C356.424 53.0906 356.471 52.8139 356.471 52.5139C356.471 51.8939 356.281 51.4006 355.901 51.0339C355.527 50.6672 354.981 50.4839 354.261 50.4839C353.547 50.4839 353.001 50.6672 352.621 51.0339C352.247 51.4006 352.061 51.8939 352.061 52.5139C352.061 52.8139 352.107 53.0906 352.201 53.3439C352.301 53.5906 352.444 53.8039 352.631 53.9839C352.817 54.1639 353.047 54.3039 353.321 54.4039C353.594 54.5039 353.907 54.5539 354.261 54.5539ZM361.065 59.5039V44.7739H362.845V50.7339C363.279 50.2739 363.759 49.9072 364.285 49.6339C364.812 49.3539 365.419 49.2139 366.105 49.2139C366.659 49.2139 367.145 49.3072 367.565 49.4939C367.992 49.6739 368.345 49.9339 368.625 50.2739C368.912 50.6072 369.129 51.0106 369.275 51.4839C369.422 51.9572 369.495 52.4806 369.495 53.0539V59.5039H367.715V53.0539C367.715 52.2872 367.539 51.6939 367.185 51.2739C366.839 50.8472 366.305 50.6339 365.585 50.6339C365.059 50.6339 364.565 50.7606 364.105 51.0139C363.652 51.2672 363.232 51.6106 362.845 52.0439V59.5039H361.065ZM375.249 59.6639C374.449 59.6639 373.832 59.4406 373.399 58.9939C372.972 58.5472 372.759 57.9039 372.759 57.0639V50.8639H371.539C371.432 50.8639 371.342 50.8339 371.269 50.7739C371.195 50.7072 371.159 50.6072 371.159 50.4739V49.7639L372.819 49.5539L373.229 46.4239C373.242 46.3239 373.285 46.2439 373.359 46.1839C373.432 46.1172 373.525 46.0839 373.639 46.0839H374.539V49.5739H377.439V50.8639H374.539V56.9439C374.539 57.3706 374.642 57.6872 374.849 57.8939C375.055 58.1006 375.322 58.2039 375.649 58.2039C375.835 58.2039 375.995 58.1806 376.129 58.1339C376.269 58.0806 376.389 58.0239 376.489 57.9639C376.589 57.9039 376.672 57.8506 376.739 57.8039C376.812 57.7506 376.875 57.7239 376.929 57.7239C377.022 57.7239 377.105 57.7806 377.179 57.8939L377.699 58.7439C377.392 59.0306 377.022 59.2572 376.589 59.4239C376.155 59.5839 375.709 59.6639 375.249 59.6639ZM383.787 59.5039V45.1739H388.357C389.237 45.1739 389.994 45.2606 390.627 45.4339C391.267 45.6072 391.79 45.8539 392.197 46.1739C392.61 46.4939 392.914 46.8872 393.107 47.3539C393.307 47.8139 393.407 48.3339 393.407 48.9139C393.407 49.2672 393.35 49.6072 393.237 49.9339C393.13 50.2606 392.964 50.5639 392.737 50.8439C392.517 51.1239 392.237 51.3739 391.897 51.5939C391.564 51.8139 391.17 51.9939 390.717 52.1339C391.764 52.3406 392.554 52.7172 393.087 53.2639C393.62 53.8106 393.887 54.5306 393.887 55.4239C393.887 56.0306 393.774 56.5839 393.547 57.0839C393.327 57.5839 393 58.0139 392.567 58.3739C392.14 58.7339 391.614 59.0139 390.987 59.2139C390.367 59.4072 389.657 59.5039 388.857 59.5039H383.787ZM385.727 52.9739V57.9639H388.827C389.38 57.9639 389.854 57.9006 390.247 57.7739C390.647 57.6472 390.974 57.4706 391.227 57.2439C391.487 57.0106 391.677 56.7372 391.797 56.4239C391.917 56.1039 391.977 55.7539 391.977 55.3739C391.977 54.6339 391.714 54.0506 391.187 53.6239C390.667 53.1906 389.877 52.9739 388.817 52.9739H385.727ZM385.727 51.5939H388.287C388.834 51.5939 389.307 51.5339 389.707 51.4139C390.107 51.2939 390.437 51.1272 390.697 50.9139C390.964 50.7006 391.16 50.4439 391.287 50.1439C391.414 49.8372 391.477 49.5039 391.477 49.1439C391.477 48.3039 391.224 47.6872 390.717 47.2939C390.21 46.9006 389.424 46.7039 388.357 46.7039H385.727V51.5939ZM399.866 49.2039C400.306 49.2039 400.716 49.2539 401.096 49.3539C401.483 49.4472 401.833 49.5872 402.146 49.7739H404.896V50.4339C404.896 50.6539 404.756 50.7939 404.476 50.8539L403.326 51.0139C403.553 51.4472 403.666 51.9306 403.666 52.4639C403.666 52.9572 403.569 53.4072 403.376 53.8139C403.189 54.2139 402.926 54.5572 402.586 54.8439C402.253 55.1306 401.853 55.3506 401.386 55.5039C400.926 55.6572 400.419 55.7339 399.866 55.7339C399.393 55.7339 398.946 55.6772 398.526 55.5639C398.313 55.6972 398.149 55.8406 398.036 55.9939C397.929 56.1472 397.876 56.2972 397.876 56.4439C397.876 56.6839 397.973 56.8672 398.166 56.9939C398.359 57.1139 398.616 57.2006 398.936 57.2539C399.256 57.3072 399.619 57.3406 400.026 57.3539C400.433 57.3672 400.846 57.3906 401.266 57.4239C401.693 57.4506 402.109 57.5006 402.516 57.5739C402.923 57.6472 403.286 57.7672 403.606 57.9339C403.926 58.1006 404.183 58.3306 404.376 58.6239C404.569 58.9172 404.666 59.2972 404.666 59.7639C404.666 60.1972 404.556 60.6172 404.336 61.0239C404.123 61.4306 403.813 61.7906 403.406 62.1039C402.999 62.4239 402.503 62.6772 401.916 62.8639C401.329 63.0572 400.666 63.1539 399.926 63.1539C399.186 63.1539 398.536 63.0806 397.976 62.9339C397.423 62.7872 396.963 62.5906 396.596 62.3439C396.229 62.0972 395.953 61.8106 395.766 61.4839C395.586 61.1639 395.496 60.8272 395.496 60.4739C395.496 59.9739 395.653 59.5506 395.966 59.2039C396.286 58.8506 396.723 58.5706 397.276 58.3639C396.989 58.2306 396.759 58.0539 396.586 57.8339C396.419 57.6072 396.336 57.3072 396.336 56.9339C396.336 56.7872 396.363 56.6372 396.416 56.4839C396.469 56.3239 396.549 56.1672 396.656 56.0139C396.769 55.8606 396.906 55.7139 397.066 55.5739C397.226 55.4339 397.413 55.3106 397.626 55.2039C397.126 54.9239 396.733 54.5539 396.446 54.0939C396.166 53.6272 396.026 53.0839 396.026 52.4639C396.026 51.9706 396.119 51.5239 396.306 51.1239C396.499 50.7172 396.766 50.3739 397.106 50.0939C397.446 49.8072 397.849 49.5872 398.316 49.4339C398.789 49.2806 399.306 49.2039 399.866 49.2039ZM403.026 60.0539C403.026 59.8006 402.956 59.5972 402.816 59.4439C402.676 59.2906 402.486 59.1739 402.246 59.0939C402.006 59.0072 401.729 58.9439 401.416 58.9039C401.103 58.8639 400.773 58.8372 400.426 58.8239C400.079 58.8039 399.726 58.7839 399.366 58.7639C399.006 58.7439 398.663 58.7072 398.336 58.6539C397.956 58.8339 397.646 59.0539 397.406 59.3139C397.173 59.5739 397.056 59.8839 397.056 60.2439C397.056 60.4706 397.113 60.6806 397.226 60.8739C397.346 61.0739 397.526 61.2439 397.766 61.3839C398.006 61.5306 398.306 61.6439 398.666 61.7239C399.033 61.8106 399.463 61.8539 399.956 61.8539C400.436 61.8539 400.866 61.8106 401.246 61.7239C401.626 61.6372 401.946 61.5139 402.206 61.3539C402.473 61.1939 402.676 61.0039 402.816 60.7839C402.956 60.5639 403.026 60.3206 403.026 60.0539ZM399.866 54.5539C400.226 54.5539 400.543 54.5039 400.816 54.4039C401.096 54.3039 401.329 54.1639 401.516 53.9839C401.703 53.8039 401.843 53.5906 401.936 53.3439C402.029 53.0906 402.076 52.8139 402.076 52.5139C402.076 51.8939 401.886 51.4006 401.506 51.0339C401.133 50.6672 400.586 50.4839 399.866 50.4839C399.153 50.4839 398.606 50.6672 398.226 51.0339C397.853 51.4006 397.666 51.8939 397.666 52.5139C397.666 52.8139 397.713 53.0906 397.806 53.3439C397.906 53.5906 398.049 53.8039 398.236 53.9839C398.423 54.1639 398.653 54.3039 398.926 54.4039C399.199 54.5039 399.513 54.5539 399.866 54.5539Z" fill="black"/>
<path d="M341.9 100.274L341.06 104.504H340.25C340.097 104.504 339.967 104.447 339.86 104.334C339.753 104.221 339.7 104.074 339.7 103.894C339.7 103.867 339.7 103.844 339.7 103.824C339.707 103.797 339.713 103.767 339.72 103.734L340.43 100.274H337.96L337.25 103.824C337.197 104.071 337.093 104.247 336.94 104.354C336.793 104.454 336.623 104.504 336.43 104.504H335.64L336.49 100.274H335.03C334.877 100.274 334.757 100.237 334.67 100.164C334.583 100.084 334.54 99.9506 334.54 99.7639C334.54 99.7306 334.54 99.6939 334.54 99.6539C334.547 99.6139 334.553 99.5739 334.56 99.5339L334.64 98.9639H336.68L337.33 95.7039H335.01L335.14 94.9639C335.173 94.7706 335.25 94.6272 335.37 94.5339C335.49 94.4406 335.68 94.3939 335.94 94.3939H337.52L338.24 90.8139C338.28 90.6139 338.37 90.4572 338.51 90.3439C338.657 90.2306 338.83 90.1739 339.03 90.1739H339.83L338.99 94.3939H341.46L342.3 90.1739H343.09C343.257 90.1739 343.393 90.2239 343.5 90.3239C343.613 90.4239 343.67 90.5539 343.67 90.7139C343.67 90.7672 343.667 90.8106 343.66 90.8439L342.93 94.3939H345.05L344.92 95.1439C344.887 95.3372 344.807 95.4806 344.68 95.5739C344.56 95.6606 344.373 95.7039 344.12 95.7039H342.74L342.09 98.9639H343.88C344.04 98.9639 344.163 99.0039 344.25 99.0839C344.337 99.1572 344.38 99.2906 344.38 99.4839C344.38 99.5172 344.377 99.5539 344.37 99.5939C344.37 99.6272 344.367 99.6639 344.36 99.7039L344.27 100.274H341.9ZM338.15 98.9639H340.62L341.27 95.7039H338.8L338.15 98.9639ZM356.172 90.1739V91.7539H349.292V96.7639H355.172V98.3439H349.292V104.504H347.342V90.1739H356.172ZM367.5 90.1739V91.7539H360.62V96.7639H366.5V98.3439H360.62V104.504H358.67V90.1739H367.5ZM378.828 90.1739V91.7539H371.948V96.7639H377.828V98.3439H371.948V104.504H369.998V90.1739H378.828ZM390.156 90.1739V91.7539H383.276V96.7639H389.156V98.3439H383.276V104.504H381.326V90.1739H390.156ZM401.484 90.1739V91.7539H394.604V96.7639H400.484V98.3439H394.604V104.504H392.654V90.1739H401.484ZM412.812 90.1739V91.7539H405.932V96.7639H411.812V98.3439H405.932V104.504H403.982V90.1739H412.812Z" fill="black"/>
<rect x="668" y="0.503906" width="300" height="12" rx="6" fill="#0C1027"/>
<path d="M682.16 52.3439C682.16 53.4172 681.99 54.3939 681.65 55.2739C681.31 56.1539 680.83 56.9072 680.21 57.5339C679.59 58.1606 678.847 58.6472 677.98 58.9939C677.113 59.3339 676.153 59.5039 675.1 59.5039H669.74V45.1739H675.1C676.153 45.1739 677.113 45.3472 677.98 45.6939C678.847 46.0339 679.59 46.5206 680.21 47.1539C680.83 47.7806 681.31 48.5339 681.65 49.4139C681.99 50.2939 682.16 51.2706 682.16 52.3439ZM680.17 52.3439C680.17 51.4639 680.05 50.6772 679.81 49.9839C679.57 49.2906 679.23 48.7039 678.79 48.2239C678.35 47.7439 677.817 47.3772 677.19 47.1239C676.563 46.8706 675.867 46.7439 675.1 46.7439H671.69V57.9339H675.1C675.867 57.9339 676.563 57.8072 677.19 57.5539C677.817 57.3006 678.35 56.9372 678.79 56.4639C679.23 55.9839 679.57 55.3972 679.81 54.7039C680.05 54.0106 680.17 53.2239 680.17 52.3439ZM691.959 59.5039H691.169C690.995 59.5039 690.855 59.4772 690.749 59.4239C690.642 59.3706 690.572 59.2572 690.539 59.0839L690.339 58.1439C690.072 58.3839 689.812 58.6006 689.559 58.7939C689.305 58.9806 689.039 59.1406 688.759 59.2739C688.479 59.4006 688.179 59.4972 687.859 59.5639C687.545 59.6306 687.195 59.6639 686.809 59.6639C686.415 59.6639 686.045 59.6106 685.699 59.5039C685.359 59.3906 685.062 59.2239 684.809 59.0039C684.555 58.7839 684.352 58.5072 684.199 58.1739C684.052 57.8339 683.979 57.4339 683.979 56.9739C683.979 56.5739 684.089 56.1906 684.309 55.8239C684.529 55.4506 684.882 55.1206 685.369 54.8339C685.862 54.5472 686.505 54.3139 687.299 54.1339C688.092 53.9472 689.062 53.8406 690.209 53.8139V53.0239C690.209 52.2372 690.039 51.6439 689.699 51.2439C689.365 50.8372 688.869 50.6339 688.209 50.6339C687.775 50.6339 687.409 50.6906 687.109 50.8039C686.815 50.9106 686.559 51.0339 686.339 51.1739C686.125 51.3072 685.939 51.4306 685.779 51.5439C685.625 51.6506 685.472 51.7039 685.319 51.7039C685.199 51.7039 685.092 51.6739 684.999 51.6139C684.912 51.5472 684.842 51.4672 684.789 51.3739L684.469 50.8039C685.029 50.2639 685.632 49.8606 686.279 49.5939C686.925 49.3272 687.642 49.1939 688.429 49.1939C688.995 49.1939 689.499 49.2872 689.939 49.4739C690.379 49.6606 690.749 49.9206 691.049 50.2539C691.349 50.5872 691.575 50.9906 691.729 51.4639C691.882 51.9372 691.959 52.4572 691.959 53.0239V59.5039ZM687.339 58.4139C687.652 58.4139 687.939 58.3839 688.199 58.3239C688.459 58.2572 688.702 58.1672 688.929 58.0539C689.162 57.9339 689.382 57.7906 689.589 57.6239C689.802 57.4572 690.009 57.2672 690.209 57.0539V54.9439C689.389 54.9706 688.692 55.0372 688.119 55.1439C687.545 55.2439 687.079 55.3772 686.719 55.5439C686.359 55.7106 686.095 55.9072 685.929 56.1339C685.769 56.3606 685.689 56.6139 685.689 56.8939C685.689 57.1606 685.732 57.3906 685.819 57.5839C685.905 57.7772 686.022 57.9372 686.169 58.0639C686.315 58.1839 686.489 58.2739 686.689 58.3339C686.889 58.3872 687.105 58.4139 687.339 58.4139ZM694.655 59.5039V49.3739H695.675C695.869 49.3739 696.002 49.4106 696.075 49.4839C696.149 49.5572 696.199 49.6839 696.225 49.8639L696.345 51.4439C696.692 50.7372 697.119 50.1872 697.625 49.7939C698.139 49.3939 698.739 49.1939 699.425 49.1939C699.705 49.1939 699.959 49.2272 700.185 49.2939C700.412 49.3539 700.622 49.4406 700.815 49.5539L700.585 50.8839C700.539 51.0506 700.435 51.1339 700.275 51.1339C700.182 51.1339 700.039 51.1039 699.845 51.0439C699.652 50.9772 699.382 50.9439 699.035 50.9439C698.415 50.9439 697.895 51.1239 697.475 51.4839C697.062 51.8439 696.715 52.3672 696.435 53.0539V59.5039H694.655ZM704.572 44.7739V53.4439H705.032C705.165 53.4439 705.275 53.4272 705.362 53.3939C705.448 53.3539 705.545 53.2772 705.652 53.1639L708.852 49.7339C708.952 49.6272 709.052 49.5406 709.152 49.4739C709.252 49.4072 709.385 49.3739 709.552 49.3739H711.172L707.442 53.3439C707.348 53.4572 707.255 53.5572 707.162 53.6439C707.075 53.7306 706.975 53.8072 706.862 53.8739C706.982 53.9539 707.088 54.0472 707.182 54.1539C707.282 54.2539 707.375 54.3706 707.462 54.5039L711.422 59.5039H709.822C709.675 59.5039 709.548 59.4772 709.442 59.4239C709.342 59.3639 709.245 59.2739 709.152 59.1539L705.822 55.0039C705.722 54.8639 705.622 54.7739 705.522 54.7339C705.422 54.6872 705.272 54.6639 705.072 54.6639H704.572V59.5039H702.782V44.7739H704.572ZM717.357 59.5039V45.1739H721.927C722.807 45.1739 723.564 45.2606 724.197 45.4339C724.837 45.6072 725.361 45.8539 725.767 46.1739C726.181 46.4939 726.484 46.8872 726.677 47.3539C726.877 47.8139 726.977 48.3339 726.977 48.9139C726.977 49.2672 726.921 49.6072 726.807 49.9339C726.701 50.2606 726.534 50.5639 726.307 50.8439C726.087 51.1239 725.807 51.3739 725.467 51.5939C725.134 51.8139 724.741 51.9939 724.287 52.1339C725.334 52.3406 726.124 52.7172 726.657 53.2639C727.191 53.8106 727.457 54.5306 727.457 55.4239C727.457 56.0306 727.344 56.5839 727.117 57.0839C726.897 57.5839 726.571 58.0139 726.137 58.3739C725.711 58.7339 725.184 59.0139 724.557 59.2139C723.937 59.4072 723.227 59.5039 722.427 59.5039H717.357ZM719.297 52.9739V57.9639H722.397C722.951 57.9639 723.424 57.9006 723.817 57.7739C724.217 57.6472 724.544 57.4706 724.797 57.2439C725.057 57.0106 725.247 56.7372 725.367 56.4239C725.487 56.1039 725.547 55.7539 725.547 55.3739C725.547 54.6339 725.284 54.0506 724.757 53.6239C724.237 53.1906 723.447 52.9739 722.387 52.9739H719.297ZM719.297 51.5939H721.857C722.404 51.5939 722.877 51.5339 723.277 51.4139C723.677 51.2939 724.007 51.1272 724.267 50.9139C724.534 50.7006 724.731 50.4439 724.857 50.1439C724.984 49.8372 725.047 49.5039 725.047 49.1439C725.047 48.3039 724.794 47.6872 724.287 47.2939C723.781 46.9006 722.994 46.7039 721.927 46.7039H719.297V51.5939ZM733.436 49.2039C733.876 49.2039 734.286 49.2539 734.666 49.3539C735.053 49.4472 735.403 49.5872 735.716 49.7739H738.466V50.4339C738.466 50.6539 738.326 50.7939 738.046 50.8539L736.896 51.0139C737.123 51.4472 737.236 51.9306 737.236 52.4639C737.236 52.9572 737.14 53.4072 736.946 53.8139C736.76 54.2139 736.496 54.5572 736.156 54.8439C735.823 55.1306 735.423 55.3506 734.956 55.5039C734.496 55.6572 733.99 55.7339 733.436 55.7339C732.963 55.7339 732.516 55.6772 732.096 55.5639C731.883 55.6972 731.72 55.8406 731.606 55.9939C731.5 56.1472 731.446 56.2972 731.446 56.4439C731.446 56.6839 731.543 56.8672 731.736 56.9939C731.93 57.1139 732.186 57.2006 732.506 57.2539C732.826 57.3072 733.19 57.3406 733.596 57.3539C734.003 57.3672 734.416 57.3906 734.836 57.4239C735.263 57.4506 735.68 57.5006 736.086 57.5739C736.493 57.6472 736.856 57.7672 737.176 57.9339C737.496 58.1006 737.753 58.3306 737.946 58.6239C738.14 58.9172 738.236 59.2972 738.236 59.7639C738.236 60.1972 738.126 60.6172 737.906 61.0239C737.693 61.4306 737.383 61.7906 736.976 62.1039C736.57 62.4239 736.073 62.6772 735.486 62.8639C734.9 63.0572 734.236 63.1539 733.496 63.1539C732.756 63.1539 732.106 63.0806 731.546 62.9339C730.993 62.7872 730.533 62.5906 730.166 62.3439C729.8 62.0972 729.523 61.8106 729.336 61.4839C729.156 61.1639 729.066 60.8272 729.066 60.4739C729.066 59.9739 729.223 59.5506 729.536 59.2039C729.856 58.8506 730.293 58.5706 730.846 58.3639C730.56 58.2306 730.33 58.0539 730.156 57.8339C729.99 57.6072 729.906 57.3072 729.906 56.9339C729.906 56.7872 729.933 56.6372 729.986 56.4839C730.04 56.3239 730.12 56.1672 730.226 56.0139C730.34 55.8606 730.476 55.7139 730.636 55.5739C730.796 55.4339 730.983 55.3106 731.196 55.2039C730.696 54.9239 730.303 54.5539 730.016 54.0939C729.736 53.6272 729.596 53.0839 729.596 52.4639C729.596 51.9706 729.69 51.5239 729.876 51.1239C730.07 50.7172 730.336 50.3739 730.676 50.0939C731.016 49.8072 731.42 49.5872 731.886 49.4339C732.36 49.2806 732.876 49.2039 733.436 49.2039ZM736.596 60.0539C736.596 59.8006 736.526 59.5972 736.386 59.4439C736.246 59.2906 736.056 59.1739 735.816 59.0939C735.576 59.0072 735.3 58.9439 734.986 58.9039C734.673 58.8639 734.343 58.8372 733.996 58.8239C733.65 58.8039 733.296 58.7839 732.936 58.7639C732.576 58.7439 732.233 58.7072 731.906 58.6539C731.526 58.8339 731.216 59.0539 730.976 59.3139C730.743 59.5739 730.626 59.8839 730.626 60.2439C730.626 60.4706 730.683 60.6806 730.796 60.8739C730.916 61.0739 731.096 61.2439 731.336 61.3839C731.576 61.5306 731.876 61.6439 732.236 61.7239C732.603 61.8106 733.033 61.8539 733.526 61.8539C734.006 61.8539 734.436 61.8106 734.816 61.7239C735.196 61.6372 735.516 61.5139 735.776 61.3539C736.043 61.1939 736.246 61.0039 736.386 60.7839C736.526 60.5639 736.596 60.3206 736.596 60.0539ZM733.436 54.5539C733.796 54.5539 734.113 54.5039 734.386 54.4039C734.666 54.3039 734.9 54.1639 735.086 53.9839C735.273 53.8039 735.413 53.5906 735.506 53.3439C735.6 53.0906 735.646 52.8139 735.646 52.5139C735.646 51.8939 735.456 51.4006 735.076 51.0339C734.703 50.6672 734.156 50.4839 733.436 50.4839C732.723 50.4839 732.176 50.6672 731.796 51.0339C731.423 51.4006 731.236 51.8939 731.236 52.5139C731.236 52.8139 731.283 53.0906 731.376 53.3439C731.476 53.5906 731.62 53.8039 731.806 53.9839C731.993 54.1639 732.223 54.3039 732.496 54.4039C732.77 54.5039 733.083 54.5539 733.436 54.5539Z" fill="black"/>
<path d="M675.9 100.274L675.06 104.504H674.25C674.097 104.504 673.967 104.447 673.86 104.334C673.753 104.221 673.7 104.074 673.7 103.894C673.7 103.867 673.7 103.844 673.7 103.824C673.707 103.797 673.713 103.767 673.72 103.734L674.43 100.274H671.96L671.25 103.824C671.197 104.071 671.093 104.247 670.94 104.354C670.793 104.454 670.623 104.504 670.43 104.504H669.64L670.49 100.274H669.03C668.877 100.274 668.757 100.237 668.67 100.164C668.583 100.084 668.54 99.9506 668.54 99.7639C668.54 99.7306 668.54 99.6939 668.54 99.6539C668.547 99.6139 668.553 99.5739 668.56 99.5339L668.64 98.9639H670.68L671.33 95.7039H669.01L669.14 94.9639C669.173 94.7706 669.25 94.6272 669.37 94.5339C669.49 94.4406 669.68 94.3939 669.94 94.3939H671.52L672.24 90.8139C672.28 90.6139 672.37 90.4572 672.51 90.3439C672.657 90.2306 672.83 90.1739 673.03 90.1739H673.83L672.99 94.3939H675.46L676.3 90.1739H677.09C677.257 90.1739 677.393 90.2239 677.5 90.3239C677.613 90.4239 677.67 90.5539 677.67 90.7139C677.67 90.7672 677.667 90.8106 677.66 90.8439L676.93 94.3939H679.05L678.92 95.1439C678.887 95.3372 678.807 95.4806 678.68 95.5739C678.56 95.6606 678.373 95.7039 678.12 95.7039H676.74L676.09 98.9639H677.88C678.04 98.9639 678.163 99.0039 678.25 99.0839C678.337 99.1572 678.38 99.2906 678.38 99.4839C678.38 99.5172 678.377 99.5539 678.37 99.5939C678.37 99.6272 678.367 99.6639 678.36 99.7039L678.27 100.274H675.9ZM672.15 98.9639H674.62L675.27 95.7039H672.8L672.15 98.9639ZM690.602 97.3439C690.602 98.5972 690.465 99.6839 690.192 100.604C689.925 101.517 689.558 102.274 689.092 102.874C688.625 103.474 688.072 103.921 687.432 104.214C686.798 104.507 686.118 104.654 685.392 104.654C684.658 104.654 683.975 104.507 683.342 104.214C682.715 103.921 682.168 103.474 681.702 102.874C681.235 102.274 680.868 101.517 680.602 100.604C680.335 99.6839 680.202 98.5972 680.202 97.3439C680.202 96.0906 680.335 95.0039 680.602 94.0839C680.868 93.1639 681.235 92.4039 681.702 91.8039C682.168 91.1972 682.715 90.7472 683.342 90.4539C683.975 90.1606 684.658 90.0139 685.392 90.0139C686.118 90.0139 686.798 90.1606 687.432 90.4539C688.072 90.7472 688.625 91.1972 689.092 91.8039C689.558 92.4039 689.925 93.1639 690.192 94.0839C690.465 95.0039 690.602 96.0906 690.602 97.3439ZM688.752 97.3439C688.752 96.2506 688.658 95.3339 688.472 94.5939C688.292 93.8472 688.045 93.2472 687.732 92.7939C687.425 92.3406 687.068 92.0172 686.662 91.8239C686.255 91.6239 685.832 91.5239 685.392 91.5239C684.952 91.5239 684.528 91.6239 684.122 91.8239C683.715 92.0172 683.358 92.3406 683.052 92.7939C682.745 93.2472 682.498 93.8472 682.312 94.5939C682.132 95.3339 682.042 96.2506 682.042 97.3439C682.042 98.4372 682.132 99.3539 682.312 100.094C682.498 100.834 682.745 101.431 683.052 101.884C683.358 102.337 683.715 102.664 684.122 102.864C684.528 103.057 684.952 103.154 685.392 103.154C685.832 103.154 686.255 103.057 686.662 102.864C687.068 102.664 687.425 102.337 687.732 101.884C688.045 101.431 688.292 100.834 688.472 100.094C688.658 99.3539 688.752 98.4372 688.752 97.3439ZM703.043 101.544C703.15 101.544 703.246 101.587 703.333 101.674L704.093 102.504C703.506 103.184 702.793 103.714 701.953 104.094C701.12 104.474 700.113 104.664 698.933 104.664C697.9 104.664 696.963 104.487 696.123 104.134C695.283 103.774 694.566 103.274 693.973 102.634C693.38 101.987 692.92 101.214 692.593 100.314C692.266 99.4139 692.103 98.4239 692.103 97.3439C692.103 96.2639 692.276 95.2739 692.623 94.3739C692.976 93.4739 693.47 92.7006 694.103 92.0539C694.736 91.4072 695.493 90.9072 696.373 90.5539C697.26 90.1939 698.236 90.0139 699.303 90.0139C700.356 90.0139 701.263 90.1772 702.023 90.5039C702.79 90.8306 703.47 91.2739 704.063 91.8339L703.433 92.7239C703.386 92.7906 703.333 92.8472 703.273 92.8939C703.213 92.9339 703.126 92.9539 703.013 92.9539C702.926 92.9539 702.833 92.9239 702.733 92.8639C702.64 92.7972 702.526 92.7172 702.393 92.6239C702.26 92.5306 702.103 92.4306 701.923 92.3239C701.743 92.2172 701.53 92.1172 701.283 92.0239C701.036 91.9306 700.75 91.8539 700.423 91.7939C700.096 91.7272 699.72 91.6939 699.293 91.6939C698.526 91.6939 697.823 91.8272 697.183 92.0939C696.55 92.3539 696.003 92.7272 695.543 93.2139C695.083 93.7006 694.723 94.2939 694.463 94.9939C694.21 95.6939 694.083 96.4772 694.083 97.3439C694.083 98.2372 694.21 99.0339 694.463 99.7339C694.723 100.434 695.073 101.027 695.513 101.514C695.96 101.994 696.486 102.361 697.093 102.614C697.7 102.867 698.353 102.994 699.053 102.994C699.48 102.994 699.863 102.971 700.203 102.924C700.543 102.871 700.856 102.791 701.143 102.684C701.436 102.577 701.706 102.444 701.953 102.284C702.206 102.117 702.46 101.921 702.713 101.694C702.826 101.594 702.936 101.544 703.043 101.544ZM707.765 103.144H710.845V93.3739C710.845 93.0806 710.855 92.7839 710.875 92.4839L708.315 94.6739C708.248 94.7272 708.181 94.7672 708.115 94.7939C708.048 94.8139 707.985 94.8239 707.925 94.8239C707.825 94.8239 707.735 94.8039 707.655 94.7639C707.575 94.7172 707.515 94.6639 707.475 94.6039L706.915 93.8339L711.175 90.1439H712.625V103.144H715.445V104.504H707.765V103.144ZM727.496 97.3439C727.496 98.5972 727.359 99.6839 727.086 100.604C726.819 101.517 726.453 102.274 725.986 102.874C725.519 103.474 724.966 103.921 724.326 104.214C723.693 104.507 723.013 104.654 722.286 104.654C721.553 104.654 720.869 104.507 720.236 104.214C719.609 103.921 719.063 103.474 718.596 102.874C718.129 102.274 717.763 101.517 717.496 100.604C717.229 99.6839 717.096 98.5972 717.096 97.3439C717.096 96.0906 717.229 95.0039 717.496 94.0839C717.763 93.1639 718.129 92.4039 718.596 91.8039C719.063 91.1972 719.609 90.7472 720.236 90.4539C720.869 90.1606 721.553 90.0139 722.286 90.0139C723.013 90.0139 723.693 90.1606 724.326 90.4539C724.966 90.7472 725.519 91.1972 725.986 91.8039C726.453 92.4039 726.819 93.1639 727.086 94.0839C727.359 95.0039 727.496 96.0906 727.496 97.3439ZM725.646 97.3439C725.646 96.2506 725.553 95.3339 725.366 94.5939C725.186 93.8472 724.939 93.2472 724.626 92.7939C724.319 92.3406 723.963 92.0172 723.556 91.8239C723.149 91.6239 722.726 91.5239 722.286 91.5239C721.846 91.5239 721.423 91.6239 721.016 91.8239C720.609 92.0172 720.253 92.3406 719.946 92.7939C719.639 93.2472 719.393 93.8472 719.206 94.5939C719.026 95.3339 718.936 96.2506 718.936 97.3439C718.936 98.4372 719.026 99.3539 719.206 100.094C719.393 100.834 719.639 101.431 719.946 101.884C720.253 102.337 720.609 102.664 721.016 102.864C721.423 103.057 721.846 103.154 722.286 103.154C722.726 103.154 723.149 103.057 723.556 102.864C723.963 102.664 724.319 102.337 724.626 101.884C724.939 101.431 725.186 100.834 725.366 100.094C725.553 99.3539 725.646 98.4372 725.646 97.3439ZM734.108 90.0139C734.714 90.0139 735.281 90.1039 735.808 90.2839C736.334 90.4639 736.788 90.7272 737.168 91.0739C737.554 91.4139 737.858 91.8306 738.078 92.3239C738.298 92.8172 738.408 93.3772 738.408 94.0039C738.408 94.5372 738.328 95.0306 738.168 95.4839C738.008 95.9372 737.791 96.3739 737.518 96.7939C737.244 97.2072 736.928 97.6106 736.568 98.0039C736.214 98.3906 735.838 98.7872 735.438 99.1939L731.668 103.054C731.934 102.981 732.204 102.924 732.478 102.884C732.751 102.837 733.014 102.814 733.268 102.814H738.068C738.261 102.814 738.414 102.871 738.528 102.984C738.641 103.097 738.698 103.244 738.698 103.424V104.504H729.138V103.894C729.138 103.767 729.161 103.637 729.208 103.504C729.261 103.371 729.344 103.247 729.458 103.134L734.048 98.5239C734.428 98.1372 734.774 97.7672 735.088 97.4139C735.401 97.0539 735.668 96.6939 735.888 96.3339C736.114 95.9739 736.288 95.6106 736.408 95.2439C736.528 94.8706 736.588 94.4739 736.588 94.0539C736.588 93.6339 736.521 93.2672 736.388 92.9539C736.254 92.6339 736.071 92.3706 735.838 92.1639C735.604 91.9572 735.331 91.8039 735.018 91.7039C734.704 91.5972 734.368 91.5439 734.008 91.5439C733.648 91.5439 733.314 91.5972 733.008 91.7039C732.701 91.8106 732.428 91.9606 732.188 92.1539C731.954 92.3406 731.754 92.5639 731.588 92.8239C731.428 93.0839 731.314 93.3706 731.248 93.6839C731.194 93.8772 731.114 94.0172 731.008 94.1039C730.901 94.1906 730.761 94.2339 730.588 94.2339C730.554 94.2339 730.518 94.2339 730.478 94.2339C730.444 94.2272 730.404 94.2206 730.358 94.2139L729.428 94.0539C729.521 93.4006 729.701 92.8239 729.968 92.3239C730.234 91.8172 730.571 91.3939 730.978 91.0539C731.391 90.7139 731.861 90.4572 732.388 90.2839C732.921 90.1039 733.494 90.0139 734.108 90.0139ZM750.539 90.1739V90.9739C750.539 91.2006 750.513 91.3872 750.459 91.5339C750.413 91.6806 750.363 91.8039 750.309 91.9039L744.379 103.874C744.293 104.047 744.173 104.197 744.019 104.324C743.866 104.444 743.659 104.504 743.399 104.504H742.129L748.149 92.6839C748.236 92.5172 748.323 92.3639 748.409 92.2239C748.503 92.0839 748.606 91.9506 748.719 91.8239H741.239C741.126 91.8239 741.023 91.7806 740.929 91.6939C740.843 91.6006 740.799 91.4972 740.799 91.3839V90.1739H750.539Z" fill="black"/>
<rect x="1002" y="0.503906" width="300" height="12" rx="6" fill="#707070"/>
<path d="M1012.57 45.1739V46.7539H1005.69V51.7639H1011.57V53.3439H1005.69V59.5039H1003.74V45.1739H1012.57ZM1018.2 49.2039C1018.64 49.2039 1019.05 49.2539 1019.43 49.3539C1019.81 49.4472 1020.16 49.5872 1020.48 49.7739H1023.23V50.4339C1023.23 50.6539 1023.09 50.7939 1022.81 50.8539L1021.66 51.0139C1021.88 51.4472 1022 51.9306 1022 52.4639C1022 52.9572 1021.9 53.4072 1021.71 53.8139C1021.52 54.2139 1021.26 54.5572 1020.92 54.8439C1020.58 55.1306 1020.18 55.3506 1019.72 55.5039C1019.26 55.6572 1018.75 55.7339 1018.2 55.7339C1017.72 55.7339 1017.28 55.6772 1016.86 55.5639C1016.64 55.6972 1016.48 55.8406 1016.37 55.9939C1016.26 56.1472 1016.21 56.2972 1016.21 56.4439C1016.21 56.6839 1016.3 56.8672 1016.5 56.9939C1016.69 57.1139 1016.95 57.2006 1017.27 57.2539C1017.59 57.3072 1017.95 57.3406 1018.36 57.3539C1018.76 57.3672 1019.18 57.3906 1019.6 57.4239C1020.02 57.4506 1020.44 57.5006 1020.85 57.5739C1021.25 57.6472 1021.62 57.7672 1021.94 57.9339C1022.26 58.1006 1022.51 58.3306 1022.71 58.6239C1022.9 58.9172 1023 59.2972 1023 59.7639C1023 60.1972 1022.89 60.6172 1022.67 61.0239C1022.45 61.4306 1022.14 61.7906 1021.74 62.1039C1021.33 62.4239 1020.83 62.6772 1020.25 62.8639C1019.66 63.0572 1019 63.1539 1018.26 63.1539C1017.52 63.1539 1016.87 63.0806 1016.31 62.9339C1015.75 62.7872 1015.29 62.5906 1014.93 62.3439C1014.56 62.0972 1014.28 61.8106 1014.1 61.4839C1013.92 61.1639 1013.83 60.8272 1013.83 60.4739C1013.83 59.9739 1013.98 59.5506 1014.3 59.2039C1014.62 58.8506 1015.05 58.5706 1015.61 58.3639C1015.32 58.2306 1015.09 58.0539 1014.92 57.8339C1014.75 57.6072 1014.67 57.3072 1014.67 56.9339C1014.67 56.7872 1014.69 56.6372 1014.75 56.4839C1014.8 56.3239 1014.88 56.1672 1014.99 56.0139C1015.1 55.8606 1015.24 55.7139 1015.4 55.5739C1015.56 55.4339 1015.74 55.3106 1015.96 55.2039C1015.46 54.9239 1015.06 54.5539 1014.78 54.0939C1014.5 53.6272 1014.36 53.0839 1014.36 52.4639C1014.36 51.9706 1014.45 51.5239 1014.64 51.1239C1014.83 50.7172 1015.1 50.3739 1015.44 50.0939C1015.78 49.8072 1016.18 49.5872 1016.65 49.4339C1017.12 49.2806 1017.64 49.2039 1018.2 49.2039ZM1021.36 60.0539C1021.36 59.8006 1021.29 59.5972 1021.15 59.4439C1021.01 59.2906 1020.82 59.1739 1020.58 59.0939C1020.34 59.0072 1020.06 58.9439 1019.75 58.9039C1019.43 58.8639 1019.1 58.8372 1018.76 58.8239C1018.41 58.8039 1018.06 58.7839 1017.7 58.7639C1017.34 58.7439 1016.99 58.7072 1016.67 58.6539C1016.29 58.8339 1015.98 59.0539 1015.74 59.3139C1015.5 59.5739 1015.39 59.8839 1015.39 60.2439C1015.39 60.4706 1015.44 60.6806 1015.56 60.8739C1015.68 61.0739 1015.86 61.2439 1016.1 61.3839C1016.34 61.5306 1016.64 61.6439 1017 61.7239C1017.36 61.8106 1017.79 61.8539 1018.29 61.8539C1018.77 61.8539 1019.2 61.8106 1019.58 61.7239C1019.96 61.6372 1020.28 61.5139 1020.54 61.3539C1020.8 61.1939 1021.01 61.0039 1021.15 60.7839C1021.29 60.5639 1021.36 60.3206 1021.36 60.0539ZM1018.2 54.5539C1018.56 54.5539 1018.87 54.5039 1019.15 54.4039C1019.43 54.3039 1019.66 54.1639 1019.85 53.9839C1020.03 53.8039 1020.17 53.5906 1020.27 53.3439C1020.36 53.0906 1020.41 52.8139 1020.41 52.5139C1020.41 51.8939 1020.22 51.4006 1019.84 51.0339C1019.46 50.6672 1018.92 50.4839 1018.2 50.4839C1017.48 50.4839 1016.94 50.6672 1016.56 51.0339C1016.18 51.4006 1016 51.8939 1016 52.5139C1016 52.8139 1016.04 53.0906 1016.14 53.3439C1016.24 53.5906 1016.38 53.8039 1016.57 53.9839C1016.75 54.1639 1016.98 54.3039 1017.26 54.4039C1017.53 54.5039 1017.84 54.5539 1018.2 54.5539Z" fill="black"/>
<path d="M1009.9 100.274L1009.06 104.504H1008.25C1008.1 104.504 1007.97 104.447 1007.86 104.334C1007.75 104.221 1007.7 104.074 1007.7 103.894C1007.7 103.867 1007.7 103.844 1007.7 103.824C1007.71 103.797 1007.71 103.767 1007.72 103.734L1008.43 100.274H1005.96L1005.25 103.824C1005.2 104.071 1005.09 104.247 1004.94 104.354C1004.79 104.454 1004.62 104.504 1004.43 104.504H1003.64L1004.49 100.274H1003.03C1002.88 100.274 1002.76 100.237 1002.67 100.164C1002.58 100.084 1002.54 99.9506 1002.54 99.7639C1002.54 99.7306 1002.54 99.6939 1002.54 99.6539C1002.55 99.6139 1002.55 99.5739 1002.56 99.5339L1002.64 98.9639H1004.68L1005.33 95.7039H1003.01L1003.14 94.9639C1003.17 94.7706 1003.25 94.6272 1003.37 94.5339C1003.49 94.4406 1003.68 94.3939 1003.94 94.3939H1005.52L1006.24 90.8139C1006.28 90.6139 1006.37 90.4572 1006.51 90.3439C1006.66 90.2306 1006.83 90.1739 1007.03 90.1739H1007.83L1006.99 94.3939H1009.46L1010.3 90.1739H1011.09C1011.26 90.1739 1011.39 90.2239 1011.5 90.3239C1011.61 90.4239 1011.67 90.5539 1011.67 90.7139C1011.67 90.7672 1011.67 90.8106 1011.66 90.8439L1010.93 94.3939H1013.05L1012.92 95.1439C1012.89 95.3372 1012.81 95.4806 1012.68 95.5739C1012.56 95.6606 1012.37 95.7039 1012.12 95.7039H1010.74L1010.09 98.9639H1011.88C1012.04 98.9639 1012.16 99.0039 1012.25 99.0839C1012.34 99.1572 1012.38 99.2906 1012.38 99.4839C1012.38 99.5172 1012.38 99.5539 1012.37 99.5939C1012.37 99.6272 1012.37 99.6639 1012.36 99.7039L1012.27 100.274H1009.9ZM1006.15 98.9639H1008.62L1009.27 95.7039H1006.8L1006.15 98.9639ZM1024.44 90.1739V90.9739C1024.44 91.2006 1024.41 91.3872 1024.36 91.5339C1024.31 91.6806 1024.26 91.8039 1024.21 91.9039L1018.28 103.874C1018.19 104.047 1018.07 104.197 1017.92 104.324C1017.77 104.444 1017.56 104.504 1017.3 104.504H1016.03L1022.05 92.6839C1022.14 92.5172 1022.22 92.3639 1022.31 92.2239C1022.4 92.0839 1022.51 91.9506 1022.62 91.8239H1015.14C1015.03 91.8239 1014.92 91.7806 1014.83 91.6939C1014.74 91.6006 1014.7 91.4972 1014.7 91.3839V90.1739H1024.44ZM1036.2 97.3439C1036.2 98.5972 1036.07 99.6839 1035.79 100.604C1035.53 101.517 1035.16 102.274 1034.69 102.874C1034.23 103.474 1033.67 103.921 1033.03 104.214C1032.4 104.507 1031.72 104.654 1030.99 104.654C1030.26 104.654 1029.58 104.507 1028.94 104.214C1028.32 103.921 1027.77 103.474 1027.3 102.874C1026.84 102.274 1026.47 101.517 1026.2 100.604C1025.94 99.6839 1025.8 98.5972 1025.8 97.3439C1025.8 96.0906 1025.94 95.0039 1026.2 94.0839C1026.47 93.1639 1026.84 92.4039 1027.3 91.8039C1027.77 91.1972 1028.32 90.7472 1028.94 90.4539C1029.58 90.1606 1030.26 90.0139 1030.99 90.0139C1031.72 90.0139 1032.4 90.1606 1033.03 90.4539C1033.67 90.7472 1034.23 91.1972 1034.69 91.8039C1035.16 92.4039 1035.53 93.1639 1035.79 94.0839C1036.07 95.0039 1036.2 96.0906 1036.2 97.3439ZM1034.35 97.3439C1034.35 96.2506 1034.26 95.3339 1034.07 94.5939C1033.89 93.8472 1033.65 93.2472 1033.33 92.7939C1033.03 92.3406 1032.67 92.0172 1032.26 91.8239C1031.86 91.6239 1031.43 91.5239 1030.99 91.5239C1030.55 91.5239 1030.13 91.6239 1029.72 91.8239C1029.32 92.0172 1028.96 92.3406 1028.65 92.7939C1028.35 93.2472 1028.1 93.8472 1027.91 94.5939C1027.73 95.3339 1027.64 96.2506 1027.64 97.3439C1027.64 98.4372 1027.73 99.3539 1027.91 100.094C1028.1 100.834 1028.35 101.431 1028.65 101.884C1028.96 102.337 1029.32 102.664 1029.72 102.864C1030.13 103.057 1030.55 103.154 1030.99 103.154C1031.43 103.154 1031.86 103.057 1032.26 102.864C1032.67 102.664 1033.03 102.337 1033.33 101.884C1033.65 101.431 1033.89 100.834 1034.07 100.094C1034.26 99.3539 1034.35 98.4372 1034.35 97.3439ZM1047.64 90.1739V90.9739C1047.64 91.2006 1047.62 91.3872 1047.56 91.5339C1047.52 91.6806 1047.47 91.8039 1047.41 91.9039L1041.48 103.874C1041.4 104.047 1041.28 104.197 1041.12 104.324C1040.97 104.444 1040.76 104.504 1040.5 104.504H1039.23L1045.25 92.6839C1045.34 92.5172 1045.43 92.3639 1045.51 92.2239C1045.61 92.0839 1045.71 91.9506 1045.82 91.8239H1038.34C1038.23 91.8239 1038.13 91.7806 1038.03 91.6939C1037.95 91.6006 1037.9 91.4972 1037.9 91.3839V90.1739H1047.64ZM1059.41 97.3439C1059.41 98.5972 1059.27 99.6839 1059 100.604C1058.73 101.517 1058.36 102.274 1057.9 102.874C1057.43 103.474 1056.88 103.921 1056.24 104.214C1055.6 104.507 1054.92 104.654 1054.2 104.654C1053.46 104.654 1052.78 104.507 1052.15 104.214C1051.52 103.921 1050.97 103.474 1050.51 102.874C1050.04 102.274 1049.67 101.517 1049.41 100.604C1049.14 99.6839 1049.01 98.5972 1049.01 97.3439C1049.01 96.0906 1049.14 95.0039 1049.41 94.0839C1049.67 93.1639 1050.04 92.4039 1050.51 91.8039C1050.97 91.1972 1051.52 90.7472 1052.15 90.4539C1052.78 90.1606 1053.46 90.0139 1054.2 90.0139C1054.92 90.0139 1055.6 90.1606 1056.24 90.4539C1056.88 90.7472 1057.43 91.1972 1057.9 91.8039C1058.36 92.4039 1058.73 93.1639 1059 94.0839C1059.27 95.0039 1059.41 96.0906 1059.41 97.3439ZM1057.56 97.3439C1057.56 96.2506 1057.46 95.3339 1057.28 94.5939C1057.1 93.8472 1056.85 93.2472 1056.54 92.7939C1056.23 92.3406 1055.87 92.0172 1055.47 91.8239C1055.06 91.6239 1054.64 91.5239 1054.2 91.5239C1053.76 91.5239 1053.33 91.6239 1052.93 91.8239C1052.52 92.0172 1052.16 92.3406 1051.86 92.7939C1051.55 93.2472 1051.3 93.8472 1051.12 94.5939C1050.94 95.3339 1050.85 96.2506 1050.85 97.3439C1050.85 98.4372 1050.94 99.3539 1051.12 100.094C1051.3 100.834 1051.55 101.431 1051.86 101.884C1052.16 102.337 1052.52 102.664 1052.93 102.864C1053.33 103.057 1053.76 103.154 1054.2 103.154C1054.64 103.154 1055.06 103.057 1055.47 102.864C1055.87 102.664 1056.23 102.337 1056.54 101.884C1056.85 101.431 1057.1 100.834 1057.28 100.094C1057.46 99.3539 1057.56 98.4372 1057.56 97.3439ZM1070.85 90.1739V90.9739C1070.85 91.2006 1070.82 91.3872 1070.77 91.5339C1070.72 91.6806 1070.67 91.8039 1070.62 91.9039L1064.69 103.874C1064.6 104.047 1064.48 104.197 1064.33 104.324C1064.17 104.444 1063.97 104.504 1063.71 104.504H1062.44L1068.46 92.6839C1068.54 92.5172 1068.63 92.3639 1068.72 92.2239C1068.81 92.0839 1068.91 91.9506 1069.03 91.8239H1061.55C1061.43 91.8239 1061.33 91.7806 1061.24 91.6939C1061.15 91.6006 1061.11 91.4972 1061.11 91.3839V90.1739H1070.85ZM1082.61 97.3439C1082.61 98.5972 1082.47 99.6839 1082.2 100.604C1081.93 101.517 1081.57 102.274 1081.1 102.874C1080.63 103.474 1080.08 103.921 1079.44 104.214C1078.81 104.507 1078.13 104.654 1077.4 104.654C1076.67 104.654 1075.98 104.507 1075.35 104.214C1074.72 103.921 1074.18 103.474 1073.71 102.874C1073.24 102.274 1072.88 101.517 1072.61 100.604C1072.34 99.6839 1072.21 98.5972 1072.21 97.3439C1072.21 96.0906 1072.34 95.0039 1072.61 94.0839C1072.88 93.1639 1073.24 92.4039 1073.71 91.8039C1074.18 91.1972 1074.72 90.7472 1075.35 90.4539C1075.98 90.1606 1076.67 90.0139 1077.4 90.0139C1078.13 90.0139 1078.81 90.1606 1079.44 90.4539C1080.08 90.7472 1080.63 91.1972 1081.1 91.8039C1081.57 92.4039 1081.93 93.1639 1082.2 94.0839C1082.47 95.0039 1082.61 96.0906 1082.61 97.3439ZM1080.76 97.3439C1080.76 96.2506 1080.67 95.3339 1080.48 94.5939C1080.3 93.8472 1080.05 93.2472 1079.74 92.7939C1079.43 92.3406 1079.08 92.0172 1078.67 91.8239C1078.26 91.6239 1077.84 91.5239 1077.4 91.5239C1076.96 91.5239 1076.54 91.6239 1076.13 91.8239C1075.72 92.0172 1075.37 92.3406 1075.06 92.7939C1074.75 93.2472 1074.51 93.8472 1074.32 94.5939C1074.14 95.3339 1074.05 96.2506 1074.05 97.3439C1074.05 98.4372 1074.14 99.3539 1074.32 100.094C1074.51 100.834 1074.75 101.431 1075.06 101.884C1075.37 102.337 1075.72 102.664 1076.13 102.864C1076.54 103.057 1076.96 103.154 1077.4 103.154C1077.84 103.154 1078.26 103.057 1078.67 102.864C1079.08 102.664 1079.43 102.337 1079.74 101.884C1080.05 101.431 1080.3 100.834 1080.48 100.094C1080.67 99.3539 1080.76 98.4372 1080.76 97.3439Z" fill="black"/>
</svg>
