<svg width="370" height="228" viewBox="0 0 370 228" fill="none" xmlns="http://www.w3.org/2000/svg">
<ellipse cx="331.158" cy="153.179" rx="38.1582" ry="37.5427" fill="#121212"/>
<path d="M311.399 157.637L312.831 148.909H314.024L312.592 157.637H311.399ZM307.466 155.387L307.666 154.194H314.382L314.181 155.387H307.466ZM308.331 157.637L309.762 148.909H310.956L309.524 157.637H308.331ZM307.973 152.353L308.169 151.159H314.885L314.689 152.353H307.973ZM319.364 148.909V157.637H317.783V150.448H317.732L315.691 151.752V150.303L317.86 148.909H319.364ZM321.58 157.637V156.495L324.61 153.525C324.9 153.232 325.141 152.972 325.335 152.745C325.528 152.517 325.673 152.297 325.769 152.084C325.866 151.871 325.914 151.644 325.914 151.402C325.914 151.127 325.852 150.891 325.727 150.695C325.602 150.496 325.43 150.343 325.211 150.235C324.992 150.127 324.744 150.073 324.465 150.073C324.178 150.073 323.927 150.132 323.711 150.252C323.495 150.368 323.327 150.534 323.208 150.75C323.092 150.966 323.033 151.223 323.033 151.522H321.529C321.529 150.968 321.656 150.486 321.908 150.077C322.161 149.668 322.509 149.351 322.952 149.127C323.398 148.902 323.91 148.79 324.487 148.79C325.072 148.79 325.586 148.9 326.029 149.118C326.472 149.337 326.816 149.637 327.06 150.017C327.308 150.398 327.431 150.833 327.431 151.321C327.431 151.648 327.369 151.969 327.244 152.284C327.119 152.6 326.898 152.949 326.583 153.333C326.271 153.716 325.832 154.181 325.266 154.726L323.762 156.256V156.316H327.563V157.637H321.58ZM332.583 148.909V157.637H331.002V150.448H330.951L328.91 151.752V150.303L331.079 148.909H332.583ZM334.799 157.637V156.495L337.829 153.525C338.119 153.232 338.36 152.972 338.553 152.745C338.746 152.517 338.891 152.297 338.988 152.084C339.085 151.871 339.133 151.644 339.133 151.402C339.133 151.127 339.07 150.891 338.945 150.695C338.82 150.496 338.648 150.343 338.43 150.235C338.211 150.127 337.962 150.073 337.684 150.073C337.397 150.073 337.146 150.132 336.93 150.252C336.714 150.368 336.546 150.534 336.427 150.75C336.31 150.966 336.252 151.223 336.252 151.522H334.748C334.748 150.968 334.874 150.486 335.127 150.077C335.38 149.668 335.728 149.351 336.171 149.127C336.617 148.902 337.129 148.79 337.705 148.79C338.29 148.79 338.805 148.9 339.248 149.118C339.691 149.337 340.035 149.637 340.279 150.017C340.526 150.398 340.65 150.833 340.65 151.321C340.65 151.648 340.587 151.969 340.462 152.284C340.337 152.6 340.117 152.949 339.802 153.333C339.489 153.716 339.05 154.181 338.485 154.726L336.981 156.256V156.316H340.782V157.637H334.799ZM345.802 148.909V157.637H344.221V150.448H344.17L342.129 151.752V150.303L344.298 148.909H345.802ZM348.018 157.637V156.495L351.048 153.525C351.337 153.232 351.579 152.972 351.772 152.745C351.965 152.517 352.11 152.297 352.207 152.084C352.303 151.871 352.352 151.644 352.352 151.402C352.352 151.127 352.289 150.891 352.164 150.695C352.039 150.496 351.867 150.343 351.648 150.235C351.43 150.127 351.181 150.073 350.903 150.073C350.616 150.073 350.364 150.132 350.148 150.252C349.933 150.368 349.765 150.534 349.646 150.75C349.529 150.966 349.471 151.223 349.471 151.522H347.967C347.967 150.968 348.093 150.486 348.346 150.077C348.599 149.668 348.947 149.351 349.39 149.127C349.836 148.902 350.347 148.79 350.924 148.79C351.509 148.79 352.023 148.9 352.467 149.118C352.91 149.337 353.254 149.637 353.498 150.017C353.745 150.398 353.869 150.833 353.869 151.321C353.869 151.648 353.806 151.969 353.681 152.284C353.556 152.6 353.336 152.949 353.021 153.333C352.708 153.716 352.269 154.181 351.704 154.726L350.2 156.256V156.316H354.001V157.637H348.018Z" fill="white"/>
<circle cx="204.737" cy="176.737" r="50.737" fill="#006CC0"/>
<path d="M175.954 181.346L177.625 171.164H179.017L177.346 181.346H175.954ZM171.365 178.721L171.599 177.329H179.434L179.201 178.721H171.365ZM172.375 181.346L174.045 171.164H175.437L173.767 181.346H172.375ZM171.957 175.181L172.186 173.789H180.021L179.792 175.181H171.957ZM184.869 181.54C184.051 181.54 183.348 181.333 182.762 180.919C182.178 180.501 181.729 179.899 181.414 179.114C181.103 178.325 180.947 177.376 180.947 176.265C180.95 175.155 181.108 174.21 181.419 173.431C181.734 172.649 182.183 172.053 182.767 171.642C183.353 171.231 184.054 171.025 184.869 171.025C185.685 171.025 186.386 171.231 186.972 171.642C187.559 172.053 188.008 172.649 188.32 173.431C188.635 174.214 188.792 175.158 188.792 176.265C188.792 177.379 188.635 178.33 188.32 179.119C188.008 179.904 187.559 180.504 186.972 180.919C186.389 181.333 185.688 181.54 184.869 181.54ZM184.869 179.984C185.506 179.984 186.008 179.671 186.376 179.044C186.747 178.415 186.933 177.488 186.933 176.265C186.933 175.457 186.848 174.777 186.679 174.227C186.51 173.677 186.271 173.262 185.963 172.984C185.655 172.702 185.29 172.561 184.869 172.561C184.236 172.561 183.736 172.876 183.368 173.506C183 174.132 182.815 175.052 182.811 176.265C182.808 177.077 182.889 177.76 183.055 178.314C183.224 178.867 183.463 179.285 183.771 179.566C184.079 179.845 184.445 179.984 184.869 179.984ZM194.207 181.54C193.389 181.54 192.686 181.333 192.099 180.919C191.516 180.501 191.067 179.899 190.752 179.114C190.441 178.325 190.285 177.376 190.285 176.265C190.288 175.155 190.446 174.21 190.757 173.431C191.072 172.649 191.521 172.053 192.104 171.642C192.691 171.231 193.392 171.025 194.207 171.025C195.023 171.025 195.724 171.231 196.31 171.642C196.897 172.053 197.346 172.649 197.658 173.431C197.973 174.214 198.13 175.158 198.13 176.265C198.13 177.379 197.973 178.33 197.658 179.119C197.346 179.904 196.897 180.504 196.31 180.919C195.727 181.333 195.026 181.54 194.207 181.54ZM194.207 179.984C194.844 179.984 195.346 179.671 195.714 179.044C196.085 178.415 196.271 177.488 196.271 176.265C196.271 175.457 196.186 174.777 196.017 174.227C195.848 173.677 195.609 173.262 195.301 172.984C194.993 172.702 194.628 172.561 194.207 172.561C193.574 172.561 193.074 172.876 192.706 173.506C192.338 174.132 192.152 175.052 192.149 176.265C192.146 177.077 192.227 177.76 192.393 178.314C192.562 178.867 192.8 179.285 193.109 179.566C193.417 179.845 193.783 179.984 194.207 179.984ZM203.51 181.485C203.023 181.482 202.548 181.398 202.084 181.232C201.62 181.063 201.202 180.789 200.831 180.412C200.46 180.03 200.165 179.525 199.946 178.895C199.727 178.262 199.619 177.478 199.623 176.544C199.623 175.672 199.715 174.895 199.901 174.212C200.087 173.529 200.354 172.952 200.702 172.482C201.05 172.008 201.469 171.647 201.959 171.398C202.453 171.149 203.005 171.025 203.615 171.025C204.255 171.025 204.821 171.151 205.315 171.403C205.812 171.655 206.213 172 206.518 172.437C206.823 172.871 207.012 173.362 207.085 173.909H205.27C205.178 173.518 204.987 173.206 204.699 172.974C204.414 172.739 204.052 172.621 203.615 172.621C202.909 172.621 202.365 172.928 201.984 173.541C201.606 174.154 201.416 174.996 201.412 176.066H201.482C201.644 175.775 201.855 175.524 202.113 175.316C202.372 175.107 202.664 174.946 202.988 174.833C203.317 174.717 203.663 174.659 204.028 174.659C204.624 174.659 205.159 174.802 205.633 175.087C206.111 175.372 206.488 175.765 206.767 176.265C207.045 176.762 207.183 177.332 207.18 177.975C207.183 178.645 207.03 179.247 206.722 179.78C206.414 180.31 205.985 180.728 205.434 181.033C204.884 181.338 204.243 181.489 203.51 181.485ZM203.501 179.994C203.862 179.994 204.185 179.906 204.47 179.73C204.755 179.555 204.98 179.318 205.146 179.019C205.312 178.721 205.393 178.386 205.39 178.015C205.393 177.651 205.314 177.321 205.151 177.026C204.992 176.731 204.772 176.497 204.49 176.325C204.208 176.153 203.887 176.066 203.525 176.066C203.257 176.066 203.007 176.118 202.775 176.22C202.543 176.323 202.34 176.466 202.168 176.648C201.996 176.827 201.86 177.036 201.76 177.274C201.664 177.51 201.615 177.762 201.611 178.03C201.615 178.385 201.698 178.711 201.86 179.01C202.022 179.308 202.246 179.546 202.531 179.725C202.816 179.904 203.139 179.994 203.501 179.994ZM217.675 174.6H215.815C215.762 174.295 215.664 174.025 215.522 173.789C215.379 173.551 215.202 173.349 214.99 173.183C214.778 173.017 214.536 172.893 214.264 172.81C213.996 172.724 213.706 172.681 213.394 172.681C212.84 172.681 212.35 172.82 211.922 173.098C211.495 173.373 211.16 173.778 210.918 174.311C210.676 174.842 210.555 175.49 210.555 176.255C210.555 177.034 210.676 177.69 210.918 178.224C211.163 178.754 211.498 179.155 211.922 179.427C212.35 179.696 212.839 179.83 213.389 179.83C213.694 179.83 213.979 179.79 214.244 179.711C214.513 179.628 214.753 179.507 214.965 179.348C215.18 179.189 215.361 178.993 215.507 178.761C215.656 178.529 215.759 178.264 215.815 177.966L217.675 177.975C217.605 178.459 217.454 178.913 217.222 179.338C216.993 179.762 216.693 180.136 216.322 180.461C215.951 180.783 215.517 181.035 215.02 181.217C214.523 181.396 213.971 181.485 213.364 181.485C212.469 181.485 211.671 181.278 210.968 180.864C210.265 180.45 209.712 179.851 209.307 179.069C208.903 178.287 208.701 177.349 208.701 176.255C208.701 175.158 208.905 174.22 209.312 173.441C209.72 172.659 210.275 172.061 210.978 171.647C211.68 171.232 212.476 171.025 213.364 171.025C213.931 171.025 214.458 171.105 214.945 171.264C215.432 171.423 215.867 171.657 216.248 171.965C216.629 172.27 216.942 172.644 217.187 173.088C217.436 173.529 217.598 174.033 217.675 174.6ZM228.079 174.6H226.219C226.166 174.295 226.069 174.025 225.926 173.789C225.784 173.551 225.606 173.349 225.394 173.183C225.182 173.017 224.94 172.893 224.668 172.81C224.4 172.724 224.11 172.681 223.798 172.681C223.245 172.681 222.754 172.82 222.327 173.098C221.899 173.373 221.564 173.778 221.322 174.311C221.08 174.842 220.96 175.49 220.96 176.255C220.96 177.034 221.08 177.69 221.322 178.224C221.568 178.754 221.902 179.155 222.327 179.427C222.754 179.696 223.243 179.83 223.793 179.83C224.098 179.83 224.383 179.79 224.648 179.711C224.917 179.628 225.157 179.507 225.369 179.348C225.585 179.189 225.765 178.993 225.911 178.761C226.06 178.529 226.163 178.264 226.219 177.966L228.079 177.975C228.009 178.459 227.858 178.913 227.626 179.338C227.398 179.762 227.098 180.136 226.727 180.461C226.355 180.783 225.921 181.035 225.424 181.217C224.927 181.396 224.375 181.485 223.768 181.485C222.874 181.485 222.075 181.278 221.372 180.864C220.67 180.45 220.116 179.851 219.712 179.069C219.307 178.287 219.105 177.349 219.105 176.255C219.105 175.158 219.309 174.22 219.717 173.441C220.124 172.659 220.679 172.061 221.382 171.647C222.085 171.232 222.88 171.025 223.768 171.025C224.335 171.025 224.862 171.105 225.349 171.264C225.837 171.423 226.271 171.657 226.652 171.965C227.033 172.27 227.346 172.644 227.592 173.088C227.84 173.529 228.003 174.033 228.079 174.6ZM233.432 181.54C232.613 181.54 231.911 181.333 231.324 180.919C230.741 180.501 230.292 179.899 229.977 179.114C229.665 178.325 229.509 177.376 229.509 176.265C229.513 175.155 229.67 174.21 229.982 173.431C230.297 172.649 230.746 172.053 231.329 171.642C231.916 171.231 232.617 171.025 233.432 171.025C234.247 171.025 234.948 171.231 235.535 171.642C236.122 172.053 236.571 172.649 236.882 173.431C237.197 174.214 237.355 175.158 237.355 176.265C237.355 177.379 237.197 178.33 236.882 179.119C236.571 179.904 236.122 180.504 235.535 180.919C234.952 181.333 234.251 181.54 233.432 181.54ZM233.432 179.984C234.068 179.984 234.57 179.671 234.938 179.044C235.31 178.415 235.495 177.488 235.495 176.265C235.495 175.457 235.411 174.777 235.242 174.227C235.073 173.677 234.834 173.262 234.526 172.984C234.218 172.702 233.853 172.561 233.432 172.561C232.799 172.561 232.298 172.876 231.931 173.506C231.563 174.132 231.377 175.052 231.374 176.265C231.37 177.077 231.452 177.76 231.617 178.314C231.786 178.867 232.025 179.285 232.333 179.566C232.642 179.845 233.008 179.984 233.432 179.984Z" fill="white"/>
<ellipse cx="205.5" cy="52.9102" rx="37.5" ry="38" fill="#E08C0D"/>
<path d="M180.082 56.9102L181.514 48.1829H182.707L181.276 56.9102H180.082ZM176.149 54.6602L176.349 53.467H183.065L182.865 54.6602H176.149ZM177.014 56.9102L178.446 48.1829H179.639L178.207 56.9102H177.014ZM176.656 51.6261L176.852 50.4329H183.568L183.372 51.6261H176.656ZM184.583 56.9102V48.1829H190.26V49.5082H186.164V51.8775H189.966V53.2028H186.164V55.5849H190.294V56.9102H184.583ZM195.013 57.0763C194.311 57.0763 193.709 56.8988 193.206 56.5437C192.706 56.1857 192.321 55.6701 192.051 54.9968C191.784 54.3207 191.651 53.5067 191.651 52.555C191.654 51.6033 191.789 50.7937 192.056 50.1261C192.326 49.4556 192.711 48.9442 193.211 48.592C193.713 48.2397 194.314 48.0636 195.013 48.0636C195.712 48.0636 196.313 48.2397 196.816 48.592C197.319 48.9442 197.703 49.4556 197.971 50.1261C198.24 50.7965 198.375 51.6062 198.375 52.555C198.375 53.5096 198.24 54.3249 197.971 55.0011C197.703 55.6744 197.319 56.1886 196.816 56.5437C196.316 56.8988 195.715 57.0763 195.013 57.0763ZM195.013 55.7425C195.559 55.7425 195.989 55.4741 196.304 54.9371C196.623 54.3974 196.782 53.6033 196.782 52.555C196.782 51.8619 196.709 51.2795 196.564 50.8079C196.419 50.3363 196.215 49.9812 195.951 49.7425C195.686 49.5011 195.374 49.3803 195.013 49.3803C194.471 49.3803 194.042 49.6502 193.726 50.19C193.411 50.7269 193.252 51.5153 193.249 52.555C193.246 53.2511 193.316 53.8363 193.458 54.3107C193.603 54.7852 193.807 55.1431 194.071 55.3846C194.336 55.6232 194.65 55.7425 195.013 55.7425ZM202.893 57.0295C202.26 57.0295 201.697 56.9229 201.206 56.7099C200.717 56.4968 200.334 56.2056 200.055 55.8363C199.78 55.4641 199.643 55.0423 199.646 54.5707C199.643 54.2042 199.723 53.8675 199.885 53.5607C200.047 53.2539 200.266 52.9982 200.541 52.7937C200.82 52.5863 201.129 52.4542 201.47 52.3974V52.3377C201.021 52.2383 200.658 52.0096 200.379 51.6516C200.104 51.2908 199.967 50.8746 199.97 50.4031C199.967 49.9542 200.092 49.5536 200.345 49.2013C200.598 48.8491 200.945 48.5721 201.385 48.3704C201.825 48.1658 202.328 48.0636 202.893 48.0636C203.453 48.0636 203.952 48.1658 204.389 48.3704C204.83 48.5721 205.176 48.8491 205.429 49.2013C205.685 49.5536 205.812 49.9542 205.812 50.4031C205.812 50.8746 205.672 51.2908 205.391 51.6516C205.112 52.0096 204.753 52.2383 204.312 52.3377V52.3974C204.653 52.4542 204.96 52.5863 205.233 52.7937C205.509 52.9982 205.727 53.2539 205.889 53.5607C206.054 53.8675 206.136 54.2042 206.136 54.5707C206.136 55.0423 205.997 55.4641 205.719 55.8363C205.44 56.2056 205.057 56.4968 204.568 56.7099C204.082 56.9229 203.524 57.0295 202.893 57.0295ZM202.893 55.8107C203.22 55.8107 203.504 55.7553 203.746 55.6445C203.987 55.5309 204.175 55.3718 204.308 55.1673C204.442 54.9627 204.51 54.7269 204.513 54.4599C204.51 54.1815 204.438 53.9357 204.295 53.7227C204.156 53.5067 203.964 53.3377 203.72 53.2156C203.479 53.0934 203.203 53.0323 202.893 53.0323C202.581 53.0323 202.303 53.0934 202.058 53.2156C201.814 53.3377 201.621 53.5067 201.479 53.7227C201.339 53.9357 201.271 54.1815 201.274 54.4599C201.271 54.7269 201.337 54.9627 201.47 55.1673C201.604 55.369 201.791 55.5266 202.033 55.6403C202.277 55.7539 202.564 55.8107 202.893 55.8107ZM202.893 51.8349C203.161 51.8349 203.396 51.7809 203.601 51.6729C203.808 51.565 203.972 51.4144 204.091 51.2212C204.21 51.0281 204.271 50.805 204.274 50.5522C204.271 50.3022 204.212 50.0835 204.095 49.896C203.979 49.7056 203.817 49.5593 203.609 49.457C203.402 49.3519 203.163 49.2994 202.893 49.2994C202.618 49.2994 202.375 49.3519 202.165 49.457C201.957 49.5593 201.795 49.7056 201.679 49.896C201.565 50.0835 201.51 50.3022 201.513 50.5522C201.51 50.805 201.567 51.0281 201.683 51.2212C201.803 51.4116 201.966 51.5621 202.173 51.6729C202.384 51.7809 202.624 51.8349 202.893 51.8349ZM215.093 51.1275H213.499C213.453 50.8661 213.37 50.6346 213.248 50.4329C213.125 50.2283 212.973 50.055 212.792 49.913C212.61 49.771 212.402 49.6644 212.169 49.5934C211.939 49.5195 211.691 49.4826 211.424 49.4826C210.949 49.4826 210.529 49.6019 210.162 49.8406C209.796 50.0763 209.509 50.4229 209.301 50.8803C209.094 51.3349 208.99 51.8903 208.99 52.5465C208.99 53.2141 209.094 53.7766 209.301 54.234C209.512 54.6886 209.799 55.0323 210.162 55.2653C210.529 55.4954 210.948 55.6104 211.419 55.6104C211.681 55.6104 211.925 55.5763 212.152 55.5082C212.382 55.4371 212.588 55.3335 212.77 55.1971C212.955 55.0607 213.11 54.8931 213.235 54.6942C213.363 54.4954 213.451 54.2681 213.499 54.0124L215.093 54.021C215.033 54.4357 214.904 54.8249 214.705 55.1886C214.509 55.5522 214.252 55.8732 213.934 56.1516C213.615 56.4272 213.243 56.6431 212.817 56.7994C212.391 56.9528 211.918 57.0295 211.398 57.0295C210.631 57.0295 209.946 56.8519 209.344 56.4968C208.742 56.1417 208.267 55.6289 207.921 54.9585C207.574 54.288 207.401 53.484 207.401 52.5465C207.401 51.6062 207.576 50.8022 207.925 50.1346C208.275 49.4641 208.75 48.9513 209.353 48.5962C209.955 48.2411 210.637 48.0636 211.398 48.0636C211.884 48.0636 212.336 48.1317 212.753 48.2681C213.171 48.4045 213.543 48.6048 213.87 48.869C214.196 49.1303 214.465 49.4513 214.675 49.832C214.888 50.2099 215.027 50.6417 215.093 51.1275ZM219.681 57.0763C218.979 57.0763 218.377 56.8988 217.874 56.5437C217.374 56.1857 216.989 55.6701 216.719 54.9968C216.452 54.3207 216.319 53.5067 216.319 52.555C216.322 51.6033 216.457 50.7937 216.724 50.1261C216.994 49.4556 217.379 48.9442 217.879 48.592C218.381 48.2397 218.982 48.0636 219.681 48.0636C220.38 48.0636 220.981 48.2397 221.484 48.592C221.987 48.9442 222.371 49.4556 222.638 50.1261C222.908 50.7965 223.043 51.6062 223.043 52.555C223.043 53.5096 222.908 54.3249 222.638 55.0011C222.371 55.6744 221.987 56.1886 221.484 56.5437C220.984 56.8988 220.383 57.0763 219.681 57.0763ZM219.681 55.7425C220.227 55.7425 220.657 55.4741 220.972 54.9371C221.29 54.3974 221.45 53.6033 221.45 52.555C221.45 51.8619 221.377 51.2795 221.232 50.8079C221.087 50.3363 220.883 49.9812 220.619 49.7425C220.354 49.5011 220.042 49.3803 219.681 49.3803C219.138 49.3803 218.71 49.6502 218.394 50.19C218.079 50.7269 217.92 51.5153 217.917 52.555C217.914 53.2511 217.984 53.8363 218.126 54.3107C218.271 54.7852 218.475 55.1431 218.739 55.3846C219.004 55.6232 219.317 55.7425 219.681 55.7425ZM227.502 56.9102H224.544V48.1829H227.561C228.428 48.1829 229.172 48.3576 229.794 48.707C230.419 49.0536 230.9 49.5522 231.235 50.2028C231.57 50.8533 231.738 51.6317 231.738 52.538C231.738 53.4471 231.569 54.2283 231.23 54.8817C230.895 55.5352 230.411 56.0366 229.777 56.386C229.147 56.7354 228.388 56.9102 227.502 56.9102ZM226.125 55.5423H227.425C228.033 55.5423 228.54 55.4315 228.946 55.2099C229.353 54.9854 229.658 54.6516 229.863 54.2085C230.067 53.7624 230.169 53.2056 230.169 52.538C230.169 51.8704 230.067 51.3164 229.863 50.8761C229.658 50.4329 229.355 50.1019 228.955 49.8832C228.557 49.6616 228.063 49.5508 227.472 49.5508H226.125V55.5423Z" fill="white"/>
<circle cx="314" cy="36.6367" r="36" fill="#22DD99"/>
<path d="M291.742 40.6367L293.055 32.6367H294.148L292.836 40.6367H291.742ZM288.137 38.5742L288.32 37.4805H294.477L294.293 38.5742H288.137ZM288.93 40.6367L290.242 32.6367H291.336L290.023 40.6367H288.93ZM288.602 35.793L288.781 34.6992H294.937L294.758 35.793H288.602ZM295.79 40.6367V39.5898L298.567 36.8672C298.833 36.599 299.054 36.3607 299.231 36.1523C299.409 35.944 299.541 35.7422 299.63 35.5469C299.718 35.3516 299.763 35.1432 299.763 34.9219C299.763 34.6693 299.705 34.4531 299.591 34.2734C299.476 34.0911 299.319 33.9505 299.118 33.8516C298.918 33.7526 298.69 33.7031 298.435 33.7031C298.172 33.7031 297.941 33.7578 297.743 33.8672C297.545 33.974 297.392 34.1263 297.282 34.3242C297.175 34.5221 297.122 34.7578 297.122 35.0313H295.743C295.743 34.5234 295.859 34.082 296.091 33.707C296.323 33.332 296.642 33.0417 297.048 32.8359C297.457 32.6302 297.925 32.5273 298.454 32.5273C298.991 32.5273 299.462 32.6276 299.868 32.8281C300.274 33.0286 300.59 33.3034 300.813 33.6523C301.04 34.0013 301.153 34.3997 301.153 34.8477C301.153 35.1471 301.096 35.4414 300.981 35.7305C300.867 36.0195 300.665 36.3398 300.376 36.6914C300.09 37.043 299.687 37.4687 299.169 37.9687L297.79 39.3711V39.4258H301.274V40.6367H295.79ZM302.622 40.6367V39.5898L305.399 36.8672C305.665 36.599 305.886 36.3607 306.063 36.1523C306.241 35.944 306.373 35.7422 306.462 35.5469C306.55 35.3516 306.595 35.1432 306.595 34.9219C306.595 34.6693 306.537 34.4531 306.423 34.2734C306.308 34.0911 306.151 33.9505 305.95 33.8516C305.75 33.7526 305.522 33.7031 305.267 33.7031C305.004 33.7031 304.773 33.7578 304.575 33.8672C304.377 33.974 304.224 34.1263 304.114 34.3242C304.007 34.5221 303.954 34.7578 303.954 35.0313H302.575C302.575 34.5234 302.691 34.082 302.923 33.707C303.155 33.332 303.474 33.0417 303.88 32.8359C304.289 32.6302 304.757 32.5273 305.286 32.5273C305.823 32.5273 306.294 32.6276 306.7 32.8281C307.106 33.0286 307.422 33.3034 307.646 33.6523C307.872 34.0013 307.985 34.3997 307.985 34.8477C307.985 35.1471 307.928 35.4414 307.813 35.7305C307.699 36.0195 307.497 36.3398 307.208 36.6914C306.922 37.043 306.519 37.4687 306.001 37.9687L304.622 39.3711V39.4258H308.106V40.6367H302.622ZM312.243 40.6367H309.532V32.6367H312.298C313.092 32.6367 313.774 32.7969 314.345 33.1172C314.918 33.4349 315.358 33.8919 315.665 34.4883C315.972 35.0846 316.126 35.7982 316.126 36.6289C316.126 37.4622 315.971 38.1784 315.661 38.7773C315.354 39.3763 314.91 39.8359 314.329 40.1562C313.751 40.4766 313.056 40.6367 312.243 40.6367ZM310.981 39.3828H312.173C312.73 39.3828 313.195 39.2812 313.567 39.0781C313.94 38.8724 314.22 38.5664 314.407 38.1602C314.595 37.7513 314.688 37.2409 314.688 36.6289C314.688 36.0169 314.595 35.5091 314.407 35.1055C314.22 34.6992 313.942 34.3958 313.575 34.1953C313.211 33.9922 312.757 33.8906 312.216 33.8906H310.981V39.3828ZM320.214 40.6367H317.503V32.6367H320.269C321.063 32.6367 321.745 32.7969 322.315 33.1172C322.888 33.4349 323.328 33.8919 323.636 34.4883C323.943 35.0846 324.097 35.7982 324.097 36.6289C324.097 37.4622 323.942 38.1784 323.632 38.7773C323.325 39.3763 322.881 39.8359 322.3 40.1562C321.722 40.4766 321.026 40.6367 320.214 40.6367ZM318.952 39.3828H320.144C320.701 39.3828 321.166 39.2812 321.538 39.0781C321.91 38.8724 322.19 38.5664 322.378 38.1602C322.565 37.7513 322.659 37.2409 322.659 36.6289C322.659 36.0169 322.565 35.5091 322.378 35.1055C322.19 34.6992 321.913 34.3958 321.546 34.1953C321.181 33.9922 320.728 33.8906 320.187 33.8906H318.952V39.3828ZM328.173 32.5273C328.556 32.5299 328.928 32.5977 329.29 32.7305C329.655 32.8607 329.983 33.0742 330.274 33.3711C330.566 33.6654 330.798 34.0599 330.97 34.5547C331.142 35.0495 331.228 35.6615 331.228 36.3906C331.23 37.0781 331.157 37.6927 331.009 38.2344C330.863 38.7734 330.653 39.2292 330.38 39.6016C330.106 39.974 329.777 40.2578 329.392 40.4531C329.006 40.6484 328.573 40.7461 328.091 40.7461C327.586 40.7461 327.138 40.6471 326.747 40.4492C326.359 40.2513 326.045 39.9805 325.806 39.6367C325.566 39.293 325.419 38.8997 325.364 38.457H326.79C326.863 38.7747 327.011 39.0273 327.235 39.2148C327.462 39.3997 327.747 39.4922 328.091 39.4922C328.646 39.4922 329.073 39.2513 329.372 38.7695C329.672 38.2878 329.821 37.6185 329.821 36.7617H329.767C329.639 36.9909 329.474 37.1888 329.271 37.3555C329.067 37.5195 328.837 37.6458 328.579 37.7344C328.324 37.8229 328.053 37.8672 327.767 37.8672C327.298 37.8672 326.876 37.7552 326.501 37.5312C326.129 37.3073 325.833 37 325.614 36.6094C325.398 36.2187 325.289 35.7721 325.286 35.2695C325.286 34.7487 325.406 34.2812 325.646 33.8672C325.888 33.4505 326.225 33.1224 326.657 32.8828C327.09 32.6406 327.595 32.5221 328.173 32.5273ZM328.177 33.6992C327.896 33.6992 327.642 33.7682 327.415 33.9062C327.191 34.0417 327.014 34.2266 326.884 34.4609C326.756 34.6927 326.692 34.9518 326.692 35.2383C326.695 35.5221 326.759 35.7799 326.884 36.0117C327.011 36.2435 327.185 36.4271 327.403 36.5625C327.625 36.6979 327.877 36.7656 328.161 36.7656C328.372 36.7656 328.569 36.7253 328.751 36.6445C328.933 36.5638 329.092 36.4518 329.228 36.3086C329.366 36.1628 329.472 35.9974 329.548 35.8125C329.626 35.6276 329.664 35.4323 329.661 35.2266C329.661 34.9531 329.596 34.7005 329.466 34.4687C329.338 34.237 329.162 34.0508 328.938 33.9102C328.717 33.7695 328.463 33.6992 328.177 33.6992ZM335.306 32.5273C335.688 32.5299 336.061 32.5977 336.423 32.7305C336.787 32.8607 337.116 33.0742 337.407 33.3711C337.699 33.6654 337.931 34.0599 338.103 34.5547C338.274 35.0495 338.36 35.6615 338.36 36.3906C338.363 37.0781 338.29 37.6927 338.142 38.2344C337.996 38.7734 337.786 39.2292 337.513 39.6016C337.239 39.974 336.91 40.2578 336.524 40.4531C336.139 40.6484 335.705 40.7461 335.224 40.7461C334.718 40.7461 334.271 40.6471 333.88 40.4492C333.492 40.2513 333.178 39.9805 332.938 39.6367C332.699 39.293 332.552 38.8997 332.497 38.457H333.923C333.996 38.7747 334.144 39.0273 334.368 39.2148C334.595 39.3997 334.88 39.4922 335.224 39.4922C335.778 39.4922 336.205 39.2513 336.505 38.7695C336.804 38.2878 336.954 37.6185 336.954 36.7617H336.899C336.772 36.9909 336.606 37.1888 336.403 37.3555C336.2 37.5195 335.97 37.6458 335.712 37.7344C335.457 37.8229 335.186 37.8672 334.899 37.8672C334.431 37.8672 334.009 37.7552 333.634 37.5312C333.261 37.3073 332.966 37 332.747 36.6094C332.531 36.2187 332.422 35.7721 332.419 35.2695C332.419 34.7487 332.539 34.2812 332.778 33.8672C333.021 33.4505 333.358 33.1224 333.79 32.8828C334.222 32.6406 334.728 32.5221 335.306 32.5273ZM335.31 33.6992C335.028 33.6992 334.774 33.7682 334.548 33.9062C334.324 34.0417 334.147 34.2266 334.017 34.4609C333.889 34.6927 333.825 34.9518 333.825 35.2383C333.828 35.5221 333.892 35.7799 334.017 36.0117C334.144 36.2435 334.317 36.4271 334.536 36.5625C334.757 36.6979 335.01 36.7656 335.294 36.7656C335.505 36.7656 335.701 36.7253 335.884 36.6445C336.066 36.5638 336.225 36.4518 336.36 36.3086C336.498 36.1628 336.605 35.9974 336.681 35.8125C336.759 35.6276 336.797 35.4323 336.794 35.2266C336.794 34.9531 336.729 34.7005 336.599 34.4687C336.471 34.237 336.295 34.0508 336.071 33.9102C335.85 33.7695 335.596 33.6992 335.31 33.6992Z" fill="white"/>
<circle cx="66.5761" cy="87.8823" r="66.0761" fill="#EE3124"/>
<path d="M41.2628 92.5469L42.9332 82.3651H44.3253L42.6548 92.5469H41.2628ZM36.674 89.9219L36.9077 88.5298H44.7429L44.5092 89.9219H36.674ZM37.6832 92.5469L39.3537 82.3651H40.7457L39.0753 92.5469H37.6832ZM37.2656 86.3821L37.4943 84.9901H45.3295L45.1009 86.3821H37.2656ZM46.514 92.5469V82.3651H53.1362V83.9112H48.3585V86.6754H52.7931V88.2216H48.3585V91.0007H53.176V92.5469H46.514ZM55.0179 92.5469V82.3651H61.6401V83.9112H56.8624V86.6754H61.2971V88.2216H56.8624V91.0007H61.6799V92.5469H55.0179ZM67.0765 92.6861C66.3606 92.6861 65.7243 92.5634 65.1674 92.3182C64.6139 92.0729 64.1764 91.7315 63.8549 91.294C63.5334 90.8565 63.3627 90.3511 63.3429 89.7777H65.2122C65.2288 90.0528 65.3199 90.2931 65.4856 90.4986C65.6513 90.7008 65.8717 90.8582 66.1468 90.9709C66.4219 91.0836 66.7302 91.1399 67.0716 91.1399C67.4361 91.1399 67.7593 91.0769 68.041 90.951C68.3227 90.8217 68.5431 90.6428 68.7022 90.4141C68.8613 90.1854 68.9392 89.9219 68.9359 89.6236C68.9392 89.3153 68.8597 89.0436 68.6973 88.8082C68.5349 88.5729 68.2995 88.389 67.9913 88.2564C67.6864 88.1238 67.3185 88.0575 66.8876 88.0575H65.9877V86.6357H66.8876C67.2422 86.6357 67.5521 86.5743 67.8173 86.4517C68.0858 86.3291 68.2962 86.1567 68.4487 85.9347C68.6011 85.7093 68.6757 85.4491 68.6724 85.1541C68.6757 84.8658 68.6111 84.6155 68.4785 84.4034C68.3493 84.188 68.1653 84.0206 67.9267 83.9013C67.6913 83.782 67.4146 83.7223 67.0964 83.7223C66.7849 83.7223 66.4965 83.7786 66.2314 83.8913C65.9662 84.004 65.7524 84.1648 65.59 84.3736C65.4276 84.5791 65.3414 84.8243 65.3315 85.1094H63.5566C63.5699 84.5393 63.734 84.0388 64.0488 83.608C64.367 83.1738 64.7913 82.8357 65.3216 82.5938C65.8519 82.3485 66.4468 82.2259 67.1064 82.2259C67.7858 82.2259 68.3758 82.3535 68.8762 82.6087C69.38 82.8606 69.7695 83.2003 70.0446 83.6278C70.3197 84.0554 70.4572 84.5277 70.4572 85.0447C70.4605 85.6181 70.2915 86.0987 69.9501 86.4865C69.612 86.8743 69.1679 87.1278 68.6177 87.2472V87.3267C69.3336 87.4261 69.8822 87.6913 70.2633 88.1222C70.6478 88.5497 70.8384 89.0817 70.835 89.718C70.835 90.2881 70.6726 90.7985 70.3478 91.2493C70.0263 91.6967 69.5822 92.0481 69.0154 92.3033C68.452 92.5585 67.8057 92.6861 67.0765 92.6861ZM76.6829 82.3651V92.5469H74.8384V84.1598H74.7788L72.3974 85.6811V83.9908L74.9279 82.3651H76.6829ZM79.2681 92.5469V91.2145L82.8029 87.7493C83.141 87.4079 83.4227 87.1046 83.6481 86.8395C83.8735 86.5743 84.0425 86.3175 84.1552 86.0689C84.2679 85.8203 84.3242 85.5552 84.3242 85.2734C84.3242 84.9519 84.2513 84.6768 84.1055 84.4482C83.9596 84.2161 83.7591 84.0372 83.5039 83.9112C83.2487 83.7853 82.9587 83.7223 82.6339 83.7223C82.2991 83.7223 82.0058 83.7919 81.7539 83.9311C81.502 84.067 81.3065 84.2609 81.1673 84.5128C81.0314 84.7647 80.9634 85.0646 80.9634 85.4126H79.2085C79.2085 84.7663 79.3559 84.2045 79.6509 83.7273C79.9459 83.25 80.3519 82.8804 80.869 82.6186C81.3893 82.3568 81.9859 82.2259 82.6587 82.2259C83.3415 82.2259 83.9414 82.3535 84.4585 82.6087C84.9755 82.8639 85.3765 83.2135 85.6616 83.6577C85.9499 84.1018 86.0941 84.6089 86.0941 85.179C86.0941 85.5601 86.0212 85.9347 85.8754 86.3026C85.7295 86.6705 85.4727 87.0781 85.1048 87.5256C84.7402 87.973 84.2281 88.5149 83.5685 89.1513L81.8136 90.9361V91.0057H86.2482V92.5469H79.2681ZM87.5607 90.6577V89.1911L91.881 82.3651H93.104V84.4531H92.3583L89.4499 89.0618V89.1413H95.4805V90.6577H87.5607ZM92.418 92.5469V90.2102L92.4379 89.554V82.3651H94.1779V92.5469H92.418Z" fill="white"/>
</svg>
