<svg width="79" height="82" viewBox="0 0 79 82" fill="none" xmlns="http://www.w3.org/2000/svg">
<path d="M52.1914 21.7781V70.6117H53.4511V23.2898H77.7407V70.6117H79.0003V21.7781H52.1914Z" fill="#73E563"/>
<path opacity="0.15" d="M0.789062 21.7781V70.6117H2.04871V23.2898H26.3383V70.6117H27.598V21.7781H0.789062Z" fill="black"/>
<path d="M26.4829 22.8596H1.30859V70.5869H26.4829V22.8596Z" fill="#D37272"/>
<path opacity="0.05" d="M1.77138 22.8596L26.4829 70.5871H1.30859V22.8596H1.77138Z" fill="black"/>
<path d="M0.339844 21.7781V70.6117H1.59949V23.2898H25.8891V70.6117H27.1488V21.7781H0.339844Z" fill="#FFCACA"/>
<path d="M25.3372 48.2317C25.3372 48.3654 25.2841 48.4937 25.1895 48.5883C25.095 48.6828 24.9668 48.736 24.8331 48.7361H23.8715C23.7378 48.7361 23.6095 48.6829 23.5149 48.5883C23.4203 48.4938 23.3672 48.3655 23.3672 48.2317V42.9516C23.3672 42.8178 23.4203 42.6896 23.5149 42.595C23.6095 42.5004 23.7378 42.4473 23.8715 42.4473H24.8331C24.9668 42.4473 25.095 42.5005 25.1895 42.5951C25.2841 42.6896 25.3372 42.8179 25.3372 42.9516V48.2317Z" fill="#FFCACA"/>
<path opacity="0.1" d="M8.33395 44.2531H3.87438C3.65719 44.2531 3.47078 44.0992 3.39071 43.8794C3.36243 43.9566 3.34786 44.0382 3.34766 44.1205C3.34766 44.4599 3.58314 44.735 3.8733 44.735H8.33288C8.62325 44.735 8.85852 44.4599 8.85852 44.1205C8.85842 44.0382 8.84385 43.9566 8.81547 43.8794C8.73755 44.0992 8.55114 44.2531 8.33395 44.2531Z" fill="black"/>
<path opacity="0.15" d="M23.5093 42.6045V47.792C23.5093 47.9257 23.5624 48.054 23.6569 48.1485C23.7515 48.2431 23.8797 48.2962 24.0134 48.2962H24.9752C25.0436 48.2963 25.1114 48.2824 25.1744 48.2554C25.2373 48.2284 25.294 48.1888 25.3411 48.139V48.2322C25.3411 48.366 25.288 48.4942 25.1934 48.5888C25.0989 48.6834 24.9707 48.7365 24.837 48.7366H23.8752C23.7415 48.7365 23.6133 48.6834 23.5187 48.5888C23.4242 48.4942 23.3711 48.366 23.3711 48.2322V42.9521C23.3706 42.8228 23.4201 42.6982 23.5093 42.6045Z" fill="black"/>
<path d="M19.0898 43.7351C19.0898 44.0746 19.3253 44.3497 19.6157 44.3497H24.0751C24.3654 44.3497 24.6009 44.0746 24.6009 43.7351C24.6009 43.3957 24.3654 43.1206 24.0751 43.1206H19.6157C19.3253 43.1206 19.0898 43.3957 19.0898 43.7351V43.7351Z" fill="#FFCACA"/>
<path opacity="0.15" d="M19.6157 43.8678H24.0751C24.2923 43.8678 24.4787 43.7139 24.559 43.4941C24.5872 43.5714 24.6018 43.653 24.602 43.7352C24.602 44.0747 24.3665 44.3498 24.0761 44.3498H19.6157C19.3253 44.3498 19.0898 44.0747 19.0898 43.7352C19.09 43.653 19.1046 43.5714 19.1329 43.4941C19.2121 43.7139 19.3985 43.8678 19.6157 43.8678Z" fill="black"/>
<path opacity="0.15" d="M1.59938 70.6128H1.09375V22.5259H26.4099L25.889 23.2907H1.59938V70.6128Z" fill="black"/>
<path opacity="0.5" d="M25.8906 70.6115H26.4264V22.5225L25.8906 23.2937V70.6115Z" fill="white"/>
<path opacity="0.15" d="M24.5959 46.4851C24.5961 46.4384 24.5841 46.3925 24.561 46.3518C24.5379 46.3112 24.5045 46.2774 24.4642 46.2538C24.4239 46.2301 24.3781 46.2174 24.3314 46.2171C24.2847 46.2167 24.2387 46.2286 24.198 46.2515C24.1573 46.2745 24.1234 46.3078 24.0996 46.348C24.0759 46.3882 24.0631 46.434 24.0625 46.4807C24.062 46.5274 24.0737 46.5734 24.0966 46.6142C24.1194 46.6549 24.1526 46.689 24.1927 46.7129L24.0836 47.1003H24.5571L24.4502 46.7219C24.4939 46.6997 24.5307 46.6658 24.5564 46.6241C24.5821 46.5823 24.5958 46.5342 24.5959 46.4851V46.4851Z" fill="black"/>
<path d="M77.9319 22.8596H52.7578V70.5869H77.9319V22.8596Z" fill="#73E563"/>
<path opacity="0.05" d="M77.9319 70.5871H52.7578L77.5765 22.8596H77.9319V70.5871Z" fill="black"/>
<path d="M51.793 21.7781V70.6117H53.0524V23.2898H77.3422V70.6117H78.6019V21.7781H51.793Z" fill="#62D34F"/>
<path d="M56.0362 48.2317C56.0362 48.2979 56.0232 48.3635 55.9979 48.4247C55.9725 48.4859 55.9354 48.5415 55.8886 48.5883C55.8418 48.6352 55.7862 48.6723 55.725 48.6977C55.6638 48.723 55.5983 48.7361 55.532 48.7361H54.5705C54.5043 48.7361 54.4387 48.723 54.3776 48.6977C54.3164 48.6723 54.2608 48.6352 54.214 48.5883C54.1672 48.5415 54.13 48.4859 54.1047 48.4247C54.0794 48.3635 54.0664 48.2979 54.0664 48.2317V42.9516C54.0664 42.8854 54.0794 42.8198 54.1047 42.7586C54.13 42.6974 54.1672 42.6418 54.214 42.595C54.2608 42.5482 54.3164 42.511 54.3776 42.4857C54.4387 42.4603 54.5043 42.4473 54.5705 42.4473H55.532C55.5983 42.4473 55.6638 42.4603 55.725 42.4857C55.7862 42.511 55.8418 42.5482 55.8886 42.595C55.9354 42.6418 55.9725 42.6974 55.9979 42.7586C56.0232 42.8198 56.0362 42.8854 56.0362 42.9516V48.2317Z" fill="#CAF1FF"/>
<path opacity="0.1" d="M59.7869 44.2531H55.3275C55.1103 44.2531 54.9239 44.0992 54.8438 43.8794C54.8155 43.9566 54.8009 44.0382 54.8008 44.1205C54.8008 44.4599 55.0363 44.735 55.3266 44.735H59.786C60.0766 44.735 60.3119 44.4599 60.3119 44.1205C60.312 44.0383 60.2978 43.9567 60.2699 43.8794C60.1905 44.0992 60.0043 44.2531 59.7869 44.2531Z" fill="black"/>
<path opacity="0.15" d="M55.8941 42.6045V47.792C55.8941 47.8583 55.8811 47.9238 55.8558 47.985C55.8304 48.0462 55.7933 48.1018 55.7465 48.1486C55.6997 48.1954 55.6441 48.2325 55.5829 48.2579C55.5217 48.2832 55.4562 48.2962 55.39 48.2962H54.4284C54.3599 48.2963 54.2921 48.2825 54.2292 48.2555C54.1663 48.2284 54.1095 48.1888 54.0625 48.139V48.2322C54.0625 48.2985 54.0755 48.364 54.1008 48.4252C54.1261 48.4864 54.1633 48.542 54.2101 48.5888C54.2569 48.6357 54.3125 48.6728 54.3737 48.6982C54.4348 48.7235 54.5004 48.7366 54.5666 48.7366H55.5281C55.5944 48.7366 55.6599 48.7235 55.7211 48.6982C55.7823 48.6728 55.8379 48.6357 55.8847 48.5888C55.9315 48.542 55.9686 48.4864 55.994 48.4252C56.0193 48.364 56.0323 48.2985 56.0323 48.2322V42.9521C56.0328 42.8227 55.9833 42.6982 55.8941 42.6045V42.6045Z" fill="black"/>
<path d="M60.3119 43.7351C60.3119 44.0746 60.0766 44.3497 59.786 44.3497H55.3266C55.0363 44.3497 54.8008 44.0746 54.8008 43.7351C54.8008 43.3957 55.0363 43.1206 55.3266 43.1206H59.786C60.0766 43.1206 60.3119 43.3957 60.3119 43.7351Z" fill="#CAF1FF"/>
<path opacity="0.15" d="M59.7869 43.8678H55.3275C55.1103 43.8678 54.9239 43.7139 54.8438 43.4941C54.8155 43.5714 54.8009 43.653 54.8008 43.7352C54.8008 44.0747 55.0363 44.3498 55.3266 44.3498H59.786C60.0766 44.3498 60.3119 44.0747 60.3119 43.7352C60.312 43.653 60.2978 43.5714 60.2699 43.4941C60.1905 43.7139 60.0043 43.8678 59.7869 43.8678Z" fill="black"/>
<path opacity="0.15" d="M53.0525 70.6128H52.5469V22.5259H77.8628L77.3421 23.2907H53.0525V70.6128Z" fill="black"/>
<path opacity="0.15" d="M55.2912 46.4851C55.2914 46.4384 55.2794 46.3925 55.2563 46.3518C55.2332 46.3112 55.1998 46.2774 55.1595 46.2538C55.1193 46.2301 55.0735 46.2174 55.0267 46.2171C54.98 46.2167 54.934 46.2286 54.8933 46.2515C54.8527 46.2745 54.8187 46.3078 54.7949 46.348C54.7712 46.3882 54.7584 46.434 54.7578 46.4807C54.7573 46.5274 54.769 46.5734 54.7919 46.6142C54.8147 46.6549 54.8479 46.689 54.888 46.7129L54.7789 47.1003H55.2525L55.1459 46.7221C55.1896 46.6999 55.2264 46.666 55.252 46.6241C55.2776 46.5823 55.2912 46.5342 55.2912 46.4851V46.4851Z" fill="black"/>
<path opacity="0.05" d="M19.672 25.6489H19.3672C19.5086 25.6489 19.6442 25.7051 19.7442 25.8051C19.8442 25.9051 19.9004 26.0407 19.9004 26.1821V32.3768C19.9004 32.4468 19.8866 32.5162 19.8598 32.5809C19.8331 32.6456 19.7938 32.7044 19.7443 32.7539C19.6947 32.8034 19.636 32.8427 19.5713 32.8695C19.5066 32.8963 19.4372 32.91 19.3672 32.91H19.672C19.8134 32.91 19.949 32.8538 20.049 32.7538C20.149 32.6538 20.2052 32.5182 20.2052 32.3768V26.1815C20.2049 26.0402 20.1487 25.9048 20.0487 25.8049C19.9487 25.7051 19.8133 25.649 19.672 25.6489V25.6489Z" fill="black"/>
<path d="M19.4552 25.6484H8.58005C8.28559 25.6484 8.04688 25.8871 8.04688 26.1816V32.3763C8.04688 32.6708 8.28559 32.9095 8.58005 32.9095H19.4552C19.7497 32.9095 19.9884 32.6708 19.9884 32.3763V26.1816C19.9884 25.8871 19.7497 25.6484 19.4552 25.6484Z" fill="#FFCACA"/>
<path opacity="0.1" d="M19.4569 25.6489H19.1523C19.2937 25.649 19.4293 25.7052 19.5293 25.8052C19.6293 25.9051 19.6855 26.0407 19.6855 26.1821V32.3768C19.6855 32.5182 19.6293 32.6538 19.5294 32.7538C19.4294 32.8538 19.2938 32.91 19.1523 32.91H19.4569C19.5983 32.91 19.734 32.8538 19.8339 32.7538C19.9339 32.6538 19.9901 32.5182 19.9901 32.3768V26.1815C19.9899 26.0402 19.9336 25.9048 19.8336 25.8049C19.7337 25.7051 19.5982 25.649 19.4569 25.6489V25.6489Z" fill="black"/>
<path opacity="0.05" d="M15.0435 26.895C15.0315 26.8599 15.0088 26.8294 14.9786 26.8079C14.9484 26.7863 14.9123 26.7747 14.8752 26.7747H14.1732C14.1361 26.7746 14.0999 26.7863 14.0698 26.8079C14.0396 26.8295 14.017 26.86 14.0051 26.8952L12.4742 31.4006C12.4652 31.4274 12.4626 31.4559 12.4668 31.4838C12.4709 31.5118 12.4817 31.5383 12.4981 31.5612C12.5146 31.5842 12.5363 31.6029 12.5614 31.6158C12.5865 31.6287 12.6143 31.6355 12.6426 31.6355H13.2453C13.2826 31.6354 13.319 31.6236 13.3493 31.6018C13.3796 31.5799 13.4022 31.5491 13.414 31.5136L13.8417 30.2185H15.1836L15.6238 31.5149C15.6358 31.5501 15.6584 31.5806 15.6886 31.6022C15.7188 31.6238 15.755 31.6355 15.7921 31.6355H16.4138C16.4421 31.6355 16.4699 31.6288 16.4951 31.6159C16.5203 31.603 16.542 31.5843 16.5585 31.5613C16.5749 31.5383 16.5857 31.5117 16.5898 31.4837C16.5939 31.4557 16.5913 31.4272 16.5821 31.4004L15.0435 26.895ZM14.9412 29.4085H14.0802L14.4431 28.3363C14.4647 28.2672 14.4862 28.1964 14.5077 28.123C14.5292 28.1957 14.5536 28.2702 14.5796 28.3464L14.9412 29.4085Z" fill="black"/>
<path d="M14.7622 26.895C14.7503 26.8599 14.7277 26.8294 14.6975 26.8078C14.6674 26.7862 14.6312 26.7746 14.5941 26.7747H13.8922C13.8551 26.7747 13.8189 26.7863 13.7887 26.8079C13.7585 26.8295 13.7358 26.86 13.7239 26.8952L12.193 31.4006C12.1839 31.4274 12.1814 31.4559 12.1855 31.4838C12.1897 31.5118 12.2004 31.5383 12.2169 31.5612C12.2333 31.5842 12.255 31.6029 12.2801 31.6158C12.3052 31.6287 12.3331 31.6355 12.3613 31.6355H12.964C13.0014 31.6355 13.0378 31.6237 13.0681 31.6018C13.0984 31.58 13.121 31.5491 13.1328 31.5136L13.5605 30.2185H14.9024L15.3428 31.5149C15.3547 31.5501 15.3773 31.5806 15.4074 31.6022C15.4376 31.6239 15.4738 31.6355 15.5109 31.6355H16.1325C16.1608 31.6355 16.1887 31.6288 16.2139 31.6159C16.239 31.603 16.2607 31.5843 16.2772 31.5613C16.2937 31.5383 16.3044 31.5117 16.3085 31.4837C16.3126 31.4557 16.31 31.4272 16.3008 31.4004L14.7622 26.895ZM14.66 29.4085H13.799L14.1619 28.3363C14.1834 28.2672 14.2049 28.1964 14.2265 28.123C14.248 28.1957 14.2723 28.2702 14.2984 28.3464L14.66 29.4085Z" fill="#D37272"/>
<g opacity="0.1">
<path d="M14.2334 28.1334L14.1382 27.879C14.1122 27.8028 14.0885 27.7283 14.0665 27.6555C14.045 27.7287 13.8562 28.2673 13.8345 28.3364L13.4727 29.4085H13.802L14.2334 28.1334Z" fill="black"/>
<path d="M16.3006 31.4004L14.7631 26.895C14.7511 26.8599 14.7285 26.8294 14.6984 26.8078C14.6682 26.7862 14.632 26.7746 14.595 26.7747H14.2656C14.3027 26.7746 14.3389 26.7862 14.369 26.8078C14.3992 26.8294 14.4218 26.8599 14.4337 26.895L15.9713 31.4004C15.9804 31.4271 15.9831 31.4557 15.979 31.4837C15.9749 31.5116 15.9641 31.5382 15.9477 31.5612C15.9313 31.5842 15.9096 31.6029 15.8844 31.6158C15.8593 31.6287 15.8314 31.6355 15.8032 31.6355H16.1323C16.1606 31.6355 16.1885 31.6288 16.2136 31.6159C16.2388 31.603 16.2605 31.5843 16.277 31.5613C16.2934 31.5383 16.3042 31.5117 16.3083 31.4837C16.3124 31.4557 16.3098 31.4272 16.3006 31.4004V31.4004Z" fill="black"/>
<path d="M12.8055 31.5137C12.7937 31.5491 12.7711 31.58 12.7408 31.6019C12.7105 31.6237 12.6741 31.6355 12.6367 31.6355H12.9661C13.0034 31.6355 13.0398 31.6237 13.0701 31.6019C13.1004 31.58 13.123 31.5491 13.1348 31.5137L13.5625 30.2185H13.2332L12.8055 31.5137Z" fill="black"/>
</g>
<path opacity="0.05" d="M71.8437 25.6489H71.5391C71.6805 25.649 71.816 25.7052 71.916 25.8052C72.016 25.9051 72.0722 26.0407 72.0722 26.1821V32.3768C72.0722 32.5182 72.016 32.6538 71.916 32.7538C71.816 32.8537 71.6805 32.9099 71.5391 32.91H71.8437C71.9137 32.91 71.983 32.8962 72.0477 32.8694C72.1124 32.8426 72.1711 32.8033 72.2207 32.7538C72.2702 32.7043 72.3094 32.6455 72.3362 32.5809C72.363 32.5162 72.3768 32.4468 72.3768 32.3768V26.1815C72.3766 26.0402 72.3203 25.9048 72.2204 25.8049C72.1204 25.7051 71.9849 25.649 71.8437 25.6489Z" fill="black"/>
<path d="M71.6232 25.6484H60.748C60.4536 25.6484 60.2148 25.8871 60.2148 26.1816V32.3763C60.2148 32.6708 60.4536 32.9095 60.748 32.9095H71.6232C71.9176 32.9095 72.1563 32.6708 72.1563 32.3763V26.1816C72.1563 25.8871 71.9176 25.6484 71.6232 25.6484Z" fill="#CAF1FF"/>
<path opacity="0.1" d="M71.6249 25.6489H71.3203C71.4617 25.649 71.5972 25.7052 71.6972 25.8052C71.7971 25.9052 71.8533 26.0407 71.8533 26.1821V32.3768C71.8533 32.5182 71.7971 32.6538 71.6972 32.7538C71.5972 32.8537 71.4617 32.9099 71.3203 32.91H71.6249C71.6949 32.91 71.7642 32.8962 71.8289 32.8694C71.8936 32.8426 71.9524 32.8033 72.0019 32.7538C72.0514 32.7043 72.0907 32.6455 72.1175 32.5809C72.1443 32.5162 72.1581 32.4468 72.1581 32.3768V26.1815C72.1578 26.0402 72.1016 25.9048 72.0016 25.8049C71.9017 25.7051 71.7662 25.649 71.6249 25.6489Z" fill="black"/>
<path opacity="0.1" d="M67.411 29.0171C67.7439 28.7846 67.9394 28.4339 67.9394 28.0418C67.9394 27.6463 67.7861 27.3226 67.4964 27.1058C67.183 26.8536 66.7676 26.7412 66.1506 26.7412C65.9509 26.7412 65.7994 26.7425 65.6442 26.744C65.4825 26.7455 65.3168 26.7472 65.0877 26.7472C65.0406 26.7472 64.9955 26.7659 64.9622 26.7992C64.9289 26.8326 64.9102 26.8777 64.9102 26.9248V31.4451C64.9102 31.488 64.9257 31.5294 64.9539 31.5617C64.982 31.594 65.0209 31.6151 65.0634 31.621C65.3708 31.6602 65.6804 31.6786 65.9903 31.6763C66.7867 31.6763 67.319 31.5275 67.6677 31.2083L67.6716 31.2049C67.9603 30.9251 68.1066 30.5783 68.1066 30.1749C68.1066 29.598 67.7814 29.2207 67.411 29.0171ZM66.1974 28.6798H65.8469V27.6231C65.9546 27.6164 66.0897 27.6153 66.1965 27.6153C66.8621 27.6153 66.9957 27.8015 66.9957 28.102C66.9957 28.4529 66.6823 28.6798 66.1974 28.6798ZM67.1361 30.1676C67.1361 30.7445 66.604 30.8654 66.1573 30.8654C66.0305 30.8654 65.9285 30.8631 65.8469 30.8577V29.4762H66.1506C66.5187 29.4762 67.1361 29.5664 67.1361 30.1676Z" fill="#1D1D1B"/>
<path d="M67.0203 29.0171C67.3533 28.7846 67.5488 28.4339 67.5488 28.0418C67.5488 27.6463 67.3957 27.3226 67.1058 27.1058C66.7924 26.8536 66.3771 26.7412 65.76 26.7412C65.5603 26.7412 65.4087 26.7425 65.2535 26.744C65.0919 26.7455 64.9261 26.7472 64.6971 26.7472C64.65 26.7472 64.6048 26.7659 64.5715 26.7992C64.5382 26.8326 64.5195 26.8777 64.5195 26.9248V31.4451C64.5195 31.488 64.5351 31.5294 64.5632 31.5617C64.5914 31.594 64.6303 31.6151 64.6728 31.621C64.9802 31.6602 65.2898 31.6786 65.5997 31.6763C66.3961 31.6763 66.9284 31.5275 67.2771 31.2083L67.281 31.2049C67.5696 30.9251 67.716 30.5783 67.716 30.1749C67.7171 29.598 67.3908 29.2207 67.0203 29.0171ZM65.8067 28.6798H65.4569V27.6231C65.5646 27.6164 65.6997 27.6153 65.8063 27.6153C66.4719 27.6153 66.6055 27.8015 66.6055 28.102C66.6051 28.4529 66.2917 28.6798 65.8067 28.6798ZM66.7454 30.1676C66.7454 30.7445 66.2133 30.8654 65.7667 30.8654C65.6401 30.8654 65.5379 30.8631 65.4565 30.8577V29.4762H65.76C66.1281 29.4762 66.7454 29.5664 66.7454 30.1676Z" fill="#73E563"/>
<g opacity="0.1">
<path d="M65.5374 30.8615C65.5083 30.8615 65.4808 30.8594 65.456 30.8577V29.4771C65.4358 29.4771 65.4162 29.4771 65.3975 29.4771H65.0938V30.8579C65.1753 30.8633 65.2774 30.8656 65.4041 30.8656C65.4478 30.8654 65.4924 30.8643 65.5374 30.8615Z" fill="#1D1D1B"/>
<path d="M65.0938 27.6231V28.6798H65.4442H65.456V27.6236C65.4928 27.6212 65.5326 27.6197 65.5735 27.6186C65.5326 27.6167 65.4894 27.6158 65.4444 27.6158C65.3366 27.6154 65.2018 27.6165 65.0938 27.6231Z" fill="#1D1D1B"/>
<path d="M67.0195 29.0171C67.3525 28.7846 67.5479 28.4339 67.5479 28.0418C67.5479 27.6463 67.3949 27.3226 67.105 27.1058C66.7916 26.8536 66.3763 26.7412 65.7592 26.7412C65.6559 26.7412 65.5655 26.7412 65.4807 26.7412C66.0517 26.7511 66.4437 26.8643 66.7427 27.105C67.0326 27.3217 67.1859 27.6455 67.1859 28.0409C67.1859 28.4331 66.9904 28.7837 66.6574 29.0162C67.0277 29.2198 67.3529 29.5974 67.3529 30.1734C67.3529 30.5768 67.2066 30.9233 66.9179 31.2034C66.9167 31.2046 66.9154 31.2058 66.914 31.2068C66.5896 31.5039 66.1053 31.653 65.3984 31.6724C65.462 31.6738 65.5288 31.6746 65.5988 31.6748C66.3953 31.6748 66.9276 31.526 67.2763 31.2068L67.2802 31.2034C67.5688 30.9235 67.7152 30.5768 67.7152 30.1734C67.7163 29.598 67.3899 29.2207 67.0195 29.0171Z" fill="#1D1D1B"/>
</g>
<path d="M39.8127 11.6082C38.9999 11.6082 38.4102 12.2229 38.4102 13.0697C38.4102 13.9053 38.9913 14.5119 39.7931 14.5119C40.6191 14.5119 41.1957 13.9189 41.1957 13.0697C41.1957 12.2091 40.627 11.6082 39.8127 11.6082Z" fill="#73E563"/>
<path d="M42.7534 1.32414C42.1291 0.702497 41.2134 0.374023 40.1058 0.374023C39.0101 0.374023 37.8547 0.699697 37.1618 1.2036C37.1224 1.23225 37.0935 1.27306 37.0796 1.31973C37.0657 1.3664 37.0675 1.41635 37.0847 1.4619L37.557 2.70154C37.5692 2.73383 37.5889 2.76282 37.6143 2.78619C37.6397 2.80956 37.6703 2.82668 37.7035 2.83617C37.7367 2.84566 37.7717 2.84726 37.8056 2.84085C37.8396 2.83445 37.8715 2.8202 37.899 2.79926C38.3433 2.46153 39.0878 2.23465 39.748 2.23465C40.8124 2.25144 41.3986 2.77278 41.3986 3.70439C41.3986 4.53397 40.913 5.26819 40.0728 6.2577C39.0982 7.42738 38.6707 8.6274 38.8028 9.82442L38.842 10.3322C38.8463 10.388 38.8714 10.4402 38.9125 10.4782C38.9536 10.5163 39.0075 10.5374 39.0635 10.5373H40.598C40.6279 10.5374 40.6576 10.5314 40.6851 10.5197C40.7126 10.508 40.7375 10.4909 40.7582 10.4693C40.779 10.4477 40.7951 10.4222 40.8057 10.3943C40.8163 10.3663 40.8212 10.3365 40.82 10.3066L40.8004 9.79514C40.8004 9.79363 40.8004 9.79213 40.8004 9.79062C40.7435 8.82587 41.0634 8.0077 41.87 7.05456C42.8582 5.88101 43.6135 4.87299 43.6135 3.48806C43.6133 2.64449 43.3078 1.87583 42.7534 1.32414Z" fill="#73E563"/>
<path d="M39.8098 11.6082C39.7297 11.6082 39.6499 11.6145 39.5708 11.6269C40.2543 11.7345 40.713 12.297 40.713 13.0691C40.713 13.8315 40.2476 14.387 39.5547 14.4927C39.6326 14.5049 39.7113 14.511 39.7902 14.511C40.6161 14.511 41.1927 13.918 41.1927 13.0689C41.1927 12.2091 40.6241 11.6082 39.8098 11.6082Z" fill="black"/>
<path d="M43.6155 3.48828C43.6155 2.64449 43.3101 1.87583 42.7556 1.32414C42.1314 0.702497 41.2157 0.374023 40.108 0.374023C40.0267 0.374023 39.9451 0.375961 39.8633 0.379405C40.8657 0.422455 41.6968 0.747054 42.2763 1.32414C42.8307 1.87583 43.1362 2.64449 43.1362 3.48828C43.1362 4.87321 42.38 5.88123 41.3926 7.05478C40.5861 8.00791 40.2662 8.82608 40.3231 9.79084C40.3231 9.79235 40.3231 9.79385 40.3231 9.79536L40.3429 10.3068C40.3441 10.3368 40.3393 10.3668 40.3287 10.395C40.318 10.4231 40.3017 10.4488 40.2809 10.4704C40.26 10.4921 40.235 10.5093 40.2072 10.521C40.1795 10.5326 40.1497 10.5386 40.1196 10.5384H40.5994C40.6293 10.5385 40.659 10.5325 40.6865 10.5208C40.714 10.5091 40.7389 10.4919 40.7596 10.4704C40.7804 10.4488 40.7965 10.4233 40.8071 10.3953C40.8177 10.3674 40.8226 10.3375 40.8214 10.3077L40.8018 9.79622C40.8018 9.79471 40.8018 9.79321 40.8018 9.7917C40.745 8.82694 41.0648 8.00877 41.8714 7.05564C42.8594 5.88123 43.6155 4.87321 43.6155 3.48828Z" fill="black"/>
<path opacity="0.1" d="M32.0451 46.9628C32.0827 46.957 32.1211 46.9588 32.1581 46.968C32.1951 46.9772 32.2298 46.9936 32.2603 47.0164L33.7337 47.533C33.7417 47.5965 33.7309 47.6609 33.7026 47.7183C33.6743 47.7757 33.6297 47.8234 33.5745 47.8557C33.5192 47.8879 33.4557 47.9032 33.3918 47.8997C33.3279 47.8961 33.2665 47.8739 33.2152 47.8357L31.6884 47.2797L30.6957 47.4271C30.6921 47.3555 30.7153 47.2851 30.7607 47.2296C30.8061 47.1741 30.8706 47.1375 30.9415 47.1269L32.0451 46.9628Z" fill="black"/>
<path d="M30.7039 47.2003L31.8083 47.0365C31.846 47.0307 31.8844 47.0325 31.9213 47.0418C31.9583 47.051 31.993 47.0675 32.0236 47.0903L33.5232 47.6263C33.5847 47.672 33.6256 47.7402 33.6368 47.816C33.648 47.8918 33.6286 47.9689 33.5829 48.0304C33.5373 48.0919 33.469 48.1328 33.3933 48.144C33.3175 48.1552 33.2403 48.1358 33.1788 48.0902L31.7747 47.6263L30.7887 47.7727C30.7139 47.7818 30.6386 47.7613 30.5787 47.7157C30.5187 47.67 30.479 47.6028 30.468 47.5283C30.4569 47.4538 30.4754 47.378 30.5194 47.3169C30.5635 47.2558 30.6297 47.2144 30.7039 47.2014V47.2003Z" fill="#FFDCB5"/>
<path opacity="0.1" d="M31.8095 47.0365C31.8471 47.0307 31.8856 47.0325 31.9225 47.0418C31.9595 47.051 31.9942 47.0675 32.0247 47.0903L33.5203 47.6231C33.5199 47.6833 33.5028 47.7423 33.4709 47.7935C33.439 47.8446 33.3935 47.886 33.3396 47.9128C33.2856 47.9397 33.2252 47.9511 33.1652 47.9457C33.1051 47.9404 33.0477 47.9184 32.9994 47.8824L31.4726 47.3264L30.4609 47.4771C30.4632 47.4096 30.4891 47.345 30.534 47.2945C30.579 47.2441 30.6401 47.211 30.707 47.201L31.8095 47.0365Z" fill="black"/>
<path d="M30.3201 46.7236L31.5701 46.538C31.6125 46.5316 31.6558 46.5338 31.6975 46.5442C31.7391 46.5547 31.7782 46.5733 31.8127 46.5989L33.4486 47.2354C33.5182 47.2871 33.5644 47.3642 33.5772 47.4499C33.5899 47.5356 33.5681 47.6229 33.5165 47.6925C33.4649 47.7622 33.3877 47.8084 33.302 47.8212C33.2163 47.8339 33.129 47.8121 33.0594 47.7604L31.5324 47.2044L30.4165 47.37C30.3732 47.3784 30.3286 47.378 30.2855 47.3687C30.2423 47.3594 30.2015 47.3415 30.1654 47.316C30.1294 47.2906 30.0989 47.258 30.0758 47.2204C30.0527 47.1828 30.0374 47.141 30.0309 47.0973C30.0244 47.0536 30.0268 47.0091 30.038 46.9664C30.0492 46.9237 30.0689 46.8837 30.096 46.8489C30.1231 46.814 30.1569 46.785 30.1955 46.7636C30.2341 46.7421 30.2766 46.7288 30.3205 46.7242L30.3201 46.7236Z" fill="#FFDCB5"/>
<path opacity="0.1" d="M30.3217 46.7236L31.5716 46.538C31.6141 46.5316 31.6574 46.5338 31.699 46.5442C31.7407 46.5547 31.7798 46.5733 31.8142 46.5989L33.4501 47.2354C33.4661 47.2474 33.4809 47.2607 33.4945 47.2753C33.5175 47.3674 33.506 47.4648 33.4619 47.549C33.4179 47.6332 33.3444 47.6982 33.2555 47.7318L31.1676 46.9808L30.0588 47.1453C30.0442 47.1002 30.0396 47.0525 30.0454 47.0055C30.0511 46.9585 30.0671 46.9133 30.0922 46.8731C30.1173 46.8329 30.1509 46.7987 30.1906 46.7729C30.2303 46.747 30.2752 46.7302 30.3221 46.7236H30.3217Z" fill="black"/>
<path d="M30.0855 46.2165L31.5662 45.9969C31.6165 45.9894 31.6678 45.9919 31.7171 46.0043C31.7664 46.0166 31.8128 46.0387 31.8536 46.069L33.7032 46.8655C33.7466 46.8947 33.7836 46.9325 33.812 46.9765C33.8404 47.0204 33.8596 47.0697 33.8684 47.1212C33.8772 47.1728 33.8755 47.2257 33.8634 47.2766C33.8512 47.3275 33.8289 47.3754 33.7977 47.4174C33.7666 47.4594 33.7272 47.4947 33.6821 47.5211C33.6369 47.5475 33.5868 47.5645 33.5349 47.5711C33.483 47.5776 33.4303 47.5735 33.38 47.5592C33.3297 47.5448 33.2828 47.5203 33.2422 47.4873L31.5202 46.7873L30.1983 46.9834C30.147 46.9932 30.0943 46.9925 30.0432 46.9814C29.9922 46.9703 29.944 46.949 29.9014 46.9187C29.8588 46.8885 29.8228 46.85 29.7955 46.8054C29.7682 46.7609 29.7501 46.7114 29.7425 46.6597C29.7348 46.6081 29.7377 46.5554 29.7509 46.5049C29.7641 46.4543 29.7874 46.407 29.8193 46.3657C29.8513 46.3244 29.8913 46.29 29.9369 46.2645C29.9824 46.2391 30.0327 46.2231 30.0846 46.2176L30.0855 46.2165Z" fill="#FFDCB5"/>
<path opacity="0.1" d="M31.5695 45.9969C31.6198 45.9894 31.671 45.9919 31.7204 46.0043C31.7697 46.0166 31.8161 46.0387 31.8568 46.069L33.7065 46.8655C33.7172 46.8734 33.728 46.8818 33.737 46.8904C33.7124 46.9418 33.6767 46.987 33.6325 47.0229C33.5883 47.0588 33.5366 47.0844 33.4813 47.098C33.426 47.1115 33.3684 47.1126 33.3126 47.1012C33.2568 47.0898 33.2042 47.0662 33.1587 47.0321L31.4367 46.3321L30.1146 46.5282C30.0643 46.5357 30.013 46.5333 29.9637 46.521C29.9144 46.5086 29.868 46.4866 29.8272 46.4563C29.8167 46.4484 29.8066 46.44 29.7969 46.4311C29.8244 46.3746 29.8652 46.3256 29.9159 46.2884C29.9666 46.2512 30.0255 46.2269 30.0877 46.2176L31.5695 45.9969Z" fill="black"/>
<path d="M30.0768 45.591L31.5573 45.3712C31.6076 45.3637 31.6589 45.3662 31.7082 45.3785C31.7575 45.3909 31.8039 45.4129 31.8447 45.4433L33.6946 46.2397C33.738 46.269 33.7751 46.3068 33.8035 46.3507C33.8319 46.3947 33.8511 46.444 33.86 46.4956C33.8689 46.5472 33.8671 46.6001 33.855 46.651C33.8428 46.702 33.8205 46.7499 33.7893 46.792C33.7581 46.834 33.7187 46.8693 33.6734 46.8957C33.6282 46.9221 33.5781 46.9391 33.5261 46.9456C33.4741 46.9521 33.4214 46.9479 33.3711 46.9335C33.3207 46.919 33.2739 46.8945 33.2333 46.8614L31.5123 46.1616L30.1905 46.356C30.1392 46.3658 30.0864 46.3651 30.0354 46.3539C29.9844 46.3428 29.9361 46.3215 29.8936 46.2913C29.851 46.261 29.815 46.2225 29.7877 46.178C29.7604 46.1335 29.7423 46.0839 29.7347 46.0323C29.727 45.9806 29.7299 45.9279 29.7431 45.8774C29.7563 45.8269 29.7795 45.7795 29.8115 45.7383C29.8435 45.697 29.8834 45.6625 29.929 45.6371C29.9746 45.6116 30.0249 45.5956 30.0768 45.5901V45.591Z" fill="#FFDCB5"/>
<path d="M45.0074 29.8921L44.9062 33.1966C45.3202 33.1725 45.7101 32.9943 45.9993 32.697C46.2884 32.3998 46.4558 32.0051 46.4685 31.5906C46.4812 31.1762 46.3382 30.772 46.0678 30.4576C45.7974 30.1432 45.4191 29.9415 45.0074 29.8921V29.8921Z" fill="#EFCBAB"/>
<path d="M31.0786 31.5792C31.0886 31.9957 31.2549 32.3932 31.5444 32.6928C31.8339 32.9925 32.2254 33.1723 32.6413 33.1966L32.5399 29.8921C32.1302 29.9413 31.7535 30.1414 31.4833 30.4533C31.2131 30.7653 31.0688 31.1667 31.0786 31.5792V31.5792Z" fill="#EFCBAB"/>
<path d="M45.3394 29.8751L45.2628 26.6608C45.2479 26.0374 44.9861 25.4456 44.5349 25.0153C44.0836 24.585 43.48 24.3516 42.8567 24.3664L34.5359 24.5644C33.9129 24.5796 33.3214 24.8415 32.8914 25.2926C32.4615 25.7437 32.2282 26.3471 32.2428 26.9701L32.3126 29.9005C32.3044 29.9984 32.3044 30.0615 32.3044 30.1588L32.3746 33.0834C32.3746 33.1222 32.3823 33.2111 32.3914 33.2115L32.4262 34.6771C32.4226 34.771 32.4181 34.8653 32.4183 34.96L32.4224 35.0941C32.4983 36.1957 34.5458 39.1778 37.1398 39.1778L37.2072 40.3051L42.1851 40.7431L42.3717 38.3504C44.0152 37.4061 45.1368 35.9659 45.2789 34.8345C45.3061 34.6388 45.3216 34.4416 45.3254 34.2441L45.3721 32.5582C45.3721 32.5582 45.4065 32.5987 45.4072 32.5982L45.3448 29.8775L45.3394 29.8751Z" fill="#FFDCB5"/>
<path d="M31.7448 25.7283C31.5928 26.0968 30.9294 27.4363 32.3727 30.0652C34.0501 33.1205 34.235 33.0858 34.235 33.0858C34.235 33.0858 37.4625 35.1277 42.9626 33.0858C45.4656 29.6276 47.7864 26.771 46.0526 24.7578C46.0526 24.7578 46.8423 21.5796 41.7437 20.2579C34.1866 18.2991 29.7852 26.2073 29.7852 26.2073C29.7852 26.2073 30.4473 25.9425 31.7827 25.6455C31.7698 25.673 31.7571 25.7008 31.7448 25.7283Z" fill="#3D3D3D"/>
<path d="M37.6066 27.7571C41.7637 27.7571 46.053 24.7578 46.053 24.7578C47.7869 26.7711 45.466 29.6277 42.9631 33.0859C37.463 35.1278 34.2355 33.0859 34.2355 33.0859C34.2355 33.0859 34.0506 33.1205 32.3732 30.0653C30.9299 27.4364 31.5933 26.0969 31.7453 25.7284C31.7575 25.7008 31.77 25.6731 31.7832 25.6455C31.7832 25.6455 33.4492 27.7571 37.6066 27.7571Z" fill="#4D4C4C"/>
<g opacity="0.1">
<path d="M45.342 29.8782L45.3377 29.875L45.3341 29.72C44.6718 30.7631 43.8273 31.8882 42.9605 33.0856C37.4604 35.1275 34.2329 33.0856 34.2329 33.0856C34.2329 33.0856 34.1765 33.0958 33.8438 32.5906C34.4391 33.5771 35.1378 34.6912 35.787 35.6185C36.8381 37.1201 37.0818 38.4598 37.1285 39.1775H37.1371L37.1526 39.4358C37.291 39.4205 37.5452 39.3983 37.9015 39.3835C40.5314 39.1867 41.8287 39.2373 42.2965 39.2799L42.369 38.3498C44.0124 37.4055 45.1341 35.9653 45.2762 34.8339C45.3034 34.6382 45.3189 34.441 45.3227 34.2435L45.3694 32.5576C45.3694 32.5576 45.4038 32.5981 45.4045 32.5977L45.342 29.8782Z" fill="#606060"/>
</g>
<path d="M37.5113 40.5306C37.5113 40.5306 36.3139 40.2413 35.0602 40.6365C32.8729 41.3253 31.7178 41.5083 31.1534 42.6383C30.758 43.4307 30.6035 46.3314 30.6657 49.1964C30.7119 51.3181 30.8504 51.9178 34.2636 52.0102C36.88 52.0821 39.1976 40.1537 37.5113 40.5306Z" fill="#4C4C4C"/>
<path d="M41.4559 40.5306C41.4559 40.5306 42.6534 40.2413 43.907 40.6365C46.0946 41.3253 47.2494 41.5083 47.8138 42.6383C48.2092 43.4307 48.3638 46.3314 48.3016 49.1964C48.2553 51.3181 48.1171 51.9178 44.7036 52.0102C42.0881 52.0821 39.7705 40.1537 41.4559 40.5306Z" fill="#4C4C4C"/>
<path opacity="0.1" d="M51.387 78.6541C51.387 79.9712 45.9969 81.039 39.3478 81.039C32.6987 81.039 27.3086 79.9712 27.3086 78.6541C27.3086 77.3369 32.6989 76.2693 39.3478 76.2693C45.9967 76.2693 51.387 77.3369 51.387 78.6541Z" fill="black"/>
<path d="M47.7588 76.9778C47.7588 76.9778 47.9993 77.0208 47.9993 77.193V77.9983C47.9993 78.1231 47.8243 78.4445 47.137 78.624C46.4497 78.8035 46.2544 79.9437 44.7907 80.0927C43.1036 80.2649 42.6367 79.6645 42.6367 79.5007C42.6367 79.3369 42.6447 78.7243 42.6447 78.5683C42.6447 78.4122 42.7566 78.2482 43.236 78.17C43.7153 78.0919 47.3432 76.767 47.7588 76.9778Z" fill="#C4916E"/>
<path d="M42.6916 76.1919C42.6916 76.1919 42.6735 78.0478 42.7131 78.4484C42.7528 78.849 45.1345 79.49 46.0825 78.4885C47.0304 77.4869 47.1372 78.0879 47.7782 77.4604C48.4192 76.833 47.162 75.8822 45.5329 76.2694C43.9039 76.6567 42.8117 75.5912 42.6916 76.1919Z" fill="#3F3B38"/>
<path d="M46.2289 76.1833C46.2289 76.1833 46.7709 76.1647 47.0139 76.7067C47.0825 76.8688 47.2888 76.4874 46.9149 76.2069C46.541 75.9265 45.7863 76.1708 46.2289 76.1833Z" fill="#D3D3D3"/>
<g opacity="0.1">
<path d="M46.9219 76.2114C47.1333 76.4204 47.0726 76.6576 47.0052 76.685C47.0086 76.6919 47.0121 76.6988 47.0153 76.7065C47.0833 76.8679 47.2878 76.4913 46.9219 76.2114Z" fill="black"/>
</g>
<path d="M46.0419 76.1568C46.0419 76.1568 46.5719 76.1486 46.8459 76.7595C46.9231 76.9422 47.1802 76.5216 46.7598 76.2054C46.3394 75.8892 45.543 76.1428 46.0419 76.1568Z" fill="#D3D3D3"/>
<g opacity="0.1">
<path d="M46.8829 76.3252C47.0262 76.5575 46.9115 76.7772 46.8359 76.7411C46.839 76.7475 46.8422 76.7536 46.845 76.7602C46.9128 76.9206 47.1192 76.616 46.8829 76.3252Z" fill="black"/>
</g>
<path opacity="0.1" d="M47.3195 77.749C46.6115 77.8941 46.557 77.1861 46.1849 77.2587C45.8127 77.3312 45.9307 78.1483 45.9307 78.929C45.9307 79.4426 45.7027 79.7439 45.5469 79.8901C46.3528 79.5132 46.5891 78.7656 47.1348 78.6231C47.2863 78.5853 47.4331 78.5307 47.5726 78.4604C47.3985 78.3026 47.4262 77.7238 47.3195 77.749Z" fill="black"/>
<path d="M31.1779 76.9778C31.1779 76.9778 30.9375 77.0208 30.9375 77.193V77.9983C30.9375 78.1231 31.1127 78.4445 31.7998 78.624C32.4869 78.8035 32.6823 79.9437 34.146 80.0927C35.8332 80.2649 36.2998 79.6645 36.2998 79.5007C36.2998 79.3369 36.2919 78.7243 36.2919 78.5683C36.2919 78.4122 36.1802 78.2482 35.7006 78.17C35.221 78.0919 31.5936 76.767 31.1779 76.9778Z" fill="#C4916E"/>
<path d="M36.2415 76.1919C36.2415 76.1919 36.2594 78.0478 36.22 78.4484C36.1806 78.849 33.7987 79.49 32.8507 78.4885C31.9027 77.4869 31.796 78.0879 31.1549 77.4604C30.5139 76.833 31.7712 75.8822 33.4002 76.2694C35.0292 76.6567 36.1212 75.5912 36.2415 76.1919Z" fill="#3F3B38"/>
<path d="M32.7048 76.1833C32.7048 76.1833 32.1625 76.1647 31.9195 76.7067C31.8509 76.8688 31.6446 76.4874 32.0185 76.2069C32.3924 75.9265 33.1471 76.1708 32.7048 76.1833Z" fill="#D3D3D3"/>
<g opacity="0.1">
<path d="M32.0127 76.2114C31.8011 76.4204 31.862 76.6576 31.9294 76.685C31.926 76.6919 31.9225 76.6988 31.9193 76.7065C31.8511 76.8679 31.647 76.4913 32.0127 76.2114Z" fill="black"/>
</g>
<path d="M32.894 76.1568C32.894 76.1568 32.3638 76.1486 32.0898 76.7595C32.0125 76.9422 31.7555 76.5216 32.1772 76.2054C32.5989 75.8892 33.3927 76.1428 32.894 76.1568Z" fill="#D3D3D3"/>
<g opacity="0.1">
<path d="M32.0518 76.3252C31.9087 76.5575 32.0232 76.7772 32.0987 76.7411C32.0957 76.7475 32.0927 76.7536 32.0897 76.7602C32.0219 76.9206 31.8154 76.616 32.0518 76.3252Z" fill="black"/>
</g>
<path opacity="0.1" d="M31.6164 77.749C32.3244 77.8941 32.3788 77.1861 32.7512 77.2587C33.1236 77.3312 33.0052 78.1483 33.0052 78.929C33.0052 79.4426 33.2332 79.7439 33.389 79.8901C32.5831 79.5132 32.3466 78.7656 31.8011 78.6231C31.6496 78.5853 31.5027 78.5307 31.3633 78.4604C31.5374 78.3026 31.5105 77.7238 31.6164 77.749Z" fill="black"/>
<path d="M43.2984 39.9905C40.8308 39.3406 38.2321 39.3572 35.7646 39.9905C35.668 40.0105 35.5898 40.1175 35.5898 40.2287V41.4126C35.5898 41.5239 35.668 41.5973 35.7646 41.5775C38.25 41.068 40.813 41.068 43.2984 41.5775C43.3951 41.5973 43.473 41.5239 43.4732 41.4126V40.2287C43.473 40.1175 43.3951 40.0103 43.2984 39.9905Z" fill="#A57F65"/>
<path d="M44.1229 57.8879C43.823 57.0805 41.9058 56.4575 39.5845 56.4575C37.2383 56.4575 35.3032 57.0944 35.0371 57.9152L32.8166 57.7215L32.7305 75.7774C32.7305 75.7774 33.3381 76.8106 36.1459 75.9177C37.6044 66.9368 38.3565 63.0369 38.6858 60.9287C38.9762 60.9502 39.2767 60.9604 39.5841 60.9604C39.8035 60.9604 40.0187 60.9549 40.2298 60.944C40.5607 63.0601 41.3128 66.9586 42.7676 75.9177C45.5754 76.8115 46.183 75.7774 46.183 75.7774L46.1574 57.4268L44.1229 57.8879Z" fill="#4C4C4C"/>
<path d="M46.221 75.449C46.348 75.4649 46.3463 76.2004 46.2034 76.2751C44.2779 77.0285 42.7148 76.3311 42.7148 76.3311C42.6863 76.3221 42.6614 76.3044 42.6437 76.2804C42.6259 76.2564 42.6162 76.2274 42.616 76.1976C42.6087 75.9548 42.5514 75.4931 42.6859 75.5176C44.0586 75.9004 44.9345 75.7641 46.221 75.449Z" fill="#777777"/>
<g opacity="0.2">
<path d="M42.616 76.198C42.6087 75.9552 42.5514 75.4935 42.6859 75.518C42.876 75.5708 43.0562 75.6138 43.2299 75.6472C43.2038 75.792 43.2322 76.062 43.2372 76.2284C43.2374 76.2582 43.2471 76.2871 43.2649 76.3111C43.2826 76.335 43.3075 76.3527 43.336 76.3616C43.336 76.3616 43.7491 76.5568 44.4185 76.635C43.3922 76.6505 42.7148 76.3304 42.7148 76.3304C42.6865 76.3215 42.6617 76.3039 42.644 76.2802C42.6263 76.2564 42.6165 76.2277 42.616 76.198V76.198Z" fill="black"/>
</g>
<path d="M32.698 75.449C32.571 75.4649 32.5727 76.2004 32.7156 76.2751C34.6411 77.0285 36.2042 76.3311 36.2042 76.3311C36.2327 76.3221 36.2576 76.3044 36.2753 76.2804C36.2931 76.2564 36.3028 76.2274 36.303 76.1976C36.3103 75.9548 36.3676 75.4931 36.2331 75.5176C34.8604 75.9004 33.9846 75.7641 32.698 75.449Z" fill="#777777"/>
<g opacity="0.2">
<path d="M36.3027 76.198C36.31 75.9552 36.3673 75.4935 36.2328 75.518C36.0427 75.5708 35.8625 75.6138 35.6888 75.6472C35.7149 75.792 35.6865 76.062 35.6815 76.2284C35.6813 76.2582 35.6716 76.2871 35.6538 76.3111C35.6361 76.335 35.6112 76.3527 35.5827 76.3616C35.5827 76.3616 35.1696 76.5568 34.5 76.635C35.5265 76.6505 36.2039 76.3304 36.2039 76.3304C36.2322 76.3215 36.257 76.3039 36.2747 76.2802C36.2924 76.2564 36.3022 76.2277 36.3027 76.198V76.198Z" fill="black"/>
</g>
<path opacity="0.1" d="M32.6031 45.0002C32.6031 45.0002 32.1436 50.9141 31.1758 51.3418C31.6078 51.7583 32.4176 51.9412 33.9525 52.0009L32.6031 45.0002Z" fill="black"/>
<path opacity="0.1" d="M46.3689 45.0002C46.3689 45.0002 46.8285 50.9141 47.7963 51.3418C47.3643 51.7583 46.5545 51.9412 45.0195 52.0009L46.3689 45.0002Z" fill="black"/>
<path opacity="0.1" d="M32.8086 57.2644C32.8086 57.2644 32.8159 57.6547 32.8301 58.3318C32.9726 58.4076 33.1467 58.4713 33.3366 58.5585C35.3029 59.4492 37.4366 59.9099 39.5951 59.9099C41.7537 59.9099 43.8874 59.4492 45.8537 58.5585C45.9598 58.5098 46.061 58.4685 46.155 58.4283C46.1688 57.7087 46.1753 57.2644 46.1753 57.2644H32.8086ZM39.6699 59.0004L39.6854 58.8792L39.707 58.997L39.6699 59.0004Z" fill="black"/>
<path opacity="0.1" d="M45.5196 49.7965C45.4486 49.7668 45.5078 49.6762 45.4365 49.7055L43.8818 49.8467C43.8585 49.9063 43.8532 49.9714 43.8667 50.034C43.8801 50.0965 43.9116 50.1538 43.9574 50.1985C44.0031 50.2433 44.061 50.2737 44.1238 50.2858C44.1866 50.298 44.2516 50.2913 44.3107 50.2668L45.7893 50.1908L46.7149 50.5759C46.7359 50.5073 46.7306 50.4334 46.7 50.3685C46.6695 50.3036 46.6158 50.2524 46.5496 50.2249L45.5196 49.7965Z" fill="black"/>
<path d="M47.0105 50.3908L45.9795 49.9626C45.9445 49.948 45.907 49.9404 45.869 49.9404C45.8311 49.9404 45.7936 49.948 45.7586 49.9626L44.31 50.0259C44.2407 50.0562 44.186 50.1124 44.1577 50.1825C44.1294 50.2527 44.1297 50.3311 44.1586 50.401C44.1875 50.4709 44.2426 50.5266 44.3122 50.5563C44.3818 50.586 44.4602 50.5872 44.5306 50.5597L45.8684 50.5419L46.789 50.9244C46.8242 50.94 46.8622 50.9485 46.9008 50.9493C46.9393 50.95 46.9776 50.9431 47.0134 50.9288C47.0492 50.9145 47.0818 50.8932 47.1093 50.8662C47.1367 50.8391 47.1585 50.8068 47.1732 50.7712C47.188 50.7356 47.1955 50.6974 47.1953 50.6589C47.1951 50.6203 47.1872 50.5822 47.172 50.5468C47.1569 50.5114 47.1348 50.4793 47.107 50.4526C47.0793 50.4258 47.0465 50.4049 47.0105 50.391V50.3908Z" fill="#FFDCB5"/>
<path opacity="0.1" d="M45.9811 49.9626C45.9461 49.948 45.9086 49.9404 45.8707 49.9404C45.8328 49.9404 45.7952 49.948 45.7602 49.9626L44.3181 50.0238C44.3015 50.0907 44.3068 50.1611 44.3331 50.2248C44.3663 50.3048 44.4298 50.3684 44.5098 50.4017C44.5898 50.4349 44.6796 50.4351 44.7598 50.4022L46.2385 50.3262L47.1839 50.719C47.1983 50.653 47.189 50.5839 47.1578 50.524C47.1265 50.4641 47.0752 50.417 47.0128 50.391L45.9811 49.9626Z" fill="black"/>
<path d="M47.3572 49.9819L46.1905 49.4972C46.1509 49.4807 46.1084 49.4722 46.0654 49.4722C46.0225 49.4722 45.98 49.4807 45.9404 49.4972L44.3368 49.6248C44.2968 49.641 44.2605 49.665 44.2299 49.6952C44.1992 49.7255 44.1749 49.7616 44.1582 49.8013C44.1416 49.8411 44.1329 49.8837 44.1328 49.9268C44.1327 49.9699 44.1411 50.0125 44.1576 50.0524C44.174 50.0922 44.1982 50.1284 44.2287 50.1588C44.2591 50.1893 44.2953 50.2134 44.3352 50.2298C44.375 50.2462 44.4177 50.2545 44.4608 50.2544C44.5039 50.2542 44.5465 50.2455 44.5862 50.2288L46.0648 50.1528L47.1066 50.5857C47.1856 50.6143 47.2726 50.6114 47.3495 50.5776C47.4264 50.5438 47.4873 50.4816 47.5196 50.404C47.5519 50.3265 47.553 50.2394 47.5228 50.161C47.4926 50.0826 47.4334 50.0189 47.3574 49.983L47.3572 49.9819Z" fill="#FFDCB5"/>
<path opacity="0.1" d="M47.3576 49.9819L46.191 49.4972C46.1513 49.4807 46.1088 49.4722 46.0659 49.4722C46.023 49.4722 45.9805 49.4807 45.9408 49.4972L44.3372 49.6248C44.3188 49.6325 44.3012 49.6418 44.2845 49.6526C44.2573 49.7031 44.2417 49.759 44.2388 49.8162C44.2359 49.8735 44.2456 49.9307 44.2675 49.9837C44.2958 50.0524 44.3436 50.1115 44.405 50.1535L46.4751 50.0254L47.5102 50.4559C47.5194 50.4412 47.5274 50.4258 47.5341 50.4099C47.5507 50.3702 47.5593 50.3276 47.5594 50.2846C47.5595 50.2416 47.5511 50.199 47.5347 50.1592C47.5183 50.1195 47.4942 50.0834 47.4639 50.0529C47.4335 50.0225 47.3974 49.9984 47.3576 49.9819V49.9819Z" fill="black"/>
<path d="M47.6031 49.5507L46.221 48.9764C46.174 48.9568 46.1237 48.9468 46.0728 48.9468C46.0219 48.9468 45.9716 48.9568 45.9246 48.9764L44.0745 49.2059C43.9843 49.2481 43.9139 49.3235 43.8778 49.4164C43.8418 49.5092 43.8429 49.6124 43.8809 49.7045C43.9189 49.7966 43.9909 49.8705 44.0819 49.9108C44.173 49.9512 44.2761 49.955 44.3698 49.9214L46.072 49.7532L47.3063 50.266C47.3537 50.2884 47.4052 50.3009 47.4576 50.3028C47.51 50.3047 47.5622 50.296 47.6111 50.2771C47.6601 50.2583 47.7046 50.2297 47.7422 50.1931C47.7797 50.1565 47.8095 50.1126 47.8296 50.0642C47.8497 50.0158 47.8597 49.9638 47.8592 49.9113C47.8586 49.8589 47.8474 49.8071 47.8262 49.7592C47.805 49.7112 47.7743 49.668 47.736 49.6323C47.6977 49.5965 47.6525 49.5689 47.6031 49.5511V49.5507Z" fill="#FFDCB5"/>
<path opacity="0.1" d="M46.2213 48.9764C46.1743 48.9568 46.124 48.9468 46.0731 48.9468C46.0222 48.9468 45.9718 48.9568 45.9249 48.9764L44.0748 49.2059C44.0626 49.2108 44.0507 49.2164 44.0391 49.2226C44.0442 49.2461 44.0514 49.269 44.0606 49.2911C44.0999 49.3859 44.1752 49.4612 44.2699 49.5005C44.3647 49.5399 44.4711 49.54 44.566 49.501L46.268 49.3329L47.5022 49.8456C47.5492 49.8651 47.5995 49.8752 47.6503 49.8752C47.7012 49.8752 47.7515 49.8651 47.7984 49.8456C47.8107 49.8404 47.8228 49.8346 47.8342 49.8286C47.8212 49.7671 47.7935 49.7096 47.7534 49.6612C47.7133 49.6128 47.6621 49.5749 47.6041 49.5507L46.2213 48.9764Z" fill="black"/>
<path d="M47.8555 48.9928L46.4734 48.4185C46.4264 48.399 46.3761 48.3889 46.3253 48.3889C46.2744 48.3889 46.2241 48.399 46.1772 48.4185L44.326 48.648C44.2768 48.6658 44.2317 48.6934 44.1934 48.7291C44.1552 48.7648 44.1245 48.8079 44.1034 48.8558C44.0822 48.9036 44.071 48.9553 44.0703 49.0076C44.0697 49.06 44.0797 49.1119 44.0997 49.1603C44.1196 49.2086 44.1492 49.2525 44.1866 49.2891C44.224 49.3257 44.2684 49.3544 44.3172 49.3734C44.3659 49.3924 44.4181 49.4013 44.4704 49.3996C44.5227 49.3979 44.5741 49.3856 44.6215 49.3635L46.3235 49.1954L47.5578 49.7081C47.6516 49.7425 47.7551 49.7394 47.8467 49.6993C47.9382 49.6592 48.0108 49.5852 48.0491 49.4929C48.0874 49.4006 48.0886 49.297 48.0523 49.2039C48.0161 49.1107 47.9452 49.0352 47.8546 48.993L47.8555 48.9928Z" fill="#FFDCB5"/>
<path d="M46.517 57.3427C46.517 57.858 46.1367 57.9238 45.656 58.1466C41.5056 59.6534 37.2937 59.4418 33.3727 58.1466C32.8919 57.9249 32.5117 57.858 32.5117 57.3427V42.6438C32.5117 42.1285 32.8921 41.4993 33.3727 41.2776C35.3015 40.4007 37.3957 39.947 39.5144 39.947C41.6331 39.947 43.7273 40.4007 45.656 41.2776C46.1369 41.4993 46.517 42.1285 46.517 42.6438V57.3427Z" fill="#4C4C4C"/>
</svg>
