<svg width="802" height="127" viewBox="0 0 802 127" fill="none" xmlns="http://www.w3.org/2000/svg">
<g clip-path="url(#clip0_219_5594)">
<path d="M59.5003 63.004C74.19 63.004 86.0983 50.8029 86.0983 35.752C86.0983 20.7011 74.19 8.5 59.5003 8.5C44.8107 8.5 32.9023 20.7011 32.9023 35.752C32.9023 50.8029 44.8107 63.004 59.5003 63.004Z" fill="#1CB954"/>
<path d="M73.0547 40.0634L69.3877 36.3054C70.3826 34.9577 70.9456 33.3401 71.0026 31.666C71.0595 29.9918 70.6077 28.3396 69.7067 26.9274C69.6814 26.8869 69.6481 26.852 69.6088 26.8248C69.5695 26.7976 69.5251 26.7787 69.4783 26.7694C69.4314 26.76 69.3832 26.7603 69.3365 26.7703C69.2898 26.7803 69.2456 26.7997 69.2067 26.8274C69.1267 26.8821 69.0713 26.9659 69.0526 27.061C69.0339 27.156 69.0533 27.2546 69.1067 27.3354C70.0133 28.765 70.414 30.4575 70.2446 32.1418C70.0753 33.8261 69.3457 35.4049 68.1727 36.6254C67.5106 37.3104 66.7174 37.8552 65.8403 38.2272C64.9633 38.5993 64.0203 38.791 63.0677 38.791C62.115 38.791 61.172 38.5993 60.295 38.2272C59.418 37.8552 58.6248 37.3104 57.9627 36.6254C56.6081 35.2211 55.8511 33.3461 55.8511 31.3949C55.8511 29.4438 56.6081 27.5687 57.9627 26.1644C58.6243 25.4795 59.417 24.9347 60.2936 24.5627C61.1703 24.1906 62.1128 23.9989 63.0652 23.9989C64.0175 23.9989 64.96 24.1906 65.8367 24.5627C66.7133 24.9347 67.5061 25.4795 68.1677 26.1644L68.1867 26.1834C68.2193 26.2176 68.2584 26.2448 68.3018 26.2634C68.3452 26.2819 68.392 26.2915 68.4392 26.2915C68.4864 26.2915 68.5331 26.2819 68.5765 26.2634C68.6199 26.2448 68.6591 26.2176 68.6917 26.1834C68.7592 26.1143 68.7969 26.0216 68.7969 25.9249C68.7969 25.8283 68.7592 25.7356 68.6917 25.6664L68.6727 25.6474C67.9444 24.8958 67.0726 24.2981 66.1089 23.89C65.1451 23.4818 64.1092 23.2715 63.0627 23.2715C62.0161 23.2715 60.9802 23.4818 60.0165 23.89C59.0528 24.2981 58.1809 24.8958 57.4527 25.6474C57.3527 25.7474 57.2617 25.8474 57.1717 25.9474H49.3297C49.234 25.9493 49.1429 25.9887 49.0761 26.0572C49.0093 26.1257 48.9721 26.2178 48.9727 26.3134V27.9344C48.9727 28.0293 49.0103 28.1202 49.0774 28.1872C49.1444 28.2543 49.2353 28.2919 49.3302 28.2919C49.425 28.2919 49.5159 28.2543 49.583 28.1872C49.65 28.1202 49.6877 28.0293 49.6877 27.9344V26.6724H56.6047C56.3351 27.0616 56.0992 27.4731 55.8997 27.9024H51.4547C51.3576 27.9024 51.2645 27.941 51.1959 28.0096C51.1272 28.0783 51.0887 28.1714 51.0887 28.2684C51.0887 28.3655 51.1272 28.4586 51.1959 28.5272C51.2645 28.5959 51.3576 28.6344 51.4547 28.6344H55.6047C55.5024 28.9271 55.4166 29.2252 55.3477 29.5274H51.4547C51.3576 29.5274 51.2645 29.566 51.1959 29.6346C51.1272 29.7033 51.0887 29.7964 51.0887 29.8934C51.0887 29.9905 51.1272 30.0836 51.1959 30.1523C51.2645 30.2209 51.3576 30.2594 51.4547 30.2594H55.2237C55.1857 30.5574 55.162 30.8551 55.1527 31.1524H51.4547C51.3576 31.1524 51.2645 31.191 51.1959 31.2596C51.1272 31.3283 51.0887 31.4214 51.0887 31.5184C51.0887 31.6155 51.1272 31.7086 51.1959 31.7773C51.2645 31.8459 51.3576 31.8844 51.4547 31.8844H55.1547C55.2178 32.9567 55.4895 34.0063 55.9547 34.9744H55.3547C55.2591 34.9765 55.1681 35.0161 55.1014 35.0845C55.0346 35.1529 54.9974 35.2448 54.9977 35.3404V46.1794C54.9971 46.2751 55.0343 46.3672 55.1011 46.4357C55.1679 46.5042 55.259 46.5436 55.3547 46.5454H58.2137C58.3093 46.5436 58.4004 46.5042 58.4672 46.4357C58.5341 46.3672 58.5712 46.2751 58.5707 46.1794V38.0794C58.8881 38.3049 59.2224 38.5055 59.5707 38.6794V46.1874C59.5701 46.2831 59.6073 46.3752 59.6741 46.4437C59.7409 46.5122 59.832 46.5516 59.9277 46.5534H62.7867C62.8823 46.5516 62.9734 46.5122 63.0402 46.4437C63.107 46.3752 63.1442 46.2831 63.1437 46.1874V39.5114C63.4224 39.5081 63.7008 39.49 63.9777 39.4574V45.1154C63.9777 45.2103 64.0153 45.3012 64.0824 45.3682C64.1494 45.4353 64.2403 45.4729 64.3352 45.4729C64.43 45.4729 64.5209 45.4353 64.588 45.3682C64.655 45.3012 64.6927 45.2103 64.6927 45.1154V39.3404C65.8513 39.0947 66.9384 38.5871 67.8707 37.8564L71.5347 41.6104C71.6328 41.7123 71.7505 41.7933 71.8806 41.8486C72.0108 41.9039 72.1507 41.9324 72.2922 41.9324C72.4336 41.9324 72.5736 41.9039 72.7037 41.8486C72.8339 41.7933 72.9515 41.7123 73.0497 41.6104C73.2519 41.4041 73.3655 41.1269 73.3664 40.838C73.3674 40.549 73.2555 40.2711 73.0547 40.0634V40.0634ZM57.8547 45.8234H55.7137V35.7184H56.3547C56.6695 36.2299 57.0401 36.7048 57.4597 37.1344C57.5887 37.2664 57.7217 37.3934 57.8597 37.5154L57.8547 45.8234ZM60.2847 45.8234V38.9994C60.9733 39.2606 61.6948 39.4248 62.4287 39.4874V45.8284H60.2877L60.2847 45.8234ZM72.5437 41.0984C72.511 41.1316 72.4721 41.1579 72.4292 41.1759C72.3863 41.1938 72.3402 41.2031 72.2937 41.2031C72.2471 41.2031 72.2011 41.1938 72.1582 41.1759C72.1152 41.1579 72.0763 41.1316 72.0437 41.0984L68.4227 37.3884C68.5087 37.3054 68.5987 37.2224 68.6797 37.1344C68.7607 37.0464 68.8467 36.9584 68.9277 36.8704L72.5487 40.5804C72.615 40.6505 72.6518 40.7434 72.6515 40.8398C72.6511 40.9363 72.6136 41.0289 72.5467 41.0984H72.5437Z" fill="white"/>
<path d="M64.3367 46.3268C64.241 46.3286 64.1499 46.368 64.0831 46.4365C64.0163 46.505 63.9792 46.5971 63.9797 46.6928V47.5228H49.6857V29.5138C49.6857 29.4189 49.648 29.328 49.581 29.261C49.514 29.1939 49.423 29.1562 49.3282 29.1562C49.2334 29.1562 49.1425 29.1939 49.0754 29.261C49.0084 29.328 48.9707 29.4189 48.9707 29.5138V47.8888C48.9702 47.9844 49.0073 48.0765 49.0741 48.145C49.1409 48.2135 49.232 48.2529 49.3277 48.2547H64.3367C64.4324 48.2529 64.5235 48.2135 64.5903 48.145C64.6571 48.0765 64.6943 47.9844 64.6937 47.8888V46.6888C64.694 46.5935 64.6566 46.502 64.5897 46.4342C64.5229 46.3664 64.4319 46.3278 64.3367 46.3268V46.3268Z" fill="white"/>
<path d="M50.5195 38.2801V46.1881C50.519 46.2837 50.5561 46.3758 50.623 46.4443C50.6898 46.5128 50.7809 46.5522 50.8765 46.5541H53.7355C53.8312 46.5522 53.9223 46.5128 53.9891 46.4443C54.0559 46.3758 54.0931 46.2837 54.0925 46.1881V38.2801C54.0931 38.1844 54.0559 38.0923 53.9891 38.0238C53.9223 37.9553 53.8312 37.9159 53.7355 37.9141H50.8775C50.7817 37.9156 50.6903 37.955 50.6233 38.0235C50.5563 38.092 50.519 38.1842 50.5195 38.2801V38.2801ZM51.2345 38.6461H53.3785V45.8221H51.2345V38.6461Z" fill="white"/>
<path d="M54.1221 33.5211C54.2191 33.5211 54.3122 33.4825 54.3809 33.4139C54.4495 33.3452 54.4881 33.2521 54.4881 33.1551C54.4881 33.058 54.4495 32.9649 54.3809 32.8963C54.3122 32.8276 54.2191 32.7891 54.1221 32.7891H51.4461C51.349 32.7891 51.2559 32.8276 51.1873 32.8963C51.1186 32.9649 51.0801 33.058 51.0801 33.1551C51.0801 33.2521 51.1186 33.3452 51.1873 33.4139C51.2559 33.4825 51.349 33.5211 51.4461 33.5211H54.1221Z" fill="white"/>
<path d="M63.0692 24.7266C62.2109 24.7254 61.3611 24.8972 60.5708 25.232C59.7804 25.5667 59.0656 26.0573 58.4692 26.6746C57.2497 27.9395 56.5684 29.6281 56.5684 31.3851C56.5684 33.1421 57.2497 34.8306 58.4692 36.0956C59.066 36.7125 59.7808 37.2031 60.571 37.5381C61.3613 37.8732 62.2109 38.0459 63.0692 38.0459C63.9275 38.0459 64.7771 37.8732 65.5674 37.5381C66.3576 37.2031 67.0724 36.7125 67.6692 36.0956C68.8887 34.8306 69.57 33.1421 69.57 31.3851C69.57 29.6281 68.8887 27.9395 67.6692 26.6746C67.0728 26.0573 66.3581 25.5666 65.5677 25.2319C64.7773 24.8972 63.9275 24.7253 63.0692 24.7266V24.7266ZM67.1622 35.5836C66.6308 36.1317 65.9948 36.5675 65.2917 36.8651C64.5887 37.1627 63.8331 37.316 63.0697 37.316C62.3063 37.316 61.5507 37.1627 60.8477 36.8651C60.1446 36.5675 59.5086 36.1317 58.9772 35.5836C57.892 34.4572 57.2857 32.9541 57.2857 31.3901C57.2857 29.826 57.892 28.3229 58.9772 27.1966C59.5081 26.6477 60.1441 26.2113 60.8471 25.9132C61.5502 25.6151 62.3061 25.4615 63.0697 25.4615C63.8333 25.4615 64.5892 25.6151 65.2923 25.9132C65.9953 26.2113 66.6313 26.6477 67.1622 27.1966C68.2472 28.3238 68.8533 29.8275 68.8533 31.3921C68.8533 32.9566 68.2472 34.4603 67.1622 35.5876V35.5836Z" fill="white"/>
</g>
<path d="M12.3099 99.1459V94.7659H18.3899V92.9259H12.3099V88.9659H19.0699V87.1059H10.1899V101.006H19.1899V99.1459H12.3099ZM33.6409 90.2259C31.7809 90.2259 30.5409 91.1059 29.9809 92.1659C29.3809 90.9459 28.2609 90.2259 26.5009 90.2259C25.0009 90.2259 23.8409 90.9259 23.1809 91.8059V90.4659H21.1809V101.006H23.3009V94.4859C23.3209 93.3659 24.2809 92.1259 25.8809 92.1259C27.4809 92.1059 28.4009 93.2859 28.4009 94.8659V101.006H30.5209V94.4859C30.5409 93.3859 31.4809 92.1259 33.1009 92.1259C34.7009 92.1059 35.6209 93.2859 35.6209 94.8659V101.006H37.7209V94.4859C37.7209 92.0659 36.2609 90.2259 33.6409 90.2259ZM45.9243 90.2459C44.3043 90.2459 43.0043 90.9459 42.1643 92.1259V90.4659H40.2043V104.586H42.3243V99.6059C43.1443 100.646 44.3643 101.246 45.8843 101.246C48.8843 101.246 51.0843 98.8859 51.0843 95.7459C51.0843 92.6059 48.9443 90.2459 45.9243 90.2459ZM45.6243 99.3659C43.6043 99.3659 42.2243 97.8859 42.2243 95.7459C42.2243 93.6059 43.6243 92.1059 45.6243 92.1059C47.5643 92.1059 48.9843 93.6459 48.9843 95.7459C48.9843 97.8259 47.5443 99.3659 45.6243 99.3659ZM61.4349 90.4659V92.2459C60.6349 91.0459 59.3549 90.3659 57.7149 90.3659C54.7149 90.3659 52.5149 92.6059 52.5149 95.7259C52.5149 98.8859 54.6949 101.246 57.7149 101.246C59.3549 101.246 60.6349 100.506 61.4349 99.2859V101.006H63.3949V90.4659H61.4349ZM57.9749 99.3659C56.0349 99.3659 54.6149 97.8259 54.6149 95.7259C54.6149 93.6659 56.0549 92.1059 57.9749 92.1059C59.9949 92.1059 61.3549 93.6059 61.3549 95.7259C61.3549 97.8659 59.9749 99.3659 57.9749 99.3659ZM70.4455 101.006H72.0455V99.1459H70.8655C69.6055 99.1459 68.9055 98.4259 68.9055 97.1059V92.2859H71.9255V90.4659H68.9855V87.7459H66.9255V89.4459C66.9255 90.1259 66.6255 90.4659 65.9455 90.4659H64.9255V92.2859H66.8055V97.3259C66.8055 99.5859 68.0655 101.006 70.4455 101.006ZM79.0632 90.2259C77.5832 90.2259 76.4232 90.8259 75.7032 91.6459V86.3859H73.5832V101.006H75.7032V94.5859C75.7232 93.2859 76.8832 92.1259 78.4632 92.1259C80.1432 92.1059 81.1832 93.1459 81.1832 94.8859V101.006H83.3032V94.5059C83.3032 91.9259 81.7032 90.2259 79.0632 90.2259ZM86.8502 88.6459C87.7102 88.6459 88.3902 88.0459 88.3902 87.1659C88.3902 86.2859 87.7102 85.6459 86.8502 85.6459C85.9902 85.6459 85.3102 86.2859 85.3102 87.1659C85.3102 88.0459 85.9902 88.6459 86.8502 88.6459ZM85.7902 101.006H87.9102V90.4659H85.7902V101.006ZM92.3173 99.2859L98.0173 92.0459V90.4659H89.9573V92.1859H95.4373L89.6973 99.4859V101.006H98.2373V99.2859H92.3173ZM101.175 96.4459H109.675C109.695 96.2459 109.715 95.8659 109.715 95.5059C109.715 92.7859 107.695 90.2259 104.435 90.2259C101.455 90.2259 99.0751 92.6859 99.0751 95.7459C99.0751 98.8859 101.275 101.246 104.595 101.246C107.115 101.246 108.535 100.186 109.335 98.7859L107.595 97.6859C107.115 98.7859 106.235 99.3659 104.655 99.3659C102.875 99.3659 101.495 98.2459 101.175 96.4459ZM101.195 94.8259C101.515 93.0059 102.875 91.9459 104.515 91.9459C106.135 91.9459 107.355 93.0459 107.635 94.8259H101.195Z" fill="#393939"/>
<g clip-path="url(#clip1_219_5594)">
<path d="M283 63.004C297.69 63.004 309.598 50.8029 309.598 35.752C309.598 20.7011 297.69 8.5 283 8.5C268.311 8.5 256.402 20.7011 256.402 35.752C256.402 50.8029 268.311 63.004 283 63.004Z" fill="#1CB954"/>
<path d="M283 27.0586C282.828 27.0653 282.665 27.1383 282.545 27.2624C282.426 27.3864 282.359 27.5519 282.359 27.7241C282.359 27.8963 282.426 28.0617 282.545 28.1858C282.665 28.3099 282.828 28.3829 283 28.3896C284.046 28.403 285.044 28.8309 285.775 29.5792C286.506 30.3276 286.911 31.3354 286.9 32.3816C286.9 32.554 286.968 32.7193 287.09 32.8412C287.212 32.9631 287.377 33.0316 287.55 33.0316C287.722 33.0316 287.887 32.9631 288.009 32.8412C288.131 32.7193 288.2 32.554 288.2 32.3816C288.215 30.9863 287.676 29.6419 286.701 28.6438C285.726 27.6456 284.395 27.0755 283 27.0586V27.0586Z" fill="white"/>
<path d="M281.325 24.5738C279.858 24.9097 278.518 25.6602 277.466 26.7361C276.414 27.812 275.693 29.1678 275.39 30.6418C275.121 31.8728 275.143 33.1493 275.453 34.3704C275.764 35.5915 276.354 36.7235 277.178 37.6768C277.995 38.6218 278.45 39.8272 278.459 41.0768V42.4078C278.457 42.8254 278.585 43.2332 278.827 43.5739C279.068 43.9147 279.41 44.1713 279.805 44.3078C279.906 45.085 280.286 45.7988 280.875 46.3159C281.464 46.8331 282.221 47.1183 283.005 47.1183C283.788 47.1183 284.545 46.8331 285.134 46.3159C285.723 45.7988 286.103 45.085 286.205 44.3078C286.599 44.1713 286.941 43.9147 287.183 43.5739C287.424 43.2332 287.553 42.8254 287.551 42.4078V41.0748C287.567 39.8076 288.033 38.5875 288.867 37.6328C290.113 36.1672 290.796 34.3049 290.793 32.3808C290.811 31.2024 290.563 30.035 290.069 28.9652C289.574 27.8954 288.845 26.9506 287.936 26.2008C287.026 25.451 285.96 24.9155 284.816 24.6338C283.671 24.3522 282.478 24.3317 281.325 24.5738V24.5738ZM283 45.7738C282.589 45.7618 282.191 45.6228 281.863 45.3759C281.534 45.1289 281.29 44.7862 281.164 44.3948H284.839C284.712 44.7857 284.468 45.128 284.14 45.3753C283.812 45.6226 283.415 45.7628 283.005 45.7768L283 45.7738ZM286.247 42.4028C286.248 42.4891 286.232 42.5748 286.2 42.6549C286.168 42.735 286.12 42.808 286.06 42.8698C286 42.9315 285.928 42.9808 285.848 43.0148C285.769 43.0488 285.684 43.0668 285.598 43.0678H280.405C280.318 43.0668 280.233 43.0488 280.154 43.0148C280.074 42.9808 280.003 42.9315 279.942 42.8698C279.882 42.808 279.835 42.735 279.803 42.6549C279.77 42.5748 279.755 42.4891 279.756 42.4028V41.7398H286.25L286.247 42.4028ZM287.888 36.7518C286.998 37.7799 286.438 39.0521 286.282 40.4028H279.719C279.571 39.0677 279.023 37.8084 278.148 36.7898C277.461 35.9934 276.969 35.0481 276.712 34.0287C276.454 33.0093 276.437 31.9439 276.663 30.9168C276.984 29.3264 277.891 27.9143 279.203 26.9599C280.515 26.0054 282.138 25.5779 283.75 25.7618C285.362 25.9458 286.847 26.7278 287.91 27.9533C288.974 29.1789 289.539 30.7588 289.494 32.3808C289.496 33.9835 288.926 35.5344 287.888 36.7548V36.7518Z" fill="white"/>
<path d="M273.866 32.3828H272.566C272.394 32.3895 272.231 32.4625 272.112 32.5866C271.992 32.7107 271.926 32.8761 271.926 33.0483C271.926 33.2205 271.992 33.386 272.112 33.51C272.231 33.6341 272.394 33.7071 272.566 33.7138H273.866C274.038 33.7071 274.201 33.6341 274.32 33.51C274.44 33.386 274.506 33.2205 274.506 33.0483C274.506 32.8761 274.44 32.7107 274.32 32.5866C274.201 32.4625 274.038 32.3895 273.866 32.3828Z" fill="white"/>
<path d="M274.133 29.0542L273.215 28.1142C273.156 28.0522 273.085 28.0028 273.006 27.9691C272.927 27.9354 272.842 27.918 272.756 27.918C272.67 27.918 272.585 27.9354 272.507 27.9691C272.428 28.0028 272.356 28.0522 272.297 28.1142C272.175 28.2404 272.107 28.4088 272.107 28.5842C272.107 28.7595 272.175 28.928 272.297 29.0542L273.215 29.9942C273.274 30.0563 273.346 30.1058 273.424 30.1396C273.503 30.1734 273.588 30.1908 273.674 30.1908C273.76 30.1908 273.845 30.1734 273.924 30.1396C274.003 30.1058 274.074 30.0563 274.133 29.9942C274.256 29.8685 274.324 29.6998 274.324 29.5242C274.324 29.3485 274.256 29.1799 274.133 29.0542V29.0542Z" fill="white"/>
<path d="M274.133 36.099C274.074 36.0369 274.002 35.9874 273.923 35.9536C273.845 35.9198 273.76 35.9023 273.674 35.9023C273.588 35.9023 273.503 35.9198 273.424 35.9536C273.345 35.9874 273.274 36.0369 273.215 36.099L272.297 37.039C272.174 37.1647 272.105 37.3334 272.105 37.509C272.105 37.6846 272.174 37.8533 272.297 37.979C272.356 38.041 272.427 38.0904 272.506 38.1241C272.585 38.1578 272.67 38.1752 272.756 38.1752C272.842 38.1752 272.926 38.1578 273.005 38.1241C273.084 38.0904 273.155 38.041 273.215 37.979L274.133 37.039C274.255 36.9133 274.324 36.7446 274.324 36.569C274.324 36.3934 274.255 36.2247 274.133 36.099V36.099Z" fill="white"/>
<path d="M293.432 32.3828H292.132C291.96 32.3895 291.798 32.4625 291.678 32.5866C291.559 32.7107 291.492 32.8761 291.492 33.0483C291.492 33.2205 291.559 33.386 291.678 33.51C291.798 33.6341 291.96 33.7071 292.132 33.7138H293.432C293.604 33.7071 293.767 33.6341 293.887 33.51C294.006 33.386 294.073 33.2205 294.073 33.0483C294.073 32.8761 294.006 32.7107 293.887 32.5866C293.767 32.4625 293.604 32.3895 293.432 32.3828V32.3828Z" fill="white"/>
<path d="M293.701 28.1142C293.642 28.0522 293.571 28.0028 293.492 27.9691C293.413 27.9354 293.328 27.918 293.242 27.918C293.156 27.918 293.071 27.9354 292.993 27.9691C292.914 28.0028 292.842 28.0522 292.783 28.1142L291.865 29.0542C291.742 29.1799 291.674 29.3485 291.674 29.5242C291.674 29.6998 291.742 29.8685 291.865 29.9942C291.924 30.0562 291.996 30.1055 292.075 30.1393C292.153 30.173 292.238 30.1904 292.324 30.1904C292.41 30.1904 292.495 30.173 292.574 30.1393C292.653 30.1055 292.724 30.0562 292.783 29.9942L293.701 29.0542C293.824 28.9285 293.892 28.7598 293.892 28.5842C293.892 28.4085 293.824 28.2399 293.701 28.1142V28.1142Z" fill="white"/>
<path d="M293.702 37.0385L292.784 36.0985C292.724 36.0365 292.653 35.9872 292.574 35.9534C292.495 35.9197 292.41 35.9023 292.325 35.9023C292.239 35.9023 292.154 35.9197 292.075 35.9534C291.996 35.9872 291.925 36.0365 291.866 36.0985C291.744 36.2247 291.676 36.3932 291.676 36.5685C291.676 36.7439 291.744 36.9124 291.866 37.0385L292.784 37.9785C292.843 38.0406 292.914 38.0899 292.993 38.1236C293.072 38.1574 293.157 38.1747 293.243 38.1747C293.328 38.1747 293.413 38.1574 293.492 38.1236C293.571 38.0899 293.642 38.0406 293.702 37.9785C293.823 37.8524 293.891 37.6839 293.891 37.5085C293.891 37.3332 293.823 37.1647 293.702 37.0385Z" fill="white"/>
</g>
<path d="M259.328 87.1059H254.168V101.006H259.328C263.348 101.006 266.208 98.2659 266.208 94.0459C266.208 89.8259 263.348 87.1059 259.328 87.1059ZM259.268 99.1259H256.288V88.9859H259.268C262.048 88.9859 264.068 90.9259 264.068 94.0659C264.068 97.2059 262.048 99.1259 259.268 99.1259ZM269.763 96.4459H278.263C278.283 96.2459 278.303 95.8659 278.303 95.5059C278.303 92.7859 276.283 90.2259 273.023 90.2259C270.043 90.2259 267.663 92.6859 267.663 95.7459C267.663 98.8859 269.863 101.246 273.183 101.246C275.703 101.246 277.123 100.186 277.923 98.7859L276.183 97.6859C275.703 98.7859 274.823 99.3659 273.243 99.3659C271.463 99.3659 270.083 98.2459 269.763 96.4459ZM269.783 94.8259C270.103 93.0059 271.463 91.9459 273.103 91.9459C274.723 91.9459 275.943 93.0459 276.223 94.8259H269.783ZM284.924 87.8259H287.964V86.1659H284.864C282.264 86.1659 280.824 87.6659 280.824 90.1659V90.4659H279.004V92.2859H280.824V101.006H282.924V92.2859H285.864V101.006H287.964V90.4659H282.924V89.9659C282.924 88.6059 283.684 87.8259 284.924 87.8259ZM296.05 90.2259C294.49 90.2259 293.29 90.8859 292.57 91.8059V90.4659H290.57V101.006H292.69V94.5859C292.71 93.2859 293.87 92.1259 295.45 92.1259C297.13 92.1059 298.17 93.1459 298.17 94.8859V101.006H300.29V94.5059C300.29 91.9259 298.69 90.2259 296.05 90.2259ZM304.197 96.4459H312.697C312.717 96.2459 312.737 95.8659 312.737 95.5059C312.737 92.7859 310.717 90.2259 307.457 90.2259C304.477 90.2259 302.097 92.6859 302.097 95.7459C302.097 98.8859 304.297 101.246 307.617 101.246C310.137 101.246 311.557 100.186 312.357 98.7859L310.617 97.6859C310.137 98.7859 309.257 99.3659 307.677 99.3659C305.897 99.3659 304.517 98.2459 304.197 96.4459ZM304.217 94.8259C304.537 93.0059 305.897 91.9459 307.537 91.9459C309.157 91.9459 310.377 93.0459 310.657 94.8259H304.217Z" fill="#393939"/>
<g clip-path="url(#clip2_219_5594)">
<path d="M506 54.504C520.69 54.504 532.598 42.3029 532.598 27.252C532.598 12.2011 520.69 0 506 0C491.311 0 479.402 12.2011 479.402 27.252C479.402 42.3029 491.311 54.504 506 54.504Z" fill="#1CB954"/>
<path d="M496.994 17.9844C496.783 17.9867 496.574 18.0308 496.379 18.1141C496.184 18.1974 496.008 18.3182 495.86 18.4697C495.712 18.6212 495.596 18.8004 495.517 18.997C495.439 19.1935 495.4 19.4037 495.402 19.6154V23.9624H496.461V19.6144C496.46 19.4716 496.515 19.334 496.615 19.2318C496.714 19.1297 496.851 19.0712 496.993 19.0694H509.726V17.9844H496.994Z" fill="white"/>
<path d="M510.103 35.6918L497.221 22.4888C497.173 22.4381 497.115 22.3976 497.05 22.37C496.986 22.3424 496.916 22.3281 496.846 22.3281C496.776 22.3281 496.706 22.3424 496.642 22.37C496.577 22.3976 496.519 22.4381 496.47 22.4888L493.441 25.5969C493.341 25.6997 493.285 25.8377 493.285 25.9813C493.285 26.125 493.341 26.263 493.441 26.3658L506.331 39.5648C506.38 39.6149 506.438 39.6546 506.502 39.6818C506.566 39.709 506.635 39.723 506.704 39.723C506.774 39.723 506.843 39.709 506.907 39.6818C506.971 39.6546 507.029 39.6149 507.077 39.5648L510.106 36.4649C510.208 36.3614 510.264 36.2224 510.263 36.0777C510.263 35.9331 510.205 35.7945 510.103 35.6918V35.6918ZM506.696 38.4089L494.56 25.9799L496.843 23.6409L508.979 36.0738L506.696 38.4089Z" fill="white"/>
<path d="M516.622 34.2901H508.664V35.3751H514.498V38.0911C514.496 38.2338 514.552 38.3714 514.651 38.4736C514.751 38.5758 514.887 38.6342 515.03 38.6361H516.621C517.189 38.6239 517.73 38.3895 518.128 37.9832C518.526 37.577 518.748 37.0311 518.748 36.4626C518.748 35.8941 518.526 35.3482 518.128 34.9419C517.73 34.5356 517.189 34.3013 516.621 34.2891L516.622 34.2901ZM516.622 37.5511H515.562V35.3751H516.621C516.91 35.3751 517.186 35.4897 517.39 35.6937C517.594 35.8978 517.709 36.1745 517.709 36.4631C517.709 36.7516 517.594 37.0284 517.39 37.2324C517.186 37.4364 516.91 37.5511 516.621 37.5511H516.622Z" fill="white"/>
<path d="M516.62 17.9844H513.969V19.0694H516.62C516.904 19.0731 517.175 19.1894 517.374 19.3928C517.572 19.5962 517.682 19.8701 517.679 20.1544V36.4614H518.743V20.1544C518.749 19.5852 518.528 19.037 518.13 18.6301C517.732 18.2232 517.189 17.991 516.62 17.9844V17.9844Z" fill="white"/>
<path d="M502.984 29.0117L501.391 30.6447L502.14 31.4127L503.733 29.7797L502.984 29.0117Z" fill="white"/>
<path d="M505.109 31.1855L503.516 32.8185L504.265 33.5865L505.858 31.9535L505.109 31.1855Z" fill="white"/>
<path d="M507.234 33.3613L505.641 34.9943L506.39 35.7623L507.983 34.1293L507.234 33.3613Z" fill="white"/>
<path d="M516.165 14.854L515.434 14.105C515.138 13.8137 514.74 13.6504 514.325 13.6504C513.909 13.6504 513.511 13.8137 513.216 14.105L505.149 22.371C505.048 22.4739 504.992 22.6119 504.992 22.7555C504.992 22.8991 505.048 23.0371 505.149 23.14L507.349 25.392C507.397 25.442 507.455 25.4818 507.519 25.509C507.583 25.5361 507.652 25.5501 507.722 25.5501C507.791 25.5501 507.86 25.5361 507.924 25.509C507.988 25.4818 508.046 25.442 508.095 25.392L516.167 17.126C516.46 16.8207 516.624 16.4133 516.624 15.9896C516.623 15.5659 516.459 15.1588 516.165 14.854ZM515.414 16.354L507.725 24.237L506.273 22.749L513.967 14.871C514.062 14.7779 514.191 14.7258 514.325 14.7258C514.458 14.7258 514.587 14.7779 514.683 14.871L515.414 15.62C515.51 15.7184 515.565 15.8509 515.565 15.989C515.565 16.1271 515.51 16.2596 515.414 16.358V16.354Z" fill="white"/>
<path d="M507.548 24.4911L505.26 25.2761L506.026 22.9271L505.016 22.5801L503.916 25.9641C503.897 26.0198 503.889 26.0784 503.891 26.1371C503.889 26.2799 503.944 26.4174 504.044 26.5196C504.144 26.6218 504.28 26.6802 504.423 26.6821C504.478 26.6816 504.534 26.6732 504.587 26.6571L507.887 25.5311L507.548 24.4911Z" fill="white"/>
<path d="M512.495 15.6055L511.746 16.3735L513.946 18.6295L514.695 17.8615L512.495 15.6055Z" fill="white"/>
<path d="M512.379 25.5918H504.422V26.6788H512.38L512.379 25.5918Z" fill="white"/>
<path d="M514.496 25.5918H513.438V26.6788H514.496V25.5918Z" fill="white"/>
<path d="M516.621 25.5918H515.562V26.6788H516.621V25.5918Z" fill="white"/>
</g>
<path d="M467.823 92.5059H469.943V78.6059H467.823V92.5059ZM480.783 77.8859V83.4259C479.943 82.3659 478.683 81.7459 477.163 81.7459C474.163 81.7459 472.023 84.1059 472.023 87.2259C472.023 90.3859 474.203 92.7459 477.223 92.7459C478.823 92.7459 480.123 92.0459 480.943 90.8659V92.5059H482.903V77.8859H480.783ZM477.483 90.8659C475.543 90.8659 474.123 89.3259 474.123 87.2259C474.123 85.1659 475.563 83.6059 477.483 83.6059C479.503 83.6059 480.863 85.1059 480.863 87.2259C480.863 89.3659 479.483 90.8659 477.483 90.8659ZM486.913 87.9459H495.413C495.433 87.7459 495.453 87.3659 495.453 87.0059C495.453 84.2859 493.433 81.7259 490.173 81.7259C487.193 81.7259 484.813 84.1859 484.813 87.2459C484.813 90.3859 487.013 92.7459 490.333 92.7459C492.853 92.7459 494.273 91.6859 495.073 90.2859L493.333 89.1859C492.853 90.2859 491.973 90.8659 490.393 90.8659C488.613 90.8659 487.233 89.7459 486.913 87.9459ZM486.933 86.3259C487.253 84.5059 488.613 83.4459 490.253 83.4459C491.873 83.4459 493.093 84.5459 493.373 86.3259H486.933ZM505.708 81.9659V83.7459C504.908 82.5459 503.628 81.8659 501.988 81.8659C498.988 81.8659 496.788 84.1059 496.788 87.2259C496.788 90.3859 498.968 92.7459 501.988 92.7459C503.628 92.7459 504.908 92.0059 505.708 90.7859V92.5059H507.668V81.9659H505.708ZM502.248 90.8659C500.308 90.8659 498.888 89.3259 498.888 87.2259C498.888 85.1659 500.328 83.6059 502.248 83.6059C504.268 83.6059 505.628 85.1059 505.628 87.2259C505.628 89.3659 504.248 90.8659 502.248 90.8659ZM514.719 92.5059H516.319V90.6459H515.139C513.879 90.6459 513.179 89.9259 513.179 88.6059V83.7859H516.199V81.9659H513.259V79.2459H511.199V80.9459C511.199 81.6259 510.899 81.9659 510.219 81.9659H509.199V83.7859H511.079V88.8259C511.079 91.0859 512.339 92.5059 514.719 92.5059ZM519.023 87.9459H527.523C527.543 87.7459 527.563 87.3659 527.563 87.0059C527.563 84.2859 525.543 81.7259 522.283 81.7259C519.303 81.7259 516.923 84.1859 516.923 87.2459C516.923 90.3859 519.123 92.7459 522.443 92.7459C524.963 92.7459 526.383 91.6859 527.183 90.2859L525.443 89.1859C524.963 90.2859 524.083 90.8659 522.503 90.8659C520.723 90.8659 519.343 89.7459 519.023 87.9459ZM519.043 86.3259C519.363 84.5059 520.723 83.4459 522.363 83.4459C523.983 83.4459 525.203 84.5459 525.483 86.3259H519.043ZM545.634 92.5059L543.414 90.1659C544.334 89.1459 544.974 87.6859 545.074 85.8059L543.074 85.0059C543.034 86.5459 542.614 87.8259 542.014 88.7059L539.234 85.7659C537.494 83.9059 536.894 83.3659 536.894 82.2459C536.894 81.3059 537.694 80.4659 538.914 80.4659C540.274 80.4659 540.974 81.2859 541.134 82.2659H543.334C543.094 79.9659 541.434 78.4459 538.934 78.4459C536.394 78.4459 534.754 80.0059 534.754 82.0859C534.754 83.0659 534.994 83.8659 535.714 84.8259C534.214 85.6659 533.294 86.8459 533.294 88.6659C533.294 91.0259 535.454 92.7059 538.154 92.7059C539.794 92.7059 541.054 92.2659 542.114 91.3259L543.294 92.5059H545.634ZM538.174 90.8259C536.734 90.8259 535.454 89.8459 535.454 88.4459C535.454 87.3459 535.994 86.6859 536.854 86.1259C536.954 86.2259 537.054 86.3459 537.174 86.4459L540.714 89.9459C539.934 90.5859 539.134 90.8259 538.174 90.8259ZM466.083 108.606H460.743V122.506H462.863V116.906H466.083C468.903 116.906 470.703 115.286 470.703 112.766C470.703 110.226 468.923 108.606 466.083 108.606ZM465.963 115.046H462.863V110.466H465.963C467.643 110.466 468.543 111.406 468.543 112.766C468.543 114.106 467.643 115.046 465.963 115.046ZM474.437 113.306V111.966H472.437V122.506H474.557V116.326C474.557 114.846 475.797 113.726 477.677 113.706V111.726C476.297 111.726 475.137 112.406 474.437 113.306ZM483.783 122.746C487.043 122.746 489.343 120.386 489.343 117.246C489.343 114.086 487.043 111.746 483.783 111.746C480.543 111.746 478.243 114.086 478.243 117.246C478.243 120.386 480.543 122.746 483.783 122.746ZM483.803 120.846C481.763 120.846 480.363 119.326 480.363 117.246C480.363 115.126 481.763 113.626 483.803 113.626C485.843 113.626 487.223 115.126 487.223 117.246C487.223 119.346 485.823 120.846 483.803 120.846ZM495.569 122.506H497.169V120.646H495.989C494.729 120.646 494.029 119.926 494.029 118.606V113.786H497.049V111.966H494.109V109.246H492.049V110.946C492.049 111.626 491.749 111.966 491.069 111.966H490.049V113.786H491.929V118.826C491.929 121.086 493.189 122.506 495.569 122.506ZM503.392 122.746C506.652 122.746 508.952 120.386 508.952 117.246C508.952 114.086 506.652 111.746 503.392 111.746C500.152 111.746 497.852 114.086 497.852 117.246C497.852 120.386 500.152 122.746 503.392 122.746ZM503.412 120.846C501.372 120.846 499.972 119.326 499.972 117.246C499.972 115.126 501.372 113.626 503.412 113.626C505.452 113.626 506.832 115.126 506.832 117.246C506.832 119.346 505.432 120.846 503.412 120.846ZM515.178 122.506H516.778V120.646H515.598C514.338 120.646 513.638 119.926 513.638 118.606V113.786H516.658V111.966H513.718V109.246H511.658V110.946C511.658 111.626 511.358 111.966 510.678 111.966H509.658V113.786H511.538V118.826C511.538 121.086 512.798 122.506 515.178 122.506ZM525.696 111.966L522.416 120.766L519.356 111.966H517.176L521.096 122.506H521.696L520.256 126.086H522.336L523.736 122.506L527.896 111.966H525.696ZM535.032 111.746C533.412 111.746 532.112 112.446 531.272 113.626V111.966H529.312V126.086H531.432V121.106C532.252 122.146 533.472 122.746 534.992 122.746C537.992 122.746 540.192 120.386 540.192 117.246C540.192 114.106 538.052 111.746 535.032 111.746ZM534.732 120.866C532.712 120.866 531.332 119.386 531.332 117.246C531.332 115.106 532.732 113.606 534.732 113.606C536.672 113.606 538.092 115.146 538.092 117.246C538.092 119.326 536.652 120.866 534.732 120.866ZM543.622 117.946H552.122C552.142 117.746 552.162 117.366 552.162 117.006C552.162 114.286 550.142 111.726 546.882 111.726C543.902 111.726 541.522 114.186 541.522 117.246C541.522 120.386 543.722 122.746 547.042 122.746C549.562 122.746 550.982 121.686 551.782 120.286L550.042 119.186C549.562 120.286 548.682 120.866 547.102 120.866C545.322 120.866 543.942 119.746 543.622 117.946ZM543.642 116.326C543.962 114.506 545.322 113.446 546.962 113.446C548.582 113.446 549.802 114.546 550.082 116.326H543.642Z" fill="#393939"/>
<g clip-path="url(#clip3_219_5594)">
<path d="M743 63.004C757.69 63.004 769.598 50.8029 769.598 35.752C769.598 20.7011 757.69 8.5 743 8.5C728.311 8.5 716.402 20.7011 716.402 35.752C716.402 50.8029 728.311 63.004 743 63.004Z" fill="#1CB954"/>
<path d="M735.617 26.9055H736.439V30.2755H737.261V26.9055H738.083V26.0625H735.617V26.9055Z" fill="white"/>
<path d="M745.484 26.9055H746.306V30.2755H747.128V26.9055H747.948V26.0625H745.484V26.9055Z" fill="white"/>
<path d="M738.906 26.4845V29.8545C738.905 29.9647 738.948 30.0708 739.025 30.1496C739.102 30.2284 739.207 30.2737 739.317 30.2755H741.373V29.4325H739.729V28.5905H741.373V27.7465H739.729V26.9035H741.373V26.0605H739.318C739.263 26.0613 739.209 26.0729 739.159 26.0946C739.108 26.1164 739.063 26.1478 739.024 26.1872C738.986 26.2266 738.956 26.2731 738.936 26.3241C738.916 26.3751 738.906 26.4297 738.906 26.4845Z" fill="white"/>
<path d="M742.199 27.3275C742.197 27.4915 742.227 27.6545 742.288 27.8069C742.349 27.9593 742.439 28.0982 742.553 28.2156C742.668 28.3331 742.804 28.4267 742.955 28.4912C743.106 28.5557 743.268 28.5898 743.432 28.5915C743.544 28.5915 743.651 28.6359 743.73 28.7148C743.809 28.7938 743.853 28.9008 743.853 29.0125C743.853 29.1242 743.809 29.2312 743.73 29.3102C743.651 29.3891 743.544 29.4335 743.432 29.4335H742.199V30.2765H743.429C743.765 30.2765 744.086 30.1433 744.323 29.9063C744.56 29.6692 744.693 29.3477 744.693 29.0125C744.693 28.6773 744.56 28.3558 744.323 28.1187C744.086 27.8817 743.765 27.7485 743.429 27.7485C743.318 27.7485 743.21 27.7041 743.131 27.625C743.052 27.546 743.008 27.4388 743.008 27.327C743.008 27.2152 743.052 27.108 743.131 27.029C743.21 26.9499 743.318 26.9055 743.429 26.9055H744.662V26.0625H743.429C743.265 26.0646 743.104 26.099 742.953 26.1637C742.802 26.2285 742.666 26.3223 742.552 26.4398C742.438 26.5573 742.348 26.6962 742.287 26.8485C742.227 27.0009 742.197 27.1636 742.199 27.3275V27.3275Z" fill="white"/>
<path d="M734.384 31.9618H749.184C749.294 31.9602 749.399 31.915 749.476 31.8361C749.553 31.7572 749.596 31.651 749.595 31.5408V24.8058C749.595 24.6956 749.553 24.5895 749.476 24.5107C749.399 24.4319 749.294 24.3866 749.184 24.3848H734.384C734.274 24.3866 734.169 24.4319 734.092 24.5107C734.015 24.5895 733.972 24.6956 733.973 24.8058V31.5458C733.973 31.6552 734.016 31.7601 734.093 31.8379C734.17 31.9157 734.274 31.9602 734.384 31.9618V31.9618ZM734.795 25.2218H748.774V31.1218H734.795V25.2218Z" fill="white"/>
<path d="M733.973 37.0159H736.44C736.494 37.0155 736.549 37.0043 736.599 36.9829C736.65 36.9616 736.696 36.9305 736.734 36.8914C736.773 36.8523 736.803 36.806 736.824 36.7551C736.844 36.7042 736.855 36.6498 736.855 36.5949V34.2409L737.97 33.1039L737.384 32.5039L736.274 33.6469H733.974C733.863 33.6485 733.758 33.6937 733.681 33.7726C733.604 33.8515 733.561 33.9577 733.563 34.0679V36.5949C733.561 36.705 733.604 36.811 733.681 36.8899C733.758 36.9688 733.862 37.0141 733.973 37.0159ZM736.029 36.1739H734.965L736.029 35.0839V36.1739ZM735.448 34.4889L734.384 35.5789V34.4889H735.448Z" fill="white"/>
<path d="M736.441 42.0703H733.974C733.863 42.0722 733.758 42.1174 733.681 42.1963C733.604 42.2751 733.562 42.3811 733.563 42.4913V45.0193C733.561 45.1296 733.604 45.2358 733.681 45.3147C733.758 45.3936 733.863 45.4387 733.974 45.4403H736.441C736.495 45.4399 736.55 45.4287 736.6 45.4074C736.651 45.386 736.697 45.3549 736.735 45.3158C736.774 45.2767 736.804 45.2304 736.825 45.1795C736.845 45.1286 736.856 45.0742 736.856 45.0193V42.4913C736.856 42.4364 736.845 42.382 736.825 42.3311C736.804 42.2803 736.774 42.234 736.735 42.1949C736.697 42.1558 736.651 42.1246 736.6 42.1033C736.55 42.0819 736.495 42.0707 736.441 42.0703V42.0703ZM736.03 44.5983H734.385V42.9133H736.03V44.5983Z" fill="white"/>
<path d="M736.97 37.1387L736.27 37.8597H733.97C733.859 37.8613 733.754 37.9064 733.677 37.9853C733.6 38.0642 733.558 38.1704 733.559 38.2807V40.8077C733.558 40.9178 733.601 41.0239 733.678 41.1027C733.754 41.1816 733.859 41.2268 733.97 41.2287H736.437C736.492 41.2289 736.546 41.2182 736.598 41.1972C736.649 41.1762 736.695 41.1453 736.734 41.1062C736.773 41.0671 736.804 41.0207 736.825 40.9696C736.845 40.9186 736.856 40.8639 736.856 40.8087V38.4547L737.556 37.7387L736.97 37.1387ZM735.449 38.7027L734.385 39.7927V38.7027H735.449ZM736.03 40.3877H734.966L736.03 39.2977V40.3877Z" fill="white"/>
<path d="M737.676 34.0664H749.599V34.9094H737.676V34.0664Z" fill="white"/>
<path d="M737.676 42.4922H743.021V43.3352H737.676V42.4922Z" fill="white"/>
<path d="M737.676 44.1777H749.599V45.0197H737.676V44.1777Z" fill="white"/>
<path d="M757.29 31.6624L755.646 29.9774C755.609 29.9379 755.564 29.9064 755.514 29.8849C755.464 29.8634 755.41 29.8523 755.355 29.8523C755.301 29.8523 755.247 29.8634 755.197 29.8849C755.147 29.9064 755.102 29.9379 755.065 29.9774L751.653 33.4774V23.1144C751.654 23.0041 751.611 22.8979 751.534 22.819C751.457 22.7401 751.352 22.6949 751.242 22.6934H732.329C732.219 22.6949 732.114 22.7401 732.037 22.819C731.96 22.8979 731.917 23.0041 731.918 23.1144V48.3894C731.917 48.4996 731.96 48.6058 732.037 48.6847C732.114 48.7636 732.219 48.8088 732.329 48.8104H751.241C751.351 48.8088 751.456 48.7636 751.533 48.6847C751.61 48.6058 751.653 48.4996 751.652 48.3894V38.0314L757.29 32.2624C757.367 32.1812 757.409 32.0739 757.409 31.9624C757.409 31.8508 757.367 31.7435 757.29 31.6624ZM745.624 41.1224L746.41 41.9284L745.033 42.5344L745.624 41.1224ZM746.066 40.3854L753.708 32.5554L754.772 33.6454L747.13 41.4754L746.066 40.3854ZM750.83 47.9674H732.741V23.5354H750.83V34.3144L749.43 35.7514H737.674V36.5944H748.605L746.961 38.2794H737.674V39.1214H746.138L745.316 39.9634H737.674V40.8064H744.858L743.871 43.1704C743.828 43.2726 743.827 43.3873 743.868 43.4904C743.908 43.5935 743.986 43.677 744.087 43.7234C744.189 43.7655 744.304 43.7655 744.406 43.7234L747.282 42.4624C747.331 42.4392 747.376 42.4089 747.416 42.3724L750.823 38.8724V47.9664L750.83 47.9674ZM755.352 33.0504L754.289 31.9624L755.353 30.8724L756.417 31.9624L755.352 33.0504Z" fill="white"/>
</g>
<path d="M696.524 87.1059V95.7659C696.524 97.7259 695.444 99.2459 693.304 99.2459C691.144 99.2459 690.064 97.7459 690.064 95.7659V87.1059H687.924V95.7659C687.924 98.7659 689.704 101.246 693.304 101.246C696.884 101.246 698.644 98.7459 698.644 95.7659V87.1059H696.524ZM704.667 101.246C707.227 101.246 708.907 100.046 708.907 97.9859C708.907 94.1259 702.967 95.3059 702.967 93.1459C702.967 92.4059 703.567 91.9259 704.647 91.9259C705.627 91.9259 706.307 92.3459 706.627 93.2059L708.547 92.4659C708.087 91.0459 706.667 90.2459 704.687 90.2459C702.287 90.2459 700.727 91.3859 700.727 93.2659C700.727 96.8859 706.667 95.8459 706.667 98.1459C706.667 99.0059 705.907 99.5059 704.727 99.5059C703.367 99.5059 702.467 98.9059 702.147 97.8659L700.227 98.6059C700.787 100.326 702.427 101.246 704.667 101.246ZM712.195 96.4459H720.695C720.715 96.2459 720.735 95.8659 720.735 95.5059C720.735 92.7859 718.715 90.2259 715.455 90.2259C712.475 90.2259 710.095 92.6859 710.095 95.7459C710.095 98.8859 712.295 101.246 715.615 101.246C718.135 101.246 719.555 100.186 720.355 98.7859L718.615 97.6859C718.135 98.7859 717.255 99.3659 715.675 99.3659C713.895 99.3659 712.515 98.2459 712.195 96.4459ZM712.215 94.8259C712.535 93.0059 713.895 91.9459 715.535 91.9459C717.155 91.9459 718.375 93.0459 718.655 94.8259H712.215ZM724.65 91.8059V90.4659H722.65V101.006H724.77V94.8259C724.77 93.3459 726.01 92.2259 727.89 92.2059V90.2259C726.51 90.2259 725.35 90.9059 724.65 91.8059ZM742.485 87.1059H731.785V89.0059H736.085V101.006H738.205V89.0059H742.485V87.1059ZM743.464 96.4459H751.964C751.984 96.2459 752.004 95.8659 752.004 95.5059C752.004 92.7859 749.984 90.2259 746.724 90.2259C743.744 90.2259 741.364 92.6859 741.364 95.7459C741.364 98.8859 743.564 101.246 746.884 101.246C749.404 101.246 750.824 100.186 751.624 98.7859L749.884 97.6859C749.404 98.7859 748.524 99.3659 746.944 99.3659C745.164 99.3659 743.784 98.2459 743.464 96.4459ZM743.484 94.8259C743.804 93.0059 745.164 91.9459 746.804 91.9459C748.424 91.9459 749.644 93.0459 749.924 94.8259H743.484ZM757.421 101.246C759.981 101.246 761.661 100.046 761.661 97.9859C761.661 94.1259 755.721 95.3059 755.721 93.1459C755.721 92.4059 756.321 91.9259 757.401 91.9259C758.381 91.9259 759.061 92.3459 759.381 93.2059L761.301 92.4659C760.841 91.0459 759.421 90.2459 757.441 90.2459C755.041 90.2459 753.481 91.3859 753.481 93.2659C753.481 96.8859 759.421 95.8459 759.421 98.1459C759.421 99.0059 758.661 99.5059 757.481 99.5059C756.121 99.5059 755.221 98.9059 754.901 97.8659L752.981 98.6059C753.541 100.326 755.181 101.246 757.421 101.246ZM767.813 101.006H769.413V99.1459H768.233C766.973 99.1459 766.273 98.4259 766.273 97.1059V92.2859H769.293V90.4659H766.353V87.7459H764.293V89.4459C764.293 90.1259 763.993 90.4659 763.313 90.4659H762.293V92.2859H764.173V97.3259C764.173 99.5859 765.433 101.006 767.813 101.006ZM772.01 88.6459C772.87 88.6459 773.55 88.0459 773.55 87.1659C773.55 86.2859 772.87 85.6459 772.01 85.6459C771.15 85.6459 770.47 86.2859 770.47 87.1659C770.47 88.0459 771.15 88.6459 772.01 88.6459ZM770.95 101.006H773.07V90.4659H770.95V101.006ZM781.137 90.2259C779.577 90.2259 778.377 90.8859 777.657 91.8059V90.4659H775.657V101.006H777.777V94.5859C777.797 93.2859 778.957 92.1259 780.537 92.1259C782.217 92.1059 783.257 93.1459 783.257 94.8859V101.006H785.377V94.5059C785.377 91.9259 783.777 90.2259 781.137 90.2259ZM796.204 90.4659V92.1459C795.404 90.9659 794.124 90.2459 792.484 90.2459C789.484 90.2459 787.284 92.6059 787.284 95.5459C787.284 98.5059 789.464 100.826 792.484 100.826C794.124 100.826 795.404 100.086 796.204 98.9059V99.7459C796.204 101.766 794.844 103.046 792.644 103.046C791.004 103.046 789.804 102.346 789.304 100.946L787.504 101.646C788.184 103.586 789.844 104.826 792.624 104.826C796.104 104.826 798.164 102.726 798.164 99.5659V90.4659H796.204ZM792.724 99.1859C790.804 99.1859 789.384 97.6659 789.384 95.6459C789.384 93.6459 790.824 92.1059 792.744 92.1059C794.704 92.1059 796.084 93.6059 796.084 95.6459C796.084 97.7059 794.684 99.1859 792.724 99.1859Z" fill="#393939"/>
<defs>
<clipPath id="clip0_219_5594">
<rect width="53.196" height="54.505" fill="white" transform="translate(32.9023 8.5)"/>
</clipPath>
<clipPath id="clip1_219_5594">
<rect width="53.196" height="54.505" fill="white" transform="translate(256.402 8.5)"/>
</clipPath>
<clipPath id="clip2_219_5594">
<rect width="53.196" height="54.505" fill="white" transform="translate(479.402)"/>
</clipPath>
<clipPath id="clip3_219_5594">
<rect width="53.196" height="54.505" fill="white" transform="translate(716.402 8.5)"/>
</clipPath>
</defs>
</svg>
