<svg width="100" height="68" viewBox="0 0 100 68" fill="none" xmlns="http://www.w3.org/2000/svg">
<g clip-path="url(#clip0_123_7052)">
<path d="M53.6016 38.248C54.2912 38.3282 55.033 38.4052 55.0303 38.3586C55.0419 38.5581 55.053 38.765 55.0667 38.9772C55.053 38.7676 55.0419 38.5581 55.0303 38.3586C55.0293 38.3586 54.4039 38.313 53.6016 38.248Z" fill="#DDEEF5"/>
<path d="M67.1333 51.5837C67.0824 51.5397 67.0287 51.499 66.9727 51.4617C67.0285 51.4992 67.0822 51.54 67.1333 51.5837V51.5837Z" fill="#DDEEF5"/>
<path d="M62.8429 13.7326V24.4529H55.9234C55.913 24.7755 55.8791 25.0969 55.8217 25.4145C55.208 28.7264 53.2265 31.9519 51.2103 34.6017C50.8415 35.0872 50.4459 35.5869 50.3284 36.184C50.0908 37.3981 51.0913 37.8203 52.0438 38.0262C53.3988 37.6962 54.8734 36.8906 56.2506 36.9545C56.3767 36.9616 56.4975 37.0071 56.5967 37.0849C56.6443 37.1204 56.6836 37.1657 56.712 37.2177C56.7403 37.2696 56.7571 37.3271 56.7611 37.3861C56.7663 37.5197 56.6989 37.6443 56.6267 37.7569C56.2458 38.3509 55.6895 38.6856 55.0636 38.9774C55.1969 41.2464 55.3966 44.1371 55.6811 46.2616C55.8707 47.6758 55.8918 50.3471 57.4581 51.0458C57.8174 51.2066 58.2209 51.2349 58.6171 51.2553C60.3235 51.3435 62.0336 51.3348 63.739 51.2291C64.3149 51.1946 65.0261 51.072 65.6947 51.0966C65.6815 51.0966 65.6699 51.0966 65.6562 51.0935C66.5518 51.139 68.5248 50.9363 69.2882 50.8316C70.4304 50.6797 71.5663 50.492 72.6958 50.2685C74.9196 49.8302 77.114 49.2555 79.2665 48.5479C81.7357 47.7355 84.1432 46.7482 86.4705 45.5938C81.1494 51.689 75.7857 57.8293 69.3572 62.7576C68.5459 63.3798 67.7066 63.9879 66.7757 64.4002C66.6187 64.8789 66.4501 65.358 66.27 65.8374C66.1614 66.1276 67.762 66.5707 67.9232 66.6231C72.1595 68.03 76.6971 68.1326 81.1168 67.9116C83.1525 67.7995 85.155 67.2307 87.0526 66.5147C88.6036 65.9296 89.7959 65.5546 91.0566 64.4049C91.2146 64.2603 91.3785 64.1063 91.4391 63.9031C91.4997 63.6999 91.4475 63.4883 91.3964 63.2861C90.6652 60.4241 89.7753 57.592 89.3154 54.6735C88.6063 50.169 89.4592 46.4444 91.7315 42.5218C94.1623 38.3226 96.0515 35.6513 97.8138 31.119C99.6414 26.4281 100.711 20.7791 99.4607 15.8676C98.9897 14.0233 98.3954 12.1979 97.4903 10.525C95.2249 6.33944 91.1103 3.33608 86.6038 1.75321C79.9956 -0.569243 71.6131 -0.796041 65.2358 2.35189C62.9419 3.48378 60.9763 5.14627 59.4458 7.14188L65.4391 12.0906L62.8429 13.7326ZM69.1465 27.8899C70.6359 27.6673 72.4034 26.8073 73.0008 25.3391C73.1536 24.9625 73.7742 25.1296 73.6193 25.5083C73.3106 26.2667 72.7727 26.8701 72.1152 27.3515C70.9277 28.2231 69.323 28.729 67.8478 28.5426C66.3727 28.3561 64.7 27.3661 64.6631 25.7367C64.6542 25.3255 65.2953 25.3271 65.3048 25.7367C65.3448 27.5076 67.7214 28.1021 69.1465 27.8899Z" fill="#DDEEF5"/>
<path d="M86.4721 45.5938C84.1444 46.7492 81.7364 47.7373 79.2666 48.5505C77.1141 49.2581 74.9197 49.8328 72.6958 50.2711C71.5663 50.4946 70.4305 50.6823 69.2883 50.8342C68.5249 50.9342 66.5487 51.139 65.6562 51.0961C65.6699 51.0961 65.6815 51.0961 65.6947 51.0992C66.3269 51.138 66.7178 51.2904 66.9744 51.4659C67.0305 51.5032 67.0841 51.5439 67.1351 51.5879C68.124 52.4642 68.3131 54.6693 68.3468 55.8829C68.3932 57.4454 68.1298 59.002 67.811 60.5331C67.5414 61.8427 67.1951 63.1355 66.7737 64.4049C67.7062 63.9926 68.5454 63.3845 69.3552 62.7623C75.7873 57.8298 81.1547 51.6895 86.4721 45.5938Z" fill="#9CD8F7"/>
<path d="M56.6259 37.7567C56.698 37.6441 56.7655 37.5194 56.7602 37.3859C56.7562 37.3269 56.7394 37.2694 56.7111 37.2174C56.6827 37.1655 56.6434 37.1202 56.5958 37.0847C56.4967 37.0069 56.3758 36.9614 56.2497 36.9543C54.8725 36.8904 53.3979 37.6959 52.0429 38.0259C51.9607 38.0458 51.878 38.0647 51.7969 38.0783C52.3832 38.1406 53.0339 38.1988 53.5976 38.2454C54.401 38.3119 55.0264 38.3559 55.0264 38.3559C55.038 38.5555 55.049 38.7624 55.0627 38.9745C55.6886 38.6854 56.245 38.3507 56.6259 37.7567Z" fill="#9CD8F7"/>
<path d="M33.0279 51.46C32.9719 51.4974 32.9182 51.5382 32.8672 51.582C32.9183 51.5383 32.972 51.4975 33.0279 51.46V51.46Z" fill="#F9D697"/>
<path d="M44.9336 38.9772C44.9473 38.7676 44.9584 38.5581 44.9699 38.3586C44.9673 38.4026 45.7075 38.3282 46.3987 38.248C45.5953 38.3146 44.9699 38.3586 44.9699 38.3586C44.9584 38.5581 44.9473 38.765 44.9336 38.9772Z" fill="#F9D697"/>
<path d="M8.27131 42.5224C10.5436 46.4434 11.3965 50.1654 10.6874 54.6741C10.2275 57.5926 9.33763 60.4247 8.60638 63.2866C8.55369 63.4888 8.5047 63.7057 8.5637 63.9037C8.62271 64.1016 8.78866 64.2609 8.94619 64.4054C10.2048 65.5578 11.397 65.9302 12.9501 66.5152C14.8468 67.2307 16.8487 67.8001 18.886 67.9122C23.3057 68.1332 27.8423 68.0305 32.0796 66.6237C32.2408 66.5713 33.8413 66.1297 33.7328 65.838C33.5526 65.3575 33.384 64.8784 33.2271 64.4007C32.2946 63.9885 31.4553 63.3804 30.6456 62.7581C24.2181 57.8299 18.8512 51.6896 13.5323 45.5943C15.86 46.7498 18.2681 47.7379 20.7379 48.5511C22.8903 49.2587 25.0847 49.8334 27.3086 50.2717C28.4381 50.4952 29.574 50.6829 30.7161 50.8348C31.4795 50.9348 33.4557 51.1396 34.3482 51.0967C34.3345 51.0967 34.3229 51.0967 34.3097 51.0998C34.9783 51.0736 35.6895 51.1978 36.2653 51.2323C37.9707 51.3379 39.6808 51.3467 41.3872 51.2585C41.7818 51.2376 42.1854 51.2093 42.5463 51.049C44.1126 50.3508 44.1336 47.6811 44.3233 46.2648C44.6078 44.1403 44.8075 41.2496 44.9407 38.9805C44.3149 38.6888 43.7585 38.352 43.3776 37.7601C43.3054 37.6475 43.238 37.5229 43.2433 37.3893C43.2473 37.3303 43.264 37.2728 43.2924 37.2209C43.3208 37.1689 43.3601 37.1236 43.4077 37.0881C43.5068 37.0103 43.6277 36.9648 43.7538 36.9577C45.1309 36.8938 46.6056 37.6994 47.9606 38.0293C48.9131 37.8235 49.9136 37.4008 49.676 36.1872C49.5585 35.5901 49.1633 35.0904 48.794 34.6049C47.1666 32.4663 45.564 29.9537 44.6847 27.3243V28.4609L31.704 20.2627L36.524 16.2819H34.3002V5.38726H39.0007C37.7609 4.15689 36.3302 3.13274 34.7633 2.35404C28.3859 -0.794417 20.0034 -0.56762 13.3953 1.75326C8.89139 3.33456 4.77416 6.33792 2.51245 10.5224C1.60735 12.1985 1.01307 14.0223 0.542081 15.865C-0.710737 20.7765 0.361902 26.4255 2.18897 31.1165C3.95335 35.6519 5.84048 38.3232 8.27131 42.5224ZM25.9414 25.3381C26.5383 26.8047 28.3064 27.6663 29.7958 27.8889C31.2209 28.1021 33.5969 27.5076 33.6359 25.7367C33.6454 25.3261 34.2865 25.3261 34.2776 25.7367C34.2575 26.6533 33.7328 27.3709 32.9731 27.8528C31.656 28.6908 30.0813 28.7432 28.623 28.2608C27.2369 27.8025 25.8866 26.8937 25.3224 25.5073C25.167 25.1265 25.7881 24.962 25.9414 25.3381Z" fill="#F9D697"/>
<path d="M30.7112 50.8347C29.569 50.6828 28.4331 50.4951 27.3036 50.2716C25.0798 49.8333 22.8854 49.2587 20.7329 48.551C18.2631 47.7376 15.8551 46.7493 13.5273 45.5938C18.8484 51.689 24.2121 57.8293 30.6406 62.7576C31.4519 63.3798 32.2912 63.9879 33.2221 64.4001C32.8007 63.1307 32.4543 61.8379 32.1848 60.5283C31.8687 58.9973 31.6052 57.438 31.649 55.8782C31.6848 54.6646 31.8739 52.4595 32.8607 51.5832C32.9117 51.5394 32.9654 51.4986 33.0214 51.4612C33.2779 51.2878 33.6673 51.1354 34.3011 51.0945C34.3142 51.0945 34.3258 51.0945 34.3395 51.0914C33.4486 51.1396 31.4746 50.9363 30.7112 50.8347Z" fill="#F9B233"/>
<path d="M43.7491 36.9543C43.623 36.9614 43.5021 37.0069 43.4029 37.0847C43.3554 37.1202 43.3161 37.1655 43.2877 37.2174C43.2593 37.2694 43.2426 37.3269 43.2386 37.3859C43.2333 37.5194 43.3007 37.6441 43.3729 37.7567C43.7538 38.3507 44.3102 38.6854 44.936 38.9771C44.9497 38.7676 44.9608 38.5581 44.9724 38.3585C44.9724 38.3585 45.5977 38.3145 46.4012 38.248C46.9649 38.2014 47.6129 38.1433 48.2024 38.0809C48.1208 38.0647 48.0381 38.0458 47.9559 38.0285C46.6008 37.6959 45.1262 36.8904 43.7491 36.9543Z" fill="#F9B233"/>
<path d="M40.9112 24.4527V16.2817H36.5237L31.7031 20.262L44.677 28.4602V27.3189V24.4527H40.9112Z" fill="#DDEEF5"/>
<path d="M62.8424 13.7324L52.4653 20.2896V16.2817H40.9102V24.4527H44.676H55.9229H62.8424V13.7324Z" fill="#DDEEF5"/>
<path d="M56.2301 16.2818H52.4648V20.2898L62.842 13.7326L65.4382 12.0916L59.4449 7.14288L52.4648 1.37866V5.38664H56.2301V16.2818Z" fill="#F9D697"/>
<path d="M34.3008 16.2817H36.5246H40.9121H52.4672H56.2325V5.38647H52.4672H39.0007H34.3008V16.2817Z" fill="#F9D697"/>
<path d="M64.6641 25.7365C64.7 27.366 66.3727 28.3554 67.8473 28.5414C69.3219 28.7273 70.9277 28.2219 72.1147 27.3503C72.7722 26.8679 73.3101 26.2656 73.6188 25.5071C73.7737 25.1269 73.1531 24.9613 73.0003 25.3379C72.4028 26.8045 70.6353 27.6661 69.1459 27.8888C67.7235 28.1019 65.3443 27.5074 65.3053 25.7365C65.2963 25.3269 64.6562 25.3233 64.6641 25.7365Z" fill="#202448"/>
<path d="M28.6221 28.2607C30.0804 28.7436 31.653 28.6886 32.9722 27.8527C33.7319 27.3708 34.2566 26.6532 34.2767 25.7366C34.2856 25.326 33.6444 25.326 33.635 25.7366C33.596 27.5075 31.2199 28.102 29.7949 27.8888C28.3055 27.6662 26.5374 26.8062 25.9405 25.338C25.7877 24.9619 25.1666 25.1285 25.3215 25.5072C25.8884 26.8947 27.236 27.8024 28.6221 28.2607Z" fill="#202448"/>
</g>
<defs>
<clipPath id="clip0_123_7052">
<rect width="100" height="68" fill="white"/>
</clipPath>
</defs>
</svg>
