<svg width="47" height="31" viewBox="0 0 47 31" fill="none" xmlns="http://www.w3.org/2000/svg">
<path fill-rule="evenodd" clip-rule="evenodd" d="M12.029 0.549166C9.27667 0.821595 6.8788 2.40224 4.99289 5.1872C2.67418 8.61144 1.18139 12.8709 0.616439 17.675C0.443446 19.1458 0.467735 23.0618 0.659259 24.5832C0.980415 27.1344 1.4294 28.462 2.28186 29.3806C3.31217 30.4907 5.10273 30.8216 6.51671 30.1631C7.75348 29.5871 10.024 27.6569 12.1029 25.4141C14.2941 23.0504 14.3647 22.9837 14.9635 22.7114L15.5214 22.4576H23.4828H31.4443L32.0312 22.7315C32.5094 22.9546 32.7681 23.1673 33.4256 23.8781C37.0375 27.7825 38.9222 29.4523 40.5488 30.1894C41.1154 30.4462 41.2847 30.4816 41.9415 30.4807C44.3937 30.4776 45.6509 28.9787 46.1843 25.4218C46.6465 22.3409 46.5999 18.8638 46.0533 15.638C45.1054 10.0436 42.3289 4.55617 39.2969 2.28453C37.6432 1.04558 36.0884 0.52233 34.0531 0.51985C31.7864 0.517016 29.5564 1.24193 27.2276 2.73861C26.8496 2.98164 26.2673 3.27328 25.9336 3.38674C25.3752 3.57662 25.1803 3.59301 23.4828 3.59301C21.7854 3.59301 21.5904 3.57662 21.0321 3.38674C20.6984 3.27328 20.1317 2.99173 19.7726 2.76111C17.7612 1.46919 15.6714 0.685646 13.9471 0.577152C13.5265 0.550671 13.0812 0.517813 12.9576 0.504262C12.8339 0.490623 12.416 0.510816 12.029 0.549166ZM33.694 5.89148C34.7911 6.52446 35.229 7.98758 34.6536 9.09811C34.254 9.86925 33.2689 10.4569 32.3759 10.4569C31.4947 10.4569 30.564 9.82984 30.1594 8.96358C29.9704 8.55901 29.9437 8.39507 29.9792 7.8565C30.0243 7.17224 30.1665 6.82656 30.6053 6.33458C31.3306 5.52118 32.7094 5.32342 33.694 5.89148ZM14.3969 7.432L14.8917 7.5846L14.9163 9.10936L14.9409 10.634H16.4216H17.9023L18.1483 11.099C18.4804 11.7264 18.4953 12.5761 18.1873 13.3132L17.9744 13.8224H16.3656H14.7567V15.333V16.8436L14.3294 17.0379C13.6944 17.3266 12.5213 17.316 11.9905 17.0166L11.6082 16.8011V15.3117V13.8224H10.0955H8.58282L8.4414 13.5304C8.06546 12.7541 8.05188 11.7849 8.40551 10.9518L8.54036 10.634H10.1192H11.6981V9.08411C11.6981 8.23166 11.7082 7.53359 11.7206 7.53288C11.733 7.53217 11.905 7.47407 12.1029 7.40393C12.5973 7.22856 13.7847 7.24309 14.3969 7.432ZM39.9362 9.5482C41.3309 10.3971 41.5287 12.2731 40.3426 13.4033C39.932 13.7946 39.2027 14.0881 38.641 14.0881C37.7649 14.0881 36.8045 13.4852 36.39 12.675C36.1596 12.2248 36.1136 11.3697 36.2915 10.8426C36.7844 9.38143 38.6018 8.73596 39.9362 9.5482ZM33.5254 12.565C34.3497 12.981 34.8195 13.6969 34.8884 14.6421C34.9278 15.1834 34.9043 15.2956 34.6419 15.8205C34.1538 16.7966 33.3078 17.2564 32.1658 17.1661C30.8584 17.0628 29.9482 16.048 29.9668 14.7144C29.9801 13.755 30.4463 13.0229 31.3213 12.5871C31.8406 12.3285 31.9528 12.3054 32.5238 12.3396C32.9242 12.3636 33.289 12.4457 33.5254 12.565Z" fill="#33005C"/>
</svg>
