<svg width="429" height="144" viewBox="0 0 429 144" fill="none" xmlns="http://www.w3.org/2000/svg">
<rect width="428.042" height="143.637" rx="12" fill="white"/>
<path d="M22.981 16.8525H11.1198C10.1371 16.853 9.19478 17.2441 8.49992 17.94C7.80506 18.6358 7.4145 19.5795 7.41406 20.5636V45.8054C7.4145 46.7895 7.80506 47.7331 8.49992 48.429C9.19478 49.1249 10.1371 49.516 11.1198 49.5164H22.981C23.9637 49.516 24.906 49.1249 25.6008 48.429C26.2957 47.7331 26.6863 46.7895 26.6867 45.8054V20.5636C26.6863 19.5795 26.2957 18.6358 25.6008 17.94C24.906 17.2441 23.9637 16.853 22.981 16.8525V16.8525ZM17.0512 48.0327C16.6113 48.0327 16.1813 47.902 15.8156 47.6573C15.4498 47.4126 15.1648 47.0647 14.9964 46.6577C14.8281 46.2508 14.784 45.8029 14.8699 45.3709C14.9557 44.9388 15.1675 44.542 15.4785 44.2305C15.7896 43.919 16.1859 43.7069 16.6173 43.6209C17.0487 43.535 17.4959 43.5791 17.9023 43.7477C18.3087 43.9163 18.6561 44.2017 18.9005 44.568C19.1448 44.9343 19.2753 45.3649 19.2753 45.8054C19.2757 46.098 19.2185 46.3878 19.1069 46.6583C18.9953 46.9287 18.8315 47.1744 18.6248 47.3813C18.4182 47.5882 18.1729 47.7522 17.9028 47.864C17.6328 47.9758 17.3434 48.0331 17.0512 48.0327V48.0327ZM23.7235 42.0944H10.379V21.3071H23.7218L23.7235 42.0944Z" fill="#EE1B2E"/>
<path d="M36.0362 10L34.457 11.5814C35.9232 13.0543 36.7465 15.0492 36.7465 17.1289C36.7465 19.2086 35.9232 21.2035 34.457 22.6764L36.0362 24.2578C36.9725 23.3225 37.7153 22.2113 38.2221 20.988C38.7289 19.7647 38.9898 18.4533 38.9898 17.1289C38.9898 15.8045 38.7289 14.4931 38.2221 13.2698C37.7153 12.0465 36.9725 10.9354 36.0362 10V10Z" fill="#006CC0"/>
<path d="M32.8878 21.0999C33.9362 20.0481 34.5251 18.6226 34.5251 17.1364C34.5251 15.6502 33.9362 14.2247 32.8878 13.1729L31.3086 14.7543C31.9378 15.3849 32.2912 16.24 32.2912 17.1314C32.2912 18.0229 31.9378 18.8779 31.3086 19.5086L32.8878 21.0999Z" fill="#006CC0"/>
<g clip-path="url(#clip0_132_5215)">
<path d="M74.1055 27.1665H70.6888V38.8332H74.1055V27.1665ZM84.3555 27.1665H80.9388V38.8332H84.3555V27.1665ZM98.8763 42.1665H66.418V45.4998H98.8763V42.1665ZM94.6055 27.1665H91.1888V38.8332H94.6055V27.1665ZM82.6471 15.9332L91.5475 20.4998H73.7467L82.6471 15.9332ZM82.6471 12.1665L66.418 20.4998V23.8332H98.8763V20.4998L82.6471 12.1665Z" fill="#006CC0"/>
<path d="M70.6888 27.1665L74.1055 38.8332L70.6888 27.1665ZM98.8763 42.1665H66.418V45.4998H98.8763V42.1665ZM82.6471 15.9332L91.5475 20.4998H73.7467L82.6471 15.9332ZM82.6471 12.1665L66.418 20.4998V23.8332H98.8763V20.4998L82.6471 12.1665Z" fill="#EE1B2E"/>
</g>
<g clip-path="url(#clip1_132_5215)">
<path d="M162.999 23.8331C162.489 23.8341 161.986 23.9519 161.529 24.1775C161.072 24.4032 160.673 24.7306 160.363 25.1346C160.052 25.5386 159.838 26.0084 159.737 26.508C159.637 27.0076 159.652 27.5236 159.782 28.0164L153.865 33.9498C153.297 33.7998 152.7 33.7998 152.132 33.9498L147.882 29.6998C148.016 29.2054 148.035 28.6867 147.936 28.184C147.838 27.6813 147.625 27.2081 147.313 26.8011C147.002 26.3941 146.601 26.0643 146.142 25.8373C145.683 25.6103 145.178 25.4923 144.665 25.4923C144.153 25.4923 143.648 25.6103 143.188 25.8373C142.729 26.0643 142.328 26.3941 142.017 26.8011C141.706 27.2081 141.493 27.6813 141.394 28.184C141.296 28.6867 141.314 29.2054 141.449 29.6998L133.849 37.2831C133.14 37.095 132.389 37.1458 131.712 37.4275C131.036 37.7093 130.471 38.2063 130.105 38.8416C129.739 39.4769 129.593 40.2151 129.689 40.9419C129.785 41.6687 130.118 42.3435 130.636 42.8619C131.155 43.3803 131.83 43.7133 132.556 43.8094C133.283 43.9056 134.021 43.7594 134.657 43.3936C135.292 43.0278 135.789 42.4627 136.071 41.7859C136.353 41.1091 136.403 40.3583 136.215 39.6498L143.799 32.0498C144.367 32.1997 144.964 32.1997 145.532 32.0498L149.782 36.2998C149.648 36.7941 149.629 37.3128 149.728 37.8155C149.826 38.3182 150.039 38.7914 150.35 39.1984C150.662 39.6054 151.062 39.9352 151.522 40.1622C151.981 40.3892 152.486 40.5073 152.999 40.5073C153.511 40.5073 154.016 40.3892 154.476 40.1622C154.935 39.9352 155.336 39.6054 155.647 39.1984C155.958 38.7914 156.171 38.3182 156.27 37.8155C156.368 37.3128 156.35 36.7941 156.215 36.2998L162.149 30.3831C162.608 30.5079 163.089 30.5328 163.558 30.4563C164.028 30.3798 164.476 30.2035 164.872 29.9394C165.268 29.6753 165.603 29.3294 165.854 28.9251C166.105 28.5208 166.267 28.0673 166.328 27.5953C166.389 27.1233 166.349 26.6436 166.209 26.1886C166.07 25.7336 165.834 25.3137 165.519 24.9573C165.203 24.6008 164.815 24.3161 164.38 24.1222C163.946 23.9283 163.475 23.8297 162.999 23.8331Z" fill="#006CC0"/>
<path d="M153 25.5L154.567 22.05L158 20.5L154.567 18.95L153 15.5L151.467 18.95L148 20.5L151.467 22.05L153 25.5Z" fill="#006CC0"/>
<path d="M133.831 28.8333L134.664 25.5L137.997 24.6667L134.664 23.8333L133.831 20.5L132.997 23.8333L129.664 24.6667L132.997 25.5L133.831 28.8333Z" fill="#006CC0"/>
<path d="M162.999 23.8331C162.489 23.8341 161.986 23.9519 161.529 24.1775C161.072 24.4032 160.673 24.7306 160.363 25.1346C160.052 25.5386 159.838 26.0084 159.737 26.508C159.637 27.0076 159.652 27.5236 159.782 28.0164L153.865 33.9498C153.297 33.7998 152.7 33.7998 152.132 33.9498L147.882 29.6998C148.016 29.2054 148.035 28.6867 147.936 28.184C147.838 27.6813 147.625 27.2081 147.313 26.8011C147.002 26.3941 146.601 26.0643 146.142 25.8373C145.683 25.6103 145.178 25.4923 144.665 25.4923C144.153 25.4923 143.648 25.6103 143.188 25.8373C142.729 26.0643 142.328 26.3941 142.017 26.8011C141.706 27.2081 141.493 27.6813 141.394 28.184C141.296 28.6867 141.314 29.2054 141.449 29.6998L133.849 37.2831C133.14 37.095 132.389 37.1458 131.712 37.4275C131.036 37.7093 130.471 38.2063 130.105 38.8416C129.739 39.4769 129.593 40.2151 129.689 40.9419C129.785 41.6687 130.118 42.3435 130.636 42.8619C131.155 43.3803 131.83 43.7133 132.556 43.8094C133.283 43.9056 134.021 43.7594 134.657 43.3936C135.292 43.0278 135.789 42.4627 136.071 41.7859C136.353 41.1091 136.403 40.3583 136.215 39.6498L143.799 32.0498C144.367 32.1997 144.964 32.1997 145.532 32.0498L149.782 36.2998C149.648 36.7941 149.629 37.3128 149.728 37.8155C149.826 38.3182 150.039 38.7914 150.35 39.1984C150.662 39.6054 151.062 39.9352 151.522 40.1622C151.981 40.3892 152.486 40.5073 152.999 40.5073C153.511 40.5073 154.016 40.3892 154.476 40.1622C154.935 39.9352 155.336 39.6054 155.647 39.1984C155.958 38.7914 156.171 38.3182 156.27 37.8155C156.368 37.3128 156.35 36.7941 156.215 36.2998L162.149 30.3831C162.608 30.5079 163.089 30.5328 163.558 30.4563C164.028 30.3798 164.476 30.2035 164.872 29.9394C165.268 29.6753 165.603 29.3294 165.854 28.9251C166.105 28.5208 166.267 28.0673 166.328 27.5953C166.389 27.1233 166.349 26.6436 166.209 26.1886C166.07 25.7336 165.834 25.3137 165.519 24.9573C165.203 24.6008 164.815 24.3161 164.38 24.1222C163.946 23.9283 163.475 23.8297 162.999 23.8331Z" fill="#EE1B2E"/>
</g>
<g clip-path="url(#clip2_132_5215)">
<path d="M207.832 21.3335V26.3335H202.832V21.3335H207.832ZM210.332 18.8335H200.332V28.8335H210.332V18.8335ZM207.832 34.6668V39.6668H202.832V34.6668H207.832ZM210.332 32.1668H200.332V42.1668H210.332V32.1668ZM218.665 23.8335V28.8335H213.665V23.8335H218.665ZM223.665 18.8335H213.665V28.8335H223.665V18.8335ZM208.665 37.1668H211.165V39.6668H213.665L208.665 37.1668ZM211.165 39.6668H218.665V37.1668H216.165L211.165 39.6668ZM218.665 32.1668H221.165V34.6668H218.665V32.1668ZM213.665 37.1668H216.165V39.6668H213.665V37.1668ZM216.165 39.6668H218.665V42.1668H216.165V39.6668ZM218.665 37.1668H221.165V39.6668H218.665V37.1668ZM221.165 34.6668H223.665V37.1668H221.165V34.6668ZM221.165 39.6668H223.665V42.1668H221.165V39.6668ZM228.665 22.1668H225.332V17.1668H220.332V13.8335H228.665V22.1668ZM228.665 47.1668V38.8335H225.332V43.8335H220.332V47.1668H228.665ZM195.332 47.1668H203.665V43.8335H198.665V38.8335H195.332V47.1668ZM195.332 13.8335V22.1668H198.665V17.1668H203.665V13.8335H195.332Z" fill="#006CC0"/>
<path d="M207.832 21.3335V26.3335H202.832V21.3335H207.832ZM210.332 18.8335H200.332V28.8335H210.332V18.8335ZM207.832 34.6668V39.6668H202.832V34.6668H207.832ZM210.332 32.1668H200.332V42.1668H210.332V32.1668ZM218.665 23.8335V28.8335H213.665V23.8335H218.665ZM223.665 18.8335H213.665V28.8335H223.665V18.8335ZM208.665 37.1668H211.165V39.6668H213.665L208.665 37.1668ZM211.165 39.6668H218.665V37.1668H216.165L211.165 39.6668ZM218.665 32.1668H221.165V34.6668H218.665V32.1668ZM213.665 37.1668H216.165V39.6668H213.665V37.1668ZM216.165 39.6668H218.665V42.1668H216.165V39.6668ZM218.665 37.1668H221.165V39.6668H218.665V37.1668ZM221.165 34.6668H223.665V37.1668H221.165V34.6668ZM221.165 39.6668H223.665V42.1668H221.165V39.6668ZM225.332 22.1668L228.665 13.8335L225.332 22.1668ZM228.665 47.1668L225.332 38.8335L228.665 47.1668ZM195.332 47.1668L198.665 43.8335L195.332 47.1668Z" fill="#EE1B2E"/>
</g>
<g clip-path="url(#clip3_132_5215)">
<path d="M260.217 43.2498L262.451 44.1832V29.1332L258.401 38.8998C258.073 39.7184 258.08 40.6327 258.42 41.4461C258.76 42.2596 259.405 42.9072 260.217 43.2498V43.2498ZM292.717 37.0832L284.451 17.1332C284.114 16.3205 283.469 15.6746 282.656 15.3371C281.844 14.9997 280.931 14.9983 280.117 15.3332L267.834 20.4165C267.239 20.6646 266.728 21.0801 266.364 21.6126C266.001 22.1451 265.799 22.7717 265.784 23.4165C265.768 23.8739 265.854 24.3292 266.034 24.7498L274.301 44.6998C274.552 45.3029 274.975 45.8186 275.518 46.1831C276.06 46.5476 276.697 46.7447 277.351 46.7498C277.791 46.7491 278.226 46.6643 278.634 46.4998L290.901 41.4165C291.716 41.0826 292.366 40.4385 292.706 39.626C293.047 38.8134 293.051 37.8987 292.717 37.0832V37.0832ZM277.384 43.4165L269.117 23.4832L281.367 18.4165H281.384L289.634 38.3332L277.384 43.4165V43.4165Z" fill="#006CC0"/>
<path d="M274.335 27.1668C275.255 27.1668 276.001 26.4206 276.001 25.5002C276.001 24.5797 275.255 23.8335 274.335 23.8335C273.414 23.8335 272.668 24.5797 272.668 25.5002C272.668 26.4206 273.414 27.1668 274.335 27.1668Z" fill="#006CC0"/>
<path d="M265.801 43.4168C265.803 44.3 266.155 45.1463 266.78 45.7709C267.405 46.3954 268.251 46.7475 269.134 46.7501H271.551L265.801 32.8501V43.4168Z" fill="#006CC0"/>
<path d="M262.448 29.1332L258.398 38.8998L262.448 29.1332ZM292.715 37.0832L284.448 17.1332C284.112 16.3205 283.466 15.6746 282.654 15.3371C281.842 14.9997 280.929 14.9983 280.115 15.3332L267.832 20.4165C267.236 20.6646 266.726 21.0801 266.362 21.6126C265.998 22.1451 265.797 22.7717 265.782 23.4165C265.766 23.8739 265.851 24.3292 266.032 24.7498L274.298 44.6998C274.55 45.3029 274.973 45.8186 275.515 46.1831C276.058 46.5476 276.695 46.7447 277.348 46.7498C277.788 46.7491 278.224 46.6643 278.632 46.4998L290.898 41.4165C291.714 41.0826 292.363 40.4385 292.704 39.626C293.045 38.8134 293.049 37.8987 292.715 37.0832V37.0832ZM277.382 43.4165L269.115 23.4832L281.365 18.4165H281.382L289.632 38.3332L277.382 43.4165V43.4165Z" fill="#EE1B2E"/>
<path d="M274.335 27.1668C275.255 27.1668 276.001 26.4206 276.001 25.5002C276.001 24.5797 275.255 23.8335 274.335 23.8335C273.414 23.8335 272.668 24.5797 272.668 25.5002C272.668 26.4206 273.414 27.1668 274.335 27.1668Z" fill="#EE1B2E"/>
</g>
<g clip-path="url(#clip4_132_5215)">
<path d="M356.716 36.692L348.45 16.6606C348.113 15.8446 347.468 15.196 346.655 14.8572C345.843 14.5184 344.93 14.517 344.116 14.8532L331.833 19.9573C331.238 20.2065 330.727 20.6237 330.363 21.1583C330 21.693 329.798 22.3222 329.783 22.9696C329.767 23.4289 329.853 23.886 330.033 24.3083L338.3 44.3398C338.551 44.9452 338.974 45.4631 339.517 45.8291C340.059 46.1951 340.696 46.3929 341.35 46.3981C341.79 46.3974 342.225 46.3122 342.633 46.1471L354.9 41.043C355.715 40.7078 356.365 40.0611 356.705 39.2452C357.046 38.4293 357.05 37.5109 356.716 36.692V36.692ZM341.383 43.0512L333.116 23.0365L345.366 17.9492H345.383L353.633 37.9471L341.383 43.0512V43.0512Z" fill="#006CC0"/>
<path d="M338.335 26.7346C339.255 26.7346 340.001 25.9854 340.001 25.0612C340.001 24.1369 339.255 23.3877 338.335 23.3877C337.414 23.3877 336.668 24.1369 336.668 25.0612C336.668 25.9854 337.414 26.7346 338.335 26.7346Z" fill="#006CC0"/>
<path d="M326.448 28.7096L322.398 38.5161L326.448 28.7096ZM356.715 36.692L348.448 16.6606C348.112 15.8446 347.466 15.196 346.654 14.8572C345.842 14.5184 344.929 14.517 344.115 14.8532L331.832 19.9573C331.236 20.2065 330.726 20.6237 330.362 21.1583C329.998 21.693 329.797 22.3222 329.782 22.9696C329.766 23.4289 329.851 23.886 330.032 24.3083L338.298 44.3398C338.55 44.9452 338.973 45.4631 339.515 45.8291C340.058 46.1951 340.695 46.3929 341.348 46.3981C341.788 46.3974 342.224 46.3122 342.632 46.1471L354.898 41.043C355.714 40.7078 356.363 40.0611 356.704 39.2452C357.045 38.4293 357.049 37.5109 356.715 36.692V36.692ZM341.382 43.0512L333.115 23.0365L345.365 17.9492H345.382L353.632 37.9471L341.382 43.0512V43.0512Z" fill="#EE1B2E"/>
<path d="M338.335 26.7346C339.255 26.7346 340.001 25.9854 340.001 25.0612C340.001 24.1369 339.255 23.3877 338.335 23.3877C337.414 23.3877 336.668 24.1369 336.668 25.0612C336.668 25.9854 337.414 26.7346 338.335 26.7346Z" fill="#EE1B2E"/>
<path d="M327.918 42.7165V44.2226H335.418V42.7165H327.918ZM331.668 35.939C330.185 35.939 328.735 36.3806 327.501 37.2081C326.268 38.0356 325.307 39.2117 324.739 40.5877C324.171 41.9638 324.023 43.4779 324.312 44.9387C324.601 46.3995 325.316 47.7413 326.365 48.7945C327.414 49.8477 328.75 50.5649 330.205 50.8555C331.66 51.1461 333.168 50.9969 334.538 50.427C335.909 49.857 337.08 48.8918 337.904 47.6534C338.728 46.415 339.168 44.959 339.168 43.4696C339.168 41.4723 338.378 39.5569 336.971 38.1446C335.565 36.7324 333.657 35.939 331.668 35.939V35.939ZM331.668 49.4941C330.481 49.4941 329.321 49.1407 328.335 48.4788C327.348 47.8168 326.579 46.8759 326.125 45.775C325.671 44.6742 325.552 43.4629 325.783 42.2943C326.015 41.1256 326.586 40.0522 327.425 39.2096C328.264 38.3671 329.334 37.7933 330.497 37.5608C331.661 37.3284 332.868 37.4477 333.964 37.9037C335.06 38.3597 335.998 39.1318 336.657 40.1225C337.316 41.1133 337.668 42.278 337.668 43.4696C337.668 44.2607 337.513 45.0441 337.211 45.775C336.91 46.506 336.468 47.1701 335.911 47.7295C335.353 48.289 334.692 48.7327 333.964 49.0355C333.236 49.3382 332.456 49.4941 331.668 49.4941Z" fill="#006CC0"/>
</g>
<path fill-rule="evenodd" clip-rule="evenodd" d="M387.496 27.5647L386.779 32.0248C393.856 31.9914 416.123 21.6123 417.157 15.4177C417.157 15.4177 417.226 15.0116 417.293 14.6039C417.36 14.1961 417.425 13.79 417.42 13.79C407.774 22.0234 393.201 27.5463 387.498 27.563M386.147 35.26L385.479 39.3675C392.302 39.3491 414.821 28.9533 415.856 22.762L416.141 20.989C406.167 29.7504 392.197 35.0477 386.147 35.2616M384.693 42.7531L384 47.0577V47.2098C390.898 47.0143 413.317 36.7907 414.348 30.606L414.683 28.4871C406.962 35.3068 390.92 42.7915 384.692 42.7531" fill="#006CC0"/>
<path fill-rule="evenodd" clip-rule="evenodd" d="M387.496 27.5647L386.779 32.0248C393.856 31.9914 416.123 21.6123 417.157 15.4177C417.157 15.4177 417.226 15.0116 417.293 14.6039C417.36 14.1961 417.425 13.79 417.42 13.79C407.774 22.0234 393.201 27.5463 387.498 27.563M386.147 35.26L385.479 39.3675ZM384.693 42.7531L384 47.0577V47.2098C390.898 47.0143 413.317 36.7907 414.348 30.606L414.683 28.4871C406.962 35.3068 390.92 42.7915 384.692 42.7531" fill="#D8131F"/>
<g clip-path="url(#clip5_132_5215)">
<path d="M11.65 110.652L5 117.319L11.65 123.985V118.985H23.3333V115.652H11.65V110.652ZM35 107.319L28.35 100.652V105.652H16.6667V108.985H28.35V113.985L35 107.319Z" fill="#006CC0"/>
<path d="M35.0013 107.319L28.3513 100.652V105.652H16.668V108.985H28.3513V113.985L35.0013 107.319Z" fill="#EE1B2E"/>
</g>
<path d="M72.4367 110.791L82.9894 109.534L73.8704 113.297L72.4382 110.79M86.5533 115.737L80.1912 124.245L78.7474 121.745L86.5533 115.737ZM68.2147 108.678L72.7551 116.569L90.9464 109.061L75.3561 121.074L79.9197 128.952L97.7123 105.172L68.2147 108.678Z" fill="#EE1B2E"/>
<path d="M153.081 98.375H135.123C134.829 98.3743 134.537 98.432 134.265 98.5447C133.993 98.6574 133.746 98.8229 133.539 99.0316C133.331 99.2402 133.167 99.488 133.056 99.7605C132.945 100.033 132.888 100.325 132.891 100.619L132.879 114.083C132.878 114.378 132.935 114.67 133.048 114.943C133.16 115.216 133.326 115.463 133.534 115.672C133.743 115.881 133.991 116.046 134.263 116.158C134.536 116.271 134.828 116.328 135.123 116.327H153.081C153.376 116.328 153.668 116.271 153.941 116.159C154.214 116.046 154.462 115.881 154.67 115.673C154.879 115.464 155.045 115.216 155.157 114.943C155.27 114.671 155.327 114.378 155.326 114.083V100.619C155.327 100.324 155.27 100.032 155.157 99.759C155.045 99.4862 154.879 99.2384 154.67 99.0298C154.462 98.8212 154.214 98.6559 153.941 98.5436C153.668 98.4312 153.376 98.3739 153.081 98.375ZM153.081 114.083H135.123V107.354H153.081V114.083ZM153.081 102.86H135.123V100.619H153.081V102.86Z" fill="#EE1B2E"/>
<path d="M156.691 109.027H148.336V117.383H156.691V109.027Z" fill="white"/>
<path d="M166.549 108.304H148.592C148.298 108.304 148.006 108.361 147.734 108.474C147.462 108.587 147.215 108.752 147.008 108.961C146.8 109.169 146.636 109.417 146.525 109.69C146.413 109.962 146.357 110.254 146.359 110.548L146.348 124.012C146.347 124.307 146.404 124.599 146.517 124.872C146.629 125.145 146.794 125.393 147.003 125.601C147.212 125.81 147.459 125.975 147.732 126.088C148.005 126.2 148.297 126.257 148.592 126.257H166.549C166.844 126.258 167.137 126.2 167.41 126.088C167.683 125.976 167.93 125.81 168.139 125.602C168.348 125.393 168.513 125.145 168.626 124.873C168.739 124.6 168.796 124.307 168.795 124.012V110.548C168.796 110.253 168.739 109.961 168.626 109.688C168.513 109.415 168.348 109.168 168.139 108.959C167.93 108.75 167.683 108.585 167.41 108.473C167.137 108.36 166.844 108.303 166.549 108.304ZM166.549 124.012H148.592V117.283H166.549V124.012ZM166.549 112.789H148.592V110.548H166.549V112.789Z" fill="#006CC0"/>
<g clip-path="url(#clip6_132_5215)">
<path d="M201.709 122.318V121.235C201.7 120.971 201.759 120.708 201.878 120.473C201.997 120.237 202.174 120.035 202.392 119.885C205.209 118.203 208.428 117.316 211.709 117.318C211.754 117.315 211.799 117.321 211.842 117.335C212.002 116.192 212.334 115.079 212.825 114.035C212.459 114.002 212.092 113.985 211.709 113.985C207.83 113.982 204.023 115.03 200.692 117.018C199.974 117.46 199.383 118.081 198.977 118.82C198.571 119.56 198.363 120.392 198.375 121.235V125.652H213.809C213.099 124.632 212.554 123.507 212.192 122.318H201.709Z" fill="#006CC0"/>
<path d="M211.71 112.318C213.028 112.318 214.317 111.927 215.413 111.195C216.51 110.462 217.364 109.421 217.869 108.203C218.373 106.985 218.505 105.644 218.248 104.351C217.991 103.058 217.356 101.87 216.424 100.937C215.491 100.005 214.303 99.3702 213.01 99.113C211.717 98.8557 210.377 98.9878 209.158 99.4923C207.94 99.9969 206.899 100.851 206.167 101.948C205.434 103.044 205.043 104.333 205.043 105.652C205.043 107.42 205.745 109.115 206.996 110.366C208.246 111.616 209.942 112.318 211.71 112.318ZM211.71 102.318C212.369 102.318 213.013 102.514 213.562 102.88C214.11 103.246 214.537 103.767 214.789 104.376C215.042 104.985 215.108 105.655 214.979 106.302C214.85 106.948 214.533 107.542 214.067 108.009C213.6 108.475 213.007 108.792 212.36 108.921C211.713 109.049 211.043 108.983 210.434 108.731C209.825 108.479 209.304 108.052 208.938 107.503C208.572 106.955 208.376 106.311 208.376 105.652C208.379 104.768 208.731 103.922 209.356 103.297C209.98 102.673 210.826 102.321 211.71 102.318V102.318Z" fill="#006CC0"/>
<path d="M229.624 118.985C229.616 118.633 229.583 118.282 229.524 117.935L231.424 116.251L229.758 113.368L227.341 114.185C226.806 113.734 226.197 113.378 225.541 113.135L225.041 110.651H221.708L221.208 113.135C220.552 113.378 219.943 113.734 219.408 114.185L216.991 113.368L215.324 116.251L217.224 117.935C217.165 118.282 217.132 118.633 217.124 118.985C217.132 119.337 217.165 119.688 217.224 120.035L215.324 121.718L216.991 124.601L219.408 123.785C219.943 124.236 220.552 124.591 221.208 124.835L221.708 127.318H225.041L225.541 124.835C226.197 124.591 226.806 124.236 227.341 123.785L229.758 124.601L231.424 121.718L229.524 120.035C229.583 119.688 229.616 119.337 229.624 118.985ZM223.374 122.318C222.715 122.318 222.07 122.123 221.522 121.756C220.974 121.39 220.547 120.869 220.295 120.26C220.042 119.651 219.976 118.981 220.105 118.334C220.234 117.688 220.551 117.094 221.017 116.628C221.483 116.162 222.077 115.844 222.724 115.715C223.371 115.587 224.041 115.653 224.65 115.905C225.259 116.157 225.78 116.585 226.146 117.133C226.512 117.681 226.708 118.325 226.708 118.985C226.705 119.868 226.353 120.714 225.728 121.339C225.104 121.963 224.257 122.315 223.374 122.318V122.318Z" fill="#006CC0"/>
<path d="M201.709 122.318V121.235C201.7 120.971 201.759 120.708 201.878 120.473C201.997 120.237 202.174 120.035 202.392 119.885C205.209 118.203 208.428 117.316 211.709 117.318C211.754 117.315 211.799 117.321 211.842 117.335C212.002 116.192 212.334 115.079 212.825 114.035C212.459 114.002 212.092 113.985 211.709 113.985C207.83 113.982 204.023 115.03 200.692 117.018C199.974 117.46 199.383 118.081 198.977 118.82C198.571 119.56 198.363 120.392 198.375 121.235V125.652H213.809C213.099 124.632 212.554 123.507 212.192 122.318H201.709Z" fill="#EE1B2E"/>
<path d="M211.71 112.318C213.028 112.318 214.317 111.927 215.413 111.195C216.51 110.462 217.364 109.421 217.869 108.203C218.373 106.985 218.505 105.644 218.248 104.351C217.991 103.058 217.356 101.87 216.424 100.937C215.491 100.005 214.303 99.3702 213.01 99.113C211.717 98.8557 210.377 98.9878 209.158 99.4923C207.94 99.9969 206.899 100.851 206.167 101.948C205.434 103.044 205.043 104.333 205.043 105.652C205.043 107.42 205.745 109.115 206.996 110.366C208.246 111.616 209.942 112.318 211.71 112.318ZM211.71 102.318C212.369 102.318 213.013 102.514 213.562 102.88C214.11 103.246 214.537 103.767 214.789 104.376C215.042 104.985 215.108 105.655 214.979 106.302C214.85 106.948 214.533 107.542 214.067 108.009C213.6 108.475 213.007 108.792 212.36 108.921C211.713 109.049 211.043 108.983 210.434 108.731C209.825 108.479 209.304 108.052 208.938 107.503C208.572 106.955 208.376 106.311 208.376 105.652C208.379 104.768 208.731 103.922 209.356 103.297C209.98 102.673 210.826 102.321 211.71 102.318V102.318Z" fill="#EE1B2E"/>
</g>
<g clip-path="url(#clip7_132_5215)">
<path d="M292.375 98.9849H265.708C265.271 98.9838 264.838 99.0694 264.434 99.2367C264.03 99.404 263.663 99.6498 263.355 99.9597C263.046 100.27 262.802 100.638 262.637 101.043C262.472 101.447 262.388 101.881 262.392 102.318L262.375 122.318C262.373 122.756 262.459 123.191 262.626 123.596C262.793 124.001 263.038 124.369 263.348 124.679C263.658 124.989 264.026 125.234 264.431 125.401C264.836 125.568 265.27 125.653 265.708 125.652H292.375C292.813 125.653 293.247 125.568 293.652 125.401C294.058 125.234 294.426 124.989 294.735 124.679C295.045 124.369 295.291 124.001 295.458 123.596C295.625 123.191 295.71 122.756 295.708 122.318V102.318C295.71 101.88 295.625 101.446 295.458 101.041C295.291 100.636 295.045 100.268 294.735 99.9578C294.426 99.6479 294.058 99.4024 293.652 99.2355C293.247 99.0685 292.813 98.9833 292.375 98.9849V98.9849ZM292.375 122.318H265.708V112.318H292.375V122.318ZM292.375 105.652H265.708V102.318H292.375V105.652Z" fill="#EE1B2E"/>
<path d="M292.378 105.652H265.711V112.319H292.378V105.652Z" fill="#006CC0"/>
</g>
<g clip-path="url(#clip8_132_5215)">
<path d="M354.71 100.652V123.985H331.376V100.652H354.71ZM354.71 97.3184H331.376C330.493 97.321 329.647 97.673 329.022 98.2976C328.398 98.9221 328.046 99.7684 328.043 100.652V123.985C328.046 124.868 328.398 125.715 329.022 126.339C329.647 126.964 330.493 127.316 331.376 127.318H354.71C355.593 127.316 356.439 126.964 357.064 126.339C357.688 125.715 358.04 124.868 358.043 123.985V100.652C358.04 99.7684 357.688 98.9221 357.064 98.2976C356.439 97.673 355.593 97.321 354.71 97.3184V97.3184Z" fill="#006CC0"/>
<path d="M346.378 120.652H334.711V117.318H346.378V120.652ZM351.378 113.985H334.711V110.652H351.378V113.985ZM351.378 107.318H334.711V103.985H351.378V107.318Z" fill="#006CC0"/>
<path d="M354.71 100.652V123.985H331.376V100.652H354.71ZM354.71 97.3184H331.376C330.493 97.321 329.647 97.673 329.022 98.2976C328.398 98.9221 328.046 99.7684 328.043 100.652V123.985C328.046 124.868 328.398 125.715 329.022 126.339C329.647 126.964 330.493 127.316 331.376 127.318H354.71C355.593 127.316 356.439 126.964 357.064 126.339C357.688 125.715 358.04 124.868 358.043 123.985V100.652C358.04 99.7684 357.688 98.9221 357.064 98.2976C356.439 97.673 355.593 97.321 354.71 97.3184V97.3184Z" fill="#EE1B2E"/>
</g>
<g clip-path="url(#clip9_132_5215)">
<path d="M407.527 95.6519C404.149 95.6552 400.848 96.6354 398.041 98.4688C395.234 100.302 393.047 102.906 391.756 105.952C390.466 108.998 390.13 112.348 390.791 115.58C391.452 118.812 393.081 121.78 395.471 124.11C397.86 126.439 400.904 128.024 404.218 128.666C407.531 129.308 410.965 128.977 414.086 127.715C417.206 126.453 419.873 124.317 421.75 121.576C423.626 118.836 424.628 115.614 424.628 112.319C424.628 110.128 424.185 107.96 423.326 105.937C422.466 103.913 421.206 102.075 419.618 100.528C418.03 98.9797 416.145 97.7523 414.07 96.9158C411.995 96.0792 409.772 95.6497 407.527 95.6519V95.6519ZM419.366 105.652H414.326C413.792 103.588 413 101.595 411.969 99.7185C415.085 100.765 417.711 102.871 419.366 105.652ZM407.544 99.0519C408.979 101.072 410.08 103.299 410.807 105.652H404.281C405.008 103.299 406.109 101.072 407.544 99.0519V99.0519ZM394.322 115.652C393.73 113.467 393.73 111.17 394.322 108.985H400.096C399.947 110.091 399.867 111.204 399.857 112.319C399.867 113.433 399.947 114.547 400.096 115.652H394.322ZM395.723 118.985H400.762C401.297 121.049 402.089 123.042 403.12 124.919C400 123.878 397.373 121.77 395.723 118.985V118.985ZM400.762 105.652H395.723C397.373 102.867 400 100.759 403.12 99.7185C402.089 101.595 401.297 103.588 400.762 105.652V105.652ZM407.544 125.585C406.109 123.565 405.008 121.338 404.281 118.985H410.807C410.08 121.338 408.979 123.565 407.544 125.585ZM411.542 115.652H403.547C403.378 114.548 403.287 113.434 403.273 112.319C403.286 111.203 403.377 110.089 403.547 108.985H411.542C411.711 110.089 411.803 111.203 411.815 112.319C411.802 113.434 411.711 114.548 411.542 115.652V115.652ZM411.969 124.919C413 123.042 413.792 121.049 414.326 118.985H419.366C417.711 121.766 415.085 123.872 411.969 124.919V124.919ZM414.993 115.652C415.141 114.547 415.221 113.433 415.232 112.319C415.221 111.204 415.141 110.091 414.993 108.985H420.767C421.359 111.17 421.359 113.467 420.767 115.652H414.993Z" fill="#EE1B2E"/>
<path d="M395.757 105.652H419.43L420.849 108.985H394.336L395.757 105.652Z" fill="#006CC0"/>
<path d="M395.757 118.985H419.43L420.849 115.652H394.336L395.757 118.985Z" fill="#006CC0"/>
<path d="M415 115.642L415.278 112.318L415.002 108.985H411.605L411.882 112.13L411.605 115.642H415Z" fill="#006CC0"/>
<path d="M400.132 115.652L399.855 112.329L400.132 108.995H403.528L403.252 112.142L403.528 115.652H400.132Z" fill="#006CC0"/>
</g>
<defs>
<clipPath id="clip0_132_5215">
<rect width="41" height="40" fill="white" transform="translate(63 10.5)"/>
</clipPath>
<clipPath id="clip1_132_5215">
<rect width="40" height="40" fill="white" transform="translate(128 10.5)"/>
</clipPath>
<clipPath id="clip2_132_5215">
<rect width="40" height="40" fill="white" transform="translate(192 10.5)"/>
</clipPath>
<clipPath id="clip3_132_5215">
<rect width="40" height="40" fill="white" transform="translate(256 10.5)"/>
</clipPath>
<clipPath id="clip4_132_5215">
<rect width="40" height="41" fill="white" transform="translate(320 10)"/>
</clipPath>
<clipPath id="clip5_132_5215">
<rect width="40" height="40" fill="white" transform="translate(0 92.3184)"/>
</clipPath>
<clipPath id="clip6_132_5215">
<rect width="40" height="40" fill="white" transform="translate(195.043 92.3184)"/>
</clipPath>
<clipPath id="clip7_132_5215">
<rect width="40" height="40" fill="white" transform="translate(259.043 92.3184)"/>
</clipPath>
<clipPath id="clip8_132_5215">
<rect width="40" height="40" fill="white" transform="translate(323.043 92.3184)"/>
</clipPath>
<clipPath id="clip9_132_5215">
<rect width="41" height="40" fill="white" transform="translate(387.043 92.3184)"/>
</clipPath>
</defs>
</svg>
