<svg width="17" height="15" viewBox="0 0 17 15" fill="none" xmlns="http://www.w3.org/2000/svg">
<g clip-path="url(#clip0_31_9695)">
<path fill-rule="evenodd" clip-rule="evenodd" d="M0.830078 1.99246C0.830078 1.50763 1.00332 1.10765 1.3498 0.792525C1.69628 0.477386 2.14672 0.319824 2.70109 0.319824C3.24557 0.319824 3.68609 0.474957 4.02268 0.785253C4.36915 1.10523 4.5424 1.52217 4.5424 2.03609C4.5424 2.50152 4.37411 2.88937 4.03753 3.19967C3.69105 3.51965 3.23566 3.67964 2.67139 3.67964H2.65654C2.11206 3.67964 1.67155 3.51965 1.33495 3.19967C0.998365 2.87969 0.830078 2.47728 0.830078 1.99246ZM1.02268 14.7197V5.00386H4.31922V14.7197H1.02268ZM9.44277 14.7195H6.14623C6.16603 11.7911 6.17593 9.51734 6.17593 7.898C6.17593 6.27872 6.16603 5.3139 6.14623 5.00363H9.44277V6.3854L9.42794 6.41444H9.44277V6.3854C10.1556 5.30906 11.1505 4.77091 12.4275 4.77091C13.5659 4.77091 14.4816 5.1418 15.1746 5.88358C15.8676 6.62534 16.214 7.7138 16.214 9.14888V14.7195H12.9175V9.527C12.9175 8.06282 12.3631 7.33076 11.2544 7.33076C10.8287 7.33076 10.4748 7.4447 10.1927 7.67258C9.91052 7.9004 9.70018 8.17922 9.56154 8.50892C9.4824 8.69312 9.44277 8.9549 9.44277 9.29432V14.7195Z" fill="#333333"/>
</g>
<defs>
<clipPath id="clip0_31_9695">
<rect width="16" height="15" fill="white" transform="translate(0.5)"/>
</clipPath>
</defs>
</svg>
