<svg width="454" height="307" viewBox="0 0 454 307" fill="none" xmlns="http://www.w3.org/2000/svg">
<rect x="4.5" y="0.636719" width="445" height="90" rx="45" fill="black"/>
<g clip-path="url(#clip0_123_6804)">
<path d="M220.5 20.6367H158.5C156.291 20.6367 154.5 22.4276 154.5 24.6367V66.6367C154.5 68.8459 156.291 70.6367 158.5 70.6367H220.5C222.709 70.6367 224.5 68.8459 224.5 66.6367V24.6367C224.5 22.4276 222.709 20.6367 220.5 20.6367Z" fill="#1F1F1F"/>
<path fill-rule="evenodd" clip-rule="evenodd" d="M183.008 32.1436L182.649 33.9116C186.188 33.8976 197.323 29.7826 197.841 27.3266C197.841 27.3266 197.875 27.1656 197.908 27.0046C197.941 26.8426 197.974 26.6816 197.972 26.6816C193.148 29.9476 185.86 32.1366 183.008 32.1436ZM182.333 35.1956L182.001 36.8246C185.413 36.8176 196.675 32.6956 197.192 30.2406L197.335 29.5406C192.347 33.0146 185.361 35.1146 182.335 35.1996M181.601 38.1666L181.254 39.8736V39.9336C184.704 39.8556 195.915 35.8016 196.431 33.3506L196.601 32.5106C192.735 35.2106 184.712 38.1836 181.601 38.1666Z" fill="white"/>
<path d="M176.064 60.258C177.504 60.258 178.736 59.858 179.744 59.042C180.736 58.242 181.312 57.09 181.488 55.618H178.784C178.656 56.354 178.336 56.914 177.856 57.314C177.36 57.73 176.768 57.922 176.064 57.922C175.136 57.922 174.432 57.618 173.936 56.978C173.44 56.354 173.2 55.458 173.2 54.306C173.2 53.154 173.44 52.274 173.936 51.634C174.432 51.01 175.136 50.69 176.064 50.69C176.736 50.69 177.296 50.866 177.76 51.218C178.224 51.57 178.544 52.05 178.72 52.69H181.456C181.248 51.314 180.64 50.242 179.648 49.474C178.656 48.738 177.472 48.354 176.064 48.354C174.32 48.354 172.944 48.898 171.92 49.954C170.896 51.026 170.384 52.482 170.384 54.306C170.384 56.13 170.896 57.57 171.952 58.642C172.992 59.73 174.368 60.258 176.064 60.258ZM187.893 56.354C187.893 56.898 187.733 57.33 187.445 57.618C187.141 57.922 186.773 58.066 186.325 58.066C185.429 58.066 184.997 57.602 184.997 56.658V51.746H182.501V57.154C182.501 58.13 182.757 58.882 183.269 59.41C183.781 59.938 184.485 60.194 185.365 60.194C186.453 60.194 187.317 59.746 187.957 58.834V60.002H190.389V51.746H187.893V56.354ZM196.757 51.554C195.701 51.554 194.885 51.954 194.325 52.754V48.61H191.829V60.002H194.261V58.898C194.821 59.762 195.653 60.194 196.757 60.194C197.861 60.194 198.741 59.81 199.397 59.026C200.037 58.258 200.357 57.202 200.357 55.874C200.357 54.562 200.037 53.506 199.397 52.722C198.741 51.954 197.861 51.554 196.757 51.554ZM196.069 58.194C194.885 58.194 194.293 57.426 194.293 55.874C194.293 54.338 194.885 53.554 196.069 53.554C197.237 53.554 197.829 54.306 197.829 55.81C197.829 56.578 197.669 57.17 197.365 57.586C197.045 58.002 196.613 58.194 196.069 58.194ZM209.36 60.002C209.135 59.682 209.024 59.186 209.024 58.482V54.098C209.024 52.402 207.792 51.554 205.344 51.554C202.848 51.554 201.536 52.514 201.392 54.418H203.872C203.904 54.002 204.032 53.73 204.24 53.57C204.448 53.41 204.816 53.33 205.328 53.33C206.16 53.33 206.592 53.618 206.592 54.162C206.592 54.642 206.224 54.914 205.52 54.978L204.224 55.09C202.064 55.282 200.992 56.13 200.992 57.666C200.992 58.466 201.264 59.074 201.808 59.522C202.352 59.97 203.088 60.194 204 60.194C205.2 60.194 206.08 59.826 206.64 59.074C206.64 59.458 206.72 59.762 206.848 60.002H209.36ZM204.752 58.514C204.368 58.514 204.064 58.434 203.856 58.258C203.632 58.098 203.536 57.858 203.536 57.57C203.536 56.994 203.936 56.674 204.736 56.578L205.76 56.466C206.16 56.418 206.432 56.306 206.592 56.146V56.754C206.592 57.346 206.416 57.794 206.096 58.082C205.76 58.37 205.312 58.514 204.752 58.514Z" fill="white"/>
</g>
<path d="M312.159 48.0666C312.159 39.8766 305.519 33.2373 297.329 33.2373C289.139 33.2373 282.5 39.8766 282.5 48.0666C282.5 56.2566 289.139 62.8958 297.329 62.8958C305.519 62.8958 312.159 56.2566 312.159 48.0666Z" fill="#1F1F1F"/>
<path fill-rule="evenodd" clip-rule="evenodd" d="M291.337 46.8911L291.01 48.6769C294.22 48.6628 304.319 44.5091 304.788 42.0318C304.788 42.0318 304.819 41.8757 304.849 41.7071C304.878 41.551 304.908 41.3809 304.906 41.3809C300.536 44.6761 293.922 46.8864 291.335 46.8927M290.723 49.9725L290.42 51.6162C293.514 51.6162 303.729 47.4484 304.198 44.9711L304.327 44.2624C300.355 47.2976 295.671 49.264 290.723 49.974M290.066 52.9695L289.754 54.6866V54.7491C292.876 54.671 303.05 50.5797 303.519 48.104L303.675 47.2564C300.169 49.985 292.891 52.982 290.068 52.9649" fill="white"/>
<path d="M325.806 45.8607C327.066 45.8607 328.144 45.5107 329.026 44.7967C329.894 44.0967 330.398 43.0887 330.552 41.8007H328.186C328.074 42.4447 327.794 42.9347 327.374 43.2847C326.94 43.6487 326.422 43.8167 325.806 43.8167C324.994 43.8167 324.378 43.5507 323.944 42.9907C323.51 42.4447 323.3 41.6607 323.3 40.6527C323.3 39.6447 323.51 38.8747 323.944 38.3147C324.378 37.7687 324.994 37.4887 325.806 37.4887C326.394 37.4887 326.884 37.6427 327.29 37.9507C327.696 38.2587 327.976 38.6787 328.13 39.2387H330.524C330.342 38.0347 329.81 37.0967 328.942 36.4247C328.074 35.7807 327.038 35.4447 325.806 35.4447C324.28 35.4447 323.076 35.9207 322.18 36.8447C321.284 37.7827 320.836 39.0567 320.836 40.6527C320.836 42.2487 321.284 43.5087 322.208 44.4467C323.118 45.3987 324.322 45.8607 325.806 45.8607ZM335.693 38.3007C334.657 38.3007 333.971 38.7907 333.635 39.7567V38.4127H331.507V45.6367H333.691V42.2767C333.691 40.9747 334.321 40.3167 335.609 40.3167H336.169V38.3287C335.889 38.3147 335.721 38.3007 335.693 38.3007ZM343.938 42.2347C343.938 41.0307 343.602 40.0507 342.93 39.3227C342.23 38.6087 341.334 38.2447 340.214 38.2447C339.08 38.2447 338.184 38.5947 337.512 39.2807C336.826 39.9667 336.49 40.8767 336.49 42.0247C336.49 43.1727 336.826 44.0827 337.526 44.7687C338.212 45.4687 339.122 45.8047 340.242 45.8047C341.124 45.8047 341.88 45.5947 342.524 45.1607C343.154 44.7267 343.574 44.1387 343.77 43.3827H341.698C341.432 43.9287 340.942 44.1947 340.242 44.1947C339.794 44.1947 339.416 44.0687 339.136 43.8027C338.842 43.5507 338.66 43.1727 338.59 42.6687H343.938V42.2347ZM340.186 39.8547C340.62 39.8547 340.984 39.9807 341.264 40.2327C341.544 40.4847 341.712 40.8347 341.796 41.2827H338.604C338.758 40.3307 339.29 39.8547 340.186 39.8547ZM349.93 39.2807C349.426 38.5947 348.726 38.2447 347.816 38.2447C346.836 38.2447 346.08 38.5947 345.52 39.2667C344.946 39.9527 344.666 40.8767 344.666 42.0247C344.666 43.1867 344.946 44.1107 345.52 44.7827C346.08 45.4687 346.836 45.8047 347.816 45.8047C348.768 45.8047 349.496 45.4407 349.986 44.6987V45.6367H352.114V35.6687H349.93V39.2807ZM348.418 44.0547C347.382 44.0547 346.878 43.3967 346.878 42.0807C346.878 41.4087 347.004 40.9047 347.284 40.5407C347.55 40.1767 347.928 39.9947 348.418 39.9947C349.454 39.9947 349.972 40.6807 349.972 42.0247C349.972 43.3827 349.454 44.0547 348.418 44.0547ZM355.51 37.5867V35.7387H353.424V37.5867H355.51ZM355.552 45.6367V38.4127H353.368V45.6367H355.552ZM360.999 38.4127H359.613V36.2707H357.429V38.4127H356.351V40.0087H357.429V43.6207C357.429 44.3627 357.625 44.8947 358.031 45.2167C358.423 45.5387 359.081 45.6927 359.991 45.6927C360.397 45.6927 360.733 45.6787 360.999 45.6367V44.0127H360.439C360.131 44.0127 359.907 43.9707 359.795 43.8867C359.669 43.8027 359.613 43.6347 359.613 43.3827V40.0087H360.999V38.4127ZM369.506 38.2447C368.582 38.2447 367.868 38.5947 367.378 39.2947V35.6687H365.194V45.6367H367.322V44.6707C367.812 45.4267 368.54 45.8047 369.506 45.8047C370.472 45.8047 371.242 45.4687 371.816 44.7827C372.376 44.1107 372.656 43.1867 372.656 42.0247C372.656 40.8767 372.376 39.9527 371.816 39.2667C371.242 38.5947 370.472 38.2447 369.506 38.2447ZM368.904 44.0547C367.868 44.0547 367.35 43.3827 367.35 42.0247C367.35 40.6807 367.868 39.9947 368.904 39.9947C369.926 39.9947 370.444 40.6527 370.444 41.9687C370.444 42.6407 370.304 43.1587 370.038 43.5227C369.758 43.8867 369.38 44.0547 368.904 44.0547ZM380.533 45.6367C380.337 45.3567 380.239 44.9227 380.239 44.3067V40.4707C380.239 38.9867 379.161 38.2447 377.019 38.2447C374.835 38.2447 373.687 39.0847 373.561 40.7507H375.731C375.759 40.3867 375.871 40.1487 376.053 40.0087C376.235 39.8687 376.557 39.7987 377.005 39.7987C377.733 39.7987 378.111 40.0507 378.111 40.5267C378.111 40.9467 377.789 41.1847 377.173 41.2407L376.039 41.3387C374.149 41.5067 373.211 42.2487 373.211 43.5927C373.211 44.2927 373.449 44.8247 373.925 45.2167C374.401 45.6087 375.045 45.8047 375.843 45.8047C376.893 45.8047 377.663 45.4827 378.153 44.8247C378.153 45.1607 378.223 45.4267 378.335 45.6367H380.533ZM376.501 44.3347C376.165 44.3347 375.899 44.2647 375.717 44.1107C375.521 43.9707 375.437 43.7607 375.437 43.5087C375.437 43.0047 375.787 42.7247 376.487 42.6407L377.383 42.5427C377.733 42.5007 377.971 42.4027 378.111 42.2627V42.7947C378.111 43.3127 377.957 43.7047 377.677 43.9567C377.383 44.2087 376.991 44.3347 376.501 44.3347ZM385.792 38.2447C384.84 38.2447 384.084 38.6507 383.524 39.4347V38.4127H381.396V45.6367H383.58V41.6047C383.58 41.1287 383.706 40.7647 383.972 40.4987C384.224 40.2467 384.56 40.1067 384.952 40.1067C385.722 40.1067 386.114 40.5267 386.114 41.3387V45.6367H388.298V40.9047C388.298 40.0647 388.06 39.4067 387.612 38.9447C387.164 38.4827 386.548 38.2447 385.792 38.2447ZM397.034 45.6367L394.164 41.2127L396.88 38.4127H394.374L391.7 41.2687V35.6687H389.558V45.6367H391.7V43.6627L392.68 42.6547L394.542 45.6367H397.034ZM324.63 61.8047C325.778 61.8047 326.688 61.4687 327.388 60.7687C328.06 60.0967 328.41 59.1727 328.41 58.0247C328.41 56.8767 328.06 55.9527 327.388 55.2667C326.702 54.5947 325.778 54.2447 324.63 54.2447C323.468 54.2447 322.544 54.5947 321.872 55.2667C321.172 55.9667 320.836 56.8767 320.836 58.0247C320.836 59.1727 321.172 60.0827 321.872 60.7687C322.558 61.4687 323.482 61.8047 324.63 61.8047ZM324.63 60.0547C324.112 60.0547 323.72 59.8867 323.454 59.5367C323.174 59.2007 323.048 58.6967 323.048 58.0247C323.048 57.3667 323.174 56.8627 323.454 56.5127C323.72 56.1767 324.112 55.9947 324.63 55.9947C325.134 55.9947 325.512 56.1767 325.792 56.5127C326.058 56.8627 326.198 57.3667 326.198 58.0247C326.198 58.6967 326.058 59.2007 325.792 59.5367C325.512 59.8867 325.134 60.0547 324.63 60.0547ZM333.343 53.2927V51.6687C332.979 51.6407 332.629 51.6127 332.307 51.6127C331.439 51.6127 330.781 51.8367 330.347 52.2567C329.913 52.6907 329.703 53.2647 329.703 53.9927V54.4127H328.625V56.0087H329.703V61.6367H331.887V56.0087H333.315V54.4127H331.887V54.0627C331.887 53.5587 332.167 53.2927 332.755 53.2927H333.343ZM347.14 61.6367L343.388 51.6687H340.574L336.906 61.6367H339.328L339.902 59.9007H344.046L344.634 61.6367H347.14ZM341.134 56.2187C341.19 56.0647 341.456 55.2247 341.96 53.6987C342.338 54.8747 342.618 55.7147 342.8 56.2187L343.374 57.9267H340.56L341.134 56.2187ZM351.622 53.2927V51.6687C351.258 51.6407 350.908 51.6127 350.586 51.6127C349.718 51.6127 349.06 51.8367 348.626 52.2567C348.192 52.6907 347.982 53.2647 347.982 53.9927V54.4127H346.904V56.0087H347.982V61.6367H350.166V56.0087H351.594V54.4127H350.166V54.0627C350.166 53.5587 350.446 53.2927 351.034 53.2927H351.622ZM356.693 54.3007C355.657 54.3007 354.971 54.7907 354.635 55.7567V54.4127H352.507V61.6367H354.691V58.2767C354.691 56.9747 355.321 56.3167 356.609 56.3167H357.169V54.3287C356.889 54.3147 356.721 54.3007 356.693 54.3007ZM360.2 53.5867V51.7387H358.114V53.5867H360.2ZM360.242 61.6367V54.4127H358.058V61.6367H360.242ZM364.933 61.8047C365.941 61.8047 366.767 61.5387 367.425 60.9927C368.069 60.4467 368.433 59.7187 368.503 58.7947H366.333C366.235 59.6067 365.773 60.0127 364.933 60.0127C363.925 60.0127 363.435 59.3547 363.435 58.0247C363.435 56.6947 363.925 56.0227 364.933 56.0227C365.717 56.0227 366.165 56.4007 366.291 57.1287H368.461C368.349 56.2467 367.985 55.5467 367.355 55.0287C366.725 54.5107 365.913 54.2447 364.933 54.2447C363.799 54.2447 362.903 54.5947 362.231 55.2667C361.559 55.9527 361.223 56.8767 361.223 58.0247C361.223 59.1727 361.559 60.0827 362.231 60.7687C362.903 61.4687 363.799 61.8047 364.933 61.8047ZM376.377 61.6367C376.181 61.3567 376.083 60.9227 376.083 60.3067V56.4707C376.083 54.9867 375.005 54.2447 372.863 54.2447C370.679 54.2447 369.531 55.0847 369.405 56.7507H371.575C371.603 56.3867 371.715 56.1487 371.897 56.0087C372.079 55.8687 372.401 55.7987 372.849 55.7987C373.577 55.7987 373.955 56.0507 373.955 56.5267C373.955 56.9467 373.633 57.1847 373.017 57.2407L371.883 57.3387C369.993 57.5067 369.055 58.2487 369.055 59.5927C369.055 60.2927 369.293 60.8247 369.769 61.2167C370.245 61.6087 370.889 61.8047 371.687 61.8047C372.737 61.8047 373.507 61.4827 373.997 60.8247C373.997 61.1607 374.067 61.4267 374.179 61.6367H376.377ZM372.345 60.3347C372.009 60.3347 371.743 60.2647 371.561 60.1107C371.365 59.9707 371.281 59.7607 371.281 59.5087C371.281 59.0047 371.631 58.7247 372.331 58.6407L373.227 58.5427C373.577 58.5007 373.815 58.4027 373.955 58.2627V58.7947C373.955 59.3127 373.801 59.7047 373.521 59.9567C373.227 60.2087 372.835 60.3347 372.345 60.3347Z" fill="white"/>
<path fill-rule="evenodd" clip-rule="evenodd" d="M55.5293 42.9415L54.905 46.281C61.0473 46.2548 80.3766 38.4868 81.2728 33.854C81.2728 33.854 81.3326 33.5621 81.3893 33.2468C81.4461 32.9549 81.5029 32.6367 81.4999 32.6367C73.1348 38.7991 60.4767 42.9327 55.5264 42.9444M54.3553 48.704L53.7757 51.7779C59.6969 51.7779 79.2473 43.9836 80.1436 39.3509L80.3915 38.0256C72.7895 43.7016 63.8256 47.3791 54.3553 48.7069M53.0975 54.3088L52.5 57.5199V57.6367C58.475 57.4908 77.9477 49.8395 78.844 45.2097L79.1427 43.6246C72.4328 48.7273 58.5049 54.3322 53.1005 54.3001" fill="white"/>
<rect x="4.5" y="104.637" width="445" height="90" rx="45" fill="#D5D3D3"/>
<g clip-path="url(#clip1_123_6804)">
<path d="M220.5 125.637H158.5C156.291 125.637 154.5 127.428 154.5 129.637V171.637C154.5 173.846 156.291 175.637 158.5 175.637H220.5C222.709 175.637 224.5 173.846 224.5 171.637V129.637C224.5 127.428 222.709 125.637 220.5 125.637Z" fill="#EE3124"/>
<path fill-rule="evenodd" clip-rule="evenodd" d="M183.008 137.144L182.649 138.912C186.188 138.898 197.323 134.783 197.841 132.327C197.841 132.327 197.875 132.166 197.908 132.005C197.941 131.843 197.974 131.682 197.972 131.682C193.148 134.948 185.86 137.137 183.008 137.144ZM182.333 140.196L182.001 141.825C185.413 141.818 196.675 137.696 197.192 135.241L197.335 134.541C192.347 138.015 185.361 140.115 182.335 140.2M181.601 143.167L181.254 144.874V144.934C184.704 144.856 195.915 140.802 196.431 138.351L196.601 137.511C192.735 140.211 184.712 143.184 181.601 143.167Z" fill="white"/>
<path d="M176.064 165.258C177.504 165.258 178.736 164.858 179.744 164.042C180.736 163.242 181.312 162.09 181.488 160.618H178.784C178.656 161.354 178.336 161.914 177.856 162.314C177.36 162.73 176.768 162.922 176.064 162.922C175.136 162.922 174.432 162.618 173.936 161.978C173.44 161.354 173.2 160.458 173.2 159.306C173.2 158.154 173.44 157.274 173.936 156.634C174.432 156.01 175.136 155.69 176.064 155.69C176.736 155.69 177.296 155.866 177.76 156.218C178.224 156.57 178.544 157.05 178.72 157.69H181.456C181.248 156.314 180.64 155.242 179.648 154.474C178.656 153.738 177.472 153.354 176.064 153.354C174.32 153.354 172.944 153.898 171.92 154.954C170.896 156.026 170.384 157.482 170.384 159.306C170.384 161.13 170.896 162.57 171.952 163.642C172.992 164.73 174.368 165.258 176.064 165.258ZM187.893 161.354C187.893 161.898 187.733 162.33 187.445 162.618C187.141 162.922 186.773 163.066 186.325 163.066C185.429 163.066 184.997 162.602 184.997 161.658V156.746H182.501V162.154C182.501 163.13 182.757 163.882 183.269 164.41C183.781 164.938 184.485 165.194 185.365 165.194C186.453 165.194 187.317 164.746 187.957 163.834V165.002H190.389V156.746H187.893V161.354ZM196.757 156.554C195.701 156.554 194.885 156.954 194.325 157.754V153.61H191.829V165.002H194.261V163.898C194.821 164.762 195.653 165.194 196.757 165.194C197.861 165.194 198.741 164.81 199.397 164.026C200.037 163.258 200.357 162.202 200.357 160.874C200.357 159.562 200.037 158.506 199.397 157.722C198.741 156.954 197.861 156.554 196.757 156.554ZM196.069 163.194C194.885 163.194 194.293 162.426 194.293 160.874C194.293 159.338 194.885 158.554 196.069 158.554C197.237 158.554 197.829 159.306 197.829 160.81C197.829 161.578 197.669 162.17 197.365 162.586C197.045 163.002 196.613 163.194 196.069 163.194ZM209.36 165.002C209.135 164.682 209.024 164.186 209.024 163.482V159.098C209.024 157.402 207.792 156.554 205.344 156.554C202.848 156.554 201.536 157.514 201.392 159.418H203.872C203.904 159.002 204.032 158.73 204.24 158.57C204.448 158.41 204.816 158.33 205.328 158.33C206.16 158.33 206.592 158.618 206.592 159.162C206.592 159.642 206.224 159.914 205.52 159.978L204.224 160.09C202.064 160.282 200.992 161.13 200.992 162.666C200.992 163.466 201.264 164.074 201.808 164.522C202.352 164.97 203.088 165.194 204 165.194C205.2 165.194 206.08 164.826 206.64 164.074C206.64 164.458 206.72 164.762 206.848 165.002H209.36ZM204.752 163.514C204.368 163.514 204.064 163.434 203.856 163.258C203.632 163.098 203.536 162.858 203.536 162.57C203.536 161.994 203.936 161.674 204.736 161.578L205.76 161.466C206.16 161.418 206.432 161.306 206.592 161.146V161.754C206.592 162.346 206.416 162.794 206.096 163.082C205.76 163.37 205.312 163.514 204.752 163.514Z" fill="white"/>
</g>
<path d="M308.409 153.139C308.409 145.985 302.609 140.185 295.455 140.185C288.3 140.185 282.5 145.985 282.5 153.139C282.5 160.294 288.3 166.094 295.455 166.094C302.609 166.094 308.409 160.294 308.409 153.139Z" fill="white"/>
<path fill-rule="evenodd" clip-rule="evenodd" d="M290.219 152.112L289.934 153.672C292.737 153.66 301.56 150.032 301.969 147.867C301.969 147.867 301.996 147.731 302.022 147.584C302.048 147.447 302.074 147.299 302.073 147.299C298.255 150.177 292.477 152.108 290.217 152.114M289.683 154.804L289.418 156.24C292.121 156.24 301.045 152.599 301.454 150.435L301.567 149.816C298.097 152.468 294.005 154.185 289.683 154.806M289.109 157.422L288.836 158.922V158.977C291.563 158.909 300.451 155.335 300.86 153.172L300.997 152.432C297.934 154.815 291.577 157.433 289.11 157.418" fill="#EE3124"/>
<path d="M321.806 151.861C323.066 151.861 324.144 151.511 325.026 150.797C325.894 150.097 326.398 149.089 326.552 147.801H324.186C324.074 148.445 323.794 148.935 323.374 149.285C322.94 149.649 322.422 149.817 321.806 149.817C320.994 149.817 320.378 149.551 319.944 148.991C319.51 148.445 319.3 147.661 319.3 146.653C319.3 145.645 319.51 144.875 319.944 144.315C320.378 143.769 320.994 143.489 321.806 143.489C322.394 143.489 322.884 143.643 323.29 143.951C323.696 144.259 323.976 144.679 324.13 145.239H326.524C326.342 144.035 325.81 143.097 324.942 142.425C324.074 141.781 323.038 141.445 321.806 141.445C320.28 141.445 319.076 141.921 318.18 142.845C317.284 143.783 316.836 145.057 316.836 146.653C316.836 148.249 317.284 149.509 318.208 150.447C319.118 151.399 320.322 151.861 321.806 151.861ZM331.693 144.301C330.657 144.301 329.971 144.791 329.635 145.757V144.413H327.507V151.637H329.691V148.277C329.691 146.975 330.321 146.317 331.609 146.317H332.169V144.329C331.889 144.315 331.721 144.301 331.693 144.301ZM339.938 148.235C339.938 147.031 339.602 146.051 338.93 145.323C338.23 144.609 337.334 144.245 336.214 144.245C335.08 144.245 334.184 144.595 333.512 145.281C332.826 145.967 332.49 146.877 332.49 148.025C332.49 149.173 332.826 150.083 333.526 150.769C334.212 151.469 335.122 151.805 336.242 151.805C337.124 151.805 337.88 151.595 338.524 151.161C339.154 150.727 339.574 150.139 339.77 149.383H337.698C337.432 149.929 336.942 150.195 336.242 150.195C335.794 150.195 335.416 150.069 335.136 149.803C334.842 149.551 334.66 149.173 334.59 148.669H339.938V148.235ZM336.186 145.855C336.62 145.855 336.984 145.981 337.264 146.233C337.544 146.485 337.712 146.835 337.796 147.283H334.604C334.758 146.331 335.29 145.855 336.186 145.855ZM345.93 145.281C345.426 144.595 344.726 144.245 343.816 144.245C342.836 144.245 342.08 144.595 341.52 145.267C340.946 145.953 340.666 146.877 340.666 148.025C340.666 149.187 340.946 150.111 341.52 150.783C342.08 151.469 342.836 151.805 343.816 151.805C344.768 151.805 345.496 151.441 345.986 150.699V151.637H348.114V141.669H345.93V145.281ZM344.418 150.055C343.382 150.055 342.878 149.397 342.878 148.081C342.878 147.409 343.004 146.905 343.284 146.541C343.55 146.177 343.928 145.995 344.418 145.995C345.454 145.995 345.972 146.681 345.972 148.025C345.972 149.383 345.454 150.055 344.418 150.055ZM351.51 143.587V141.739H349.424V143.587H351.51ZM351.552 151.637V144.413H349.368V151.637H351.552ZM356.999 144.413H355.613V142.271H353.429V144.413H352.351V146.009H353.429V149.621C353.429 150.363 353.625 150.895 354.031 151.217C354.423 151.539 355.081 151.693 355.991 151.693C356.397 151.693 356.733 151.679 356.999 151.637V150.013H356.439C356.131 150.013 355.907 149.971 355.795 149.887C355.669 149.803 355.613 149.635 355.613 149.383V146.009H356.999V144.413ZM365.506 144.245C364.582 144.245 363.868 144.595 363.378 145.295V141.669H361.194V151.637H363.322V150.671C363.812 151.427 364.54 151.805 365.506 151.805C366.472 151.805 367.242 151.469 367.816 150.783C368.376 150.111 368.656 149.187 368.656 148.025C368.656 146.877 368.376 145.953 367.816 145.267C367.242 144.595 366.472 144.245 365.506 144.245ZM364.904 150.055C363.868 150.055 363.35 149.383 363.35 148.025C363.35 146.681 363.868 145.995 364.904 145.995C365.926 145.995 366.444 146.653 366.444 147.969C366.444 148.641 366.304 149.159 366.038 149.523C365.758 149.887 365.38 150.055 364.904 150.055ZM376.533 151.637C376.337 151.357 376.239 150.923 376.239 150.307V146.471C376.239 144.987 375.161 144.245 373.019 144.245C370.835 144.245 369.687 145.085 369.561 146.751H371.731C371.759 146.387 371.871 146.149 372.053 146.009C372.235 145.869 372.557 145.799 373.005 145.799C373.733 145.799 374.111 146.051 374.111 146.527C374.111 146.947 373.789 147.185 373.173 147.241L372.039 147.339C370.149 147.507 369.211 148.249 369.211 149.593C369.211 150.293 369.449 150.825 369.925 151.217C370.401 151.609 371.045 151.805 371.843 151.805C372.893 151.805 373.663 151.483 374.153 150.825C374.153 151.161 374.223 151.427 374.335 151.637H376.533ZM372.501 150.335C372.165 150.335 371.899 150.265 371.717 150.111C371.521 149.971 371.437 149.761 371.437 149.509C371.437 149.005 371.787 148.725 372.487 148.641L373.383 148.543C373.733 148.501 373.971 148.403 374.111 148.263V148.795C374.111 149.313 373.957 149.705 373.677 149.957C373.383 150.209 372.991 150.335 372.501 150.335ZM381.792 144.245C380.84 144.245 380.084 144.651 379.524 145.435V144.413H377.396V151.637H379.58V147.605C379.58 147.129 379.706 146.765 379.972 146.499C380.224 146.247 380.56 146.107 380.952 146.107C381.722 146.107 382.114 146.527 382.114 147.339V151.637H384.298V146.905C384.298 146.065 384.06 145.407 383.612 144.945C383.164 144.483 382.548 144.245 381.792 144.245ZM393.034 151.637L390.164 147.213L392.88 144.413H390.374L387.7 147.269V141.669H385.558V151.637H387.7V149.663L388.68 148.655L390.542 151.637H393.034ZM320.63 167.805C321.778 167.805 322.688 167.469 323.388 166.769C324.06 166.097 324.41 165.173 324.41 164.025C324.41 162.877 324.06 161.953 323.388 161.267C322.702 160.595 321.778 160.245 320.63 160.245C319.468 160.245 318.544 160.595 317.872 161.267C317.172 161.967 316.836 162.877 316.836 164.025C316.836 165.173 317.172 166.083 317.872 166.769C318.558 167.469 319.482 167.805 320.63 167.805ZM320.63 166.055C320.112 166.055 319.72 165.887 319.454 165.537C319.174 165.201 319.048 164.697 319.048 164.025C319.048 163.367 319.174 162.863 319.454 162.513C319.72 162.177 320.112 161.995 320.63 161.995C321.134 161.995 321.512 162.177 321.792 162.513C322.058 162.863 322.198 163.367 322.198 164.025C322.198 164.697 322.058 165.201 321.792 165.537C321.512 165.887 321.134 166.055 320.63 166.055ZM329.343 159.293V157.669C328.979 157.641 328.629 157.613 328.307 157.613C327.439 157.613 326.781 157.837 326.347 158.257C325.913 158.691 325.703 159.265 325.703 159.993V160.413H324.625V162.009H325.703V167.637H327.887V162.009H329.315V160.413H327.887V160.063C327.887 159.559 328.167 159.293 328.755 159.293H329.343ZM343.14 167.637L339.388 157.669H336.574L332.906 167.637H335.328L335.902 165.901H340.046L340.634 167.637H343.14ZM337.134 162.219C337.19 162.065 337.456 161.225 337.96 159.699C338.338 160.875 338.618 161.715 338.8 162.219L339.374 163.927H336.56L337.134 162.219ZM347.622 159.293V157.669C347.258 157.641 346.908 157.613 346.586 157.613C345.718 157.613 345.06 157.837 344.626 158.257C344.192 158.691 343.982 159.265 343.982 159.993V160.413H342.904V162.009H343.982V167.637H346.166V162.009H347.594V160.413H346.166V160.063C346.166 159.559 346.446 159.293 347.034 159.293H347.622ZM352.693 160.301C351.657 160.301 350.971 160.791 350.635 161.757V160.413H348.507V167.637H350.691V164.277C350.691 162.975 351.321 162.317 352.609 162.317H353.169V160.329C352.889 160.315 352.721 160.301 352.693 160.301ZM356.2 159.587V157.739H354.114V159.587H356.2ZM356.242 167.637V160.413H354.058V167.637H356.242ZM360.933 167.805C361.941 167.805 362.767 167.539 363.425 166.993C364.069 166.447 364.433 165.719 364.503 164.795H362.333C362.235 165.607 361.773 166.013 360.933 166.013C359.925 166.013 359.435 165.355 359.435 164.025C359.435 162.695 359.925 162.023 360.933 162.023C361.717 162.023 362.165 162.401 362.291 163.129H364.461C364.349 162.247 363.985 161.547 363.355 161.029C362.725 160.511 361.913 160.245 360.933 160.245C359.799 160.245 358.903 160.595 358.231 161.267C357.559 161.953 357.223 162.877 357.223 164.025C357.223 165.173 357.559 166.083 358.231 166.769C358.903 167.469 359.799 167.805 360.933 167.805ZM372.377 167.637C372.181 167.357 372.083 166.923 372.083 166.307V162.471C372.083 160.987 371.005 160.245 368.863 160.245C366.679 160.245 365.531 161.085 365.405 162.751H367.575C367.603 162.387 367.715 162.149 367.897 162.009C368.079 161.869 368.401 161.799 368.849 161.799C369.577 161.799 369.955 162.051 369.955 162.527C369.955 162.947 369.633 163.185 369.017 163.241L367.883 163.339C365.993 163.507 365.055 164.249 365.055 165.593C365.055 166.293 365.293 166.825 365.769 167.217C366.245 167.609 366.889 167.805 367.687 167.805C368.737 167.805 369.507 167.483 369.997 166.825C369.997 167.161 370.067 167.427 370.179 167.637H372.377ZM368.345 166.335C368.009 166.335 367.743 166.265 367.561 166.111C367.365 165.971 367.281 165.761 367.281 165.509C367.281 165.005 367.631 164.725 368.331 164.641L369.227 164.543C369.577 164.501 369.815 164.403 369.955 164.263V164.795C369.955 165.313 369.801 165.705 369.521 165.957C369.227 166.209 368.835 166.335 368.345 166.335Z" fill="#006CC0"/>
<path fill-rule="evenodd" clip-rule="evenodd" d="M55.5293 146.941L54.905 150.281C61.0473 150.255 80.3766 142.487 81.2728 137.854C81.2728 137.854 81.3326 137.562 81.3893 137.247C81.4461 136.955 81.5029 136.637 81.4999 136.637C73.1348 142.799 60.4767 146.933 55.5264 146.944M54.3553 152.704L53.7757 155.778C59.6969 155.778 79.2473 147.984 80.1436 143.351L80.3915 142.026C72.7895 147.702 63.8256 151.379 54.3553 152.707M53.0975 158.309L52.5 161.52V161.637C58.475 161.491 77.9477 153.84 78.844 149.21L79.1427 147.625C72.4328 152.727 58.5049 158.332 53.1005 158.3" fill="#EE3124"/>
<g filter="url(#filter0_d_123_6804)">
<rect x="4.5" y="208.637" width="445" height="90" rx="45" fill="white"/>
</g>
<path d="M310.05 258.862C310.05 251.254 303.883 245.087 296.275 245.087C288.667 245.087 282.5 251.254 282.5 258.862C282.5 266.47 288.667 272.637 296.275 272.637C303.883 272.637 310.05 266.47 310.05 258.862Z" fill="#EE3124"/>
<path fill-rule="evenodd" clip-rule="evenodd" d="M290.709 257.77L290.406 259.429C293.387 259.416 302.768 255.558 303.203 253.257C303.203 253.257 303.232 253.112 303.26 252.955C303.287 252.81 303.315 252.652 303.313 252.652C299.253 255.713 293.11 257.766 290.707 257.772M290.139 260.633L289.857 262.16C292.731 262.16 302.22 258.288 302.655 255.987L302.775 255.329C299.086 258.148 294.735 259.975 290.139 260.634M289.528 263.417L289.238 265.012V265.07C292.138 264.997 301.589 261.197 302.024 258.897L302.169 258.11C298.913 260.644 292.153 263.428 289.53 263.412" fill="white"/>
<path d="M323.806 256.861C325.066 256.861 326.144 256.511 327.026 255.797C327.894 255.097 328.398 254.089 328.552 252.801H326.186C326.074 253.445 325.794 253.935 325.374 254.285C324.94 254.649 324.422 254.817 323.806 254.817C322.994 254.817 322.378 254.551 321.944 253.991C321.51 253.445 321.3 252.661 321.3 251.653C321.3 250.645 321.51 249.875 321.944 249.315C322.378 248.769 322.994 248.489 323.806 248.489C324.394 248.489 324.884 248.643 325.29 248.951C325.696 249.259 325.976 249.679 326.13 250.239H328.524C328.342 249.035 327.81 248.097 326.942 247.425C326.074 246.781 325.038 246.445 323.806 246.445C322.28 246.445 321.076 246.921 320.18 247.845C319.284 248.783 318.836 250.057 318.836 251.653C318.836 253.249 319.284 254.509 320.208 255.447C321.118 256.399 322.322 256.861 323.806 256.861ZM333.693 249.301C332.657 249.301 331.971 249.791 331.635 250.757V249.413H329.507V256.637H331.691V253.277C331.691 251.975 332.321 251.317 333.609 251.317H334.169V249.329C333.889 249.315 333.721 249.301 333.693 249.301ZM341.938 253.235C341.938 252.031 341.602 251.051 340.93 250.323C340.23 249.609 339.334 249.245 338.214 249.245C337.08 249.245 336.184 249.595 335.512 250.281C334.826 250.967 334.49 251.877 334.49 253.025C334.49 254.173 334.826 255.083 335.526 255.769C336.212 256.469 337.122 256.805 338.242 256.805C339.124 256.805 339.88 256.595 340.524 256.161C341.154 255.727 341.574 255.139 341.77 254.383H339.698C339.432 254.929 338.942 255.195 338.242 255.195C337.794 255.195 337.416 255.069 337.136 254.803C336.842 254.551 336.66 254.173 336.59 253.669H341.938V253.235ZM338.186 250.855C338.62 250.855 338.984 250.981 339.264 251.233C339.544 251.485 339.712 251.835 339.796 252.283H336.604C336.758 251.331 337.29 250.855 338.186 250.855ZM347.93 250.281C347.426 249.595 346.726 249.245 345.816 249.245C344.836 249.245 344.08 249.595 343.52 250.267C342.946 250.953 342.666 251.877 342.666 253.025C342.666 254.187 342.946 255.111 343.52 255.783C344.08 256.469 344.836 256.805 345.816 256.805C346.768 256.805 347.496 256.441 347.986 255.699V256.637H350.114V246.669H347.93V250.281ZM346.418 255.055C345.382 255.055 344.878 254.397 344.878 253.081C344.878 252.409 345.004 251.905 345.284 251.541C345.55 251.177 345.928 250.995 346.418 250.995C347.454 250.995 347.972 251.681 347.972 253.025C347.972 254.383 347.454 255.055 346.418 255.055ZM353.51 248.587V246.739H351.424V248.587H353.51ZM353.552 256.637V249.413H351.368V256.637H353.552ZM358.999 249.413H357.613V247.271H355.429V249.413H354.351V251.009H355.429V254.621C355.429 255.363 355.625 255.895 356.031 256.217C356.423 256.539 357.081 256.693 357.991 256.693C358.397 256.693 358.733 256.679 358.999 256.637V255.013H358.439C358.131 255.013 357.907 254.971 357.795 254.887C357.669 254.803 357.613 254.635 357.613 254.383V251.009H358.999V249.413ZM367.506 249.245C366.582 249.245 365.868 249.595 365.378 250.295V246.669H363.194V256.637H365.322V255.671C365.812 256.427 366.54 256.805 367.506 256.805C368.472 256.805 369.242 256.469 369.816 255.783C370.376 255.111 370.656 254.187 370.656 253.025C370.656 251.877 370.376 250.953 369.816 250.267C369.242 249.595 368.472 249.245 367.506 249.245ZM366.904 255.055C365.868 255.055 365.35 254.383 365.35 253.025C365.35 251.681 365.868 250.995 366.904 250.995C367.926 250.995 368.444 251.653 368.444 252.969C368.444 253.641 368.304 254.159 368.038 254.523C367.758 254.887 367.38 255.055 366.904 255.055ZM378.533 256.637C378.337 256.357 378.239 255.923 378.239 255.307V251.471C378.239 249.987 377.161 249.245 375.019 249.245C372.835 249.245 371.687 250.085 371.561 251.751H373.731C373.759 251.387 373.871 251.149 374.053 251.009C374.235 250.869 374.557 250.799 375.005 250.799C375.733 250.799 376.111 251.051 376.111 251.527C376.111 251.947 375.789 252.185 375.173 252.241L374.039 252.339C372.149 252.507 371.211 253.249 371.211 254.593C371.211 255.293 371.449 255.825 371.925 256.217C372.401 256.609 373.045 256.805 373.843 256.805C374.893 256.805 375.663 256.483 376.153 255.825C376.153 256.161 376.223 256.427 376.335 256.637H378.533ZM374.501 255.335C374.165 255.335 373.899 255.265 373.717 255.111C373.521 254.971 373.437 254.761 373.437 254.509C373.437 254.005 373.787 253.725 374.487 253.641L375.383 253.543C375.733 253.501 375.971 253.403 376.111 253.263V253.795C376.111 254.313 375.957 254.705 375.677 254.957C375.383 255.209 374.991 255.335 374.501 255.335ZM383.792 249.245C382.84 249.245 382.084 249.651 381.524 250.435V249.413H379.396V256.637H381.58V252.605C381.58 252.129 381.706 251.765 381.972 251.499C382.224 251.247 382.56 251.107 382.952 251.107C383.722 251.107 384.114 251.527 384.114 252.339V256.637H386.298V251.905C386.298 251.065 386.06 250.407 385.612 249.945C385.164 249.483 384.548 249.245 383.792 249.245ZM395.034 256.637L392.164 252.213L394.88 249.413H392.374L389.7 252.269V246.669H387.558V256.637H389.7V254.663L390.68 253.655L392.542 256.637H395.034ZM322.63 272.805C323.778 272.805 324.688 272.469 325.388 271.769C326.06 271.097 326.41 270.173 326.41 269.025C326.41 267.877 326.06 266.953 325.388 266.267C324.702 265.595 323.778 265.245 322.63 265.245C321.468 265.245 320.544 265.595 319.872 266.267C319.172 266.967 318.836 267.877 318.836 269.025C318.836 270.173 319.172 271.083 319.872 271.769C320.558 272.469 321.482 272.805 322.63 272.805ZM322.63 271.055C322.112 271.055 321.72 270.887 321.454 270.537C321.174 270.201 321.048 269.697 321.048 269.025C321.048 268.367 321.174 267.863 321.454 267.513C321.72 267.177 322.112 266.995 322.63 266.995C323.134 266.995 323.512 267.177 323.792 267.513C324.058 267.863 324.198 268.367 324.198 269.025C324.198 269.697 324.058 270.201 323.792 270.537C323.512 270.887 323.134 271.055 322.63 271.055ZM331.343 264.293V262.669C330.979 262.641 330.629 262.613 330.307 262.613C329.439 262.613 328.781 262.837 328.347 263.257C327.913 263.691 327.703 264.265 327.703 264.993V265.413H326.625V267.009H327.703V272.637H329.887V267.009H331.315V265.413H329.887V265.063C329.887 264.559 330.167 264.293 330.755 264.293H331.343ZM345.14 272.637L341.388 262.669H338.574L334.906 272.637H337.328L337.902 270.901H342.046L342.634 272.637H345.14ZM339.134 267.219C339.19 267.065 339.456 266.225 339.96 264.699C340.338 265.875 340.618 266.715 340.8 267.219L341.374 268.927H338.56L339.134 267.219ZM349.622 264.293V262.669C349.258 262.641 348.908 262.613 348.586 262.613C347.718 262.613 347.06 262.837 346.626 263.257C346.192 263.691 345.982 264.265 345.982 264.993V265.413H344.904V267.009H345.982V272.637H348.166V267.009H349.594V265.413H348.166V265.063C348.166 264.559 348.446 264.293 349.034 264.293H349.622ZM354.693 265.301C353.657 265.301 352.971 265.791 352.635 266.757V265.413H350.507V272.637H352.691V269.277C352.691 267.975 353.321 267.317 354.609 267.317H355.169V265.329C354.889 265.315 354.721 265.301 354.693 265.301ZM358.2 264.587V262.739H356.114V264.587H358.2ZM358.242 272.637V265.413H356.058V272.637H358.242ZM362.933 272.805C363.941 272.805 364.767 272.539 365.425 271.993C366.069 271.447 366.433 270.719 366.503 269.795H364.333C364.235 270.607 363.773 271.013 362.933 271.013C361.925 271.013 361.435 270.355 361.435 269.025C361.435 267.695 361.925 267.023 362.933 267.023C363.717 267.023 364.165 267.401 364.291 268.129H366.461C366.349 267.247 365.985 266.547 365.355 266.029C364.725 265.511 363.913 265.245 362.933 265.245C361.799 265.245 360.903 265.595 360.231 266.267C359.559 266.953 359.223 267.877 359.223 269.025C359.223 270.173 359.559 271.083 360.231 271.769C360.903 272.469 361.799 272.805 362.933 272.805ZM374.377 272.637C374.181 272.357 374.083 271.923 374.083 271.307V267.471C374.083 265.987 373.005 265.245 370.863 265.245C368.679 265.245 367.531 266.085 367.405 267.751H369.575C369.603 267.387 369.715 267.149 369.897 267.009C370.079 266.869 370.401 266.799 370.849 266.799C371.577 266.799 371.955 267.051 371.955 267.527C371.955 267.947 371.633 268.185 371.017 268.241L369.883 268.339C367.993 268.507 367.055 269.249 367.055 270.593C367.055 271.293 367.293 271.825 367.769 272.217C368.245 272.609 368.889 272.805 369.687 272.805C370.737 272.805 371.507 272.483 371.997 271.825C371.997 272.161 372.067 272.427 372.179 272.637H374.377ZM370.345 271.335C370.009 271.335 369.743 271.265 369.561 271.111C369.365 270.971 369.281 270.761 369.281 270.509C369.281 270.005 369.631 269.725 370.331 269.641L371.227 269.543C371.577 269.501 371.815 269.403 371.955 269.263V269.795C371.955 270.313 371.801 270.705 371.521 270.957C371.227 271.209 370.835 271.335 370.345 271.335Z" fill="#006CC0"/>
<g clip-path="url(#clip2_123_6804)">
<path d="M220.5 233.637H158.5C156.291 233.637 154.5 235.428 154.5 237.637V279.637C154.5 281.846 156.291 283.637 158.5 283.637H220.5C222.709 283.637 224.5 281.846 224.5 279.637V237.637C224.5 235.428 222.709 233.637 220.5 233.637Z" fill="#F5F7F9"/>
<path fill-rule="evenodd" clip-rule="evenodd" d="M183.008 245.144L182.649 246.912C186.188 246.898 197.323 242.783 197.841 240.327C197.841 240.327 197.875 240.166 197.908 240.005C197.941 239.843 197.974 239.682 197.972 239.682C193.148 242.948 185.86 245.137 183.008 245.144ZM182.333 248.196L182.001 249.825C185.413 249.818 196.675 245.696 197.192 243.241L197.335 242.541C192.347 246.015 185.361 248.115 182.335 248.2M181.601 251.167L181.254 252.874V252.934C184.704 252.856 195.915 248.802 196.431 246.351L196.601 245.511C192.735 248.211 184.712 251.184 181.601 251.167Z" fill="#EE3124"/>
<path d="M176.064 275.075C177.504 275.075 178.736 274.675 179.744 273.859C180.736 273.059 181.312 271.907 181.488 270.435H178.784C178.656 271.171 178.336 271.731 177.856 272.131C177.36 272.547 176.768 272.739 176.064 272.739C175.136 272.739 174.432 272.435 173.936 271.795C173.44 271.171 173.2 270.275 173.2 269.123C173.2 267.971 173.44 267.091 173.936 266.451C174.432 265.827 175.136 265.507 176.064 265.507C176.736 265.507 177.296 265.683 177.76 266.035C178.224 266.387 178.544 266.867 178.72 267.507H181.456C181.248 266.131 180.64 265.059 179.648 264.291C178.656 263.555 177.472 263.171 176.064 263.171C174.32 263.171 172.944 263.715 171.92 264.771C170.896 265.843 170.384 267.299 170.384 269.123C170.384 270.947 170.896 272.387 171.952 273.459C172.992 274.547 174.368 275.075 176.064 275.075ZM187.893 271.171C187.893 271.715 187.733 272.147 187.445 272.435C187.141 272.739 186.773 272.883 186.325 272.883C185.429 272.883 184.997 272.419 184.997 271.475V266.563H182.501V271.971C182.501 272.947 182.757 273.699 183.269 274.227C183.781 274.755 184.485 275.011 185.365 275.011C186.453 275.011 187.317 274.563 187.957 273.651V274.819H190.389V266.563H187.893V271.171ZM196.757 266.371C195.701 266.371 194.885 266.771 194.325 267.571V263.427H191.829V274.819H194.261V273.715C194.821 274.579 195.653 275.011 196.757 275.011C197.861 275.011 198.741 274.627 199.397 273.843C200.037 273.075 200.357 272.019 200.357 270.691C200.357 269.379 200.037 268.323 199.397 267.539C198.741 266.771 197.861 266.371 196.757 266.371ZM196.069 273.011C194.885 273.011 194.293 272.243 194.293 270.691C194.293 269.155 194.885 268.371 196.069 268.371C197.237 268.371 197.829 269.123 197.829 270.627C197.829 271.395 197.669 271.987 197.365 272.403C197.045 272.819 196.613 273.011 196.069 273.011ZM209.36 274.819C209.135 274.499 209.024 274.003 209.024 273.299V268.915C209.024 267.219 207.792 266.371 205.344 266.371C202.848 266.371 201.536 267.331 201.392 269.235H203.872C203.904 268.819 204.032 268.547 204.24 268.387C204.448 268.227 204.816 268.147 205.328 268.147C206.16 268.147 206.592 268.435 206.592 268.979C206.592 269.459 206.224 269.731 205.52 269.795L204.224 269.907C202.064 270.099 200.992 270.947 200.992 272.483C200.992 273.283 201.264 273.891 201.808 274.339C202.352 274.787 203.088 275.011 204 275.011C205.2 275.011 206.08 274.643 206.64 273.891C206.64 274.275 206.72 274.579 206.848 274.819H209.36ZM204.752 273.331C204.368 273.331 204.064 273.251 203.856 273.075C203.632 272.915 203.536 272.675 203.536 272.387C203.536 271.811 203.936 271.491 204.736 271.395L205.76 271.283C206.16 271.235 206.432 271.123 206.592 270.963V271.571C206.592 272.163 206.416 272.611 206.096 272.899C205.76 273.187 205.312 273.331 204.752 273.331Z" fill="#006CC0"/>
</g>
<path fill-rule="evenodd" clip-rule="evenodd" d="M55.5293 255.941L54.905 259.281C61.0473 259.255 80.3766 251.487 81.2728 246.854C81.2728 246.854 81.3326 246.562 81.3893 246.247C81.4461 245.955 81.5029 245.637 81.4999 245.637C73.1348 251.799 60.4767 255.933 55.5264 255.944M54.3553 261.704L53.7757 264.778C59.6969 264.778 79.2473 256.984 80.1436 252.351L80.3915 251.026C72.7895 256.702 63.8256 260.379 54.3553 261.707M53.0975 267.309L52.5 270.52V270.637C58.475 270.491 77.9477 262.84 78.844 258.21L79.1427 256.625C72.4328 261.727 58.5049 267.332 53.1005 267.3" fill="#EE3124"/>
<defs>
<filter id="filter0_d_123_6804" x="0.5" y="208.637" width="453" height="98" filterUnits="userSpaceOnUse" color-interpolation-filters="sRGB">
<feFlood flood-opacity="0" result="BackgroundImageFix"/>
<feColorMatrix in="SourceAlpha" type="matrix" values="0 0 0 0 0 0 0 0 0 0 0 0 0 0 0 0 0 0 127 0" result="hardAlpha"/>
<feOffset dy="4"/>
<feGaussianBlur stdDeviation="2"/>
<feComposite in2="hardAlpha" operator="out"/>
<feColorMatrix type="matrix" values="0 0 0 0 0 0 0 0 0 0 0 0 0 0 0 0 0 0 0.05 0"/>
<feBlend mode="normal" in2="BackgroundImageFix" result="effect1_dropShadow_123_6804"/>
<feBlend mode="normal" in="SourceGraphic" in2="effect1_dropShadow_123_6804" result="shape"/>
</filter>
<clipPath id="clip0_123_6804">
<rect width="70" height="50.365" fill="white" transform="translate(154.5 20.6367)"/>
</clipPath>
<clipPath id="clip1_123_6804">
<rect width="70" height="50.365" fill="white" transform="translate(154.5 125.637)"/>
</clipPath>
<clipPath id="clip2_123_6804">
<rect width="70" height="50" fill="white" transform="translate(154.5 233.637)"/>
</clipPath>
</defs>
</svg>
