<svg width="39" height="69" viewBox="0 0 39 69" fill="none" xmlns="http://www.w3.org/2000/svg">
<path fill-rule="evenodd" clip-rule="evenodd" d="M9.75845 0.523595C9.05642 0.577805 8.9433 0.606833 8.16325 0.933001C6.85269 1.48091 5.91382 2.2511 5.48963 3.1263C5.28697 3.54445 5.25202 3.69553 5.22761 4.25855C5.19903 4.91732 5.33296 5.57189 5.59055 6.03306C5.67891 6.19122 5.66282 6.2492 5.38705 6.76752C4.54001 8.3594 4.55173 9.80677 5.42173 11.0562C5.8489 11.6696 6.41187 12.1699 7.14025 12.5834C7.45498 12.7619 7.71244 12.9262 7.71244 12.9483C7.71244 12.9705 7.57456 13.2578 7.40609 13.5869C6.98149 14.416 6.51999 15.5741 6.23147 16.5342C5.14875 20.1375 5.44185 23.7258 7.09079 27.0557C7.35754 27.5943 7.77784 28.3183 8.02489 28.6645L8.47411 29.294L8.47473 29.9981C8.47508 30.3854 8.44199 30.8891 8.40121 31.1173C7.87688 34.0537 5.96576 38.9909 2.82607 45.5203C1.4834 48.3127 0.879935 50.2822 0.604105 52.7725C0.144272 56.9235 1.22047 61.0614 3.58039 64.2159C4.79621 65.8411 7.03337 67.0987 10.0012 67.8251C11.9582 68.3041 13.8621 68.5 16.5611 68.5C19.1843 68.5 21.7086 68.2857 24.0805 67.8619C24.5192 67.7834 24.9781 67.7022 25.1001 67.6813C25.304 67.6466 25.3427 67.594 25.5729 67.04C26.0116 65.9837 26.174 65.2351 26.2122 64.0933C26.2744 62.2333 25.84 60.78 24.7149 59.0836C23.9087 57.868 23.1328 57.0823 21.3876 55.7142C19.9366 54.5768 16.547 51.2937 15.404 49.9185C13.3699 47.4714 12.715 45.6727 12.9096 43.0682C13.0319 41.4315 13.409 39.9707 14.0623 38.6025C14.5453 37.5909 14.9468 37.2102 15.7741 36.9792C16.7315 36.7118 18.5 36.9366 19.526 37.4559C20.1856 37.7898 21.0763 38.1325 21.75 38.3116C23.4164 38.7547 24.2104 38.546 24.549 37.5762C24.635 37.3298 24.7743 36.9709 24.8585 36.7785C25.4695 35.383 27.3777 32.5525 27.6755 32.6001C28.0721 32.6634 29.1023 32.6981 29.3719 32.6574C29.7743 32.5965 30.1149 32.2999 30.1136 32.0115C30.1131 31.9019 30.0531 31.6233 29.9802 31.3925C28.9806 28.2272 28.5887 26.8856 28.5887 26.6291C28.5887 26.3221 28.8875 25.3339 29.1863 24.6523C29.7884 23.2792 29.9608 19.9943 29.5298 18.1077C28.7237 14.5793 26.4837 11.9163 22.7463 10.0426C22.0908 9.71409 20.7812 9.19171 20.245 9.04503C20.014 8.9818 19.9231 8.92465 19.9484 8.85841C20.0625 8.55833 20.1405 7.74763 20.1113 7.16315C20.054 6.01194 19.6457 5.09212 18.8143 4.24064C17.8768 3.28053 16.5843 2.54685 15.0239 2.08903C14.6541 1.98055 14.3025 1.81351 13.9906 1.59807C13.3621 1.16411 12.996 0.983434 12.2923 0.75974C11.6051 0.541222 10.6647 0.453647 9.75845 0.523595ZM28.7017 26.2688C28.5709 26.7612 28.6861 26.9927 29.1612 27.1929C29.445 27.3126 30.1612 27.3358 30.3226 27.2306C30.411 27.1729 30.408 27.1626 30.3025 27.1617C30.1762 27.1606 29.629 26.9043 29.629 26.8461C29.629 26.8287 29.7091 26.845 29.8069 26.8826C29.9048 26.9201 30.131 26.949 30.3098 26.9467L30.6347 26.9427L30.1839 26.8239C29.7261 26.7032 29.171 26.4183 29.0082 26.2204C28.8804 26.0651 28.7504 26.0857 28.7017 26.2688ZM32.9581 36.8834C32.709 37.1347 32.7993 37.3221 33.4652 37.9366C34.4827 38.8756 35.0166 40.0594 35.1352 41.6399C35.1796 42.2313 35.145 42.187 34.8625 41.2902C34.2258 39.2693 32.9886 37.9222 31.4286 37.5514C30.8198 37.4066 30.6206 37.4135 30.531 37.5823C30.4759 37.6862 30.4828 37.7716 30.5584 37.9191C30.66 38.1172 30.7743 38.2052 31.6741 38.7783C31.9405 38.9479 32.3931 39.3257 32.6797 39.6178C33.5943 40.5495 33.9857 41.4175 34.0493 42.6541C34.069 43.0389 34.069 43.3379 34.0492 43.3187C34.0294 43.2994 33.8537 42.8776 33.6589 42.3811C32.8967 40.4394 32.0413 39.2255 31.094 38.7415C30.6638 38.5215 30.6301 38.5208 30.4957 38.7276C30.3415 38.965 30.4449 39.183 30.994 39.7776C31.4449 40.266 32.0404 41.1198 32.3175 41.6749C32.7623 42.5663 33.096 43.9782 33.0966 44.9715C33.0969 45.4565 33.0883 45.4815 32.7828 45.8781C32.279 46.5324 31.8847 46.8161 31.479 46.8161C31.2621 46.8161 31.2278 46.7877 31.1187 46.5188C30.9492 46.1009 30.964 45.1849 31.1511 44.5078C31.2309 44.2192 31.3473 43.7943 31.4098 43.5635C31.5454 43.0632 31.5675 41.87 31.4488 41.465C31.3181 41.019 30.9376 40.4411 30.6085 40.1886C30.4415 40.0605 30.2854 39.9753 30.2617 39.9993C30.238 40.0233 30.2167 40.6304 30.2145 41.3485C30.21 42.7626 30.0941 43.6089 29.622 45.6756C29.4359 46.4902 29.3964 46.8217 29.3698 47.7953C29.3258 49.4025 29.5026 50.7035 30.0159 52.5518C30.3156 53.6307 30.9827 57.9059 31.2711 60.5959C31.4225 62.0073 31.4497 65.4977 31.3128 65.943C31.2662 66.0947 31.2398 66.2307 31.2543 66.2453C31.3026 66.294 32.7336 65.7824 33.1781 65.5574C34.1279 65.0768 35.1358 64.3184 35.7644 63.6115C36.438 62.8539 37.1405 61.658 37.0155 61.4815C36.9773 61.4276 36.7629 61.167 36.5389 60.9022C35.6174 59.8133 34.6157 58.0647 34.2104 56.838C33.8666 55.7972 33.7716 55.1666 33.8017 54.1264L33.8286 53.198L34.2999 52.2305C34.9344 50.928 35.7458 49.5055 36.5335 48.3144C37.2559 47.2223 37.6502 46.3374 38.0579 44.8939C38.6436 42.8203 38.6472 41.3496 38.0694 40.2856C37.8207 39.8278 37.6407 39.7253 37.4403 39.9274C37.3017 40.0672 37.2992 40.3815 37.4306 41.1153C37.6717 42.4612 37.4992 43.8387 36.9976 44.573C36.6057 45.1468 36.5647 45.1228 36.5647 44.3208C36.5647 43.4192 36.3965 41.991 36.1868 41.1116C35.6574 38.8918 34.8039 37.5344 33.5331 36.8913C33.1732 36.7092 33.1315 36.7086 32.9581 36.8834ZM15.2029 48.3313C15.2029 48.428 15.9796 49.5631 16.4397 50.1386C17.2988 51.2135 18.8658 52.7352 20.3006 53.8882C21.2178 54.6252 22.4471 55.5006 22.4695 55.4328C22.5147 55.2959 22.1356 53.6036 21.9242 52.9993C21.5097 51.814 21.0432 51.0214 20.308 50.2532C19.3992 49.3036 18.3805 48.7411 17.054 48.4564C16.4421 48.3251 15.2029 48.2413 15.2029 48.3313Z" fill="#33005C"/>
</svg>
