<svg width="45" height="63" viewBox="0 0 45 63" fill="none" xmlns="http://www.w3.org/2000/svg">
<path fill-rule="evenodd" clip-rule="evenodd" d="M39.6531 1.00926C36.9641 1.42752 36.3292 1.56549 36.0966 1.78183C35.8162 2.04258 35.8133 2.08036 35.8133 5.50196V8.95853L35.254 8.91348C32.9754 8.72981 31.6948 11.3958 33.553 12.4547C34.5439 13.0193 36.0786 12.6986 36.7457 11.7875C36.9949 11.447 37.0127 11.2289 37.0722 7.76873C37.1259 4.65014 37.163 4.10488 37.324 4.07642C37.4279 4.05804 38.8018 3.85064 40.377 3.61567L43.2411 3.18822V5.4518V7.71538L42.3775 7.7649C40.991 7.84429 40.0937 8.6503 40.0937 9.81635C40.0937 11.7519 43.1663 12.2627 44.187 10.4968L44.5 9.95535V5.4675C44.5 1.14979 44.4904 0.969951 44.2482 0.724384C43.908 0.379519 43.564 0.400833 39.6531 1.00926ZM20.2165 4.24464C18.6534 4.67081 17.1038 5.86878 16.3283 7.25067C15.1616 9.32943 15.2542 11.9984 16.5617 13.9833C17.4218 15.2893 18.8822 16.33 20.3283 16.6677C21.1556 16.8608 22.559 16.8348 23.4083 16.6105C26.4473 15.8081 28.4943 12.669 28.0249 9.53109C27.4649 5.78824 23.7584 3.27884 20.2165 4.24464ZM28.9054 14.333C28.006 14.7874 27.5925 15.4303 27.531 16.4701C27.4734 17.4436 27.8368 18.2206 28.6066 18.7705C29.1841 19.1829 30.1447 19.3464 30.7443 19.1345C31.0655 19.0209 31.1844 19.0652 31.8187 19.5339C32.211 19.8237 32.5338 20.102 32.5359 20.1521C32.5486 20.4352 29.9071 24.7478 29.7569 24.6892C29.7096 24.6707 29.3324 24.1915 28.9186 23.6241C27.4938 21.6708 25.8396 20.3055 24.0379 19.5964C22.2935 18.9096 15.423 16.9193 14.5557 16.8493C13.3488 16.7521 12.068 17.0629 10.5715 17.816C9.04318 18.5854 7.74773 19.6222 5.90829 21.5482C4.24674 23.2879 3.19338 24.9038 1.59478 28.1656C0.505917 30.3872 0.5 30.4044 0.5 31.3774C0.5 32.2583 0.537516 32.4095 0.877682 32.8991C1.44383 33.7141 2.18774 34.0672 3.2207 34.0115C4.65262 33.9342 4.85292 33.7249 6.28118 30.8122C7.86216 27.5882 8.68148 26.3256 10.0564 24.9948C10.6615 24.4091 11.1797 23.9534 11.2081 23.982C11.2364 24.0107 10.5009 26.6234 9.57382 29.7878C8.64673 32.9524 7.82754 35.849 7.75339 36.225C7.67937 36.6009 7.55851 38.7751 7.48486 41.0566C7.29337 46.9892 7.26782 47.1813 6.46952 48.6825C5.69804 50.1333 3.42767 54.0183 2.19076 56.0038C1.71009 56.7754 1.20929 57.6206 1.07773 57.8818C-0.00269562 60.0289 1.53837 62.5029 3.95302 62.4977C4.61258 62.4963 5.64945 62.0496 6.0586 61.5905C6.7475 60.8175 11.3591 52.9651 12.4474 50.7122C13.3776 48.7866 13.3773 48.7878 13.7565 41.7905L13.8448 40.1631L14.789 41.2726C16.5364 43.3259 18.0907 45.4746 18.6863 46.6606C18.9653 47.216 18.967 47.2524 18.8283 49.5323C18.7509 50.8024 18.57 53.4211 18.4261 55.3515C18.2823 57.282 18.1864 59.2143 18.2129 59.6456C18.3353 61.6283 20.2066 62.924 22.1506 62.3722C23.1465 62.0895 24.0678 61.0654 24.2757 60.0101C24.4398 59.1778 25.0126 50.3134 25.0303 48.3317C25.0462 46.5791 25.0101 46.1079 24.8149 45.5237C24.2381 43.7957 22.7265 41.2294 20.9121 38.8979C20.4526 38.3073 20.0765 37.7655 20.0765 37.6939C20.0765 37.6223 20.8442 35.1189 21.7825 32.1308C22.7209 29.1426 23.5461 26.5134 23.6162 26.288L23.7437 25.8781L24.0897 26.288C24.28 26.5134 24.7798 27.186 25.2006 27.7827C26.7254 29.9456 27.9931 30.8446 29.6611 30.9461C30.5592 31.0007 30.6722 30.9775 31.3923 30.5883C32.7913 29.8323 34.5756 27.6522 36.2196 24.6905L36.9086 23.449L37.5864 23.9616C38.3405 24.5321 38.6828 24.6582 39.1526 24.5386C39.6658 24.4081 39.9678 24.0112 39.9678 23.4675C39.9678 22.8761 39.8695 22.7358 38.8558 21.8815C38.0838 21.231 38.0574 21.1888 38.0241 20.5556C37.9525 19.1886 36.9345 18.0916 35.6364 17.9825C35.2574 17.9507 34.77 17.9872 34.5535 18.0638C34.1852 18.1938 34.1103 18.1633 33.4004 17.595C32.6845 17.0218 32.6385 16.952 32.5933 16.37C32.5217 15.4497 32.051 14.7301 31.2582 14.3297C30.4126 13.9025 29.7558 13.9034 28.9054 14.333Z" fill="#33005C"/>
</svg>
