<svg width="807" height="251" viewBox="0 0 807 251" fill="none" xmlns="http://www.w3.org/2000/svg">
<g filter="url(#filter0_d_219_5689)">
<rect width="743" height="186" transform="translate(32 28.5039)" fill="white"/>
<path d="M151.209 102.504H149.629C149.442 102.504 149.289 102.457 149.169 102.364C149.049 102.257 148.956 102.124 148.889 101.964L145.549 93.7439H131.649L128.329 101.964C128.276 102.111 128.182 102.237 128.049 102.344C127.916 102.451 127.756 102.504 127.569 102.504H126.009L137.589 74.2039H139.629L151.209 102.504ZM132.269 92.2239H144.949L139.169 77.9239C139.076 77.6972 138.982 77.4439 138.889 77.1639C138.796 76.8706 138.702 76.5639 138.609 76.2439C138.516 76.5639 138.422 76.8706 138.329 77.1639C138.236 77.4439 138.142 77.7039 138.049 77.9439L132.269 92.2239ZM167.43 102.504C167.03 102.504 166.784 102.317 166.69 101.944L166.41 99.4039C165.864 99.9372 165.317 100.417 164.77 100.844C164.237 101.271 163.677 101.631 163.09 101.924C162.504 102.217 161.87 102.437 161.19 102.584C160.51 102.744 159.764 102.824 158.95 102.824C158.27 102.824 157.61 102.724 156.97 102.524C156.33 102.324 155.764 102.017 155.27 101.604C154.777 101.191 154.377 100.664 154.07 100.024C153.777 99.3706 153.63 98.5906 153.63 97.6839C153.63 96.8439 153.87 96.0639 154.35 95.3439C154.83 94.6239 155.577 93.9972 156.59 93.4639C157.617 92.9306 158.93 92.5039 160.53 92.1839C162.144 91.8639 164.077 91.6772 166.33 91.6239V89.5439C166.33 87.7039 165.93 86.2906 165.13 85.3039C164.344 84.3039 163.17 83.8039 161.61 83.8039C160.65 83.8039 159.83 83.9372 159.15 84.2039C158.484 84.4706 157.917 84.7639 157.45 85.0839C156.984 85.4039 156.604 85.6972 156.31 85.9639C156.017 86.2306 155.77 86.3639 155.57 86.3639C155.304 86.3639 155.104 86.2439 154.97 86.0039L154.63 85.4239C155.67 84.3839 156.764 83.5972 157.91 83.0639C159.057 82.5306 160.357 82.2639 161.81 82.2639C162.877 82.2639 163.81 82.4372 164.61 82.7839C165.41 83.1172 166.07 83.6039 166.59 84.2439C167.124 84.8706 167.524 85.6372 167.79 86.5439C168.057 87.4372 168.19 88.4372 168.19 89.5439V102.504H167.43ZM159.43 101.444C160.204 101.444 160.91 101.364 161.55 101.204C162.204 101.031 162.804 100.797 163.35 100.504C163.91 100.197 164.43 99.8372 164.91 99.4239C165.39 99.0106 165.864 98.5639 166.33 98.0839V92.9039C164.437 92.9572 162.804 93.1039 161.43 93.3439C160.07 93.5706 158.944 93.8839 158.05 94.2839C157.17 94.6839 156.517 95.1639 156.09 95.7239C155.677 96.2706 155.47 96.8972 155.47 97.6039C155.47 98.2706 155.577 98.8506 155.79 99.3439C156.017 99.8239 156.31 100.224 156.67 100.544C157.03 100.851 157.45 101.077 157.93 101.224C158.41 101.371 158.91 101.444 159.43 101.444ZM184.858 101.024H191.358V78.0639C191.358 77.6106 191.378 77.1306 191.418 76.6239L185.178 82.1639C185.044 82.2839 184.884 82.3439 184.698 82.3439C184.471 82.3439 184.298 82.2639 184.178 82.1039L183.598 81.3039L191.778 74.0839H193.258V101.024H199.438V102.504H184.858V101.024ZM213.921 73.8839C215.001 73.8839 216.028 74.0439 217.001 74.3639C217.988 74.6706 218.854 75.1439 219.601 75.7839C220.348 76.4106 220.941 77.2039 221.381 78.1639C221.821 79.1106 222.041 80.2239 222.041 81.5039C222.041 82.5706 221.874 83.5639 221.541 84.4839C221.221 85.3906 220.781 86.2639 220.221 87.1039C219.661 87.9439 219.008 88.7639 218.261 89.5639C217.528 90.3506 216.754 91.1572 215.941 91.9839L207.081 101.024C207.508 100.917 207.948 100.837 208.401 100.784C208.868 100.731 209.334 100.704 209.801 100.704H222.021C222.234 100.704 222.401 100.771 222.521 100.904C222.654 101.024 222.721 101.184 222.721 101.384V102.504H204.461V101.824C204.461 101.677 204.494 101.531 204.561 101.384C204.641 101.224 204.734 101.091 204.841 100.984L214.501 91.2039C215.301 90.3906 216.041 89.6039 216.721 88.8439C217.401 88.0839 217.988 87.3172 218.481 86.5439C218.988 85.7706 219.381 84.9772 219.661 84.1639C219.954 83.3506 220.101 82.4839 220.101 81.5639C220.101 80.5239 219.928 79.6239 219.581 78.8639C219.234 78.0906 218.768 77.4572 218.181 76.9639C217.608 76.4706 216.941 76.1039 216.181 75.8639C215.434 75.6239 214.648 75.5039 213.821 75.5039C212.928 75.5039 212.101 75.6439 211.341 75.9239C210.594 76.1906 209.928 76.5706 209.341 77.0639C208.768 77.5439 208.288 78.1239 207.901 78.8039C207.528 79.4706 207.268 80.2039 207.121 81.0039C206.988 81.4706 206.721 81.7039 206.321 81.7039C206.294 81.7039 206.261 81.7039 206.221 81.7039C206.181 81.6906 206.148 81.6839 206.121 81.6839L205.161 81.5239C205.321 80.3106 205.648 79.2306 206.141 78.2839C206.648 77.3372 207.281 76.5372 208.041 75.8839C208.801 75.2306 209.681 74.7372 210.681 74.4039C211.681 74.0572 212.761 73.8839 213.921 73.8839ZM237.344 73.8839C238.424 73.8839 239.444 74.0372 240.404 74.3439C241.364 74.6372 242.204 75.0839 242.924 75.6839C243.657 76.2839 244.231 77.0306 244.644 77.9239C245.071 78.8172 245.284 79.8506 245.284 81.0239C245.284 81.9439 245.137 82.7772 244.844 83.5239C244.564 84.2572 244.171 84.9039 243.664 85.4639C243.171 86.0239 242.584 86.4972 241.904 86.8839C241.224 87.2572 240.484 87.5439 239.684 87.7439C241.764 88.1306 243.337 88.9372 244.404 90.1639C245.471 91.3772 246.004 92.8972 246.004 94.7239C246.004 95.8839 245.771 96.9639 245.304 97.9639C244.837 98.9506 244.197 99.8039 243.384 100.524C242.571 101.244 241.611 101.811 240.504 102.224C239.397 102.624 238.197 102.824 236.904 102.824C235.291 102.824 233.944 102.611 232.864 102.184C231.797 101.744 230.917 101.177 230.224 100.484C229.531 99.7906 228.991 99.0172 228.604 98.1639C228.217 97.2972 227.904 96.4372 227.664 95.5839L228.424 95.2639C228.584 95.1972 228.737 95.1639 228.884 95.1639C229.031 95.1639 229.171 95.1972 229.304 95.2639C229.437 95.3306 229.537 95.4572 229.604 95.6439L229.744 96.0439C229.824 96.2839 229.937 96.5839 230.084 96.9439C230.231 97.2906 230.417 97.6572 230.644 98.0439C230.884 98.4172 231.177 98.7972 231.524 99.1839C231.871 99.5572 232.291 99.8972 232.784 100.204C233.291 100.497 233.877 100.737 234.544 100.924C235.224 101.111 236.004 101.204 236.884 101.204C238.084 101.204 239.131 101.004 240.024 100.604C240.931 100.204 241.684 99.6972 242.284 99.0839C242.897 98.4572 243.351 97.7639 243.644 97.0039C243.951 96.2306 244.104 95.4839 244.104 94.7639C244.104 93.8972 243.964 93.0906 243.684 92.3439C243.417 91.5972 242.964 90.9572 242.324 90.4239C241.684 89.8772 240.837 89.4506 239.784 89.1439C238.744 88.8239 237.457 88.6639 235.924 88.6639V87.2839C237.151 87.2572 238.231 87.0972 239.164 86.8039C240.097 86.4972 240.877 86.0839 241.504 85.5639C242.131 85.0439 242.604 84.4239 242.924 83.7039C243.244 82.9839 243.404 82.1906 243.404 81.3239C243.404 80.3239 243.237 79.4572 242.904 78.7239C242.571 77.9906 242.124 77.3839 241.564 76.9039C241.004 76.4239 240.351 76.0706 239.604 75.8439C238.857 75.6172 238.077 75.5039 237.264 75.5039C236.371 75.5039 235.551 75.6372 234.804 75.9039C234.057 76.1706 233.397 76.5439 232.824 77.0239C232.251 77.5039 231.771 78.0839 231.384 78.7639C230.997 79.4306 230.711 80.1772 230.524 81.0039C230.417 81.4706 230.171 81.7039 229.784 81.7039C229.691 81.7039 229.617 81.6972 229.564 81.6839L228.584 81.5239C228.757 80.3106 229.091 79.2306 229.584 78.2839C230.077 77.3372 230.704 76.5372 231.464 75.8839C232.224 75.2306 233.104 74.7372 234.104 74.4039C235.104 74.0572 236.184 73.8839 237.344 73.8839Z" fill="black"/>
<path d="M152.936 149.954V164.504H151.986V149.954H152.936ZM162.802 164.504C162.602 164.504 162.479 164.411 162.432 164.224L162.292 162.954C162.019 163.221 161.745 163.461 161.472 163.674C161.205 163.887 160.925 164.067 160.632 164.214C160.339 164.361 160.022 164.471 159.682 164.544C159.342 164.624 158.969 164.664 158.562 164.664C158.222 164.664 157.892 164.614 157.572 164.514C157.252 164.414 156.969 164.261 156.722 164.054C156.475 163.847 156.275 163.584 156.122 163.264C155.975 162.937 155.902 162.547 155.902 162.094C155.902 161.674 156.022 161.284 156.262 160.924C156.502 160.564 156.875 160.251 157.382 159.984C157.895 159.717 158.552 159.504 159.352 159.344C160.159 159.184 161.125 159.091 162.252 159.064V158.024C162.252 157.104 162.052 156.397 161.652 155.904C161.259 155.404 160.672 155.154 159.892 155.154C159.412 155.154 159.002 155.221 158.662 155.354C158.329 155.487 158.045 155.634 157.812 155.794C157.579 155.954 157.389 156.101 157.242 156.234C157.095 156.367 156.972 156.434 156.872 156.434C156.739 156.434 156.639 156.374 156.572 156.254L156.402 155.964C156.922 155.444 157.469 155.051 158.042 154.784C158.615 154.517 159.265 154.384 159.992 154.384C160.525 154.384 160.992 154.471 161.392 154.644C161.792 154.811 162.122 155.054 162.382 155.374C162.649 155.687 162.849 156.071 162.982 156.524C163.115 156.971 163.182 157.471 163.182 158.024V164.504H162.802ZM158.802 163.974C159.189 163.974 159.542 163.934 159.862 163.854C160.189 163.767 160.489 163.651 160.762 163.504C161.042 163.351 161.302 163.171 161.542 162.964C161.782 162.757 162.019 162.534 162.252 162.294V159.704C161.305 159.731 160.489 159.804 159.802 159.924C159.122 160.037 158.559 160.194 158.112 160.394C157.672 160.594 157.345 160.834 157.132 161.114C156.925 161.387 156.822 161.701 156.822 162.054C156.822 162.387 156.875 162.677 156.982 162.924C157.095 163.164 157.242 163.364 157.422 163.524C157.602 163.677 157.812 163.791 158.052 163.864C158.292 163.937 158.542 163.974 158.802 163.974ZM168.899 164.664C168.225 164.664 167.699 164.477 167.319 164.104C166.945 163.731 166.759 163.154 166.759 162.374V155.574H165.329C165.255 155.574 165.195 155.554 165.149 155.514C165.102 155.474 165.079 155.417 165.079 155.344V154.974L166.779 154.854L167.019 151.294C167.025 151.234 167.049 151.181 167.089 151.134C167.135 151.087 167.195 151.064 167.269 151.064H167.719V154.864H170.849V155.574H167.719V162.324C167.719 162.597 167.752 162.834 167.819 163.034C167.892 163.227 167.989 163.387 168.109 163.514C168.235 163.641 168.382 163.734 168.549 163.794C168.715 163.854 168.895 163.884 169.089 163.884C169.329 163.884 169.535 163.851 169.709 163.784C169.882 163.711 170.032 163.634 170.159 163.554C170.285 163.467 170.389 163.391 170.469 163.324C170.549 163.251 170.612 163.214 170.659 163.214C170.712 163.214 170.765 163.247 170.819 163.314L171.079 163.734C170.825 164.014 170.502 164.241 170.109 164.414C169.722 164.581 169.319 164.664 168.899 164.664ZM177.098 154.394C177.811 154.394 178.448 154.517 179.008 154.764C179.574 155.004 180.051 155.347 180.438 155.794C180.824 156.241 181.118 156.781 181.318 157.414C181.524 158.041 181.628 158.744 181.628 159.524C181.628 160.304 181.524 161.007 181.318 161.634C181.118 162.261 180.824 162.797 180.438 163.244C180.051 163.691 179.574 164.034 179.008 164.274C178.448 164.514 177.811 164.634 177.098 164.634C176.384 164.634 175.744 164.514 175.178 164.274C174.618 164.034 174.141 163.691 173.748 163.244C173.361 162.797 173.064 162.261 172.858 161.634C172.658 161.007 172.558 160.304 172.558 159.524C172.558 158.744 172.658 158.041 172.858 157.414C173.064 156.781 173.361 156.241 173.748 155.794C174.141 155.347 174.618 155.004 175.178 154.764C175.744 154.517 176.384 154.394 177.098 154.394ZM177.098 163.884C177.691 163.884 178.208 163.784 178.648 163.584C179.094 163.377 179.464 163.084 179.758 162.704C180.058 162.324 180.281 161.867 180.428 161.334C180.574 160.794 180.648 160.191 180.648 159.524C180.648 158.864 180.574 158.264 180.428 157.724C180.281 157.184 180.058 156.724 179.758 156.344C179.464 155.957 179.094 155.661 178.648 155.454C178.208 155.247 177.691 155.144 177.098 155.144C176.504 155.144 175.984 155.247 175.538 155.454C175.098 155.661 174.728 155.957 174.428 156.344C174.134 156.724 173.911 157.184 173.758 157.724C173.611 158.264 173.538 158.864 173.538 159.524C173.538 160.191 173.611 160.794 173.758 161.334C173.911 161.867 174.134 162.324 174.428 162.704C174.728 163.084 175.098 163.377 175.538 163.584C175.984 163.784 176.504 163.884 177.098 163.884ZM189.225 149.954V164.504H188.275V149.954H189.225ZM193.971 154.554V164.504H193.021V154.554H193.971ZM194.391 151.124C194.391 151.244 194.364 151.357 194.311 151.464C194.264 151.564 194.201 151.654 194.121 151.734C194.041 151.814 193.948 151.877 193.841 151.924C193.734 151.971 193.621 151.994 193.501 151.994C193.381 151.994 193.268 151.971 193.161 151.924C193.054 151.877 192.961 151.814 192.881 151.734C192.801 151.654 192.738 151.564 192.691 151.464C192.644 151.357 192.621 151.244 192.621 151.124C192.621 151.004 192.644 150.891 192.691 150.784C192.738 150.671 192.801 150.574 192.881 150.494C192.961 150.414 193.054 150.351 193.161 150.304C193.268 150.257 193.381 150.234 193.501 150.234C193.621 150.234 193.734 150.257 193.841 150.304C193.948 150.351 194.041 150.414 194.121 150.494C194.201 150.574 194.264 150.671 194.311 150.784C194.364 150.891 194.391 151.004 194.391 151.124ZM200.767 154.384C201.201 154.384 201.601 154.437 201.967 154.544C202.341 154.651 202.674 154.801 202.967 154.994H205.517V155.324C205.517 155.491 205.424 155.581 205.237 155.594L203.727 155.704C203.914 155.957 204.057 156.244 204.157 156.564C204.257 156.877 204.307 157.214 204.307 157.574C204.307 158.054 204.221 158.491 204.047 158.884C203.874 159.271 203.631 159.604 203.317 159.884C203.011 160.157 202.641 160.371 202.207 160.524C201.774 160.677 201.294 160.754 200.767 160.754C200.194 160.754 199.674 160.667 199.207 160.494C198.927 160.654 198.707 160.844 198.547 161.064C198.387 161.284 198.307 161.497 198.307 161.704C198.307 161.991 198.407 162.211 198.607 162.364C198.807 162.517 199.071 162.631 199.397 162.704C199.731 162.771 200.107 162.814 200.527 162.834C200.954 162.854 201.384 162.877 201.817 162.904C202.257 162.924 202.687 162.964 203.107 163.024C203.534 163.084 203.911 163.191 204.237 163.344C204.571 163.491 204.837 163.701 205.037 163.974C205.237 164.241 205.337 164.597 205.337 165.044C205.337 165.457 205.234 165.854 205.027 166.234C204.821 166.614 204.521 166.951 204.127 167.244C203.741 167.537 203.271 167.771 202.717 167.944C202.164 168.124 201.544 168.214 200.857 168.214C200.157 168.214 199.544 168.141 199.017 167.994C198.491 167.854 198.047 167.661 197.687 167.414C197.334 167.174 197.067 166.894 196.887 166.574C196.707 166.254 196.617 165.914 196.617 165.554C196.617 165.027 196.791 164.574 197.137 164.194C197.484 163.814 197.961 163.521 198.567 163.314C198.234 163.201 197.967 163.037 197.767 162.824C197.574 162.611 197.477 162.314 197.477 161.934C197.477 161.794 197.504 161.647 197.557 161.494C197.611 161.341 197.691 161.191 197.797 161.044C197.904 160.891 198.031 160.747 198.177 160.614C198.331 160.481 198.507 160.361 198.707 160.254C198.234 159.981 197.864 159.617 197.597 159.164C197.337 158.711 197.207 158.181 197.207 157.574C197.207 157.094 197.291 156.661 197.457 156.274C197.631 155.881 197.871 155.544 198.177 155.264C198.491 154.984 198.867 154.767 199.307 154.614C199.747 154.461 200.234 154.384 200.767 154.384ZM204.457 165.174C204.457 164.861 204.374 164.611 204.207 164.424C204.047 164.231 203.831 164.081 203.557 163.974C203.284 163.867 202.967 163.794 202.607 163.754C202.254 163.707 201.881 163.674 201.487 163.654C201.101 163.634 200.711 163.614 200.317 163.594C199.924 163.574 199.557 163.534 199.217 163.474C198.964 163.574 198.727 163.691 198.507 163.824C198.294 163.951 198.111 164.097 197.957 164.264C197.804 164.424 197.684 164.601 197.597 164.794C197.511 164.994 197.467 165.211 197.467 165.444C197.467 165.737 197.541 166.007 197.687 166.254C197.841 166.507 198.061 166.724 198.347 166.904C198.641 167.091 198.997 167.237 199.417 167.344C199.837 167.451 200.321 167.504 200.867 167.504C201.374 167.504 201.844 167.447 202.277 167.334C202.717 167.221 203.097 167.061 203.417 166.854C203.744 166.647 203.997 166.401 204.177 166.114C204.364 165.827 204.457 165.514 204.457 165.174ZM200.767 160.104C201.194 160.104 201.574 160.044 201.907 159.924C202.241 159.797 202.521 159.624 202.747 159.404C202.974 159.184 203.144 158.921 203.257 158.614C203.377 158.307 203.437 157.967 203.437 157.594C203.437 157.221 203.377 156.881 203.257 156.574C203.137 156.261 202.961 155.994 202.727 155.774C202.501 155.554 202.221 155.384 201.887 155.264C201.561 155.144 201.187 155.084 200.767 155.084C200.347 155.084 199.971 155.144 199.637 155.264C199.304 155.384 199.021 155.554 198.787 155.774C198.561 155.994 198.387 156.261 198.267 156.574C198.147 156.881 198.087 157.221 198.087 157.594C198.087 157.967 198.147 158.307 198.267 158.614C198.387 158.921 198.561 159.184 198.787 159.404C199.021 159.624 199.304 159.797 199.637 159.924C199.971 160.044 200.347 160.104 200.767 160.104ZM207.585 164.504V149.954H208.535V156.254C208.995 155.687 209.518 155.237 210.105 154.904C210.698 154.564 211.362 154.394 212.095 154.394C212.642 154.394 213.122 154.481 213.535 154.654C213.955 154.827 214.302 155.077 214.575 155.404C214.848 155.731 215.055 156.124 215.195 156.584C215.335 157.044 215.405 157.564 215.405 158.144V164.504H214.455V158.144C214.455 157.211 214.242 156.481 213.815 155.954C213.388 155.421 212.735 155.154 211.855 155.154C211.202 155.154 210.595 155.324 210.035 155.664C209.475 155.997 208.975 156.457 208.535 157.044V164.504H207.585ZM221.125 164.664C220.452 164.664 219.925 164.477 219.545 164.104C219.172 163.731 218.985 163.154 218.985 162.374V155.574H217.555C217.482 155.574 217.422 155.554 217.375 155.514C217.328 155.474 217.305 155.417 217.305 155.344V154.974L219.005 154.854L219.245 151.294C219.252 151.234 219.275 151.181 219.315 151.134C219.362 151.087 219.422 151.064 219.495 151.064H219.945V154.864H223.075V155.574H219.945V162.324C219.945 162.597 219.978 162.834 220.045 163.034C220.118 163.227 220.215 163.387 220.335 163.514C220.462 163.641 220.608 163.734 220.775 163.794C220.942 163.854 221.122 163.884 221.315 163.884C221.555 163.884 221.762 163.851 221.935 163.784C222.108 163.711 222.258 163.634 222.385 163.554C222.512 163.467 222.615 163.391 222.695 163.324C222.775 163.251 222.838 163.214 222.885 163.214C222.938 163.214 222.992 163.247 223.045 163.314L223.305 163.734C223.052 164.014 222.728 164.241 222.335 164.414C221.948 164.581 221.545 164.664 221.125 164.664Z" fill="black"/>
<path d="M362.658 102.504H359.658C359.311 102.504 359.031 102.417 358.818 102.244C358.604 102.071 358.444 101.851 358.338 101.584L355.658 94.6639H342.798L340.118 101.584C340.024 101.824 339.864 102.037 339.638 102.224C339.411 102.411 339.131 102.504 338.798 102.504H335.798L347.258 73.8439H351.198L362.658 102.504ZM343.878 91.8639H354.578L350.078 80.2039C349.784 79.4839 349.498 78.5839 349.218 77.5039C349.071 78.0506 348.924 78.5572 348.778 79.0239C348.644 79.4772 348.511 79.8772 348.378 80.2239L343.878 91.8639ZM380.585 102.504H379.005C378.658 102.504 378.378 102.451 378.165 102.344C377.952 102.237 377.812 102.011 377.745 101.664L377.345 99.7839C376.812 100.264 376.292 100.697 375.785 101.084C375.278 101.457 374.745 101.777 374.185 102.044C373.625 102.297 373.025 102.491 372.385 102.624C371.758 102.757 371.058 102.824 370.285 102.824C369.498 102.824 368.758 102.717 368.065 102.504C367.385 102.277 366.792 101.944 366.285 101.504C365.778 101.064 365.372 100.511 365.065 99.8439C364.772 99.1639 364.625 98.3639 364.625 97.4439C364.625 96.6439 364.845 95.8772 365.285 95.1439C365.725 94.3972 366.432 93.7372 367.405 93.1639C368.392 92.5906 369.678 92.1239 371.265 91.7639C372.852 91.3906 374.792 91.1772 377.085 91.1239V89.5439C377.085 87.9706 376.745 86.7839 376.065 85.9839C375.398 85.1706 374.405 84.7639 373.085 84.7639C372.218 84.7639 371.485 84.8772 370.885 85.1039C370.298 85.3172 369.785 85.5639 369.345 85.8439C368.918 86.1106 368.545 86.3572 368.225 86.5839C367.918 86.7972 367.612 86.9039 367.305 86.9039C367.065 86.9039 366.852 86.8439 366.665 86.7239C366.492 86.5906 366.352 86.4306 366.245 86.2439L365.605 85.1039C366.725 84.0239 367.932 83.2172 369.225 82.6839C370.518 82.1506 371.952 81.8839 373.525 81.8839C374.658 81.8839 375.665 82.0706 376.545 82.4439C377.425 82.8172 378.165 83.3372 378.765 84.0039C379.365 84.6706 379.818 85.4772 380.125 86.4239C380.432 87.3706 380.585 88.4106 380.585 89.5439V102.504ZM371.345 100.324C371.972 100.324 372.545 100.264 373.065 100.144C373.585 100.011 374.072 99.8306 374.525 99.6039C374.992 99.3639 375.432 99.0772 375.845 98.7439C376.272 98.4106 376.685 98.0306 377.085 97.6039V93.3839C375.445 93.4372 374.052 93.5706 372.905 93.7839C371.758 93.9839 370.825 94.2506 370.105 94.5839C369.385 94.9172 368.858 95.3106 368.525 95.7639C368.205 96.2172 368.045 96.7239 368.045 97.2839C368.045 97.8172 368.132 98.2772 368.305 98.6639C368.478 99.0506 368.712 99.3706 369.005 99.6239C369.298 99.8639 369.645 100.044 370.045 100.164C370.445 100.271 370.878 100.324 371.345 100.324ZM396.533 99.7839H402.693V80.2439C402.693 79.6572 402.713 79.0639 402.753 78.4639L397.633 82.8439C397.5 82.9506 397.366 83.0306 397.233 83.0839C397.1 83.1239 396.973 83.1439 396.853 83.1439C396.653 83.1439 396.473 83.1039 396.313 83.0239C396.153 82.9306 396.033 82.8239 395.953 82.7039L394.833 81.1639L403.353 73.7839H406.253V99.7839H411.893V102.504H396.533V99.7839ZM426.016 73.5239C427.229 73.5239 428.363 73.7039 429.416 74.0639C430.469 74.4239 431.376 74.9506 432.136 75.6439C432.909 76.3239 433.516 77.1572 433.956 78.1439C434.396 79.1306 434.616 80.2506 434.616 81.5039C434.616 82.5706 434.456 83.5572 434.136 84.4639C433.816 85.3706 433.383 86.2439 432.836 87.0839C432.289 87.9106 431.656 88.7172 430.936 89.5039C430.229 90.2772 429.476 91.0706 428.676 91.8839L421.136 99.6039C421.669 99.4572 422.209 99.3439 422.756 99.2639C423.303 99.1706 423.829 99.1239 424.336 99.1239H433.936C434.323 99.1239 434.629 99.2372 434.856 99.4639C435.083 99.6906 435.196 99.9839 435.196 100.344V102.504H416.076V101.284C416.076 101.031 416.123 100.771 416.216 100.504C416.323 100.237 416.489 99.9906 416.716 99.7639L425.896 90.5439C426.656 89.7706 427.349 89.0306 427.976 88.3239C428.603 87.6039 429.136 86.8839 429.576 86.1639C430.029 85.4439 430.376 84.7172 430.616 83.9839C430.856 83.2372 430.976 82.4439 430.976 81.6039C430.976 80.7639 430.843 80.0306 430.576 79.4039C430.309 78.7639 429.943 78.2372 429.476 77.8239C429.009 77.4106 428.463 77.1039 427.836 76.9039C427.209 76.6906 426.536 76.5839 425.816 76.5839C425.096 76.5839 424.429 76.6906 423.816 76.9039C423.203 77.1172 422.656 77.4172 422.176 77.8039C421.709 78.1772 421.309 78.6239 420.976 79.1439C420.656 79.6639 420.429 80.2372 420.296 80.8639C420.189 81.2506 420.029 81.5306 419.816 81.7039C419.603 81.8772 419.323 81.9639 418.976 81.9639C418.909 81.9639 418.836 81.9639 418.756 81.9639C418.689 81.9506 418.609 81.9372 418.516 81.9239L416.656 81.6039C416.843 80.2972 417.203 79.1439 417.736 78.1439C418.269 77.1306 418.943 76.2839 419.756 75.6039C420.583 74.9239 421.523 74.4106 422.576 74.0639C423.643 73.7039 424.789 73.5239 426.016 73.5239ZM449.599 73.5239C450.813 73.5239 451.933 73.6972 452.959 74.0439C453.986 74.3906 454.866 74.8839 455.599 75.5239C456.346 76.1639 456.926 76.9372 457.339 77.8439C457.753 78.7506 457.959 79.7572 457.959 80.8639C457.959 81.7706 457.839 82.5839 457.599 83.3039C457.373 84.0106 457.039 84.6372 456.599 85.1839C456.173 85.7172 455.653 86.1706 455.039 86.5439C454.426 86.9172 453.739 87.2172 452.979 87.4439C454.846 87.9372 456.246 88.7639 457.179 89.9239C458.126 91.0839 458.599 92.5372 458.599 94.2839C458.599 95.6039 458.346 96.7906 457.839 97.8439C457.346 98.8972 456.666 99.7972 455.799 100.544C454.933 101.277 453.919 101.844 452.759 102.244C451.613 102.631 450.379 102.824 449.059 102.824C447.539 102.824 446.239 102.637 445.159 102.264C444.079 101.877 443.166 101.351 442.419 100.684C441.673 100.017 441.059 99.2306 440.579 98.3239C440.099 97.4039 439.693 96.4106 439.359 95.3439L440.879 94.7039C441.159 94.5839 441.439 94.5239 441.719 94.5239C441.986 94.5239 442.219 94.5839 442.419 94.7039C442.633 94.8106 442.793 94.9839 442.899 95.2239C442.926 95.2772 442.953 95.3372 442.979 95.4039C443.006 95.4572 443.033 95.5172 443.059 95.5839C443.246 95.9706 443.473 96.4106 443.739 96.9039C444.006 97.3839 444.366 97.8372 444.819 98.2639C445.273 98.6906 445.833 99.0506 446.499 99.3439C447.179 99.6372 448.019 99.7839 449.019 99.7839C450.019 99.7839 450.893 99.6239 451.639 99.3039C452.399 98.9706 453.026 98.5439 453.519 98.0239C454.026 97.5039 454.406 96.9239 454.659 96.2839C454.913 95.6439 455.039 95.0106 455.039 94.3839C455.039 93.6106 454.933 92.9039 454.719 92.2639C454.519 91.6239 454.146 91.0706 453.599 90.6039C453.066 90.1372 452.319 89.7706 451.359 89.5039C450.413 89.2372 449.193 89.1039 447.699 89.1039V86.5239C448.913 86.5106 449.946 86.3772 450.799 86.1239C451.666 85.8706 452.373 85.5239 452.919 85.0839C453.466 84.6439 453.859 84.1172 454.099 83.5039C454.353 82.8906 454.479 82.2106 454.479 81.4639C454.479 80.6372 454.346 79.9172 454.079 79.3039C453.826 78.6906 453.473 78.1839 453.019 77.7839C452.566 77.3839 452.026 77.0839 451.399 76.8839C450.786 76.6839 450.119 76.5839 449.399 76.5839C448.679 76.5839 448.013 76.6906 447.399 76.9039C446.786 77.1172 446.239 77.4172 445.759 77.8039C445.293 78.1772 444.899 78.6306 444.579 79.1639C444.259 79.6839 444.019 80.2506 443.859 80.8639C443.753 81.2506 443.593 81.5306 443.379 81.7039C443.166 81.8772 442.893 81.9639 442.559 81.9639C442.493 81.9639 442.419 81.9639 442.339 81.9639C442.273 81.9506 442.193 81.9372 442.099 81.9239L440.239 81.6039C440.426 80.2972 440.786 79.1439 441.319 78.1439C441.853 77.1306 442.526 76.2839 443.339 75.6039C444.166 74.9239 445.106 74.4106 446.159 74.0639C447.226 73.7039 448.373 73.5239 449.599 73.5239Z" fill="black"/>
<path d="M348.588 149.774V164.504H346.808V149.774H348.588ZM359.166 164.504H358.376C358.202 164.504 358.062 164.477 357.956 164.424C357.849 164.371 357.779 164.257 357.746 164.084L357.546 163.144C357.279 163.384 357.019 163.601 356.766 163.794C356.512 163.981 356.246 164.141 355.966 164.274C355.686 164.401 355.386 164.497 355.066 164.564C354.752 164.631 354.402 164.664 354.016 164.664C353.622 164.664 353.252 164.611 352.906 164.504C352.566 164.391 352.269 164.224 352.016 164.004C351.762 163.784 351.559 163.507 351.406 163.174C351.259 162.834 351.186 162.434 351.186 161.974C351.186 161.574 351.296 161.191 351.516 160.824C351.736 160.451 352.089 160.121 352.576 159.834C353.069 159.547 353.712 159.314 354.506 159.134C355.299 158.947 356.269 158.841 357.416 158.814V158.024C357.416 157.237 357.246 156.644 356.906 156.244C356.572 155.837 356.076 155.634 355.416 155.634C354.982 155.634 354.616 155.691 354.316 155.804C354.022 155.911 353.766 156.034 353.546 156.174C353.332 156.307 353.146 156.431 352.986 156.544C352.832 156.651 352.679 156.704 352.526 156.704C352.406 156.704 352.299 156.674 352.206 156.614C352.119 156.547 352.049 156.467 351.996 156.374L351.676 155.804C352.236 155.264 352.839 154.861 353.486 154.594C354.132 154.327 354.849 154.194 355.636 154.194C356.202 154.194 356.706 154.287 357.146 154.474C357.586 154.661 357.956 154.921 358.256 155.254C358.556 155.587 358.782 155.991 358.936 156.464C359.089 156.937 359.166 157.457 359.166 158.024V164.504ZM354.546 163.414C354.859 163.414 355.146 163.384 355.406 163.324C355.666 163.257 355.909 163.167 356.136 163.054C356.369 162.934 356.589 162.791 356.796 162.624C357.009 162.457 357.216 162.267 357.416 162.054V159.944C356.596 159.971 355.899 160.037 355.326 160.144C354.752 160.244 354.286 160.377 353.926 160.544C353.566 160.711 353.302 160.907 353.136 161.134C352.976 161.361 352.896 161.614 352.896 161.894C352.896 162.161 352.939 162.391 353.026 162.584C353.112 162.777 353.229 162.937 353.376 163.064C353.522 163.184 353.696 163.274 353.896 163.334C354.096 163.387 354.312 163.414 354.546 163.414ZM364.932 164.664C364.132 164.664 363.516 164.441 363.082 163.994C362.656 163.547 362.442 162.904 362.442 162.064V155.864H361.222C361.116 155.864 361.026 155.834 360.952 155.774C360.879 155.707 360.842 155.607 360.842 155.474V154.764L362.502 154.554L362.912 151.424C362.926 151.324 362.969 151.244 363.042 151.184C363.116 151.117 363.209 151.084 363.322 151.084H364.222V154.574H367.122V155.864H364.222V161.944C364.222 162.371 364.326 162.687 364.532 162.894C364.739 163.101 365.006 163.204 365.332 163.204C365.519 163.204 365.679 163.181 365.812 163.134C365.952 163.081 366.072 163.024 366.172 162.964C366.272 162.904 366.356 162.851 366.422 162.804C366.496 162.751 366.559 162.724 366.612 162.724C366.706 162.724 366.789 162.781 366.862 162.894L367.382 163.744C367.076 164.031 366.706 164.257 366.272 164.424C365.839 164.584 365.392 164.664 364.932 164.664ZM373.423 154.214C374.163 154.214 374.83 154.337 375.423 154.584C376.023 154.831 376.53 155.181 376.943 155.634C377.363 156.087 377.683 156.637 377.903 157.284C378.13 157.924 378.243 158.641 378.243 159.434C378.243 160.234 378.13 160.954 377.903 161.594C377.683 162.234 377.363 162.781 376.943 163.234C376.53 163.687 376.023 164.037 375.423 164.284C374.83 164.524 374.163 164.644 373.423 164.644C372.683 164.644 372.013 164.524 371.413 164.284C370.82 164.037 370.313 163.687 369.893 163.234C369.473 162.781 369.15 162.234 368.923 161.594C368.697 160.954 368.583 160.234 368.583 159.434C368.583 158.641 368.697 157.924 368.923 157.284C369.15 156.637 369.473 156.087 369.893 155.634C370.313 155.181 370.82 154.831 371.413 154.584C372.013 154.337 372.683 154.214 373.423 154.214ZM373.423 163.254C374.423 163.254 375.17 162.921 375.663 162.254C376.157 161.581 376.403 160.644 376.403 159.444C376.403 158.237 376.157 157.297 375.663 156.624C375.17 155.951 374.423 155.614 373.423 155.614C372.917 155.614 372.477 155.701 372.103 155.874C371.73 156.047 371.417 156.297 371.163 156.624C370.917 156.951 370.73 157.354 370.603 157.834C370.483 158.307 370.423 158.844 370.423 159.444C370.423 160.044 370.483 160.581 370.603 161.054C370.73 161.527 370.917 161.927 371.163 162.254C371.417 162.574 371.73 162.821 372.103 162.994C372.477 163.167 372.917 163.254 373.423 163.254ZM386.714 158.524V164.504H384.784V150.174H388.834C389.74 150.174 390.524 150.267 391.184 150.454C391.844 150.634 392.387 150.897 392.814 151.244C393.247 151.591 393.567 152.011 393.774 152.504C393.98 152.991 394.084 153.537 394.084 154.144C394.084 154.651 394.004 155.124 393.844 155.564C393.684 156.004 393.45 156.401 393.144 156.754C392.844 157.101 392.474 157.397 392.034 157.644C391.6 157.891 391.107 158.077 390.554 158.204C390.794 158.344 391.007 158.547 391.194 158.814L395.374 164.504H393.654C393.3 164.504 393.04 164.367 392.874 164.094L389.154 158.974C389.04 158.814 388.917 158.701 388.784 158.634C388.65 158.561 388.45 158.524 388.184 158.524H386.714ZM386.714 157.114H388.744C389.31 157.114 389.807 157.047 390.234 156.914C390.667 156.774 391.027 156.581 391.314 156.334C391.607 156.081 391.827 155.781 391.974 155.434C392.12 155.087 392.194 154.704 392.194 154.284C392.194 153.431 391.91 152.787 391.344 152.354C390.784 151.921 389.947 151.704 388.834 151.704H386.714V157.114ZM401.185 154.214C401.792 154.214 402.352 154.317 402.865 154.524C403.378 154.724 403.822 155.017 404.195 155.404C404.568 155.784 404.858 156.257 405.065 156.824C405.278 157.384 405.385 158.024 405.385 158.744C405.385 159.024 405.355 159.211 405.295 159.304C405.235 159.397 405.122 159.444 404.955 159.444H398.215C398.228 160.084 398.315 160.641 398.475 161.114C398.635 161.587 398.855 161.984 399.135 162.304C399.415 162.617 399.748 162.854 400.135 163.014C400.522 163.167 400.955 163.244 401.435 163.244C401.882 163.244 402.265 163.194 402.585 163.094C402.912 162.987 403.192 162.874 403.425 162.754C403.658 162.634 403.852 162.524 404.005 162.424C404.165 162.317 404.302 162.264 404.415 162.264C404.562 162.264 404.675 162.321 404.755 162.434L405.255 163.084C405.035 163.351 404.772 163.584 404.465 163.784C404.158 163.977 403.828 164.137 403.475 164.264C403.128 164.391 402.768 164.484 402.395 164.544C402.022 164.611 401.652 164.644 401.285 164.644C400.585 164.644 399.938 164.527 399.345 164.294C398.758 164.054 398.248 163.707 397.815 163.254C397.388 162.794 397.055 162.227 396.815 161.554C396.575 160.881 396.455 160.107 396.455 159.234C396.455 158.527 396.562 157.867 396.775 157.254C396.995 156.641 397.308 156.111 397.715 155.664C398.122 155.211 398.618 154.857 399.205 154.604C399.792 154.344 400.452 154.214 401.185 154.214ZM401.225 155.524C400.365 155.524 399.688 155.774 399.195 156.274C398.702 156.767 398.395 157.454 398.275 158.334H403.785C403.785 157.921 403.728 157.544 403.615 157.204C403.502 156.857 403.335 156.561 403.115 156.314C402.895 156.061 402.625 155.867 402.305 155.734C401.992 155.594 401.632 155.524 401.225 155.524ZM411.073 154.204C411.513 154.204 411.923 154.254 412.303 154.354C412.69 154.447 413.04 154.587 413.353 154.774H416.103V155.434C416.103 155.654 415.963 155.794 415.683 155.854L414.533 156.014C414.76 156.447 414.873 156.931 414.873 157.464C414.873 157.957 414.776 158.407 414.583 158.814C414.396 159.214 414.133 159.557 413.793 159.844C413.46 160.131 413.06 160.351 412.593 160.504C412.133 160.657 411.626 160.734 411.073 160.734C410.6 160.734 410.153 160.677 409.733 160.564C409.52 160.697 409.356 160.841 409.243 160.994C409.136 161.147 409.083 161.297 409.083 161.444C409.083 161.684 409.18 161.867 409.373 161.994C409.566 162.114 409.823 162.201 410.143 162.254C410.463 162.307 410.826 162.341 411.233 162.354C411.64 162.367 412.053 162.391 412.473 162.424C412.9 162.451 413.316 162.501 413.723 162.574C414.13 162.647 414.493 162.767 414.813 162.934C415.133 163.101 415.39 163.331 415.583 163.624C415.776 163.917 415.873 164.297 415.873 164.764C415.873 165.197 415.763 165.617 415.543 166.024C415.33 166.431 415.02 166.791 414.613 167.104C414.206 167.424 413.71 167.677 413.123 167.864C412.536 168.057 411.873 168.154 411.133 168.154C410.393 168.154 409.743 168.081 409.183 167.934C408.63 167.787 408.17 167.591 407.803 167.344C407.436 167.097 407.16 166.811 406.973 166.484C406.793 166.164 406.703 165.827 406.703 165.474C406.703 164.974 406.86 164.551 407.173 164.204C407.493 163.851 407.93 163.571 408.483 163.364C408.196 163.231 407.966 163.054 407.793 162.834C407.626 162.607 407.543 162.307 407.543 161.934C407.543 161.787 407.57 161.637 407.623 161.484C407.676 161.324 407.756 161.167 407.863 161.014C407.976 160.861 408.113 160.714 408.273 160.574C408.433 160.434 408.62 160.311 408.833 160.204C408.333 159.924 407.94 159.554 407.653 159.094C407.373 158.627 407.233 158.084 407.233 157.464C407.233 156.971 407.326 156.524 407.513 156.124C407.706 155.717 407.973 155.374 408.313 155.094C408.653 154.807 409.056 154.587 409.523 154.434C409.996 154.281 410.513 154.204 411.073 154.204ZM414.233 165.054C414.233 164.801 414.163 164.597 414.023 164.444C413.883 164.291 413.693 164.174 413.453 164.094C413.213 164.007 412.936 163.944 412.623 163.904C412.31 163.864 411.98 163.837 411.633 163.824C411.286 163.804 410.933 163.784 410.573 163.764C410.213 163.744 409.87 163.707 409.543 163.654C409.163 163.834 408.853 164.054 408.613 164.314C408.38 164.574 408.263 164.884 408.263 165.244C408.263 165.471 408.32 165.681 408.433 165.874C408.553 166.074 408.733 166.244 408.973 166.384C409.213 166.531 409.513 166.644 409.873 166.724C410.24 166.811 410.67 166.854 411.163 166.854C411.643 166.854 412.073 166.811 412.453 166.724C412.833 166.637 413.153 166.514 413.413 166.354C413.68 166.194 413.883 166.004 414.023 165.784C414.163 165.564 414.233 165.321 414.233 165.054ZM411.073 159.554C411.433 159.554 411.75 159.504 412.023 159.404C412.303 159.304 412.536 159.164 412.723 158.984C412.91 158.804 413.05 158.591 413.143 158.344C413.236 158.091 413.283 157.814 413.283 157.514C413.283 156.894 413.093 156.401 412.713 156.034C412.34 155.667 411.793 155.484 411.073 155.484C410.36 155.484 409.813 155.667 409.433 156.034C409.06 156.401 408.873 156.894 408.873 157.514C408.873 157.814 408.92 158.091 409.013 158.344C409.113 158.591 409.256 158.804 409.443 158.984C409.63 159.164 409.86 159.304 410.133 159.404C410.406 159.504 410.72 159.554 411.073 159.554ZM419.418 154.374V160.834C419.418 161.601 419.595 162.194 419.948 162.614C420.301 163.034 420.835 163.244 421.548 163.244C422.068 163.244 422.558 163.121 423.018 162.874C423.478 162.627 423.901 162.284 424.288 161.844V154.374H426.068V164.504H425.008C424.755 164.504 424.595 164.381 424.528 164.134L424.388 163.044C423.948 163.531 423.455 163.924 422.908 164.224C422.361 164.517 421.735 164.664 421.028 164.664C420.475 164.664 419.985 164.574 419.558 164.394C419.138 164.207 418.785 163.947 418.498 163.614C418.211 163.281 417.995 162.877 417.848 162.404C417.708 161.931 417.638 161.407 417.638 160.834V154.374H419.418ZM430.971 149.774V164.504H429.191V149.774H430.971ZM441.548 164.504H440.758C440.585 164.504 440.445 164.477 440.338 164.424C440.232 164.371 440.162 164.257 440.128 164.084L439.928 163.144C439.662 163.384 439.402 163.601 439.148 163.794C438.895 163.981 438.628 164.141 438.348 164.274C438.068 164.401 437.768 164.497 437.448 164.564C437.135 164.631 436.785 164.664 436.398 164.664C436.005 164.664 435.635 164.611 435.288 164.504C434.948 164.391 434.652 164.224 434.398 164.004C434.145 163.784 433.942 163.507 433.788 163.174C433.642 162.834 433.568 162.434 433.568 161.974C433.568 161.574 433.678 161.191 433.898 160.824C434.118 160.451 434.472 160.121 434.958 159.834C435.452 159.547 436.095 159.314 436.888 159.134C437.682 158.947 438.652 158.841 439.798 158.814V158.024C439.798 157.237 439.628 156.644 439.288 156.244C438.955 155.837 438.458 155.634 437.798 155.634C437.365 155.634 436.998 155.691 436.698 155.804C436.405 155.911 436.148 156.034 435.928 156.174C435.715 156.307 435.528 156.431 435.368 156.544C435.215 156.651 435.062 156.704 434.908 156.704C434.788 156.704 434.682 156.674 434.588 156.614C434.502 156.547 434.432 156.467 434.378 156.374L434.058 155.804C434.618 155.264 435.222 154.861 435.868 154.594C436.515 154.327 437.232 154.194 438.018 154.194C438.585 154.194 439.088 154.287 439.528 154.474C439.968 154.661 440.338 154.921 440.638 155.254C440.938 155.587 441.165 155.991 441.318 156.464C441.472 156.937 441.548 157.457 441.548 158.024V164.504ZM436.928 163.414C437.242 163.414 437.528 163.384 437.788 163.324C438.048 163.257 438.292 163.167 438.518 163.054C438.752 162.934 438.972 162.791 439.178 162.624C439.392 162.457 439.598 162.267 439.798 162.054V159.944C438.978 159.971 438.282 160.037 437.708 160.144C437.135 160.244 436.668 160.377 436.308 160.544C435.948 160.711 435.685 160.907 435.518 161.134C435.358 161.361 435.278 161.614 435.278 161.894C435.278 162.161 435.322 162.391 435.408 162.584C435.495 162.777 435.612 162.937 435.758 163.064C435.905 163.184 436.078 163.274 436.278 163.334C436.478 163.387 436.695 163.414 436.928 163.414ZM444.245 164.504V154.374H445.265C445.458 154.374 445.592 154.411 445.665 154.484C445.738 154.557 445.788 154.684 445.815 154.864L445.935 156.444C446.282 155.737 446.708 155.187 447.215 154.794C447.728 154.394 448.328 154.194 449.015 154.194C449.295 154.194 449.548 154.227 449.775 154.294C450.002 154.354 450.212 154.441 450.405 154.554L450.175 155.884C450.128 156.051 450.025 156.134 449.865 156.134C449.772 156.134 449.628 156.104 449.435 156.044C449.242 155.977 448.972 155.944 448.625 155.944C448.005 155.944 447.485 156.124 447.065 156.484C446.652 156.844 446.305 157.367 446.025 158.054V164.504H444.245Z" fill="black"/>
<path d="M579.5 102.504H575.34C574.873 102.504 574.487 102.391 574.18 102.164C573.887 101.924 573.673 101.631 573.54 101.284L571.38 95.3839H559.4L557.24 101.284C557.133 101.591 556.92 101.871 556.6 102.124C556.293 102.377 555.913 102.504 555.46 102.504H551.28L562.64 73.5839H568.14L579.5 102.504ZM560.78 91.5839H570L566.48 81.9639C566.32 81.5372 566.14 81.0372 565.94 80.4639C565.753 79.8772 565.567 79.2439 565.38 78.5639C565.193 79.2439 565.007 79.8772 564.82 80.4639C564.647 81.0506 564.473 81.5639 564.3 82.0039L560.78 91.5839ZM598.279 102.504H596.059C595.592 102.504 595.225 102.437 594.959 102.304C594.692 102.157 594.492 101.871 594.359 101.444L593.919 99.9839C593.399 100.451 592.885 100.864 592.379 101.224C591.885 101.571 591.372 101.864 590.839 102.104C590.305 102.344 589.739 102.524 589.139 102.644C588.539 102.764 587.872 102.824 587.139 102.824C586.272 102.824 585.472 102.711 584.739 102.484C584.005 102.244 583.372 101.891 582.839 101.424C582.319 100.957 581.912 100.377 581.619 99.6839C581.325 98.9906 581.179 98.1839 581.179 97.2639C581.179 96.4906 581.379 95.7306 581.779 94.9839C582.192 94.2239 582.872 93.5439 583.819 92.9439C584.765 92.3306 586.025 91.8239 587.599 91.4239C589.172 91.0239 591.125 90.7972 593.459 90.7439V89.5439C593.459 88.1706 593.165 87.1572 592.579 86.5039C592.005 85.8372 591.165 85.5039 590.059 85.5039C589.259 85.5039 588.592 85.5972 588.059 85.7839C587.525 85.9706 587.059 86.1839 586.659 86.4239C586.272 86.6506 585.912 86.8572 585.579 87.0439C585.245 87.2306 584.879 87.3239 584.479 87.3239C584.145 87.3239 583.859 87.2372 583.619 87.0639C583.379 86.8906 583.185 86.6772 583.039 86.4239L582.139 84.8439C584.499 82.6839 587.345 81.6039 590.679 81.6039C591.879 81.6039 592.945 81.8039 593.879 82.2039C594.825 82.5906 595.625 83.1372 596.279 83.8439C596.932 84.5372 597.425 85.3706 597.759 86.3439C598.105 87.3172 598.279 88.3839 598.279 89.5439V102.504ZM588.679 99.4239C589.185 99.4239 589.652 99.3772 590.079 99.2839C590.505 99.1906 590.905 99.0506 591.279 98.8639C591.665 98.6772 592.032 98.4506 592.379 98.1839C592.739 97.9039 593.099 97.5772 593.459 97.2039V93.7439C592.019 93.8106 590.812 93.9372 589.839 94.1239C588.879 94.2972 588.105 94.5239 587.519 94.8039C586.932 95.0839 586.512 95.4106 586.259 95.7839C586.019 96.1572 585.899 96.5639 585.899 97.0039C585.899 97.8706 586.152 98.4906 586.659 98.8639C587.179 99.2372 587.852 99.4239 588.679 99.4239ZM613.61 98.8039H619.47V81.9439C619.47 81.2906 619.49 80.6039 619.53 79.8839L615.37 83.3639C615.197 83.5106 615.017 83.6106 614.83 83.6639C614.657 83.7172 614.484 83.7439 614.31 83.7439C614.044 83.7439 613.797 83.6906 613.57 83.5839C613.357 83.4639 613.197 83.3306 613.09 83.1839L611.53 81.0439L620.35 73.5439H624.41V98.8039H629.61V102.504H613.61V98.8039ZM643.474 73.2639C644.807 73.2639 646.027 73.4639 647.134 73.8639C648.24 74.2506 649.187 74.8039 649.974 75.5239C650.76 76.2439 651.374 77.1106 651.814 78.1239C652.254 79.1372 652.474 80.2639 652.474 81.5039C652.474 82.5706 652.314 83.5572 651.994 84.4639C651.687 85.3706 651.267 86.2372 650.734 87.0639C650.214 87.8906 649.6 88.6906 648.894 89.4639C648.187 90.2372 647.447 91.0239 646.674 91.8239L640.154 98.4839C640.794 98.2972 641.42 98.1572 642.034 98.0639C642.647 97.9572 643.234 97.9039 643.794 97.9039H651.214C651.747 97.9039 652.167 98.0572 652.474 98.3639C652.794 98.6572 652.954 99.0506 652.954 99.5439V102.504H633.114V100.864C633.114 100.531 633.18 100.184 633.314 99.8239C633.46 99.4639 633.687 99.1306 633.994 98.8239L642.774 90.0239C643.507 89.2772 644.16 88.5639 644.734 87.8839C645.32 87.2039 645.807 86.5306 646.194 85.8639C646.594 85.1972 646.894 84.5239 647.094 83.8439C647.307 83.1506 647.414 82.4239 647.414 81.6639C647.414 80.9706 647.314 80.3639 647.114 79.8439C646.914 79.3106 646.627 78.8639 646.254 78.5039C645.88 78.1439 645.434 77.8772 644.914 77.7039C644.407 77.5172 643.834 77.4239 643.194 77.4239C642.007 77.4239 641.027 77.7239 640.254 78.3239C639.494 78.9239 638.96 79.7306 638.654 80.7439C638.507 81.2506 638.287 81.6172 637.994 81.8439C637.7 82.0572 637.327 82.1639 636.874 82.1639C636.674 82.1639 636.454 82.1439 636.214 82.1039L633.614 81.6439C633.814 80.2572 634.2 79.0439 634.774 78.0039C635.347 76.9506 636.06 76.0772 636.914 75.3839C637.78 74.6772 638.767 74.1506 639.874 73.8039C640.994 73.4439 642.194 73.2639 643.474 73.2639ZM667.137 73.2639C668.47 73.2639 669.67 73.4572 670.737 73.8439C671.817 74.2172 672.737 74.7439 673.497 75.4239C674.257 76.0906 674.837 76.8772 675.237 77.7839C675.65 78.6906 675.857 79.6706 675.857 80.7239C675.857 81.6439 675.75 82.4572 675.537 83.1639C675.337 83.8572 675.037 84.4639 674.637 84.9839C674.25 85.5039 673.77 85.9439 673.197 86.3039C672.637 86.6639 671.997 86.9639 671.277 87.2039C673.01 87.7506 674.303 88.5839 675.157 89.7039C676.01 90.8239 676.437 92.2306 676.437 93.9239C676.437 95.3639 676.17 96.6372 675.637 97.7439C675.103 98.8506 674.383 99.7839 673.477 100.544C672.57 101.291 671.517 101.857 670.317 102.244C669.13 102.631 667.87 102.824 666.537 102.824C665.083 102.824 663.817 102.657 662.737 102.324C661.657 101.991 660.717 101.497 659.917 100.844C659.117 100.191 658.437 99.3906 657.877 98.4439C657.317 97.4972 656.837 96.4039 656.437 95.1639L658.617 94.2639C658.99 94.1039 659.37 94.0239 659.757 94.0239C660.103 94.0239 660.41 94.0972 660.677 94.2439C660.957 94.3906 661.17 94.6039 661.317 94.8839C661.557 95.3506 661.817 95.8106 662.097 96.2639C662.39 96.7172 662.737 97.1239 663.137 97.4839C663.537 97.8306 664.003 98.1172 664.537 98.3439C665.083 98.5572 665.73 98.6639 666.477 98.6639C667.317 98.6639 668.05 98.5306 668.677 98.2639C669.303 97.9839 669.823 97.6239 670.237 97.1839C670.663 96.7439 670.977 96.2572 671.177 95.7239C671.39 95.1772 671.497 94.6306 671.497 94.0839C671.497 93.3906 671.423 92.7639 671.277 92.2039C671.13 91.6306 670.823 91.1439 670.357 90.7439C669.89 90.3439 669.217 90.0306 668.337 89.8039C667.47 89.5772 666.303 89.4639 664.837 89.4639V85.9439C666.05 85.9306 667.057 85.8172 667.857 85.6039C668.657 85.3906 669.29 85.0972 669.757 84.7239C670.237 84.3372 670.57 83.8772 670.757 83.3439C670.943 82.8106 671.037 82.2239 671.037 81.5839C671.037 80.2106 670.663 79.1772 669.917 78.4839C669.17 77.7772 668.15 77.4239 666.857 77.4239C665.683 77.4239 664.71 77.7372 663.937 78.3639C663.163 78.9772 662.623 79.7706 662.317 80.7439C662.157 81.2506 661.937 81.6172 661.657 81.8439C661.377 82.0572 661.01 82.1639 660.557 82.1639C660.343 82.1639 660.117 82.1439 659.877 82.1039L657.277 81.6439C657.477 80.2572 657.863 79.0439 658.437 78.0039C659.01 76.9506 659.723 76.0772 660.577 75.3839C661.443 74.6772 662.43 74.1506 663.537 73.8039C664.657 73.4439 665.857 73.2639 667.137 73.2639Z" fill="black"/>
<path d="M578.401 149.644V164.504H575.931V149.644H578.401ZM589.241 164.504H588.131C587.898 164.504 587.714 164.471 587.581 164.404C587.448 164.331 587.348 164.187 587.281 163.974L587.061 163.244C586.801 163.477 586.544 163.684 586.291 163.864C586.044 164.037 585.788 164.184 585.521 164.304C585.254 164.424 584.971 164.514 584.671 164.574C584.371 164.634 584.038 164.664 583.671 164.664C583.238 164.664 582.838 164.607 582.471 164.494C582.104 164.374 581.788 164.197 581.521 163.964C581.261 163.731 581.058 163.441 580.911 163.094C580.764 162.747 580.691 162.344 580.691 161.884C580.691 161.497 580.791 161.117 580.991 160.744C581.198 160.364 581.538 160.024 582.011 159.724C582.484 159.417 583.114 159.164 583.901 158.964C584.688 158.764 585.664 158.651 586.831 158.624V158.024C586.831 157.337 586.684 156.831 586.391 156.504C586.104 156.171 585.684 156.004 585.131 156.004C584.731 156.004 584.398 156.051 584.131 156.144C583.864 156.237 583.631 156.344 583.431 156.464C583.238 156.577 583.058 156.681 582.891 156.774C582.724 156.867 582.541 156.914 582.341 156.914C582.174 156.914 582.031 156.871 581.911 156.784C581.791 156.697 581.694 156.591 581.621 156.464L581.171 155.674C582.351 154.594 583.774 154.054 585.441 154.054C586.041 154.054 586.574 154.154 587.041 154.354C587.514 154.547 587.914 154.821 588.241 155.174C588.568 155.521 588.814 155.937 588.981 156.424C589.154 156.911 589.241 157.444 589.241 158.024V164.504ZM584.441 162.964C584.694 162.964 584.928 162.941 585.141 162.894C585.354 162.847 585.554 162.777 585.741 162.684C585.934 162.591 586.118 162.477 586.291 162.344C586.471 162.204 586.651 162.041 586.831 161.854V160.124C586.111 160.157 585.508 160.221 585.021 160.314C584.541 160.401 584.154 160.514 583.861 160.654C583.568 160.794 583.358 160.957 583.231 161.144C583.111 161.331 583.051 161.534 583.051 161.754C583.051 162.187 583.178 162.497 583.431 162.684C583.691 162.871 584.028 162.964 584.441 162.964ZM595.04 164.664C594.153 164.664 593.47 164.414 592.99 163.914C592.51 163.407 592.27 162.711 592.27 161.824V156.094H591.23C591.096 156.094 590.98 156.051 590.88 155.964C590.786 155.877 590.74 155.747 590.74 155.574V154.594L592.39 154.324L592.91 151.524C592.936 151.391 592.996 151.287 593.09 151.214C593.19 151.141 593.313 151.104 593.46 151.104H594.74V154.334H597.44V156.094H594.74V161.654C594.74 161.974 594.82 162.224 594.98 162.404C595.14 162.584 595.353 162.674 595.62 162.674C595.773 162.674 595.9 162.657 596 162.624C596.106 162.584 596.196 162.544 596.27 162.504C596.35 162.464 596.42 162.427 596.48 162.394C596.54 162.354 596.6 162.334 596.66 162.334C596.733 162.334 596.793 162.354 596.84 162.394C596.886 162.427 596.936 162.481 596.99 162.554L597.73 163.754C597.37 164.054 596.956 164.281 596.49 164.434C596.023 164.587 595.54 164.664 595.04 164.664ZM603.784 154.084C604.551 154.084 605.244 154.207 605.864 154.454C606.491 154.701 607.024 155.051 607.464 155.504C607.904 155.957 608.244 156.511 608.484 157.164C608.724 157.817 608.844 158.547 608.844 159.354C608.844 160.167 608.724 160.901 608.484 161.554C608.244 162.207 607.904 162.764 607.464 163.224C607.024 163.684 606.491 164.037 605.864 164.284C605.244 164.531 604.551 164.654 603.784 164.654C603.017 164.654 602.321 164.531 601.694 164.284C601.067 164.037 600.531 163.684 600.084 163.224C599.644 162.764 599.301 162.207 599.054 161.554C598.814 160.901 598.694 160.167 598.694 159.354C598.694 158.547 598.814 157.817 599.054 157.164C599.301 156.511 599.644 155.957 600.084 155.504C600.531 155.051 601.067 154.701 601.694 154.454C602.321 154.207 603.017 154.084 603.784 154.084ZM603.784 162.754C604.637 162.754 605.267 162.467 605.674 161.894C606.087 161.321 606.294 160.481 606.294 159.374C606.294 158.267 606.087 157.424 605.674 156.844C605.267 156.264 604.637 155.974 603.784 155.974C602.917 155.974 602.277 156.267 601.864 156.854C601.451 157.434 601.244 158.274 601.244 159.374C601.244 160.474 601.451 161.314 601.864 161.894C602.277 162.467 602.917 162.754 603.784 162.754ZM614.778 164.504V150.044H619.768C620.715 150.044 621.522 150.134 622.188 150.314C622.862 150.494 623.412 150.751 623.838 151.084C624.272 151.417 624.588 151.821 624.788 152.294C624.988 152.767 625.088 153.301 625.088 153.894C625.088 154.234 625.038 154.561 624.938 154.874C624.838 155.181 624.682 155.471 624.468 155.744C624.262 156.011 623.995 156.254 623.668 156.474C623.348 156.694 622.965 156.881 622.518 157.034C624.505 157.481 625.498 158.554 625.498 160.254C625.498 160.867 625.382 161.434 625.148 161.954C624.915 162.474 624.575 162.924 624.128 163.304C623.682 163.677 623.132 163.971 622.478 164.184C621.825 164.397 621.078 164.504 620.238 164.504H614.778ZM617.468 158.164V162.404H620.198C620.698 162.404 621.115 162.344 621.448 162.224C621.788 162.104 622.058 161.944 622.258 161.744C622.465 161.544 622.612 161.311 622.698 161.044C622.792 160.777 622.838 160.494 622.838 160.194C622.838 159.881 622.788 159.601 622.688 159.354C622.588 159.101 622.432 158.887 622.218 158.714C622.005 158.534 621.732 158.397 621.398 158.304C621.065 158.211 620.662 158.164 620.188 158.164H617.468ZM617.468 156.304H619.618C620.532 156.304 621.225 156.137 621.698 155.804C622.172 155.471 622.408 154.941 622.408 154.214C622.408 153.461 622.195 152.924 621.768 152.604C621.342 152.284 620.675 152.124 619.768 152.124H617.468V156.304ZM632.046 154.084C632.812 154.084 633.506 154.207 634.126 154.454C634.752 154.701 635.286 155.051 635.726 155.504C636.166 155.957 636.506 156.511 636.746 157.164C636.986 157.817 637.106 158.547 637.106 159.354C637.106 160.167 636.986 160.901 636.746 161.554C636.506 162.207 636.166 162.764 635.726 163.224C635.286 163.684 634.752 164.037 634.126 164.284C633.506 164.531 632.812 164.654 632.046 164.654C631.279 164.654 630.582 164.531 629.956 164.284C629.329 164.037 628.792 163.684 628.346 163.224C627.906 162.764 627.562 162.207 627.316 161.554C627.076 160.901 626.956 160.167 626.956 159.354C626.956 158.547 627.076 157.817 627.316 157.164C627.562 156.511 627.906 155.957 628.346 155.504C628.792 155.051 629.329 154.701 629.956 154.454C630.582 154.207 631.279 154.084 632.046 154.084ZM632.046 162.754C632.899 162.754 633.529 162.467 633.936 161.894C634.349 161.321 634.556 160.481 634.556 159.374C634.556 158.267 634.349 157.424 633.936 156.844C633.529 156.264 632.899 155.974 632.046 155.974C631.179 155.974 630.539 156.267 630.126 156.854C629.712 157.434 629.506 158.274 629.506 159.374C629.506 160.474 629.712 161.314 630.126 161.894C630.539 162.467 631.179 162.754 632.046 162.754ZM641.663 149.644V164.504H639.193V149.644H641.663ZM651.683 164.504C651.363 164.504 651.153 164.354 651.053 164.054L650.853 163.064C650.639 163.304 650.416 163.521 650.183 163.714C649.949 163.907 649.696 164.074 649.423 164.214C649.156 164.354 648.866 164.461 648.553 164.534C648.246 164.614 647.913 164.654 647.553 164.654C646.993 164.654 646.479 164.537 646.013 164.304C645.546 164.071 645.143 163.734 644.803 163.294C644.469 162.847 644.209 162.297 644.023 161.644C643.843 160.991 643.753 160.244 643.753 159.404C643.753 158.644 643.856 157.937 644.063 157.284C644.269 156.631 644.566 156.064 644.953 155.584C645.339 155.104 645.803 154.731 646.343 154.464C646.883 154.191 647.489 154.054 648.163 154.054C648.736 154.054 649.226 154.147 649.633 154.334C650.039 154.514 650.403 154.757 650.723 155.064V149.644H653.193V164.504H651.683ZM648.393 162.694C648.906 162.694 649.343 162.587 649.703 162.374C650.063 162.161 650.403 161.857 650.723 161.464V156.864C650.443 156.524 650.136 156.284 649.803 156.144C649.476 156.004 649.123 155.934 648.743 155.934C648.369 155.934 648.029 156.004 647.723 156.144C647.423 156.284 647.166 156.497 646.953 156.784C646.746 157.064 646.586 157.424 646.473 157.864C646.359 158.297 646.303 158.811 646.303 159.404C646.303 160.004 646.349 160.514 646.443 160.934C646.543 161.347 646.683 161.687 646.863 161.954C647.043 162.214 647.263 162.404 647.523 162.524C647.783 162.637 648.073 162.694 648.393 162.694Z" fill="black"/>
</g>
<defs>
<filter id="filter0_d_219_5689" x="0" y="0.503906" width="807" height="250" filterUnits="userSpaceOnUse" color-interpolation-filters="sRGB">
<feFlood flood-opacity="0" result="BackgroundImageFix"/>
<feColorMatrix in="SourceAlpha" type="matrix" values="0 0 0 0 0 0 0 0 0 0 0 0 0 0 0 0 0 0 127 0" result="hardAlpha"/>
<feOffset dy="4"/>
<feGaussianBlur stdDeviation="16"/>
<feComposite in2="hardAlpha" operator="out"/>
<feColorMatrix type="matrix" values="0 0 0 0 0.492708 0 0 0 0 0.515104 0 0 0 0 0.5375 0 0 0 0.25 0"/>
<feBlend mode="normal" in2="BackgroundImageFix" result="effect1_dropShadow_219_5689"/>
<feBlend mode="normal" in="SourceGraphic" in2="effect1_dropShadow_219_5689" result="shape"/>
</filter>
</defs>
</svg>
