<svg width="176" height="185" viewBox="0 0 176 185" fill="none" xmlns="http://www.w3.org/2000/svg">
<rect width="176" height="185" rx="8" fill="#20262F"/>
<path d="M49.4411 145.364H51.9013V152.92C51.9013 153.769 51.6986 154.511 51.2933 155.148C50.8918 155.784 50.3293 156.28 49.6058 156.636C48.8823 156.989 48.0395 157.165 47.0774 157.165C46.1115 157.165 45.2668 156.989 44.5433 156.636C43.8198 156.28 43.2573 155.784 42.8558 155.148C42.4543 154.511 42.2536 153.769 42.2536 152.92V145.364H44.7138V152.71C44.7138 153.153 44.8104 153.547 45.0036 153.892C45.2005 154.237 45.477 154.508 45.8331 154.705C46.1892 154.902 46.6039 155 47.0774 155C47.5547 155 47.9695 154.902 48.3217 154.705C48.6778 154.508 48.9524 154.237 49.1456 153.892C49.3426 153.547 49.4411 153.153 49.4411 152.71V145.364ZM56.3004 151.955V157H53.88V148.273H56.1868V149.812H56.2891C56.4822 149.305 56.8061 148.903 57.2607 148.608C57.7152 148.309 58.2663 148.159 58.9141 148.159C59.5201 148.159 60.0485 148.292 60.4993 148.557C60.95 148.822 61.3004 149.201 61.5504 149.693C61.8004 150.182 61.9254 150.765 61.9254 151.443V157H59.505V151.875C59.5088 151.341 59.3724 150.924 59.0959 150.625C58.8194 150.322 58.4387 150.17 57.9538 150.17C57.6281 150.17 57.3402 150.241 57.0902 150.381C56.844 150.521 56.6508 150.725 56.5107 150.994C56.3743 151.259 56.3042 151.58 56.3004 151.955ZM67.049 157.142C66.3861 157.142 65.7857 156.972 65.2479 156.631C64.7138 156.286 64.2895 155.78 63.9751 155.114C63.6645 154.443 63.5092 153.621 63.5092 152.648C63.5092 151.648 63.6702 150.816 63.9922 150.153C64.3142 149.487 64.7422 148.989 65.2763 148.659C65.8142 148.326 66.4032 148.159 67.0433 148.159C67.532 148.159 67.9392 148.242 68.2649 148.409C68.5945 148.572 68.8596 148.777 69.0604 149.023C69.2649 149.265 69.4202 149.504 69.5263 149.739H69.6001V145.364H72.0149V157H69.6286V155.602H69.5263C69.4126 155.845 69.2517 156.085 69.0433 156.324C68.8388 156.559 68.5717 156.754 68.2422 156.909C67.9164 157.064 67.5187 157.142 67.049 157.142ZM67.8161 155.216C68.2062 155.216 68.5357 155.11 68.8047 154.898C69.0774 154.682 69.2857 154.381 69.4297 153.994C69.5774 153.608 69.6513 153.155 69.6513 152.636C69.6513 152.117 69.5793 151.667 69.4354 151.284C69.2914 150.902 69.0831 150.606 68.8104 150.398C68.5376 150.189 68.2062 150.085 67.8161 150.085C67.4183 150.085 67.0831 150.193 66.8104 150.409C66.5376 150.625 66.3312 150.924 66.1911 151.307C66.0509 151.689 65.9808 152.133 65.9808 152.636C65.9808 153.144 66.0509 153.593 66.1911 153.983C66.335 154.369 66.5414 154.672 66.8104 154.892C67.0831 155.108 67.4183 155.216 67.8161 155.216ZM77.9822 157.17C77.0845 157.17 76.3118 156.989 75.6641 156.625C75.0201 156.258 74.5239 155.739 74.1754 155.068C73.8269 154.394 73.6527 153.597 73.6527 152.676C73.6527 151.778 73.8269 150.991 74.1754 150.312C74.5239 149.634 75.0144 149.106 75.647 148.727C76.2834 148.348 77.0296 148.159 77.8857 148.159C78.4614 148.159 78.9974 148.252 79.4936 148.438C79.9936 148.619 80.4292 148.894 80.8004 149.261C81.1754 149.629 81.4671 150.091 81.6754 150.648C81.8838 151.201 81.9879 151.848 81.9879 152.591V153.256H74.6186V151.756H79.7095C79.7095 151.407 79.6338 151.098 79.4822 150.83C79.3307 150.561 79.1205 150.35 78.8516 150.199C78.5864 150.044 78.2777 149.966 77.9254 149.966C77.558 149.966 77.2322 150.051 76.9482 150.222C76.6679 150.388 76.4482 150.614 76.2891 150.898C76.13 151.178 76.0485 151.491 76.0447 151.835V153.261C76.0447 153.693 76.1243 154.066 76.2834 154.381C76.4463 154.695 76.6754 154.938 76.9709 155.108C77.2663 155.278 77.6167 155.364 78.022 155.364C78.291 155.364 78.5372 155.326 78.7607 155.25C78.9841 155.174 79.1754 155.061 79.3345 154.909C79.4936 154.758 79.6148 154.572 79.6982 154.352L81.9368 154.5C81.8232 155.038 81.5902 155.508 81.2379 155.909C80.8894 156.307 80.4387 156.617 79.8857 156.841C79.3364 157.061 78.7019 157.17 77.9822 157.17ZM83.5675 157V148.273H85.9141V149.795H86.005C86.1641 149.254 86.4311 148.845 86.8061 148.568C87.1811 148.288 87.6129 148.148 88.1016 148.148C88.2228 148.148 88.3535 148.155 88.4936 148.17C88.6338 148.186 88.7569 148.206 88.8629 148.233V150.381C88.7493 150.347 88.5921 150.316 88.3913 150.29C88.1906 150.263 88.0069 150.25 87.8402 150.25C87.4841 150.25 87.166 150.328 86.8857 150.483C86.6091 150.634 86.3894 150.847 86.2266 151.119C86.0675 151.392 85.9879 151.706 85.9879 152.062V157H83.5675ZM97.3757 150.761L95.1598 150.898C95.1219 150.708 95.0405 150.538 94.9155 150.386C94.7905 150.231 94.6257 150.108 94.4212 150.017C94.2204 149.922 93.9799 149.875 93.6996 149.875C93.3246 149.875 93.0083 149.955 92.7507 150.114C92.4931 150.269 92.3643 150.477 92.3643 150.739C92.3643 150.947 92.4477 151.123 92.6143 151.267C92.781 151.411 93.067 151.527 93.4723 151.614L95.0518 151.932C95.9003 152.106 96.5329 152.386 96.9496 152.773C97.3662 153.159 97.5746 153.667 97.5746 154.295C97.5746 154.867 97.406 155.369 97.0689 155.801C96.7356 156.233 96.2772 156.57 95.6939 156.812C95.1143 157.051 94.4458 157.17 93.6882 157.17C92.5329 157.17 91.6125 156.93 90.9268 156.449C90.245 155.964 89.8454 155.305 89.728 154.472L92.1087 154.347C92.1806 154.699 92.3549 154.968 92.6314 155.153C92.9079 155.335 93.2621 155.426 93.6939 155.426C94.1181 155.426 94.459 155.345 94.7166 155.182C94.978 155.015 95.1106 154.801 95.1143 154.54C95.1106 154.32 95.0178 154.14 94.8359 154C94.6541 153.856 94.3738 153.746 93.995 153.67L92.4837 153.369C91.6314 153.199 90.9969 152.903 90.5803 152.483C90.1674 152.062 89.9609 151.527 89.9609 150.875C89.9609 150.314 90.1125 149.831 90.4155 149.426C90.7223 149.021 91.1522 148.708 91.7053 148.489C92.2621 148.269 92.9136 148.159 93.6598 148.159C94.7621 148.159 95.6295 148.392 96.2621 148.858C96.8984 149.324 97.2696 149.958 97.3757 150.761ZM103.741 148.273V150.091H98.4851V148.273H103.741ZM99.6783 146.182H102.099V154.318C102.099 154.542 102.133 154.716 102.201 154.841C102.269 154.962 102.364 155.047 102.485 155.097C102.61 155.146 102.754 155.17 102.917 155.17C103.031 155.17 103.144 155.161 103.258 155.142C103.371 155.119 103.459 155.102 103.519 155.091L103.9 156.892C103.779 156.93 103.608 156.973 103.388 157.023C103.169 157.076 102.902 157.108 102.587 157.119C102.004 157.142 101.493 157.064 101.053 156.886C100.618 156.708 100.279 156.432 100.036 156.057C99.7938 155.682 99.6745 155.208 99.6783 154.636V146.182ZM107.806 157.165C107.249 157.165 106.753 157.068 106.317 156.875C105.882 156.678 105.537 156.388 105.283 156.006C105.033 155.619 104.908 155.138 104.908 154.562C104.908 154.078 104.997 153.67 105.175 153.341C105.353 153.011 105.596 152.746 105.903 152.545C106.21 152.345 106.558 152.193 106.948 152.091C107.342 151.989 107.755 151.917 108.187 151.875C108.694 151.822 109.103 151.773 109.414 151.727C109.725 151.678 109.95 151.606 110.09 151.511C110.23 151.417 110.3 151.277 110.3 151.091V151.057C110.3 150.697 110.187 150.419 109.96 150.222C109.736 150.025 109.418 149.926 109.005 149.926C108.569 149.926 108.223 150.023 107.965 150.216C107.708 150.405 107.537 150.644 107.454 150.932L105.215 150.75C105.329 150.22 105.552 149.761 105.886 149.375C106.219 148.985 106.649 148.686 107.175 148.477C107.706 148.265 108.319 148.159 109.016 148.159C109.501 148.159 109.965 148.216 110.408 148.33C110.855 148.443 111.251 148.619 111.596 148.858C111.944 149.097 112.219 149.403 112.42 149.778C112.621 150.15 112.721 150.595 112.721 151.114V157H110.425V155.79H110.357C110.217 156.062 110.03 156.303 109.795 156.511C109.56 156.716 109.278 156.877 108.948 156.994C108.619 157.108 108.238 157.165 107.806 157.165ZM108.499 155.494C108.855 155.494 109.17 155.424 109.442 155.284C109.715 155.14 109.929 154.947 110.085 154.705C110.24 154.462 110.317 154.187 110.317 153.881V152.955C110.242 153.004 110.138 153.049 110.005 153.091C109.876 153.129 109.73 153.165 109.567 153.199C109.405 153.229 109.242 153.258 109.079 153.284C108.916 153.307 108.768 153.328 108.636 153.347C108.352 153.388 108.103 153.455 107.891 153.545C107.679 153.636 107.514 153.759 107.397 153.915C107.28 154.066 107.221 154.256 107.221 154.483C107.221 154.812 107.34 155.064 107.579 155.239C107.821 155.409 108.128 155.494 108.499 155.494ZM117.019 151.955V157H114.599V148.273H116.906V149.812H117.008C117.201 149.305 117.525 148.903 117.979 148.608C118.434 148.309 118.985 148.159 119.633 148.159C120.239 148.159 120.767 148.292 121.218 148.557C121.669 148.822 122.019 149.201 122.269 149.693C122.519 150.182 122.644 150.765 122.644 151.443V157H120.224V151.875C120.228 151.341 120.091 150.924 119.815 150.625C119.538 150.322 119.157 150.17 118.673 150.17C118.347 150.17 118.059 150.241 117.809 150.381C117.563 150.521 117.37 150.725 117.229 150.994C117.093 151.259 117.023 151.58 117.019 151.955ZM127.768 157.142C127.105 157.142 126.504 156.972 125.967 156.631C125.433 156.286 125.008 155.78 124.694 155.114C124.383 154.443 124.228 153.621 124.228 152.648C124.228 151.648 124.389 150.816 124.711 150.153C125.033 149.487 125.461 148.989 125.995 148.659C126.533 148.326 127.122 148.159 127.762 148.159C128.251 148.159 128.658 148.242 128.984 148.409C129.313 148.572 129.578 148.777 129.779 149.023C129.984 149.265 130.139 149.504 130.245 149.739H130.319V145.364H132.734V157H130.347V155.602H130.245C130.131 155.845 129.97 156.085 129.762 156.324C129.558 156.559 129.29 156.754 128.961 156.909C128.635 157.064 128.237 157.142 127.768 157.142ZM128.535 155.216C128.925 155.216 129.254 155.11 129.523 154.898C129.796 154.682 130.004 154.381 130.148 153.994C130.296 153.608 130.37 153.155 130.37 152.636C130.37 152.117 130.298 151.667 130.154 151.284C130.01 150.902 129.802 150.606 129.529 150.398C129.256 150.189 128.925 150.085 128.535 150.085C128.137 150.085 127.802 150.193 127.529 150.409C127.256 150.625 127.05 150.924 126.91 151.307C126.77 151.689 126.7 152.133 126.7 152.636C126.7 153.144 126.77 153.593 126.91 153.983C127.054 154.369 127.26 154.672 127.529 154.892C127.802 155.108 128.137 155.216 128.535 155.216Z" fill="white"/>
<g clip-path="url(#clip0_123_14779)">
<path d="M91.6016 75.248C92.2912 75.3282 93.033 75.4052 93.0303 75.3586C93.0419 75.5581 93.053 75.765 93.0667 75.9772C93.053 75.7676 93.0419 75.5581 93.0303 75.3586C93.0293 75.3586 92.4039 75.313 91.6016 75.248Z" fill="#DDEEF5"/>
<path d="M105.133 88.5837C105.082 88.5397 105.029 88.499 104.973 88.4617C105.029 88.4992 105.082 88.54 105.133 88.5837Z" fill="#DDEEF5"/>
<path d="M100.843 50.7326V61.4529H93.9234C93.913 61.7755 93.8791 62.0969 93.8217 62.4145C93.208 65.7264 91.2265 68.9519 89.2103 71.6017C88.8415 72.0872 88.4459 72.5869 88.3284 73.184C88.0908 74.3981 89.0913 74.8203 90.0438 75.0262C91.3988 74.6962 92.8734 73.8906 94.2506 73.9545C94.3767 73.9616 94.4975 74.0071 94.5967 74.0849C94.6443 74.1204 94.6836 74.1657 94.712 74.2177C94.7403 74.2696 94.7571 74.3271 94.7611 74.3861C94.7663 74.5197 94.6989 74.6443 94.6267 74.7569C94.2458 75.3509 93.6895 75.6856 93.0636 75.9774C93.1969 78.2464 93.3966 81.1371 93.6811 83.2616C93.8707 84.6758 93.8918 87.3471 95.4581 88.0458C95.8174 88.2066 96.2209 88.2349 96.6171 88.2553C98.3235 88.3435 100.034 88.3348 101.739 88.2291C102.315 88.1946 103.026 88.072 103.695 88.0966C103.681 88.0966 103.67 88.0966 103.656 88.0935C104.552 88.139 106.525 87.9363 107.288 87.8316C108.43 87.6797 109.566 87.492 110.696 87.2685C112.92 86.8302 115.114 86.2555 117.267 85.5479C119.736 84.7355 122.143 83.7482 124.47 82.5938C119.149 88.689 113.786 94.8293 107.357 99.7576C106.546 100.38 105.707 100.988 104.776 101.4C104.619 101.879 104.45 102.358 104.27 102.837C104.161 103.128 105.762 103.571 105.923 103.623C110.159 105.03 114.697 105.133 119.117 104.912C121.152 104.799 123.155 104.231 125.053 103.515C126.604 102.93 127.796 102.555 129.057 101.405C129.215 101.26 129.378 101.106 129.439 100.903C129.5 100.7 129.448 100.488 129.396 100.286C128.665 97.4241 127.775 94.592 127.315 91.6735C126.606 87.169 127.459 83.4444 129.731 79.5218C132.162 75.3226 134.052 72.6513 135.814 68.119C137.641 63.4281 138.711 57.7791 137.461 52.8676C136.99 51.0233 136.395 49.1979 135.49 47.525C133.225 43.3394 129.11 40.3361 124.604 38.7532C117.996 36.4308 109.613 36.204 103.236 39.3519C100.942 40.4838 98.9763 42.1463 97.4458 44.1419L103.439 49.0906L100.843 50.7326ZM107.146 64.8899C108.636 64.6673 110.403 63.8073 111.001 62.3391C111.154 61.9625 111.774 62.1296 111.619 62.5083C111.311 63.2667 110.773 63.8701 110.115 64.3515C108.928 65.2231 107.323 65.729 105.848 65.5426C104.373 65.3561 102.7 64.3661 102.663 62.7367C102.654 62.3255 103.295 62.3271 103.305 62.7367C103.345 64.5076 105.721 65.1021 107.146 64.8899Z" fill="#DDEEF5"/>
<path d="M124.472 82.5938C122.144 83.7492 119.736 84.7373 117.267 85.5505C115.114 86.2581 112.92 86.8328 110.696 87.2711C109.566 87.4946 108.43 87.6823 107.288 87.8342C106.525 87.9342 104.549 88.139 103.656 88.0961C103.67 88.0961 103.682 88.0961 103.695 88.0992C104.327 88.138 104.718 88.2904 104.974 88.4659C105.03 88.5032 105.084 88.5439 105.135 88.5879C106.124 89.4642 106.313 91.6693 106.347 92.8829C106.393 94.4454 106.13 96.002 105.811 97.5331C105.541 98.8427 105.195 100.135 104.774 101.405C105.706 100.993 106.545 100.385 107.355 99.7623C113.787 94.8298 119.155 88.6895 124.472 82.5938Z" fill="#9CD8F7"/>
<path d="M94.6259 74.7567C94.698 74.6441 94.7655 74.5194 94.7602 74.3859C94.7562 74.3269 94.7394 74.2694 94.7111 74.2174C94.6827 74.1655 94.6434 74.1202 94.5958 74.0847C94.4967 74.0069 94.3758 73.9614 94.2497 73.9543C92.8725 73.8904 91.3979 74.6959 90.0429 75.0259C89.9607 75.0458 89.878 75.0647 89.7969 75.0783C90.3832 75.1406 91.0339 75.1988 91.5976 75.2454C92.401 75.3119 93.0264 75.3559 93.0264 75.3559C93.038 75.5555 93.049 75.7624 93.0627 75.9745C93.6886 75.6854 94.245 75.3507 94.6259 74.7567Z" fill="#9CD8F7"/>
<path d="M71.0279 88.46C70.9719 88.4974 70.9182 88.5382 70.8672 88.582C70.9183 88.5383 70.972 88.4975 71.0279 88.46Z" fill="#F9D697"/>
<path d="M82.9336 75.9772C82.9473 75.7676 82.9584 75.5581 82.9699 75.3586C82.9673 75.4026 83.7075 75.3282 84.3987 75.248C83.5953 75.3146 82.9699 75.3586 82.9699 75.3586C82.9584 75.5581 82.9473 75.765 82.9336 75.9772Z" fill="#F9D697"/>
<path d="M46.2713 79.5224C48.5436 83.4434 49.3965 87.1654 48.6874 91.6741C48.2275 94.5926 47.3376 97.4247 46.6064 100.287C46.5537 100.489 46.5047 100.706 46.5637 100.904C46.6227 101.102 46.7887 101.261 46.9462 101.405C48.2048 102.558 49.397 102.93 50.9501 103.515C52.8468 104.231 54.8487 104.8 56.886 104.912C61.3057 105.133 65.8423 105.031 70.0796 103.624C70.2408 103.571 71.8413 103.13 71.7328 102.838C71.5526 102.358 71.384 101.878 71.2271 101.401C70.2946 100.989 69.4553 100.38 68.6455 99.7581C62.2181 94.8299 56.8512 88.6896 51.5323 82.5943C53.86 83.7498 56.2681 84.7379 58.7379 85.5511C60.8903 86.2587 63.0847 86.8334 65.3086 87.2717C66.4381 87.4952 67.574 87.6829 68.7161 87.8348C69.4795 87.9348 71.4557 88.1396 72.3482 88.0967C72.3345 88.0967 72.3229 88.0967 72.3097 88.0998C72.9783 88.0736 73.6895 88.1978 74.2653 88.2323C75.9707 88.3379 77.6808 88.3467 79.3872 88.2585C79.7818 88.2376 80.1854 88.2093 80.5463 88.049C82.1126 87.3508 82.1336 84.6811 82.3233 83.2648C82.6078 81.1403 82.8075 78.2496 82.9408 75.9805C82.3149 75.6888 81.7585 75.352 81.3776 74.7601C81.3054 74.6475 81.238 74.5229 81.2433 74.3893C81.2473 74.3303 81.264 74.2728 81.2924 74.2209C81.3208 74.1689 81.3601 74.1236 81.4077 74.0881C81.5068 74.0103 81.6277 73.9648 81.7538 73.9577C83.1309 73.8938 84.6056 74.6994 85.9606 75.0294C86.9131 74.8235 87.9136 74.4008 87.676 73.1872C87.5585 72.5901 87.1633 72.0904 86.794 71.6049C85.1666 69.4663 83.564 66.9537 82.6847 64.3243V65.4609L69.704 57.2627L74.524 53.2819H72.3002V42.3873H77.0007C75.7609 41.1569 74.3302 40.1327 72.7633 39.354C66.3859 36.2056 58.0034 36.4324 51.3953 38.7533C46.8914 40.3346 42.7742 43.3379 40.5125 47.5224C39.6073 49.1985 39.0131 51.0223 38.5421 52.865C37.2893 57.7765 38.3619 63.4255 40.189 68.1165C41.9534 72.6519 43.8405 75.3232 46.2713 79.5224ZM63.9414 62.3381C64.5383 63.8047 66.3064 64.6663 67.7958 64.8889C69.2209 65.1021 71.5969 64.5076 71.6359 62.7367C71.6454 62.3261 72.2865 62.3261 72.2776 62.7367C72.2575 63.6533 71.7328 64.3709 70.9731 64.8528C69.656 65.6908 68.0813 65.7432 66.623 65.2608C65.2369 64.8025 63.8866 63.8937 63.3224 62.5073C63.167 62.1265 63.7881 61.962 63.9414 62.3381Z" fill="#F9D697"/>
<path d="M68.7112 87.8347C67.569 87.6828 66.4331 87.4951 65.3036 87.2716C63.0798 86.8333 60.8854 86.2587 58.7329 85.551C56.2631 84.7376 53.8551 83.7493 51.5273 82.5938C56.8484 88.689 62.2121 94.8293 68.6406 99.7576C69.4519 100.38 70.2912 100.988 71.2221 101.4C70.8007 100.131 70.4543 98.8379 70.1848 97.5283C69.8687 95.9973 69.6052 94.438 69.649 92.8782C69.6848 91.6646 69.8739 89.4595 70.8607 88.5832C70.9117 88.5394 70.9654 88.4986 71.0214 88.4612C71.2779 88.2878 71.6673 88.1354 72.3011 88.0945C72.3142 88.0945 72.3258 88.0945 72.3395 88.0914C71.4486 88.1396 69.4746 87.9363 68.7112 87.8347Z" fill="#F9B233"/>
<path d="M81.7491 73.9543C81.623 73.9614 81.5021 74.0069 81.4029 74.0847C81.3554 74.1202 81.3161 74.1655 81.2877 74.2174C81.2593 74.2694 81.2426 74.3269 81.2386 74.3859C81.2333 74.5194 81.3007 74.6441 81.3729 74.7567C81.7538 75.3507 82.3102 75.6854 82.936 75.9771C82.9497 75.7676 82.9608 75.5581 82.9724 75.3585C82.9724 75.3585 83.5977 75.3145 84.4012 75.248C84.9649 75.2014 85.6129 75.1433 86.2024 75.0809C86.1208 75.0647 86.0381 75.0458 85.9559 75.0285C84.6008 74.6959 83.1262 73.8904 81.7491 73.9543Z" fill="#F9B233"/>
<path d="M78.9112 61.4527V53.2817H74.5237L69.7031 57.262L82.677 65.4602V64.3189V61.4527H78.9112Z" fill="#DDEEF5"/>
<path d="M100.842 50.7324L90.4653 57.2896V53.2817H78.9102V61.4527H82.676H93.9229H100.842V50.7324Z" fill="#DDEEF5"/>
<path d="M94.2301 53.2818H90.4648V57.2898L100.842 50.7326L103.438 49.0916L97.4449 44.1429L90.4648 38.3787V42.3866H94.2301V53.2818Z" fill="#F9D697"/>
<path d="M72.3008 53.2817H74.5246H78.9121H90.4672H94.2325V42.3865H90.4672H77.0007H72.3008V53.2817Z" fill="#F9D697"/>
<path d="M102.664 62.7365C102.7 64.366 104.373 65.3554 105.847 65.5414C107.322 65.7273 108.928 65.2219 110.115 64.3503C110.772 63.8679 111.31 63.2656 111.619 62.5071C111.774 62.1269 111.153 61.9613 111 62.3379C110.403 63.8045 108.635 64.6661 107.146 64.8888C105.723 65.1019 103.344 64.5074 103.305 62.7365C103.296 62.3269 102.656 62.3233 102.664 62.7365Z" fill="#202448"/>
<path d="M66.6221 65.2607C68.0804 65.7436 69.653 65.6886 70.9722 64.8527C71.7319 64.3708 72.2566 63.6532 72.2767 62.7366C72.2856 62.326 71.6444 62.326 71.635 62.7366C71.596 64.5075 69.2199 65.102 67.7949 64.8888C66.3055 64.6662 64.5374 63.8062 63.9405 62.338C63.7877 61.9619 63.1666 62.1285 63.3215 62.5072C63.8884 63.8947 65.236 64.8024 66.6221 65.2607Z" fill="#202448"/>
</g>
<defs>
<clipPath id="clip0_123_14779">
<rect width="100" height="68" fill="white" transform="translate(38 37)"/>
</clipPath>
</defs>
</svg>
